<?xml version="1.0" encoding="utf-8"?>
<!-- Generator: Adobe Illustrator 16.0.0, SVG Export Plug-In . SVG Version: 6.00 Build 0)  -->
<!DOCTYPE svg PUBLIC "-//W3C//DTD SVG 1.1//EN" "http://www.w3.org/Graphics/SVG/1.1/DTD/svg11.dtd">
<svg version="1.1" id="Capa_1" xmlns="http://www.w3.org/2000/svg" xmlns:xlink="http://www.w3.org/1999/xlink" x="0px" y="0px"
	 width="800px" height="800px" viewBox="0 400 800 800" enable-background="new 0 400 800 800" xml:space="preserve">
<g>
	<path fill="#652C90" d="M56.71,758.255C77.298,641.478,159.736,545.87,268.85,506.477l-5.123,8.877
		c-7.143,12.366-2.91,28.18,9.457,35.322c4.075,2.352,8.519,3.472,12.907,3.472c8.933,0,17.624-4.637,22.412-12.928l35.646-61.712
		c3.431-5.94,4.364-12.997,2.589-19.619c-1.775-6.626-6.105-12.273-12.045-15.703l-61.729-35.649
		c-12.376-7.144-28.183-2.903-35.322,9.459c-7.14,12.366-2.906,28.18,9.459,35.319l6.44,3.72
		C126.141,502.14,29.754,613.322,5.788,749.274C-5.809,814.982,0.097,882.7,22.863,945.112c3.827,10.49,13.734,16.999,24.294,16.999
		c2.94,0,5.937-0.507,8.856-1.572c13.417-4.896,20.326-19.736,15.431-33.15C51.787,873.509,46.692,815.027,56.71,758.255z"/>
	<path fill="#652C90" d="M667.578,1022.944c-10.936-9.19-27.241-7.777-36.429,3.154c-75.216,89.478-193.345,132.48-308.327,112.186
		c-55.81-9.842-107.886-34.047-151.224-69.61h8.318c14.283,0,25.855-11.576,25.855-25.855s-11.573-25.855-25.855-25.855h-68.834
		c-6.643-0.627-13.524,1.297-19.04,5.923c-5.378,4.509-8.443,10.742-9.098,17.213c-0.003,0.024-0.007,0.045-0.01,0.069
		c0,0.007,0,0.014,0,0.021c-0.073,0.741-0.107,1.485-0.114,2.23c-0.003,0.131-0.021,0.255-0.021,0.386l-0.027,71.258
		c-0.007,14.279,11.566,25.859,25.845,25.866h0.01c14.276,0,25.849-11.569,25.855-25.845l0.004-9.005
		c51.004,43.124,112.902,72.409,179.354,84.127c21.809,3.848,43.71,5.729,65.48,5.729c111.079,0,218.618-48.971,291.41-135.562
		C679.923,1048.444,678.51,1032.132,667.578,1022.944z"/>
	<path fill="#652C90" d="M796.532,891.185c-7.137-12.366-22.957-16.604-35.319-9.464l-8.505,4.909
		c0.353-1.827,0.766-3.644,1.086-5.475c17.613-99.913-4.729-200.694-62.915-283.791S545.633,458.81,445.737,441.21
		c-14.065-2.475-27.477,6.916-29.948,20.978c-2.479,14.062,6.912,27.473,20.975,29.951
		c86.292,15.203,161.501,63.108,211.761,134.891c50.159,71.634,69.476,158.488,54.438,244.622l-3.788-6.561
		c-7.14-12.366-22.953-16.609-35.319-9.47c-12.369,7.136-16.605,22.949-9.47,35.318l35.633,61.739
		c3.43,5.94,9.076,10.273,15.702,12.049c2.203,0.59,4.451,0.883,6.691,0.883c4.499,0,8.964-1.176,12.929-3.465l61.729-35.64
		C799.435,919.363,803.672,903.55,796.532,891.185z"/>
</g>
</svg>
