<svg fill="#00C479" xmlns="http://www.w3.org/2000/svg" id="Layer_1" viewBox="0 0 800 150.3"><path id="XMLID_9_" d="M574.5 144.1h-37.9l-8.8-23.8h-49l-9.4 23.8h-37.5L484.4 7.7h38.7l51.4 136.4zm-56.3-50.7l-14.7-43.5-14.9 43.5h29.6z" class="st0"/><path id="XMLID_6_" d="M692.4 144.1h-37.9l-8.8-23.8h-49l-9.4 23.8h-37.5L602.4 7.7H641l51.4 136.4zm-56.3-50.7l-14.7-43.5-14.9 43.5h29.6z" class="st0"/><path id="XMLID_5_" d="M401 144.1l20.8-55.4v-81h-35.5v52.7h-51.2V7.7h-35.4v136.4h35.4V87.4h51.2v56.7z" class="st0"/><path id="XMLID_4_" d="M790.1 76.9c-5.3-6.7-14.3-11.9-26.8-15.6-10-2.9-16-5-18-6.2-4.5-2.6-6.7-5.7-6.7-9.3 0-3.7 1.7-6.6 5.1-8.8 3-1.9 6.4-2.9 10.2-2.9 7.7 0 15.3 2.9 22.9 8.7l10.9-29.1c-12.9-6.1-26-9.2-39.4-9.2C740 4.4 732.8 6 726.4 9l-21.7 58c1.8 4.3 4.4 7.9 7.9 10.7 2.5 2.1 5.6 3.9 9.2 5.4 2.3 1 7.8 2.8 16.6 5.4 7.3 2.1 12.4 4.1 15.5 6.2 4.1 2.7 6.2 6.1 6.2 10.1 0 4.4-1.9 7.9-5.6 10.3-3.2 2.2-7.1 3.2-11.7 3.2-10.2 0-20.6-4.8-31.2-14.3L700 135c13.5 8.6 28.1 13 43.7 13 8.1 0 15.7-1.2 22.8-3.7 20.3-7 30.4-22 30.4-45.1.1-9.2-2.2-16.6-6.8-22.3z" class="st0"/><path id="XMLID_3_" d="M229.8 68.4l-10.1 27h28.8c-1.1 6.8-3.3 11.9-6.8 15.3-5.3 5.2-12.4 7.9-21.5 7.9-10.2 0-18.3-3.2-24.4-9.7-8.2-8.6-12.3-19.4-12.3-32.4 0-6.2 1.1-12.3 3.4-18.1 6.1-15.9 16.8-23.6 32.3-23.8 17.6-.3 26.6 7.8 31.7 12.6l11.6-30.9c-.2-.2-.4-.3-.6-.5-11.2-8.3-24.9-12.4-41-12.4-24.1 0-42.9 7.7-56.4 23.1-11.9 13.5-17.8 30.2-17.8 50.1 0 17.9 5.1 33.4 15.2 46.3 13.4 17.1 32.6 25.6 57.7 25.6 15.4 0 28.7-3.7 40-11 1.5-1 3-2.1 4.4-3.2l24.6-65.8h-58.8z" class="st0"/><path id="XMLID_2_" d="M4.3 79.9H2.6v63.8h121.1V7.7h-.2C101.1 50.6 56.1 79.9 4.3 79.9z" class="st0"/></svg>