<svg xmlns="http://www.w3.org/2000/svg" width="151.438" height="23.929" viewBox="0 0 151.438 23.929"><defs><style>.a{isolation:isolate;}.b{fill:#009899;fill-rule:evenodd;}</style></defs><g class="a"><path class="b" d="M-562.283,1702.817v-4.556a23.285,23.285,0,0,0,6.882,1.225q4.132,0,4.133-2.185a1.78,1.78,0,0,0-.6-1.367,12.369,12.369,0,0,0-3.155-1.632,21.29,21.29,0,0,1-5.935-3.191,5.882,5.882,0,0,1-1.79-4.4,5.932,5.932,0,0,1,2.606-5.214,11.608,11.608,0,0,1,6.715-1.774,37.452,37.452,0,0,1,6.6.84v4.382a16.15,16.15,0,0,0-5.967-1.283q-3.882,0-3.881,2.134a1.506,1.506,0,0,0,.783,1.3q.651.408,3.583,1.727a20.513,20.513,0,0,1,5.621,3.26,5.727,5.727,0,0,1,1.663,4.254,6.3,6.3,0,0,1-3.26,5.718,13.078,13.078,0,0,1-6.845,1.595,31.4,31.4,0,0,1-7.153-.838" transform="translate(562.75 -1679.726)"/><path class="b" d="M-547.389,1680.014h6.443v23.063h-6.443Z" transform="translate(568.75 -1679.613)"/><path class="b" d="M-538.507,1703.077v-23.063h16.523v4.172H-532.3v5.208h8.978v3.8H-532.3v5.473h10.58v4.406Z" transform="translate(572.219 -1679.613)"/><path class="b" d="M-523.41,1703.077v-23.063h8.353l5.8,14.736,5.948-14.736h7.933v23.063h-6.108v-16.33l-6.764,16.564h-3.994l-6.633-16.564v16.33Z" transform="translate(578.116 -1679.613)"/><path class="b" d="M-499,1703.077v-23.063h16.522v4.172h-10.313v5.208h8.978v3.8h-8.978v5.473h10.581v4.406Z" transform="translate(587.651 -1679.613)"/><path class="b" d="M-483.876,1703.077v-23.063h7.466l7.921,15.438v-15.438h4.539v23.063h-7.255l-8.132-15.647v15.647Z" transform="translate(593.558 -1679.613)"/><path class="b" d="M-466.128,1702.817v-4.556a23.048,23.048,0,0,0,6.883,1.225q4.132,0,4.131-2.185a1.812,1.812,0,0,0-.584-1.367,12.405,12.405,0,0,0-3.172-1.632,21.074,21.074,0,0,1-5.936-3.191,5.873,5.873,0,0,1-1.788-4.414,5.914,5.914,0,0,1,2.606-5.2,11.6,11.6,0,0,1,6.717-1.774,31.938,31.938,0,0,1,6.028.741l.57.1v4.382a16.19,16.19,0,0,0-5.984-1.283q-3.865,0-3.862,2.134a1.5,1.5,0,0,0,.779,1.3q.622.391,3.6,1.727a20.855,20.855,0,0,1,5.6,3.26,5.721,5.721,0,0,1,1.663,4.254,6.3,6.3,0,0,1-3.243,5.718,13.164,13.164,0,0,1-6.86,1.595,31.374,31.374,0,0,1-7.155-.838" transform="translate(600.309 -1679.726)"/></g></svg>