<svg xmlns="http://www.w3.org/2000/svg" width="683.72" height="155.406" viewBox="0 0 683.72 155.406"><path fill="#fff" fill-rule="evenodd" d="M34.53 17.124q0-7.19-1.4-10.189t-5.7-4.973A24.823 24.823 0 0017.02-.012a22.858 22.858 0 00-9.54 1.807 11.9 11.9 0 00-5.71 5.01Q0 10.005 0 16.938a21.142 21.142 0 001.25 7.9 13.2 13.2 0 003.14 4.843 72.453 72.453 0 007.75 5.625 46.175 46.175 0 017.34 5.476q1.455 1.639 1.45 6.966a7.01 7.01 0 01-.76 3.651 2.56 2.56 0 01-2.33 1.229 2.381 2.381 0 01-2.18-.968c-.41-.646-.61-2.1-.61-4.359v-7.339H.48v3.948a31.088 31.088 0 001.38 10.468 11.686 11.686 0 005.83 6.072 22.5 22.5 0 0010.75 2.384 23.116 23.116 0 0010.06-2.067q4.32-2.067 5.83-5.122t1.5-9.5q0-8.865-2.72-12.852t-13.19-10.2q-3.645-2.159-4.43-3.687a9.99 9.99 0 01-.82-4.548 6.742 6.742 0 01.73-3.5 2.377 2.377 0 012.14-1.156 2.076 2.076 0 011.87.857c.37.571.55 1.9.55 3.986v4.47h14.57v-2.384zm5.06-15.87v12.07h9.28v48.238h15.68V13.324h9.32V1.254H39.59zm39.38 60.308h27.19v-12.07H94.65V36.234h9.8V24.762h-9.8V13.324h10.47V1.254H78.97v60.308zm33.23 0h15.68V37.277h4.21a20.736 20.736 0 008.33-1.415 8.139 8.139 0 004.37-4.061c.8-1.763 1.19-4.569 1.19-8.419V18.13a41.253 41.253 0 00-.61-8.363 9.936 9.936 0 00-2.35-4.6 10.982 10.982 0 00-5.18-2.906 37.048 37.048 0 00-9.85-1.006H112.2v60.307zm19.7-49.061c.65.621.97 1.962.97 4.023v4.954q0 3.354-.84 4.415a3.631 3.631 0 01-3 1.062c-.32 0-.7-.013-1.15-.038V11.573q3.06 0 4.02.932zm20.12 49.061h15.68V37.277h4.21a20.736 20.736 0 008.33-1.415 8.139 8.139 0 004.37-4.061q1.2-2.644 1.2-8.419V18.13a41.091 41.091 0 00-.62-8.363 9.936 9.936 0 00-2.35-4.6 11 11 0 00-5.17-2.906 37.184 37.184 0 00-9.86-1.006h-15.79v60.307zm19.7-49.061c.65.621.97 1.962.97 4.023v4.954q0 3.354-.84 4.415a3.6 3.6 0 01-2.99 1.062c-.33 0-.71-.013-1.16-.038V11.573q3.06 0 4.02.932zM191.84 1.25v60.312h15.68V1.254h-15.68zm45.41 0v27.157L228.46 1.25h-13.12v60.312h13.12V34.148l8.15 27.418h13.75V1.254h-13.11zm56.92 19.595q0-7.413-1.38-11.306a13.365 13.365 0 00-5.92-6.724 21.3 21.3 0 00-11.44-2.831q-7.005 0-11.42 3.259t-5.34 7.172a60.1 60.1 0 00-.93 12.554v17.918a71.3 71.3 0 00.44 9.332 15.122 15.122 0 002.24 5.941 14.131 14.131 0 005.24 4.75 14.968 14.968 0 007.4 1.918 11.408 11.408 0 005.76-1.4 11.017 11.017 0 004.04-4.19l1.45 4.321h9.86V29.194H275.8v9.168h3.17v7.152a16.94 16.94 0 01-.62 5.662 2.292 2.292 0 01-2.32 1.453 2.032 2.032 0 01-2.09-1.285 17.179 17.179 0 01-.52-5.346V17.049q0-4.618.52-5.736a2.345 2.345 0 014.1.186 27.19 27.19 0 01.44 6.482v5.481h15.69v-2.608zM336.71 1.25v44.442a22.8 22.8 0 01-.43 5.719 1.82 1.82 0 01-1.92 1.21 1.671 1.671 0 01-1.73-1.1 17.639 17.639 0 01-.43-5.047V1.254h-15.68v35.688q0 10.207.37 13.392a12.868 12.868 0 002.42 6.054 14.406 14.406 0 006.18 4.656 23.874 23.874 0 009.54 1.788 21.848 21.848 0 008.48-1.508 13.785 13.785 0 005.79-4.433 13.026 13.026 0 002.64-5.7 69.49 69.49 0 00.45-9.63V1.254h-15.68zm23.28 60.312h15.68V37.277h4.21a20.736 20.736 0 008.33-1.415 8.139 8.139 0 004.37-4.061q1.2-2.644 1.2-8.419V18.13a41.091 41.091 0 00-.62-8.363 9.936 9.936 0 00-2.35-4.6 11 11 0 00-5.17-2.906 37.184 37.184 0 00-9.86-1.006h-15.79v60.307zm19.7-49.061c.65.621.97 1.962.97 4.023v4.954q0 3.354-.84 4.415a3.6 3.6 0 01-2.99 1.062c-.33 0-.71-.013-1.16-.038V11.573q3.06 0 4.02.932zM412.1 1.25v12.07h9.28v48.242h15.68V13.324h9.31V1.254H412.1zm75.21 25a126.53 126.53 0 00-.45-13.039 14.489 14.489 0 00-8.99-11.641 22.729 22.729 0 00-8.7-1.583 22.194 22.194 0 00-8.94 1.676 14.408 14.408 0 00-8.77 11.716q-.435 3.782-.43 12.871v10.319a126.493 126.493 0 00.45 13.038 14.485 14.485 0 008.99 11.641 22.71 22.71 0 008.7 1.583 22.177 22.177 0 008.94-1.676 14.4 14.4 0 008.77-11.716q.435-3.78.43-12.87V26.251zm-15.68 18.216a29.647 29.647 0 01-.45 6.743 1.93 1.93 0 01-2.05 1.415 1.862 1.862 0 01-1.99-1.229q-.435-1.23-.43-6.482V16.751q0-4.656.65-5.606a2.146 2.146 0 011.88-.95 1.854 1.854 0 011.92 1.173 18.653 18.653 0 01.47 5.383v27.716zm53.53 6.817q12.66-18.736 15.25-24.512A26.743 26.743 0 00543 15.819a15 15 0 00-4.6-11.269Q533.795.1 524.82.099a19.352 19.352 0 00-7.86 1.452 12.968 12.968 0 00-5.33 4.285 14.129 14.129 0 00-2.57 5.755 48.709 48.709 0 00-.52 7.991v2.2h13.49v-5.736q0-3.987.84-5.327a2.8 2.8 0 012.55-1.342 2.9 2.9 0 012.56 1.211 6.478 6.478 0 01.84 3.67q0 3.2-2.78 8.921t-17.49 29.783l-.01 8.605h33.12V51.284h-16.5zm58.69-39.6a13.985 13.985 0 00-2.63-5.625 14.777 14.777 0 00-5.85-4.228 21.667 21.667 0 00-8.86-1.732 20.133 20.133 0 00-10.34 2.5 12.228 12.228 0 00-5.7 6.63q-1.44 4.135-1.44 12.443v21.047a34.538 34.538 0 00.9 9.3 16.481 16.481 0 003.02 5.569 12.247 12.247 0 005.7 3.893 27.518 27.518 0 008.97 1.248 21.858 21.858 0 007.42-1.192 13.36 13.36 0 005.66-3.912 13.878 13.878 0 003.09-5.848 47.317 47.317 0 00.75-9.984V21.669a51.324 51.324 0 00-.69-9.984zm-14.36 34.794a18.716 18.716 0 01-.53 5.7 2.112 2.112 0 01-2.19 1.267 2.144 2.144 0 01-2.18-1.08q-.51-1.08-.51-6.333V16.602q0-4.656.54-5.941a2.158 2.158 0 012.22-1.286 2.063 2.063 0 012.18 1.211 22.483 22.483 0 01.47 6.016v29.877zm37.92 4.805q12.66-18.736 15.25-24.512a26.743 26.743 0 002.59-10.952 15 15 0 00-4.6-11.269Q616.045.099 607.07.098a19.352 19.352 0 00-7.86 1.452 12.968 12.968 0 00-5.33 4.285 14.129 14.129 0 00-2.57 5.755 48.709 48.709 0 00-.52 7.991v2.2h13.49v-5.736q0-3.987.84-5.327a2.8 2.8 0 012.55-1.342 2.9 2.9 0 012.56 1.211 6.478 6.478 0 01.84 3.67q0 3.2-2.78 8.921T590.8 52.962l-.01 8.605h33.12V51.284h-16.5zm58.69-39.6a13.985 13.985 0 00-2.63-5.62 14.777 14.777 0 00-5.85-4.228 21.667 21.667 0 00-8.86-1.732 20.133 20.133 0 00-10.34 2.5 12.228 12.228 0 00-5.7 6.63q-1.44 4.135-1.44 12.443v21.047a34.538 34.538 0 00.9 9.3 16.481 16.481 0 003.02 5.569 12.247 12.247 0 005.7 3.893 27.518 27.518 0 008.97 1.248 21.858 21.858 0 007.42-1.192 13.36 13.36 0 005.66-3.912 13.878 13.878 0 003.09-5.848 47.317 47.317 0 00.75-9.984V21.669a51.324 51.324 0 00-.69-9.984zm-14.36 34.794a18.716 18.716 0 01-.53 5.7 2.112 2.112 0 01-2.19 1.267 2.144 2.144 0 01-2.18-1.08q-.51-1.08-.51-6.333V16.602q0-4.656.54-5.941a2.158 2.158 0 012.22-1.286 2.063 2.063 0 012.18 1.211 22.483 22.483 0 01.47 6.016v29.877zm20.63 2.794v12.292h11.36V49.273h-11.36zM178.99 93.828v12.07h9.27v48.244h15.69v-48.241h9.31v-12.07h-34.27zm75.21 25a126.506 126.506 0 00-.45-13.038 14.476 14.476 0 00-9-11.642 22.729 22.729 0 00-8.7-1.583 22.177 22.177 0 00-8.94 1.677 14.4 14.4 0 00-8.77 11.715q-.42 3.782-.43 12.871v10.319a126.493 126.493 0 00.45 13.038 14.476 14.476 0 009 11.642 22.713 22.713 0 008.69 1.583 22.193 22.193 0 008.95-1.677 14.4 14.4 0 008.77-11.715q.42-3.781.43-12.871v-10.32zm-15.69 18.216a30.515 30.515 0 01-.44 6.743 1.931 1.931 0 01-2.05 1.416 1.875 1.875 0 01-2-1.23 28.229 28.229 0 01-.42-6.482v-28.163c0-3.1.21-4.973.65-5.607a2.134 2.134 0 011.88-.95 1.855 1.855 0 011.92 1.174 18.78 18.78 0 01.46 5.383v27.715zm59.05-23.618q0-7.411-1.38-11.306a13.369 13.369 0 00-5.92-6.724 21.3 21.3 0 00-11.44-2.831q-7 0-11.42 3.26t-5.34 7.171q-.945 3.912-.94 12.554v17.918a70.906 70.906 0 00.45 9.332 14.968 14.968 0 002.24 5.942 14.137 14.137 0 005.24 4.749 14.941 14.941 0 007.4 1.919 11.418 11.418 0 005.76-1.4 11.013 11.013 0 004.04-4.191l1.45 4.321h9.86v-32.37h-18.37v9.164h3.17v7.152a16.951 16.951 0 01-.62 5.663 2.293 2.293 0 01-2.32 1.453 2.033 2.033 0 01-2.09-1.286 17.171 17.171 0 01-.52-5.345v-28.945q0-4.618.52-5.737a1.967 1.967 0 011.97-1.118 1.99 1.99 0 012.13 1.3 27.774 27.774 0 01.44 6.482v5.476h15.69v-2.608zm7.59 40.717h27.2v-12.071h-11.51v-13.261h9.8v-11.474h-9.8v-11.436h10.47v-12.07h-26.16v60.311zm29.54-60.311v12.07h9.28v48.24h15.68v-48.241h9.32v-12.07h-34.28zm59.76 0v21.569h-4.7v-21.57h-15.68v60.311h15.68v-25.331h4.7v25.331h15.68V93.831h-15.68zm23.5 60.311h27.19v-12.071h-11.51v-13.261h9.8v-11.474h-9.8v-11.436h10.47v-12.07h-26.15v60.311zm33.23 0h15.68v-27.195c2.16 0 3.5.385 4.01 1.155s.76 2.769.76 6v20.039h14.56v-15.907a56.339 56.339 0 00-.39-8.921 9.184 9.184 0 00-1.99-3.558c-1.07-1.291-3.15-2.322-6.26-3.092q5.145-.483 6.89-2.906t1.75-9.462q0-7.711-2.47-11.231a10.347 10.347 0 00-6.41-4.377q-3.93-.856-15.03-.857h-11.1v60.311zm19.42-49.1c.69.6 1.03 1.85 1.03 3.762v3.316c0 2.657-.35 4.228-1.06 4.712a6.933 6.933 0 01-3.71.726v-13.41c1.81.001 3.06.299 3.74.895zm21.4 36.8v12.299h11.37v-12.293H492z" data-name="Stepping Up to 2020. Together."/></svg>