<svg xmlns="http://www.w3.org/2000/svg" viewBox="0 0 71.42 73.83" fill="#EB1F2E"><g data-name="Layer 2"><g data-name="Layer 1"><path d="M8.89 38.26c0-.57.07-2.31 1.38-2.81s2.56.78 2.79 1A1 1 0 0 1 13 38a1 1 0 0 1-1.47 0 2.78 2.78 0 0 0-.47-.39 3.7 3.7 0 0 0-.09.79 3.64 3.64 0 0 0 2.08 3.58 1 1 0 0 1 .67.88c.62 7.37 6.42 9.76 9.14 9.76s8.52-2.39 9.14-9.76a1 1 0 0 1 .67-.89 3.6 3.6 0 0 0 2.08-3.57 3.7 3.7 0 0 0-.09-.79 2.86 2.86 0 0 0-.47.39 1.06 1.06 0 0 1-1.48 0 1 1 0 0 1 0-1.47c.24-.26 1.51-1.52 2.8-1s1.36 2.24 1.37 2.81A5.64 5.64 0 0 1 34 43.55c-.92 7.63-7 11.08-11.15 11.08s-10.21-3.45-11.14-11.08a5.67 5.67 0 0 1-2.82-5.29m14 21.42a3.42 3.42 0 0 0 3-3.29h-5.98a3.42 3.42 0 0 0 3 3.29m1.9.38a1.15 1.15 0 0 0-.79.16 3.33 3.33 0 0 1-1.11.52 3.35 3.35 0 0 1-1.12-.52 1.07 1.07 0 0 0-.78-.16 1 1 0 0 0-.67.44c-.43.62-2.47 11.2-2.48 11.31a1 1 0 0 0 .8 1.19 1 1 0 0 0 1.21-.85c.35-2 1.44-7.2 2-9.56a4.28 4.28 0 0 0 .9.23H23a4.45 4.45 0 0 0 .91-.23c.53 2.36 1.63 7.6 2 9.56a1 1 0 0 0 1 .86h.19a1 1 0 0 0 .84-1.21c0-.11-2.06-10.69-2.48-11.31a1.06 1.06 0 0 0-.67-.44M9.94 68.7a1 1 0 0 0-1 1V72A1 1 0 0 0 11 72v-2.26a1 1 0 0 0-1-1m3.79-39.3A8.31 8.31 0 0 0 12 33.57a1.05 1.05 0 0 0 .9 1.17h.1a1 1 0 0 0 1-.9 6.16 6.16 0 0 1 1.32-3.11 1 1 0 0 0-.13-1.47 1.06 1.06 0 0 0-1.48.13m17.39 5.34a1 1 0 1 0 2.08 0c0-6-4.47-7.64-6.85-7.68h-9.5a1 1 0 0 0 0 2.09h9.5c.49 0 4.79.27 4.79 5.59m3.46-2.32h.13a1 1 0 0 0 .91-1.16 8.2 8.2 0 0 0-8.46-7.44h-9a1 1 0 1 0 0 2.09h9c.23 0 5.73 0 6.38 5.59a1 1 0 0 0 1 .93M70.13.25H1.49a1 1 0 0 0-1 1v54.47a1 1 0 0 0 1 1.05h6.34A18.25 18.25 0 0 0 .25 72a1 1 0 0 0 2.09 0 16.77 16.77 0 0 1 10.88-15.95l.14 2.56a1 1 0 0 0 .51.84 1 1 0 0 0 .54.15 1.17 1.17 0 0 0 .44-.1l3.48-1.63a1.06 1.06 0 0 0 .5-1.4 1 1 0 0 0-1.39-.47l-2.08 1-.23-4.11a1 1 0 0 0-2.08.11v.91c-.45.18-1.1.44-1.87.82H2.54V2.34h66.55v52.34H50.74c3.33-7.08 2.63-15.6 2.59-16a1 1 0 0 0-1-.95h-5.17a1 1 0 0 0-1 1c0 5.34-1.43 9.22-4.24 11.53-3.26 2.68-7.61 2.58-9.36 2.4a1 1 0 0 0-2 .17L30.25 57l-1.91-.89a1 1 0 1 0-.89 1.88l3.31 1.56a1.14 1.14 0 0 0 .45.1 1 1 0 0 0 .53-.15 1 1 0 0 0 .51-.84l.21-3.84c2.16.21 6.95.23 10.73-2.88 3.13-2.56 4.81-6.63 5-12.1h3.11c.1 3 0 12.5-5.09 18A13.51 13.51 0 0 1 35.8 62a1 1 0 0 0 0 2.08c5 0 9-1.64 12-4.88a17.38 17.38 0 0 0 1.86-2.45h5.12v15.78a1 1 0 1 0 2.09 0V56.77h2.61v15.76a1 1 0 1 0 2.08 0V56.77h8.62a1 1 0 0 0 1-1.05V1.29a1 1 0 0 0-1-1M35.81 65.44a1 1 0 0 0-1.05 1V72a1 1 0 0 0 2.09 0v-5.52a1 1 0 0 0-1-1M31.52 8.82a1 1 0 0 0 0-2.09H12.91a1 1 0 1 0 0 2.09zM7.41 11.91a1 1 0 0 0 1 1h23.11a1 1 0 0 0 0-2.09H8.45a1 1 0 0 0-1 1.05m1 5.17h23.07a1 1 0 0 0 0-2.09H8.45a1 1 0 0 0 0 2.09m0 4.13h23.07a1 1 0 0 0 0-2.08H8.45a1 1 0 0 0 0 2.08M66.71 9.66a1 1 0 0 0-1.35-1.59l-11.31 9.57-5.91-6.21a1.05 1.05 0 0 0-1.43-.2l-7.1 6a1 1 0 0 0 1.23 1.68l6.29-5.37 6 6.27a1.11 1.11 0 0 0 .72.38h.1a1.06 1.06 0 0 0 .68-.25zM48.55 20.21l-.34 7.58a11.64 11.64 0 0 1 1.21-.05c1.13 0 4.57 0 4.57 3.36v1.44a4.57 4.57 0 1 1-9.13 0V31.1a3 3 0 0 1 1.23-2.6l.37-8.38a1.08 1.08 0 0 1 1.09-1 1 1 0 0 1 1 1.08m.87 9.62c-2.48 0-2.48.68-2.48 1.27v1.44a2.48 2.48 0 0 0 5 0V31.1c0-.59 0-1.27-2.48-1.27" fill="#fff" stroke="none"/><path d="M8.89 38.26c0-.57.07-2.31 1.38-2.81s2.56.78 2.79 1A1 1 0 0 1 13 38a1 1 0 0 1-1.47 0 2.78 2.78 0 0 0-.47-.39 3.7 3.7 0 0 0-.09.79 3.64 3.64 0 0 0 2.08 3.58 1 1 0 0 1 .67.88c.62 7.37 6.42 9.76 9.14 9.76s8.52-2.39 9.14-9.76a1 1 0 0 1 .67-.89 3.6 3.6 0 0 0 2.08-3.57 3.7 3.7 0 0 0-.09-.79 2.86 2.86 0 0 0-.47.39 1.06 1.06 0 0 1-1.48 0 1 1 0 0 1 0-1.47c.24-.26 1.51-1.52 2.8-1s1.36 2.24 1.37 2.81A5.64 5.64 0 0 1 34 43.55c-.92 7.63-7 11.08-11.15 11.08s-10.21-3.45-11.14-11.08a5.67 5.67 0 0 1-2.82-5.29zm14 21.42a3.42 3.42 0 0 0 3-3.29h-5.98a3.42 3.42 0 0 0 2.96 3.29zm1.9.38a1.15 1.15 0 0 0-.79.16 3.33 3.33 0 0 1-1.11.52 3.35 3.35 0 0 1-1.12-.52 1.07 1.07 0 0 0-.78-.16 1 1 0 0 0-.67.44c-.43.62-2.47 11.2-2.48 11.31a1 1 0 0 0 .82 1.19 1 1 0 0 0 1.21-.85c.35-2 1.44-7.2 2-9.56a4.28 4.28 0 0 0 .9.23H23a4.45 4.45 0 0 0 .91-.23c.53 2.36 1.63 7.6 2 9.56a1 1 0 0 0 1 .86h.19a1 1 0 0 0 .84-1.21c0-.11-2.06-10.69-2.48-11.31a1.06 1.06 0 0 0-.69-.43zM9.94 68.7a1 1 0 0 0-1 1V72A1 1 0 0 0 11 72v-2.26a1 1 0 0 0-1.06-1.04zm3.79-39.3A8.31 8.31 0 0 0 12 33.57a1.05 1.05 0 0 0 .9 1.17h.1a1 1 0 0 0 1-.9 6.16 6.16 0 0 1 1.32-3.11 1 1 0 0 0-.13-1.47 1.06 1.06 0 0 0-1.46.14zm17.39 5.34a1 1 0 1 0 2.08 0c0-6-4.47-7.64-6.85-7.68h-9.52a1 1 0 0 0 0 2.09h9.5c.49.02 4.79.27 4.79 5.59zm3.46-2.32h.13a1 1 0 0 0 .91-1.16 8.2 8.2 0 0 0-8.46-7.44h-9a1 1 0 1 0 0 2.09h9c.23 0 5.73 0 6.38 5.59a1 1 0 0 0 1.04.92zM70.13.25H1.49a1 1 0 0 0-1 1v54.47a1 1 0 0 0 1 1.05h6.34A18.25 18.25 0 0 0 .25 72a1 1 0 0 0 2.09 0 16.77 16.77 0 0 1 10.88-15.95l.14 2.56a1 1 0 0 0 .51.84 1 1 0 0 0 .54.15 1.17 1.17 0 0 0 .44-.1l3.48-1.63a1.06 1.06 0 0 0 .5-1.4 1 1 0 0 0-1.39-.47l-2.08 1-.23-4.11a1 1 0 0 0-2.08.11v.91c-.45.18-1.1.44-1.87.82H2.54V2.34h66.55v52.34H50.74c3.33-7.08 2.63-15.6 2.59-16a1 1 0 0 0-1-.95h-5.17a1 1 0 0 0-1 1c0 5.34-1.43 9.22-4.24 11.53-3.26 2.68-7.61 2.58-9.36 2.4a1 1 0 0 0-2 .17L30.25 57l-1.91-.89a1 1 0 1 0-.89 1.88l3.31 1.56a1.14 1.14 0 0 0 .45.1 1 1 0 0 0 .53-.15 1 1 0 0 0 .51-.84l.21-3.84c2.16.21 6.95.23 10.73-2.88 3.13-2.56 4.81-6.63 5-12.1h3.11c.1 3 0 12.5-5.09 18A13.51 13.51 0 0 1 35.8 62a1 1 0 0 0 0 2.08c5 0 9-1.64 12-4.88a17.38 17.38 0 0 0 1.86-2.45h5.12v15.78a1 1 0 1 0 2.09 0V56.77h2.61v15.76a1 1 0 1 0 2.08 0V56.77h8.62a1 1 0 0 0 1-1.05V1.29A1 1 0 0 0 70.13.25zM35.81 65.44a1 1 0 0 0-1.05 1V72a1 1 0 0 0 2.09 0v-5.52a1 1 0 0 0-1.04-1.04zM31.52 8.82a1 1 0 0 0 0-2.09H12.91a1 1 0 1 0 0 2.09zM7.41 11.91a1 1 0 0 0 1 1h23.11a1 1 0 0 0 0-2.09H8.45a1 1 0 0 0-1.04 1.09zm1 5.17h23.11a1 1 0 0 0 0-2.09H8.45a1 1 0 0 0 0 2.09zm0 4.13h23.11a1 1 0 0 0 0-2.08H8.45a1 1 0 0 0 0 2.08zm58.3-11.55a1 1 0 0 0-1.35-1.59l-11.31 9.57-5.91-6.21a1.05 1.05 0 0 0-1.43-.2l-7.1 6a1 1 0 0 0 1.23 1.68l6.29-5.37 6 6.27a1.11 1.11 0 0 0 .72.38h.1a1.06 1.06 0 0 0 .68-.25zM48.55 20.21l-.34 7.58a11.64 11.64 0 0 1 1.21-.05c1.13 0 4.57 0 4.57 3.36v1.44a4.57 4.57 0 1 1-9.13 0V31.1a3 3 0 0 1 1.23-2.6l.37-8.38a1.08 1.08 0 0 1 1.09-1 1 1 0 0 1 1 1.09zm.87 9.62c-2.48 0-2.48.68-2.48 1.27v1.44a2.48 2.48 0 0 0 5 0V31.1c-.04-.59-.04-1.27-2.52-1.27z" fill="#EB1F2E" stroke="none" stroke-miterlimit="10" stroke-width=".5"/></g></g></svg>