<svg xmlns="http://www.w3.org/2000/svg" viewBox="0 0 115.23 115.23" fill="#EB1F2E"><defs/><g id="Layer_2" data-name="Layer 2"><g id="Layer_1-2" data-name="Layer 1"><path class="cls-1" d="M112.83 115.23H2.4a2.4 2.4 0 0 1 0-4.8h110.43a2.4 2.4 0 1 1 0 4.8"/><path class="cls-1" d="M21.61 115.23H7.2a2.4 2.4 0 0 1-2.4-2.4V84a2.41 2.41 0 0 1 2.4-2.4h14.41A2.41 2.41 0 0 1 24 84v28.81a2.4 2.4 0 0 1-2.4 2.4m-12-4.8h9.61v-24H9.6zm40.81 4.82H36a2.39 2.39 0 0 1-2.4-2.4V60a2.39 2.39 0 0 1 2.4-2.4h14.4a2.39 2.39 0 0 1 2.4 2.4v52.81a2.39 2.39 0 0 1-2.4 2.4m-12-4.8H48v-48h-9.6zm40.82 4.82h-14.4a2.39 2.39 0 0 1-2.4-2.4V69.62a2.39 2.39 0 0 1 2.4-2.4h14.4a2.39 2.39 0 0 1 2.4 2.4v43.21a2.39 2.39 0 0 1-2.4 2.4m-12-4.8h9.6V72h-9.6zm40.78 4.8H93.63a2.39 2.39 0 0 1-2.4-2.4v-72a2.4 2.4 0 0 1 2.4-2.4H108a2.4 2.4 0 0 1 2.4 2.4v72a2.39 2.39 0 0 1-2.4 2.4m-12-4.8h9.6V43.21H96zM14.4 62.42a9.61 9.61 0 1 1 9.6-9.61 9.62 9.62 0 0 1-9.61 9.61M14.4 48a4.81 4.81 0 1 0 4.81 4.8A4.81 4.81 0 0 0 14.4 48m28.81-9.59a9.6 9.6 0 1 1 9.6-9.6 9.62 9.62 0 0 1-9.6 9.6m0-14.4a4.8 4.8 0 1 0 4.8 4.8 4.8 4.8 0 0 0-4.8-4.8M72 48a9.6 9.6 0 1 1 9.6-9.6A9.6 9.6 0 0 1 72 48m0-14.4a4.8 4.8 0 1 0 4.8 4.8 4.8 4.8 0 0 0-4.8-4.8m28.83-14.39a9.61 9.61 0 1 1 9.6-9.61 9.61 9.61 0 0 1-9.6 9.61m0-14.41a4.8 4.8 0 1 0 4.8 4.8 4.81 4.81 0 0 0-4.8-4.8"/><path class="cls-1" d="M77.11 35.72a2.46 2.46 0 0 1-1.7-.7 2.42 2.42 0 0 1 0-3.4L94 13a2.4 2.4 0 1 1 3.4 3.4L78.81 35a2.4 2.4 0 0 1-1.7.7m-11.55 1.88a2.5 2.5 0 0 1-.66-.09l-15.42-4.4a2.4 2.4 0 0 1 1.31-4.62l15.42 4.4a2.4 2.4 0 0 1-.65 4.71M19.49 50.13A2.4 2.4 0 0 1 18 45.85l18.1-14.43a2.4 2.4 0 0 1 3 3.75L21 49.61a2.46 2.46 0 0 1-1.5.52"/></g></g></svg>