<svg xmlns="http://www.w3.org/2000/svg" viewBox="0 0 108.65 122.72" fill="#EB1F2E"><defs/><g id="Layer_2" data-name="Layer 2"><g id="Layer_1-2" data-name="Layer 1"><path class="cls-1" d="M96.13 0H2.05A2 2 0 0 0 0 2v118.68a2 2 0 0 0 2.05 2h79.77a2 2 0 0 0 1.44-.59l14.32-14.32a2.21 2.21 0 0 0 .41-.6c0-.07 0-.13.07-.19a2 2 0 0 0 .1-.54V59.32h-4.1v45H81.82a2 2 0 0 0-2 2v12.27H4.09V4.09h90v26.59h4.09V2a2 2 0 0 0-2.05-2M83.86 108.41h7.34l-7.34 7.33z"/><path class="cls-1" d="M106.78 34.35a6.51 6.51 0 0 0-9 0L62 70.14a2.09 2.09 0 0 0-.6 1.45v6.14a2.05 2.05 0 0 0 2 2h6.13a2.05 2.05 0 0 0 1.45-.6l35.79-35.79a6.39 6.39 0 0 0 0-9m-10.64 7.42L99.38 45l-2.22 2.22L93.91 44zM68.7 75.68h-3.25v-3.24L91 46.87l3.24 3.24zm35.19-35.2l-1.62 1.63L99 38.86l1.62-1.62a2.34 2.34 0 0 1 3.24 0 2.3 2.3 0 0 1 0 3.24m-77.27-5.71A8.18 8.18 0 1 0 18.41 43a8.18 8.18 0 0 0 8.18-8.18m-8.18 4.09a4.09 4.09 0 1 1 4.09-4.09 4.09 4.09 0 0 1-4.09 4.09M44.4 21.9l4.69-4.69 4.69 4.69 2.89-2.89-4.69-4.69 4.69-4.69-2.89-2.89-4.69 4.68-4.69-4.68-2.89 2.89 4.69 4.69-4.69 4.69 2.89 2.89zm31.28 19.01a8.19 8.19 0 1 0-8.18-8.18 8.18 8.18 0 0 0 8.18 8.18m0-12.27a4.09 4.09 0 1 1-4.09 4.09 4.09 4.09 0 0 1 4.09-4.09m-51.13 71.58A8.18 8.18 0 1 0 16.36 92a8.18 8.18 0 0 0 8.19 8.18m0-12.27a4.09 4.09 0 1 1-4.1 4.09 4.09 4.09 0 0 1 4.1-4m4.93-26.64l4.69-4.69-2.89-2.89-4.69 4.69-4.69-4.69-2.89 2.89 4.69 4.69-4.69 4.69 2.89 2.89 4.69-4.69 4.69 4.69 2.89-2.89-4.69-4.69zm52.94 21.06l-4.69 4.69-4.69-4.69-2.9 2.89L74.83 90l-4.69 4.69 2.9 2.89 4.69-4.69 4.69 4.69 2.89-2.89L80.62 90l4.69-4.69-2.89-2.89z"/><path class="cls-1" d="M37.32 40.91h3.48v-4.09h-8.18a2 2 0 0 0-2 2V47h4.09v-2.82a29.79 29.79 0 0 1-1.51 38.31l3 2.75a33.9 33.9 0 0 0 1.14-44.33m11.75 69.54a8.18 8.18 0 1 0-8.18-8.18 8.18 8.18 0 0 0 8.18 8.18m0-12.27a4.09 4.09 0 1 1-4.09 4.09 4.09 4.09 0 0 1 4.09-4.09M30.68 32.73h25.75l-2.65 2.64 2.89 2.89 6.14-6.13a2.05 2.05 0 0 0 0-2.9l-6.14-6.13-2.89 2.9 2.65 2.65H30.68zm34.77 18.4h4.09V43a2 2 0 0 0-2-2h-8.22v4h3.31A57.5 57.5 0 0 0 47 84.5V90h4.1v-5.5A53.45 53.45 0 0 1 65.45 48z"/></g></g></svg>