<svg xmlns="http://www.w3.org/2000/svg" viewBox="0 0 133.41 133.41" fill="#EB1F2E"><g data-name="Layer 2"><path d="M131.18 60H97.83V15.57a2.22 2.22 0 0 0-2.22-2.23h-18a15.48 15.48 0 0 0 4.7-11.12A2.23 2.23 0 0 0 80 0a15.57 15.57 0 0 0-13.3 7.59A15.56 15.56 0 0 0 53.36 0a2.23 2.23 0 0 0-2.22 2.22 15.51 15.51 0 0 0 4.69 11.12h-18a2.22 2.22 0 0 0-2.22 2.23V60H2.22A2.22 2.22 0 0 0 0 62.26v8.89a2.21 2.21 0 0 0 2.22 2.22h73L61.9 77.82h-33a2.25 2.25 0 0 0-1.57.65L17.79 88l-2.88-2.88a2.23 2.23 0 0 0-3.14 0L.65 96.26a2.23 2.23 0 0 0 0 3.15L34 132.76a2.25 2.25 0 0 0 3.15 0l11.11-11.12a2.22 2.22 0 0 0 0-3.14l-.36-.37L60.74 109h43.76a2.28 2.28 0 0 0 1.51-.58l24.17-22.16a9.93 9.93 0 0 0 1.49-12.93 2.2 2.2 0 0 0 1.74-2.13v-8.94a2.23 2.23 0 0 0-2.23-2.26M77.54 4.73a11.19 11.19 0 0 1-8.33 8.33 11.16 11.16 0 0 1 8.33-8.33M64.2 13.06a11.17 11.17 0 0 1-8.33-8.33 11.17 11.17 0 0 1 8.33 8.33M40 17.79h53.38V60h-23.9l19-25.34a2.21 2.21 0 0 0 0-2.67l-6.67-8.9a2.25 2.25 0 0 0-1.81-.86H53.36a2.25 2.25 0 0 0-1.78.89L44.91 32a2.24 2.24 0 0 0 0 2.67L63.92 60H40zm32.4 17.79L66.7 51.3 61 35.58zm-9.24-4.45l3.54-3.53 3.53 3.53zm14 4.45h5.12l-9.94 13.23zm-.63-4.45l-4.45-4.45h6.86l3.34 4.45zm-19.63 0h-5.76l3.33-4.45h6.87zm-.64 4.45l4.82 13.23-9.94-13.23zM4.45 64.48H129v4.45H4.45zm109.77 8.89l-15 13.35h-7.9A8.93 8.93 0 0 0 95 74.65a9.58 9.58 0 0 0-.82-1.28zM35.58 128L5.37 97.83l8-8 30.21 30.21zm91.6-45.1l-23.54 21.6H60a2.23 2.23 0 0 0-1.29.42l-14 10-23.78-23.76 8.9-8.89h32.43a2.43 2.43 0 0 0 .7-.11l22.74-7.59a4.49 4.49 0 0 1 2.86 8.52l-.25.08-13 3.55h-6.38v4.44h31.13a2.21 2.21 0 0 0 1.47-.56l17.82-15.84a5.54 5.54 0 0 1 3.65-1.39h.46a5.5 5.5 0 0 1 3.72 9.57" fill="#EB1F2E" data-name="Layer 1"/></g></svg>