<svg xmlns="http://www.w3.org/2000/svg" viewBox="0 0 120 120" fill="#353535"><defs/><g id="Layer_2" data-name="Layer 2"><g id="Layer_1-2" data-name="Layer 1"><path class="cls-1" d="M42 10h36a2 2 0 0 1 0 4H42a2 2 0 0 1 0-4m57 64.91A7.09 7.09 0 0 0 91.85 68H88V42a2 2 0 0 0-4 0v26h-4.85A7.09 7.09 0 0 0 72 74.91 6.91 6.91 0 0 0 74.12 80a6.93 6.93 0 0 0-1.06 8.67A7 7 0 0 0 69 95a6.86 6.86 0 0 0 .7 3H54a18 18 0 0 0-7.74-14.78A12 12 0 0 0 54 72a2 2 0 0 0-2-2H36V52a2 2 0 0 0-4 0v18a6 6 0 0 0-6 6v42a2 2 0 0 0 4 0V76a2 2 0 0 1 2-2h17.75A8 8 0 0 1 42 80h-5.93A2 2 0 0 0 34 81.87 2 2 0 0 0 36 84a14 14 0 0 1 14 14v2a2 2 0 0 0 2 2h11.7a6.86 6.86 0 0 0-.7 3 7 7 0 0 0 7 7v6a2 2 0 0 0 4 0v-6h8.78a7.2 7.2 0 0 0 7.09-5.69 6.76 6.76 0 0 0-.59-4.34 7 7 0 0 0 5.66-10.64A7 7 0 0 0 96.88 80 7 7 0 0 0 99 74.91M83 108H70a3 3 0 0 1 0-6h13a3 3 0 0 1 0 6m6-10H76a3 3 0 0 1 0-6h13a3 3 0 0 1 0 6m6-13a3 3 0 0 1-3 3H79a3 3 0 0 1 0-6h13a3 3 0 0 1 3 3m-16-7a3 3 0 0 1 0-6h13a3 3 0 0 1 0 6zM27.13 22.43a5.46 5.46 0 0 0-10.82 1 11.58 11.58 0 0 1-4.49-1.82l-.7-.47A2 2 0 0 0 8 22.8v1.64a11.6 11.6 0 0 0 2.07 6.64l-1.49 1.51A2 2 0 0 0 10 36h9.69a7.57 7.57 0 0 0 7.49-6.73L29.42 27a2 2 0 0 0-.21-3zM23.81 27a2 2 0 0 0-.58 1.41A3.57 3.57 0 0 1 19.69 32H14.6a2 2 0 0 0-.41-2.21 7.66 7.66 0 0 1-1.94-3.41 15.65 15.65 0 0 0 6.06 1.22 2 2 0 0 0 2-2v-2.1a1.46 1.46 0 1 1 2.92 0 2 2 0 0 0 .77 1.59l.95.73z"/><path class="cls-1" d="M58 32v6h-4v4h4v8h4v-8h4v-4h-4v-4h4v-4h-6a2 2 0 0 0-2 2"/><path class="cls-1" d="M78 52V28a6 6 0 0 0-6-6H48a6 6 0 0 0-6 6v24a6 6 0 0 0 6 6h24a6 6 0 0 0 6-6m-32 0V28a2 2 0 0 1 2-2h24a2 2 0 0 1 2 2v24a2 2 0 0 1-2 2H48a2 2 0 0 1-2-2M36 40V16a6 6 0 0 0-6-6H6a6 6 0 0 0-6 6v24a6 6 0 0 0 6 6h24a6 6 0 0 0 6-6M4 40V16a2 2 0 0 1 2-2h24a2 2 0 0 1 2 2v24a2 2 0 0 1-2 2H6a2 2 0 0 1-2-2M114 0H90a6 6 0 0 0-6 6v24a6 6 0 0 0 6 6h24a6 6 0 0 0 6-6V6a6 6 0 0 0-6-6M90 4h24a2 2 0 0 1 2 2v10h-4.2a10 10 0 0 0-19.6 0H88V6a2 2 0 0 1 2-2m18 14a6 6 0 1 1-6-6 6 6 0 0 1 6 6m6 14H90a2 2 0 0 1-2-2V20h4.2a10 10 0 0 0 19.6 0h4.2v10a2 2 0 0 1-2 2M58 82h4v4h-4z"/></g></g></svg>