<svg xmlns="http://www.w3.org/2000/svg" viewBox="0 0 88 88" fill="#353535"><defs/><g id="Layer_2" data-name="Layer 2"><g id="Layer_1-2" data-name="Layer 1"><path class="cls-1" d="M30.8 7.33h26.4a1.47 1.47 0 0 1 0 2.94H30.8a1.47 1.47 0 0 1 0-2.94m41.8 47.6a5.21 5.21 0 0 0-5.24-5.06h-2.83V30.8a1.47 1.47 0 1 0-2.93 0v19.07H58a5.21 5.21 0 0 0-5.24 5.06 5.11 5.11 0 0 0 1.55 3.74 5.12 5.12 0 0 0-1.55 3.66 5 5 0 0 0 .82 2.67 5.15 5.15 0 0 0-3 4.65 5.08 5.08 0 0 0 .51 2.2H39.6A13.18 13.18 0 0 0 33.92 61a8.82 8.82 0 0 0 5.68-8.2 1.47 1.47 0 0 0-1.47-1.47H26.4v-13.2a1.47 1.47 0 0 0-2.93 0v13.2a4.41 4.41 0 0 0-4.4 4.4v30.8a1.47 1.47 0 1 0 2.93 0v-30.8a1.46 1.46 0 0 1 1.47-1.46h13a5.88 5.88 0 0 1-5.68 4.4h-4.34A1.5 1.5 0 0 0 24.94 60a1.46 1.46 0 0 0 1.46 1.6 10.29 10.29 0 0 1 10.27 10.27v1.46a1.46 1.46 0 0 0 1.46 1.47h8.59a5 5 0 0 0-.52 2.2 5.13 5.13 0 0 0 5.13 5.13v4.4a1.47 1.47 0 1 0 2.94 0v-4.4h6.44A5.26 5.26 0 0 0 65.9 78a4.88 4.88 0 0 0-.43-3.18 5.12 5.12 0 0 0 4.93-5.11 5 5 0 0 0-.78-2.71 5.11 5.11 0 0 0 1.43-8.31 5.11 5.11 0 0 0 1.55-3.74m-2.93 7.4a2.2 2.2 0 0 1-2.2 2.2h-9.54a2.2 2.2 0 1 1 0-4.4h9.54a2.21 2.21 0 0 1 2.2 2.2M57.93 57.2a2.2 2.2 0 0 1 0-4.4h9.54a2.2 2.2 0 0 1 0 4.4zM19.89 16.45a4 4 0 0 0-7.93.73 8.35 8.35 0 0 1-3.29-1.33l-.52-.34a1.44 1.44 0 0 0-1.51-.08 1.47 1.47 0 0 0-.77 1.29v1.2a8.44 8.44 0 0 0 1.52 4.87l-1.1 1.11a1.47 1.47 0 0 0 1 2.5h7.11a5.55 5.55 0 0 0 5.49-4.93l1.65-1.66a1.52 1.52 0 0 0 .46-1.14 1.44 1.44 0 0 0-.58-1.06zm-2.43 3.35a1.45 1.45 0 0 0-.42 1 2.63 2.63 0 0 1-2.6 2.64h-3.73a1.48 1.48 0 0 0-.3-1.62A5.59 5.59 0 0 1 9 19.34a11.45 11.45 0 0 0 4.45.9 1.46 1.46 0 0 0 1.46-1.47v-1.54a1.08 1.08 0 1 1 2.15 0 1.44 1.44 0 0 0 .58 1.17l.69.53z"/><path class="cls-1" d="M42.53 23.47v4.4H39.6v2.93h2.93v5.87h2.94V30.8h2.93v-2.93h-2.93v-2.94h2.93V22H44a1.47 1.47 0 0 0-1.47 1.47"/><path class="cls-1" d="M57.2 38.13v-17.6a4.41 4.41 0 0 0-4.4-4.4H35.2a4.41 4.41 0 0 0-4.4 4.4v17.6a4.4 4.4 0 0 0 4.4 4.4h17.6a4.4 4.4 0 0 0 4.4-4.4m-23.47 0v-17.6a1.46 1.46 0 0 1 1.47-1.46h17.6a1.46 1.46 0 0 1 1.47 1.46v17.6a1.47 1.47 0 0 1-1.47 1.47H35.2a1.47 1.47 0 0 1-1.47-1.47m-7.33-8.8v-17.6a4.41 4.41 0 0 0-4.4-4.4H4.4a4.41 4.41 0 0 0-4.4 4.4v17.6a4.4 4.4 0 0 0 4.4 4.4H22a4.4 4.4 0 0 0 4.4-4.4m-23.47 0v-17.6a1.47 1.47 0 0 1 1.47-1.46H22a1.47 1.47 0 0 1 1.47 1.46v17.6A1.47 1.47 0 0 1 22 30.8H4.4a1.47 1.47 0 0 1-1.47-1.47M83.6 0H66a4.4 4.4 0 0 0-4.4 4.4V22a4.4 4.4 0 0 0 4.4 4.4h17.6A4.4 4.4 0 0 0 88 22V4.4A4.4 4.4 0 0 0 83.6 0M66 2.93h17.6a1.47 1.47 0 0 1 1.47 1.47v7.33H82a7.33 7.33 0 0 0-14.37 0h-3.1V4.4A1.47 1.47 0 0 1 66 2.93M79.2 13.2a4.4 4.4 0 1 1-4.4-4.4 4.4 4.4 0 0 1 4.4 4.4m4.4 10.27H66A1.47 1.47 0 0 1 64.53 22v-7.33h3.08a7.33 7.33 0 0 0 14.37 0h3.09V22a1.47 1.47 0 0 1-1.47 1.47M42.53 60.13h2.93v2.93h-2.93z"/></g></g></svg>