<svg xmlns="http://www.w3.org/2000/svg" viewBox="0 0 82.6 59.42" fill="#EB1F2E"><defs/><g id="Layer_2" data-name="Layer 2"><g id="Layer_1-2" data-name="Layer 1"><path class="cls-1" d="M80 50.07a2.41 2.41 0 0 0 2.4-2.41v-7.19a6.31 6.31 0 0 0-3.72-5.75l-7.8-3v-1.53a6.54 6.54 0 0 0 2.33-4 3.16 3.16 0 0 0 2-5.1v-2.36a8.56 8.56 0 0 0-6.1-8.23 1 1 0 0 0-.29-.05 1 1 0 0 0-.93.7 1 1 0 0 0 .65 1.23 6.6 6.6 0 0 1 4.71 6.35v1.07a2.2 2.2 0 0 0-.57-.87c-.24-.27-.83-.9-1.59-1.71a1.52 1.52 0 0 0-.85-.46 1.55 1.55 0 0 0-1.08.22 10.53 10.53 0 0 1-1 .58A12.4 12.4 0 0 1 61.52 19 1.5 1.5 0 0 0 60 20h-.09v-1.27a6.63 6.63 0 0 1 4.57-6.3 1 1 0 0 0 .62-1.25 1 1 0 0 0-1.24-.62A8.59 8.59 0 0 0 58 18.73v2.43a3 3 0 0 0-.69 1.91A3.16 3.16 0 0 0 60 26.2a6.46 6.46 0 0 0 2.47 4.09v1.41l-7.79 3h-.07a6.31 6.31 0 0 0-3.66 5.72v7.19a2.41 2.41 0 0 0 2.41 2.41zM73.24 22a1.18 1.18 0 0 1 0 2.12zM59.9 24.13a1.13 1.13 0 0 1 0-2.06zm2 1V21a14.78 14.78 0 0 0 8-2.18c.74.8 1.19 1.26 1.4 1.5v4.74a4.7 4.7 0 0 1-9.39 0m7.82 8.27a4.37 4.37 0 0 1-6.21 0 1.79 1.79 0 0 0 .95-1.57v-.5a7.19 7.19 0 0 0 2.21.35 6.63 6.63 0 0 0 2.19-.38v.55a1.78 1.78 0 0 0 .86 1.51M58.21 48.1v-6.41a1 1 0 0 0-2 0v6.41h-2.9a.44.44 0 0 1-.44-.44v-7.19a4.35 4.35 0 0 1 2.5-3.92l6.1-2.36.39.41a6.37 6.37 0 0 0 9.36 0l.42-.45 6.21 2.4a4.29 4.29 0 0 1 2.5 3.92v7.19a.44.44 0 0 1-.43.44h-2.9v-6.41a1 1 0 0 0-2 0v6.41z"/><path class="cls-2" d="M80 50.07a2.41 2.41 0 0 0 2.4-2.41v-7.19a6.31 6.31 0 0 0-3.72-5.75l-7.8-3v-1.53a6.54 6.54 0 0 0 2.33-4 3.16 3.16 0 0 0 2-5.1v-2.36a8.56 8.56 0 0 0-6.1-8.23 1 1 0 0 0-.29-.05 1 1 0 0 0-.93.7 1 1 0 0 0 .65 1.23 6.6 6.6 0 0 1 4.71 6.35v1.07a2.2 2.2 0 0 0-.57-.87c-.24-.27-.83-.9-1.59-1.71a1.52 1.52 0 0 0-.85-.46 1.55 1.55 0 0 0-1.08.22 10.53 10.53 0 0 1-1 .58A12.4 12.4 0 0 1 61.52 19 1.5 1.5 0 0 0 60 20h-.09v-1.27a6.63 6.63 0 0 1 4.57-6.3 1 1 0 0 0 .62-1.25 1 1 0 0 0-1.24-.62A8.59 8.59 0 0 0 58 18.73v2.43a3 3 0 0 0-.69 1.91A3.16 3.16 0 0 0 60 26.2a6.46 6.46 0 0 0 2.47 4.09v1.41l-7.79 3h-.07a6.31 6.31 0 0 0-3.66 5.72v7.19a2.41 2.41 0 0 0 2.41 2.41zM73.24 22a1.18 1.18 0 0 1 0 2.12zM59.9 24.13a1.13 1.13 0 0 1 0-2.06zm2 1V21a14.78 14.78 0 0 0 8-2.18c.74.8 1.19 1.26 1.4 1.5v4.74a4.7 4.7 0 0 1-9.39 0zm7.82 8.27a4.37 4.37 0 0 1-6.21 0 1.79 1.79 0 0 0 .95-1.57v-.5a7.19 7.19 0 0 0 2.21.35 6.63 6.63 0 0 0 2.19-.38v.55a1.78 1.78 0 0 0 .84 1.51zM58.21 48.1v-6.41a1 1 0 0 0-2 0v6.41h-2.9a.44.44 0 0 1-.44-.44v-7.19a4.35 4.35 0 0 1 2.5-3.92l6.1-2.36.39.41a6.37 6.37 0 0 0 9.36 0l.42-.45 6.21 2.4a4.29 4.29 0 0 1 2.5 3.92v7.19a.44.44 0 0 1-.43.44h-2.9v-6.41a1 1 0 0 0-2 0v6.41z"/><path class="cls-1" d="M29.27 50.07a2.41 2.41 0 0 0 2.4-2.41v-7.19A6.31 6.31 0 0 0 28 34.72l-7.8-3v-1.53a6.54 6.54 0 0 0 2.33-4 3.16 3.16 0 0 0 2-5.1v-2.36a8.56 8.56 0 0 0-6.1-8.23 1 1 0 0 0-.29-.05 1 1 0 0 0-.93.7 1 1 0 0 0 .65 1.23 6.6 6.6 0 0 1 4.71 6.35v1.07a2.2 2.2 0 0 0-.57-.87c-.24-.27-.84-.9-1.59-1.71a1.51 1.51 0 0 0-1.97-.22 10.53 10.53 0 0 1-1 .58 12.4 12.4 0 0 1-6.6 1.42 1.5 1.5 0 0 0-1.5.93h-.09v-1.2a6.63 6.63 0 0 1 4.57-6.3 1 1 0 0 0 .62-1.25 1 1 0 0 0-1.24-.62 8.59 8.59 0 0 0-5.92 8.17v2.43a3 3 0 0 0-.69 1.91 3.16 3.16 0 0 0 2.73 3.13 6.42 6.42 0 0 0 2.47 4.09v1.41L4 34.72h-.07a6.31 6.31 0 0 0-3.68 5.75v7.19a2.41 2.41 0 0 0 2.41 2.41zM22.56 22a1.18 1.18 0 0 1 0 2.12zM9.22 24.13a1.13 1.13 0 0 1 0-2.06zm2 1V21a14.78 14.78 0 0 0 8-2.18c.74.8 1.19 1.26 1.4 1.5v4.74a4.7 4.7 0 0 1-9.39 0m7.77 8.3a4.39 4.39 0 0 1-6.22 0 1.78 1.78 0 0 0 1-1.57v-.5a7.19 7.19 0 0 0 2.21.35 6.63 6.63 0 0 0 2.19-.38v.55a1.75 1.75 0 0 0 .82 1.55M7.53 48.1v-6.41a1 1 0 0 0-2 0v6.41H2.66a.44.44 0 0 1-.44-.44v-7.19a4.35 4.35 0 0 1 2.5-3.92l6.1-2.36.39.41a6.37 6.37 0 0 0 9.36 0l.42-.45 6.21 2.4a4.29 4.29 0 0 1 2.5 3.92v7.19a.44.44 0 0 1-.43.44h-2.9v-6.41a1 1 0 0 0-2 0v6.41z"/><path class="cls-2" d="M29.27 50.07a2.41 2.41 0 0 0 2.4-2.41v-7.19A6.31 6.31 0 0 0 28 34.72l-7.8-3v-1.53a6.54 6.54 0 0 0 2.33-4 3.16 3.16 0 0 0 2-5.1v-2.36a8.56 8.56 0 0 0-6.1-8.23 1 1 0 0 0-.29-.05 1 1 0 0 0-.93.7 1 1 0 0 0 .65 1.23 6.6 6.6 0 0 1 4.71 6.35v1.07a2.2 2.2 0 0 0-.57-.87c-.24-.27-.84-.9-1.59-1.71a1.51 1.51 0 0 0-1.97-.22 10.53 10.53 0 0 1-1 .58 12.4 12.4 0 0 1-6.6 1.42 1.5 1.5 0 0 0-1.5.93h-.09v-1.2a6.63 6.63 0 0 1 4.57-6.3 1 1 0 0 0 .62-1.25 1 1 0 0 0-1.24-.62 8.59 8.59 0 0 0-5.92 8.17v2.43a3 3 0 0 0-.69 1.91 3.16 3.16 0 0 0 2.73 3.13 6.42 6.42 0 0 0 2.47 4.09v1.41L4 34.72h-.07a6.31 6.31 0 0 0-3.68 5.75v7.19a2.41 2.41 0 0 0 2.41 2.41zM22.56 22a1.18 1.18 0 0 1 0 2.12zM9.22 24.13a1.13 1.13 0 0 1 0-2.06zm2 1V21a14.78 14.78 0 0 0 8-2.18c.74.8 1.19 1.26 1.4 1.5v4.74a4.7 4.7 0 0 1-9.39 0zM19 33.36a4.39 4.39 0 0 1-6.22 0 1.78 1.78 0 0 0 1-1.57v-.5a7.19 7.19 0 0 0 2.21.35 6.63 6.63 0 0 0 2.19-.38v.55a1.75 1.75 0 0 0 .82 1.55zM7.53 48.1v-6.41a1 1 0 0 0-2 0v6.41H2.66a.44.44 0 0 1-.44-.44v-7.19a4.35 4.35 0 0 1 2.5-3.92l6.1-2.36.39.41a6.37 6.37 0 0 0 9.36 0l.42-.45 6.21 2.4a4.29 4.29 0 0 1 2.5 3.92v7.19a.44.44 0 0 1-.43.44h-2.9v-6.41a1 1 0 0 0-2 0v6.41z"/><path class="cls-1" d="M61.74 59.42a3.61 3.61 0 0 0 3.61-3.61V45a9.47 9.47 0 0 0-5.59-8.62L48 31.86v-2.25a9.86 9.86 0 0 0 3.5-6A4.74 4.74 0 0 0 54.59 16v-3.58A12.85 12.85 0 0 0 45.44.06 1.72 1.72 0 0 0 45 0a1.46 1.46 0 0 0-1.4 1.05 1.48 1.48 0 0 0 1 1.85 9.9 9.9 0 0 1 7.05 9.52V14a3.15 3.15 0 0 0-.85-1.3c-.36-.41-1.25-1.35-2.39-2.57a2.25 2.25 0 0 0-2.91-.33c-.47.31-1 .59-1.46.86a18.65 18.65 0 0 1-9.94 2.21 2.27 2.27 0 0 0-2.26 1.39h-.12v-1.84A9.94 9.94 0 0 1 38.56 3a1.48 1.48 0 0 0 .95-1.86 1.49 1.49 0 0 0-1.87-.99 12.9 12.9 0 0 0-8.88 12.27v3.64a4.48 4.48 0 0 0-1 2.86 4.74 4.74 0 0 0 4.08 4.7 9.68 9.68 0 0 0 3.71 6.13v2.11l-11.71 4.53-.1.05A9.42 9.42 0 0 0 18.22 45v10.81a3.61 3.61 0 0 0 3.61 3.61zM51.68 17.33a1.79 1.79 0 0 1 0 3.19zm-20 3.19a1.71 1.71 0 0 1 0-3.1zm3 1.43v-6.09a22 22 0 0 0 12-3.27c1.12 1.2 1.79 1.9 2.1 2.25V22a7 7 0 0 1-14.09 0m11.68 12.36a6.57 6.57 0 0 1-9.32.06 2.69 2.69 0 0 0 1.43-2.36v-.75a10.92 10.92 0 0 0 3.32.52 9.85 9.85 0 0 0 3.27-.56v.83a2.65 2.65 0 0 0 1.3 2.26m-17.24 22.1v-9.6a1.48 1.48 0 0 0-3 0v9.6h-4.3a.65.65 0 0 1-.65-.65V45a6.47 6.47 0 0 1 3.75-5.87l9.15-3.55.58.62a9.55 9.55 0 0 0 14 0l.64-.68 9.31 3.61A6.41 6.41 0 0 1 62.39 45v10.81a.65.65 0 0 1-.65.65h-4.35v-9.6a1.48 1.48 0 0 0-3 0v9.6z"/></g></g></svg>