<svg xmlns="http://www.w3.org/2000/svg" data-name="Layer 1" viewBox="0 0 500 500"><defs><clipPath id="a"><circle cx="251.601" cy="250" r="248.399" fill="none"/></clipPath><clipPath id="b"><circle cx="-270" cy="250" r="250" fill="none"/></clipPath></defs><circle cx="248.399" cy="250" r="248.399" fill="#434444"/><g clip-path="url(#a)"><path fill="#353535" d="M526.144 505.908c-13.351-4.861-30.253-3.858-42.4-10.536-15.125-8.315-25.824-41.814-35.395-60.851-18.807-37.4-38.652-68.651-72.552-78.861-12.79-3.852-29.11-5.745-37.807-18.532-11.054-16.252-11.417-45.549-23.776-62.1-14.655-19.62-27.267-32.344-44.4-43.177-.012 8.49-7.848 3.664-11.085 1.957-5.6-2.953-11.512-14.665-17.852-17.051-26.508-9.976-50.717-25.923-81.449-19.5-30.561 6.381-49.07 14.26-74.44-2.941-11.729-7.956-24.9-12.48-35.722-22.3-13.33-12.107-20.28-28.994-36.492-35.12a395.6 395.6 0 0 0-55.336-16.336c-.962 1.949-1.153 3.771-1.957 5.771l-82.322 296.8c38.351-1.933 76.576 19.451 113.356 27.441 27.249 5.919 53.442 16.209 81.028 22.165 57.539 12.421 116.908 19.43 174.411 32.447 56.08 12.7 109.707 49.907 168.583 49.146 57-.736 110.822 16.718 167.176 18.138 8.362-31.858-36.522-61.081-51.569-66.56z"/><path fill="#ff7577" d="M325.347 50.105a14.993 14.993 0 1 1-14.989-14.647 14.82 14.82 0 0 1 14.989 14.647zM169 448.264a10.1 10.1 0 1 1-10.1-9.87 9.987 9.987 0 0 1 10.1 9.87z"/><ellipse cx="130.674" cy="149.535" fill="#364167" rx="14.989" ry="14.646"/><path fill="#00b5a9" d="M504.343 264.959a14.991 14.991 0 1 1-14.989-14.646 14.82 14.82 0 0 1 14.989 14.646z"/><path fill="#00b4d8" d="M372.517 130.614s8.384 43.405 51.458 47.6c0-.002-4.896-30.798-51.458-47.6zM78.47 262.17s-31.034 31.482-10.107 69.364c0 0 22.615-21.47 10.107-69.364z"/></g><path fill="#f3e6d5" d="M156.697 235.01h221.922v32.475H156.697z"/><path fill="#f3e6d5" d="M156.697 235.01h221.922v3.138H156.697z" opacity=".3"/><path fill="#f3e6d5" d="M378.618 267.485H156.697v-15.591h221.921v15.591z" opacity=".5"/><path fill="#f3e6d5" d="M156.697 260.254h221.922v7.231H156.697z" opacity=".5"/><path fill="#f3e6d5" d="M283.781 265.051c.006-.008.022-.009.033-.014-.026-.018-.049-.038-.075-.056z"/><rect width="18.669" height="55.219" x="405.253" y="223.638" fill="#f3e6d5" rx="2.448" ry="2.448"/><path fill="#f3e6d5" d="M421.474 223.638h-8.085a2.448 2.448 0 0 1 2.448 2.448v50.323a2.448 2.448 0 0 1-2.448 2.448h8.085a2.448 2.448 0 0 0 2.448-2.448v-50.323a2.448 2.448 0 0 0-2.448-2.448z"/><path fill="#f3e6d5" d="M406.96 276.409v-50.323a2.448 2.448 0 0 1 2.448-2.448H407.7a2.448 2.448 0 0 0-2.447 2.448v50.323a2.448 2.448 0 0 0 2.447 2.448h1.708a2.448 2.448 0 0 1-2.448-2.448z" opacity=".7"/><path fill="#f3e6d5" d="M420.038 274.53h-12.554a2.346 2.346 0 0 1-2.231-2.447v4.326a2.347 2.347 0 0 0 2.231 2.448h12.554a2.347 2.347 0 0 0 2.232-2.448v-4.326a2.347 2.347 0 0 1-2.232 2.447z" opacity=".5"/><path fill="#f3e6d5" d="M421.474 223.638H407.7a2.448 2.448 0 0 0-2.447 2.448v3.014a2.448 2.448 0 0 1 2.447-2.448l14.57.135v49.619a2.448 2.448 0 0 1-2.448 2.448h1.652a2.448 2.448 0 0 0 2.448-2.448v-50.32a2.448 2.448 0 0 0-2.448-2.448z" opacity=".2"/><rect width="34.5" height="102.044" x="379.559" y="200.225" fill="#f3e6d5" rx="4.524" ry="4.524"/><path fill="#f3e6d5" d="M409.536 200.225H394.6a4.525 4.525 0 0 1 4.524 4.524v93a4.524 4.524 0 0 1-4.524 4.523h14.941a4.523 4.523 0 0 0 4.523-4.523v-93a4.524 4.524 0 0 0-4.528-4.524z"/><path fill="#f3e6d5" d="M382.715 297.746v-93a4.525 4.525 0 0 1 4.524-4.524h-3.156a4.525 4.525 0 0 0-4.524 4.524v93a4.524 4.524 0 0 0 4.524 4.523h3.156a4.524 4.524 0 0 1-4.524-4.523z" opacity=".7"/><path fill="#f3e6d5" d="M406.884 294.274h-23.2a4.338 4.338 0 0 1-4.124-4.524v8a4.338 4.338 0 0 0 4.124 4.523h23.2a4.337 4.337 0 0 0 4.123-4.523v-8a4.337 4.337 0 0 1-4.123 4.524z" opacity=".5"/><path fill="#f3e6d5" d="M409.536 200.225h-25.453a4.525 4.525 0 0 0-4.524 4.524v5.576a4.524 4.524 0 0 1 4.524-4.524l26.924.249v91.7a4.523 4.523 0 0 1-4.524 4.523h3.053a4.523 4.523 0 0 0 4.523-4.523v-93a4.524 4.524 0 0 0-4.523-4.525z" opacity=".2"/><rect width="51.91" height="153.541" x="342.293" y="174.477" fill="#f3e6d5" rx="6.806" ry="6.806"/><path fill="#f3e6d5" d="M387.4 174.477h-22.484a6.806 6.806 0 0 1 6.806 6.806v139.928a6.807 6.807 0 0 1-6.806 6.807H387.4a6.807 6.807 0 0 0 6.806-6.807V181.283a6.806 6.806 0 0 0-6.806-6.806z"/><path fill="#f3e6d5" d="M347.041 321.211V181.283a6.807 6.807 0 0 1 6.807-6.806H349.1a6.806 6.806 0 0 0-6.806 6.806v139.928a6.807 6.807 0 0 0 6.806 6.807h4.749a6.808 6.808 0 0 1-6.808-6.807z" opacity=".7"/><path fill="#f3e6d5" d="M383.406 315.988H348.5c-3.427 0-6.2-3.048-6.2-6.807v12.03c0 3.759 2.777 6.807 6.2 6.807h34.909c3.426 0 6.2-3.048 6.2-6.807v-12.03c.001 3.759-2.777 6.807-6.203 6.807z" opacity=".5"/><path fill="#f3e6d5" d="M387.4 174.477h-38.3a6.806 6.806 0 0 0-6.806 6.806v8.39a6.807 6.807 0 0 1 6.806-6.807l40.511.376v137.969a6.807 6.807 0 0 1-6.806 6.807h4.595a6.807 6.807 0 0 0 6.806-6.807V181.283a6.806 6.806 0 0 0-6.806-6.806z" opacity=".2"/><rect width="18.669" height="55.219" x="93.031" y="223.638" fill="#f3e6d5" rx="2.448" ry="2.448"/><path fill="#f3e6d5" d="M95.479 223.638h8.085a2.448 2.448 0 0 0-2.448 2.448v50.323a2.448 2.448 0 0 0 2.448 2.448h-8.085a2.448 2.448 0 0 1-2.448-2.448v-50.323a2.448 2.448 0 0 1 2.448-2.448z"/><path fill="#f3e6d5" d="M109.993 276.409v-50.323a2.448 2.448 0 0 0-2.448-2.448h1.708a2.447 2.447 0 0 1 2.447 2.448v50.323a2.447 2.447 0 0 1-2.447 2.448h-1.708a2.448 2.448 0 0 0 2.448-2.448z" opacity=".7"/><path fill="#f3e6d5" d="M96.914 274.53h12.555a2.347 2.347 0 0 0 2.231-2.447v4.326a2.347 2.347 0 0 1-2.231 2.448H96.914a2.347 2.347 0 0 1-2.231-2.448v-4.326a2.347 2.347 0 0 0 2.231 2.447z" opacity=".5"/><path fill="#f3e6d5" d="M95.479 223.638h13.774a2.447 2.447 0 0 1 2.447 2.448v3.014a2.447 2.447 0 0 0-2.447-2.448l-14.57.135v49.619a2.448 2.448 0 0 0 2.448 2.448h-1.652a2.448 2.448 0 0 1-2.448-2.448v-50.32a2.448 2.448 0 0 1 2.448-2.448z" opacity=".2"/><rect width="34.5" height="102.044" x="102.894" y="200.225" fill="#f3e6d5" rx="4.524" ry="4.524"/><path fill="#f3e6d5" d="M107.417 200.225h14.941a4.525 4.525 0 0 0-4.524 4.524v93a4.524 4.524 0 0 0 4.524 4.523h-14.941a4.523 4.523 0 0 1-4.523-4.523v-93a4.524 4.524 0 0 1 4.523-4.524z"/><path fill="#f3e6d5" d="M134.238 297.746v-93a4.525 4.525 0 0 0-4.524-4.524h3.156a4.525 4.525 0 0 1 4.524 4.524v93a4.524 4.524 0 0 1-4.524 4.523h-3.156a4.524 4.524 0 0 0 4.524-4.523z" opacity=".7"/><path fill="#f3e6d5" d="M110.069 294.274h23.2a4.338 4.338 0 0 0 4.124-4.524v8a4.338 4.338 0 0 1-4.124 4.523h-23.2a4.337 4.337 0 0 1-4.123-4.523v-8a4.337 4.337 0 0 0 4.123 4.524z" opacity=".5"/><path fill="#f3e6d5" d="M107.417 200.225h25.453a4.525 4.525 0 0 1 4.524 4.524v5.576a4.524 4.524 0 0 0-4.524-4.524l-26.924.249v91.7a4.523 4.523 0 0 0 4.524 4.523h-3.053a4.523 4.523 0 0 1-4.523-4.523v-93a4.524 4.524 0 0 1 4.523-4.525z" opacity=".2"/><rect width="51.91" height="153.541" x="122.75" y="174.477" fill="#f3e6d5" rx="6.806" ry="6.806"/><path fill="#f3e6d5" d="M129.556 174.477h22.481a6.806 6.806 0 0 0-6.806 6.806v139.928a6.807 6.807 0 0 0 6.806 6.807h-22.481a6.807 6.807 0 0 1-6.806-6.807V181.283a6.806 6.806 0 0 1 6.806-6.806z"/><path fill="#f3e6d5" d="M169.912 321.211V181.283a6.807 6.807 0 0 0-6.807-6.806h4.749a6.806 6.806 0 0 1 6.806 6.806v139.928a6.807 6.807 0 0 1-6.806 6.807H163.1a6.808 6.808 0 0 0 6.812-6.807z" opacity=".7"/><path fill="#f3e6d5" d="M133.547 315.988h34.909c3.427 0 6.2-3.048 6.2-6.807v12.03c0 3.759-2.777 6.807-6.2 6.807h-34.909c-3.426 0-6.2-3.048-6.2-6.807v-12.03c-.004 3.759 2.774 6.807 6.2 6.807z" opacity=".5"/><path fill="#f3e6d5" d="M129.556 174.477h38.3a6.806 6.806 0 0 1 6.806 6.806v8.39a6.807 6.807 0 0 0-6.806-6.807l-40.511.376v137.969a6.807 6.807 0 0 0 6.806 6.807h-4.593a6.807 6.807 0 0 1-6.806-6.807V181.283a6.806 6.806 0 0 1 6.804-6.806z" opacity=".2"/><g clip-path="url(#b)"><path fill="#353535" d="M6.313 507.557c-13.438-4.892-30.448-3.882-42.673-10.6-15.222-8.369-25.99-42.084-35.623-61.243-18.928-37.644-38.9-69.094-73.02-79.37-12.872-3.877-29.3-5.782-38.051-18.651-11.124-16.357-11.49-45.843-23.929-62.5-14.749-19.747-44.686-43.455-44.686-43.455s-22.742-12.79-29.123-15.191c-26.679-10.041-51.044-26.09-81.975-19.63-30.757 6.422-49.385 14.352-74.919-2.96-11.805-8.007-25.065-12.56-35.952-22.448-13.416-12.185-20.412-29.181-36.728-35.346a398.19 398.19 0 0 0-55.693-16.434c-.968 1.961-1.16 3.8-1.969 5.808l-82.853 298.715c38.6-1.945 77.069 19.577 114.086 27.617 27.425 5.958 53.787 16.314 81.55 22.309 57.911 12.5 117.662 19.555 175.535 32.656 56.442 12.777 110.414 50.228 169.67 49.462 57.368-.74 111.537 16.827 168.254 18.255 8.416-32.068-36.757-61.479-51.901-66.994z"/></g></svg>