<svg xmlns="http://www.w3.org/2000/svg" data-name="Layer 1" viewBox="0 0 500 500"><defs><clipPath id="a"><circle cx="-270" cy="250" r="250" fill="none"/></clipPath><clipPath id="b"><circle cx="771.601" cy="250" r="248.399" fill="none"/></clipPath><clipPath id="c"><circle cx="250" cy="250" r="250" fill="none"/></clipPath></defs><g clip-path="url(#a)"><path fill="#353535" d="M6.313 507.557c-13.438-4.892-30.448-3.882-42.673-10.6-15.222-8.369-25.99-42.084-35.623-61.243-18.928-37.644-38.9-69.094-73.02-79.37-12.872-3.877-29.3-5.782-38.051-18.651-11.124-16.357-11.49-45.843-23.929-62.5-14.749-19.747-27.442-32.552-44.686-43.455-.012 8.545-7.9 3.687-11.156 1.97-5.637-2.973-11.586-14.76-17.967-17.161-26.679-10.041-51.044-26.09-81.975-19.63-30.757 6.422-49.385 14.352-74.919-2.96-11.805-8.007-25.065-12.56-35.952-22.448-13.416-12.185-20.412-29.181-36.728-35.346a398.19 398.19 0 0 0-55.693-16.434c-.968 1.961-1.16 3.8-1.969 5.808l-82.853 298.715c38.6-1.945 77.069 19.577 114.086 27.617 27.425 5.958 53.787 16.314 81.55 22.309 57.911 12.5 117.662 19.555 175.535 32.656 56.442 12.777 110.414 50.228 169.67 49.462 57.368-.74 111.537 16.827 168.254 18.255 8.416-32.068-36.757-61.479-51.901-66.994z"/></g><g clip-path="url(#b)"><path fill="#353535" d="M1046.144 505.908c-13.351-4.861-30.253-3.858-42.4-10.536-15.125-8.315-25.824-41.814-35.395-60.851-18.807-37.4-38.652-68.651-72.552-78.861-12.79-3.852-29.11-5.745-37.807-18.532-11.054-16.252-11.417-45.549-23.776-62.1-14.655-19.62-27.267-32.344-44.4-43.177-.012 8.49-7.848 3.664-11.085 1.957-5.6-2.953-11.512-14.665-17.852-17.051-26.508-9.976-50.717-25.923-81.449-19.5-30.561 6.381-49.07 14.26-74.44-2.941-11.729-7.956-24.9-12.48-35.722-22.3-13.33-12.107-20.28-28.994-36.492-35.12a395.6 395.6 0 0 0-55.337-16.329c-.962 1.949-1.153 3.771-1.957 5.771l-82.322 296.8c38.351-1.933 76.576 19.451 113.356 27.441 27.249 5.919 53.442 16.209 81.028 22.165 57.539 12.421 116.908 19.43 174.411 32.447 56.08 12.7 109.707 49.907 168.583 49.146 57-.736 110.822 16.718 167.176 18.138 8.363-31.865-36.521-61.088-51.568-66.567z"/></g><circle cx="250" cy="250" r="250" fill="#434444"/><g clip-path="url(#c)"><path fill="#353535" d="M526.313 507.557c-13.438-4.892-30.448-3.882-42.673-10.6-15.222-8.369-25.99-42.084-35.623-61.243-18.928-37.644-38.9-69.094-73.02-79.37-12.872-3.877-29.3-5.782-38.051-18.651-11.124-16.357-11.49-45.843-23.929-62.5-14.749-19.747-44.686-43.455-44.686-43.455s-22.742-12.79-29.123-15.191c-26.679-10.041-51.044-26.09-81.975-19.63-30.757 6.422-49.385 14.352-74.919-2.96-11.8-8.007-25.065-12.56-35.952-22.448-13.416-12.188-20.412-29.184-36.728-35.349a398.19 398.19 0 0 0-55.693-16.434c-.968 1.961-1.16 3.8-1.969 5.808l-82.853 298.715c38.6-1.945 77.069 19.577 114.086 27.617 27.425 5.958 53.787 16.314 81.55 22.309 57.911 12.5 117.662 19.555 175.535 32.656 56.442 12.777 110.414 50.228 169.67 49.462 57.368-.74 111.537 16.827 168.254 18.255 8.416-32.065-36.757-61.476-51.901-66.991z"/><path fill="#ff7577" d="M324.221 48.816a15.09 15.09 0 1 1-15.085-14.741 14.916 14.916 0 0 1 15.085 14.741zM166.862 449.542a10.168 10.168 0 1 1-10.165-9.933 10.05 10.05 0 0 1 10.165 9.933z"/><ellipse cx="128.293" cy="148.888" fill="#364167" rx="15.085" ry="14.741"/><path fill="#00b5a9" d="M504.371 265.055a15.088 15.088 0 1 1-15.086-14.74 14.916 14.916 0 0 1 15.086 14.74z"/><path fill="#00b4d8" d="M371.7 129.845s8.438 43.684 51.79 47.905c-.005 0-4.933-30.995-51.79-47.905zM75.753 262.248s-31.234 31.685-10.172 69.812c0 0 22.761-21.609 10.172-69.812z"/></g><path fill="#f3e6d5" d="M277.8 104a154.615 154.615 0 1 0 129.645 129.64A154.7 154.7 0 0 0 277.8 104zm80.024 240.557a134.956 134.956 0 0 1-102.294 47.87c-74.456.507-135.784-60.021-136.208-134.477a135.277 135.277 0 0 1 137.265-136.032c73.548 1.063 133.16 61.5 133.263 135.055a134.712 134.712 0 0 1-32.029 87.588z"/><path fill="#f3e6d5" d="M301.812 352.466a6.458 6.458 0 0 1-5.877-3.79 153.166 153.166 0 0 1-76.145-25.412l-9.142 15.15a4.305 4.305 0 1 1-7.4-4.409l9.481-15.713a153.8 153.8 0 0 1-61.8-123.379 155.891 155.891 0 0 1 .97-17.272 129.3 129.3 0 0 0-27.19 80.205c.372 71.535 60.6 130.383 132.129 129.166a129.577 129.577 0 0 0 96.868-45.946 153.835 153.835 0 0 1-46.137 7.854 6.452 6.452 0 0 1-5.757 3.546zm-160.569-84.992a10.406 10.406 0 1 1 8.963-8.968 10.413 10.413 0 0 1-8.963 8.968zm19.73 42.536a6.463 6.463 0 1 1 5.087-5.058 6.47 6.47 0 0 1-5.087 5.058zm41.633 45.925a6.463 6.463 0 1 1 5.08-5.072 6.469 6.469 0 0 1-5.08 5.072zm53.324 26.241a10.409 10.409 0 1 1 8.973-8.958 10.413 10.413 0 0 1-8.973 8.958z"/><path fill="#f3e6d5" d="M253.859 127.284A129.646 129.646 0 0 0 151.9 177.641a155.891 155.891 0 0 0-.97 17.272 153.8 153.8 0 0 0 61.8 123.379l31.215-51.734a13.965 13.965 0 0 1 5.524-22.257c0-.075-.021-.143-.021-.219V189.29a5.151 5.151 0 0 1 4.4-5.177 5.021 5.021 0 0 1 5.652 4.987v54.986c0 .076-.019.144-.021.221a13.984 13.984 0 0 1 8.975 13.8 14.226 14.226 0 0 1-9.183 12.335 13.214 13.214 0 0 1-7.931.548l-31.55 52.274a153.166 153.166 0 0 0 76.145 25.412 6.429 6.429 0 0 1-.577-2.911 6.548 6.548 0 0 1 6.435-6.217 6.451 6.451 0 0 1 5.777 9.372 153.835 153.835 0 0 0 46.137-7.854 129.344 129.344 0 0 0 30.752-84.1c-.101-71.646-58.953-130.074-130.6-129.682zm-93.582 75.8a6.463 6.463 0 1 1 5.073-5.077 6.469 6.469 0 0 1-5.073 5.076zm45.916-41.619a6.464 6.464 0 1 1 5.081-5.068 6.467 6.467 0 0 1-5.081 5.067zm49.735-8.685a10.408 10.408 0 1 1 8.974-8.954 10.412 10.412 0 0 1-8.974 8.953zm54.347 14.42a6.464 6.464 0 1 1 5.057-5.086 6.471 6.471 0 0 1-5.057 5.086zM349 310.727a6.464 6.464 0 1 1 5.077-5.074 6.468 6.468 0 0 1-5.077 5.074zm2.879-97.6a6.462 6.462 0 1 1 5.068-5.079 6.47 6.47 0 0 1-5.067 5.081zm18.742 54.348a10.408 10.408 0 1 1 8.978-8.95 10.413 10.413 0 0 1-8.977 8.952z"/><path fill="#f3e6d5" d="M253.088 264.4a7.181 7.181 0 1 0-5.652-5.627 7.185 7.185 0 0 0 5.652 5.627z"/></svg>