<svg xmlns="http://www.w3.org/2000/svg" data-name="Layer 1" viewBox="0 0 500 500"><defs><clipPath id="a"><circle cx="250" cy="250" r="250" fill="none"/></clipPath></defs><circle cx="250" cy="250" r="250" fill="#f3e6d5"/><g clip-path="url(#a)"><path fill="#192a51" d="M638.82 617.38c-16.36-8-36.9-11.9-51.83-21.09-18.6-11.45-32.38-43.32-44.46-62.42-23.73-37.52-48.59-70.05-90.08-88.45-15.65-6.95-35.55-13.21-46.43-26.68-13.82-17.12-14.92-42.44-30.34-60.19-27.13-31.23-53-52.33-90.57-71-32.48-16.1-62.31-36.7-99.56-39.89-37.05-3.18-59.4-1.65-90.66-23.65-14.46-10.18-30.59-17.81-44-29.33C34.41 180.52 25.57 164 5.7 154.14c-21.8-10.84-45.06-21-67.71-29.76-1.13 1.41-1.32 2.92-2.25 4.42l-93.47 232.08c46.63 9.22 93.64 38.47 138.58 55.78 33.29 12.82 65.4 29.11 99.11 42.06 70.31 27 142.72 49.89 213 77.41 68.54 26.84 134.64 74.08 206.28 90.13 69.35 15.54 135.24 45.83 203.86 63 9.44-25.01-45.84-62.89-64.28-71.88z"/><path fill="#e29f71" d="M142.14 211.89s-4.76 23.36-42 21.1c0 0-22.23 9.38-31 10.74 0 0 6.5 7.59 27.31 11.91a94.56 94.56 0 0 0 13.75 2.15 23.69 23.69 0 0 1 19.45-6.26s17.56-3.09 17.36.89c0 0 .92 3.31-5.61 3.34 0 0 5.36 1.72 3.59 7.79 0 0 3.47 3.08-.75 7.58 0 0 2.66 4.85-5 5.91 0 0-5.35 5.53-20 1.16 0 0-6.61-2.52-9.81-5.22 0 0-39.79-3.11-70.5-19.55l-9.3-2.65s-8.81-4.8.89-17.36l38.79-17.72zM125 424.25s-11.79 50-52.33 93.25c0 0-3.12 13.65-30.41 7 0 0-97.06 6.24-127.08 25 0 0-5.76-22.25 6.28-29.48 0 0 29.85-4.34 52.49-16.38 0 0 29.37-15.9 66.46-7.71a127 127 0 0 0 16.36-35.17s10-51.31 20.39-62.49c.04-.03 34.72-3.27 47.84 25.98z"/><path fill="#efb289" d="M232 478.88l.65-18.95s7.84-17-9.79-28.07c0 0-45.06-47-79.67-62.7 0 0 9.14-3.27 20.25-93.38 0 0 20.89-10.44 5.87-41.13 0 0 3.19-15-11.46-32.66l-8.13-4.57-2.61-9.14 5.82-10.43 15.01 3.15s2.12.79 9.25-22.19H183l-5.81-15.05 1.85-1.85-1.04-17.15s9-16.1-25.09-23.5c0 0-32.48-7.4-41.2 33.27 0 0-8.45 26.68 8.45 30.9 0 0-1.58 18.23-13.2 22.45 0 0-11.1-1.32-18.76 3.18 0 0-18.32 6.09-22.18 14.76 5.23 11 6.16-8.39 0 8.68 3.48 8.84 23.47 51.82 26.22 62.58 0 0 10.45 37.22 0 47.67 0 0-42.44 42.45-15 74.45 0 0 12.41 11.1 49.63 26.77 0 0 30 15.68 49.63 21.55 0 0 18.28 10.45 24.15 18.29 0 0-11.75 44.42 5.88 69.23 0 0 13.06 35 13.06 62.89 0 0 13.06 6.82 28.08-4.52-.04 0-15.67-56.41-15.67-114.53z"/><path fill="#192a51" d="M143.21 368.16c.38-.21 2.86-2.08 6.62-15.32-28.11-37.6-57.61-29-57.61-29s-42.44 42.45-15 74.45c0 0 .58.5 1.77 1.4 18.81-26.28 64.18-31.45 64.18-31.45z"/><path fill="#ffd600" d="M163.4 274.81s20.89-10.44 5.87-41.13c0 0 3.19-15-11.46-32.65l-8.13-4.57s13.81 14.3 11.78 34.15c0 0-14.59 6.08-33.63-27.55 0 0-8.82-16.66-18-17.65a13.74 13.74 0 0 1-2.9 1.51s16 14.12 14.4 34c0 0-15.34 22.27-37.66 28.76a253 253 0 0 1 8.54 26.46s34.43-4.89 70.07 7.42c.37-2.83.72-5.73 1.12-8.75z"/><path fill="#ffd600" d="M86.1 256.25c2.23 6.31 4.39 13.07 6.13 19.87a128.2 128.2 0 0 1 14.77-.94l.41-1.13 1.31-9.63s24.19-28.88 25.23-32.78c-.01 0 .57-8.8-47.85 24.61z"/><path fill="#192a51" d="M129.19 148.14s-6.78-7.18 1.3-12.35c0 0 6.06-6.28 11.44 3.14 0 0 7.18 6.07 13.69-8.07 0 0 9.65-1.35 9-8.54 0 0 7-3.11 13.38 1.47 0 0 9-16.09-25.09-23.5 0 0-32.48-7.39-41.2 33.28 0 0-8.45 26.68 8.45 30.9-.02 0 10.84-2.42 9.03-16.33z"/><path fill="#efb289" d="M160.21 247.78c-3.43.44-6.86.81-10.14 1.07 0 0-23.8-1.43-37.34-2.41 0 0-22.63-38.69-37.85-47.45 0 0-20.45 8.76-8 25.84 0 0 11.51 21.12 24.65 31a128.85 128.85 0 0 0 16.31 14.44s52.84-.94 76.26-9.89c0 0 3.64 2.61 8.81-1.73 0 0 17.11 1.46 24.93.17a61.29 61.29 0 0 0 7.53-12.75s-1.66-18.19-10.09-17.34c0 0-10.1-6.09-18.06 5.66l-5.93 7.93s-15.45 3.46-31.07 5.47"/><path fill="#192a51" d="M95.48 145.59c-2.6-4.39-1.3-10 .29-14.8a4.13 4.13 0 0 1 1.69-2.59c2.12-1.11 4.64 1.78 6.88.93-1.7-4.65 3.12-10.25 8-9.27-.42.45-1.25.07-1.44-.51a2.69 2.69 0 0 1 .27-1.79 20.61 20.61 0 0 1 3.66-6.66c1.73-1.87 4.41-3.09 6.86-2.38.23-4.91 4.85-8.41 9.35-10.4a2.2 2.2 0 0 1 2-.18c.59.36.41 1.56-.27 1.44a18.17 18.17 0 0 1 13.31-8c1.67-.16 3.56 0 4.69 1.24s.67 3.77-1 3.94l12.66-.43c1.32 0 2.8 0 3.76.88 2 1.89-.12 5.13-2.17 7 2.93 1.82 8-1.13 9.69 1.87 1.06 1.86-.58 4.12-2.37 5.27-5.41 3.45-12.35 2.64-18.74 3.25a64.83 64.83 0 0 0-12.8 2.84c-9.77 3-20.25 7.78-24.13 17.24a4 4 0 0 0-.17 3.51 5.23 5.23 0 0 0 1.41 1.32c3.72 2.89 4.4 7.66 5.48 11.47 1 3.43 1.33 6.79-3 8.09-7.56 2.23-20.39-7.37-23.91-13.28z"/><path fill="#e29f71" d="M381.09 203.49s-6.87 24.71-46.66 19.51c0 0-24.57 8.39-34.09 9.19 0 0 6.4 8.63 28.41 14.85a101.29 101.29 0 0 0 14.59 3.34 25.48 25.48 0 0 1 21.35-5.24s19.09-2 18.57 2.26c0 0 .74 3.63-6.28 3.16 0 0 5.62 2.26 3.27 8.64 0 0 3.49 3.57-1.38 8.08 0 0 2.48 5.4-5.83 6 0 0-6.16 5.53-21.55-.27 0 0-6.9-3.2-10.13-6.34 0 0-42.48-6.36-74.19-26.32l-9.77-3.55s-9.1-5.82 2.26-18.56l43-16.09zM367.46 430s-12.68 53.79-56.3 100.34c0 0-3.36 14.68-32.72 7.55 0 0-104.43 6.71-136.72 26.84 0 0-6.21-23.94 6.75-31.71 0 0 32.12-4.68 56.47-17.63 0 0 31.61-17.1 71.51-8.29a136.86 136.86 0 0 0 17.61-37.84S304.78 414.07 316 402c0 0 37.3-3.46 51.46 28z"/><path fill="#efb289" d="M482.5 488.81l.7-20.39s8.43-18.26-10.54-30.21c0 0-48.47-50.59-85.71-67.46 0 0 9.83-3.51 21.78-100.47 0 0 22.48-11.23 6.32-44.25 0 0 3.43-16.16-12.33-35.13L394 186l-2.82-9.83 6.27-11.23 16.19 3.41s2.28.85 9.95-23.87h6.25l-6.25-16.2 2-2-1.14-18.48s9.66-17.32-27-25.28c0 0-34.95-8-44.33 35.8 0 0-9.09 28.7 9.09 33.24 0 0-1.7 19.61-14.2 24.16 0 0-11.94-1.42-20.18 3.41 0 0-19.72 6.55-23.87 15.89 5.62 11.84 6.63-9 0 9.34 3.74 9.5 25.25 55.75 28.22 67.32 0 0 11.23 40.05 0 51.29 0 0-45.67 45.68-16.16 80.1 0 0 13.35 11.95 53.39 28.81 0 0 32.31 16.87 53.39 23.19 0 0 19.67 11.24 26 19.67 0 0-12.64 47.79 6.33 74.49 0 0 14 37.67 14 67.66 0 0 14.05 7.34 30.21-4.87.02-.02-16.84-60.68-16.84-123.21z"/><path fill="#192a51" d="M387 369.68c.42-.23 3.08-2.24 7.12-16.48-30.24-40.46-62-31.26-62-31.26S286.49 367.61 316 402c0 0 .62.54 1.89 1.51 20.24-28.24 69.11-33.8 69.11-33.8z"/><path fill="#00b4d8" d="M408.73 269.25S431.21 258 415.05 225c0 0 3.43-16.16-12.33-35.13l-8.72-4.93s14.85 15.39 12.67 36.75c0 0-15.7 6.54-36.19-29.64 0 0-9.48-17.93-19.35-19a15.11 15.11 0 0 1-3.12 1.62s17.24 15.19 15.49 36.55c0 0-16.51 24-40.51 31a275.08 275.08 0 0 1 9.2 28.47s37-5.26 75.38 8c.36-3.08.76-6.2 1.16-9.44z"/><path fill="#ffd600" d="M325.56 249.27c2.4 6.78 4.72 14.06 6.6 21.37a138.13 138.13 0 0 1 15.88-1l.45-1.21 1.4-10.36s26-31.08 27.15-35.28c-.04 0 .62-9.46-51.48 26.48z"/><path fill="#192a51" d="M371.93 133s-7.3-7.73 1.39-13.29c0 0 6.52-6.76 12.32 3.38 0 0 7.72 6.52 14.73-8.69 0 0 10.38-1.45 9.65-9.18 0 0 7.55-3.35 14.4 1.58 0 0 9.66-17.32-27-25.28 0 0-34.95-8-44.33 35.8 0 0-9.09 28.7 9.09 33.25.01-.04 11.74-2.65 9.75-17.57z"/><path fill="#efb289" d="M405.3 240.16c-3.69.48-7.38.88-10.91 1.15 0 0-25.6-1.54-40.18-2.59 0 0-24.33-41.62-40.72-51.05 0 0-22 9.43-8.62 27.8 0 0 12.39 22.72 26.53 33.35a139.92 139.92 0 0 0 17.54 15.53s56.85-1 82.05-10.65c0 0 3.92 2.81 9.49-1.85 0 0 18.4 1.57 26.81.18a65.69 65.69 0 0 0 8.11-13.72s-1.79-19.57-10.85-18.65c0 0-10.88-6.56-19.44 6.08l-6.37 8.54s-16.63 3.71-33.44 5.88"/><circle cx="343.88" cy="113.59" r="22.74" fill="#192a51"/><path fill="#efb289" d="M275.12 188.82s25.36 3.84 25 44c0 0 11.29 23.37 13.24 32.73 0 0 7.79-7.4 11.3-30a101.85 101.85 0 0 0 1.56-14.89 25.51 25.51 0 0 1-7.79-20.57s-4.29-18.7 0-18.7c0 0 3.5-1.17 3.89 5.85 0 0 1.56-5.85 8.18-4.29 0 0 3.12-3.9 8.18.39 0 0 5.07-3.11 6.63 5.07 0 0 6.24 5.45 2.34 21.42 0 0-2.34 7.24-5.07 10.83 0 0-1.16 42.93-17.14 76.83l-2.34 10.13s-4.67 9.73-18.7 0l-21.2-40.74z"/><path fill="#192a51" d="M225.86 114.68h-6.45S201.06 100 180.05 126.6c0 0 11.1-10.14 24.63-10.14 0 0-21.73 9.91-19.08 39.36 0 0 2.39-14.24 9.77-24.14 0 0-9.53 21-4 36.46 0 0 1.3-14.49 6.57-21.25 0 0-3.3 15.82 12.09 27 0 0 31.19 12.92 23.65-19.23 0 0-15.27-1.24-19.13-16.46 0 0-2.66-12.56 5.55-16.66l4.16-.32z"/><path fill="#e29f71" d="M239.87 429s-12.69 53.79-56.31 100.34c0 0-3.35 14.69-32.71 7.56 0 0-104.43 6.71-136.73 26.84 0 0-6.2-24 6.76-31.72 0 0 32.12-4.68 56.47-17.63 0 0 31.6-17.1 71.5-8.29a136.53 136.53 0 0 0 17.61-37.84S177.19 413 188.4 401c0 0 37.31-3.5 51.47 28z"/><path fill="#efb289" d="M184.19 214.81s13.35 27.4 20.37 54.8c0 0 11.24 40 0 51.29 0 0-45.66 45.68-16.16 80.1 0 0 13.35 11.94 53.4 28.81 0 0 32.31 16.86 53.39 23.18 0 0 19.67 11.25 26 19.68 0 0-12.64 47.79 6.32 74.48 0 0 14.06 37.68 14.06 67.66 0 0 14.05 7.34 30.21-4.86 0 0-16.87-60.69-16.87-123.22l.71-20.39s8.43-18.26-10.54-30.2c0 0-48.48-50.6-85.71-67.46 0 0 9.83-3.51 21.78-100.47 0 0 22.48-11.24 6.32-44.26 0 0 3.43-16.16-12.34-35.13l-8.74-4.92-2.81-9.83 6.26-11.23 16.2 3.41s2.27.86 9.94-23.87h6.26L296 126.19l2-2-1.13-18.47s9.66-17.32-27-25.29c0 0-34.95-8-44.32 35.8 0 0-9.1 28.7 9.09 33.25 0 0-1.71 19.6-14.21 24.15 0 0-11.93-1.42-20.17 3.42 0 0-19.61 2-42.06 24.72 0 0-24.44 8.53-37.22 20.74a139.3 139.3 0 0 0-18.18 14.78s-8.29 56.28-2.89 82.71c0 0-3.41 3.42.29 9.66 0 0-4.55 17.91-4.55 26.43a65.75 65.75 0 0 0 12.22 10.23s19.6 1.43 20.17-7.67c0 0 8.24-9.66-2.84-20.17l-7.39-7.67s-1.42-25.3.29-44.9c0 0 5.68-25 9.09-39.22 0-.01 37.28-16.01 57-31.88z"/><path fill="#192a51" d="M259.42 368.64c.41-.23 3.08-2.24 7.12-16.48-30.24-40.46-62-31.26-62-31.26S158.9 366.58 188.4 401c0 0 .62.54 1.9 1.51 20.24-28.28 69.06-33.83 69.06-33.83z"/><path fill="#e92232" d="M281.14 268.21S303.62 257 287.46 224c0 0 3.43-16.16-12.34-35.13l-8.74-4.92s14.86 15.39 12.68 36.75c0 0-15.7 6.55-36.19-29.64 0 0-9.49-17.93-19.35-19a15.19 15.19 0 0 1-3.13 1.62s17.24 15.19 15.5 36.55c0 0-16.51 24-40.52 30.95a275.1 275.1 0 0 1 9.19 28.47s37-5.26 75.38 8c.4-3.08.79-6.2 1.2-9.44z"/><path fill="#ffd600" d="M198 248.24c2.39 6.78 4.72 14.06 6.59 21.37a140 140 0 0 1 15.89-1l.45-1.22L222.3 257s26-31.08 27.15-35.28c0 .03.62-9.43-51.45 26.52z"/><path fill="#192a51" d="M244.34 131.92s-7.3-7.73 1.39-13.28c0 0 6.52-6.77 12.31 3.37 0 0 7.73 6.53 14.73-8.69 0 0 10.39-1.45 9.66-9.18 0 0 7.54-3.35 14.4 1.59 0 0 9.66-17.32-27-25.29 0 0-34.95-8-44.32 35.8 0 0-9.1 28.7 9.09 33.25 0 0 11.72-2.6 9.74-17.57z"/><path fill="#ffd600" d="M474.51 163.41a10.8 10.8 0 1 1-10.8-10.56 10.67 10.67 0 0 1 10.8 10.56z"/><path fill="#ff7577" d="M346.62 373.84s22.19-3.52 34.29-37.08c0 0-31.27 6.05-34.29 37.08z"/><path fill="#00b4d8" d="M31.67 283.29s-5.18 21.86 21.24 45.82c0 0 6.31-31.22-21.24-45.82z"/><path fill="#00b5a9" d="M396.42 472.35c16.68-11.7 40.93-29.67-3.83-5.17 36-81 1.33-17.49-5.48-4.87 3.72-22.68 12.16-77.53-4.71-12.62-15.3-61.33-12.5-31.76-9.4-8.21-8.75-18-20.27-39.17-5.23 8.1-52.94-73.87-1.65 13.82-1.65 13.82-88.59-55.28-7.77 4.32-7.77 4.32-95.66-31-4.13 7.22-4.13 7.22-86.8-6.11-1.3 8.57-1.3 8.57-70.53 12.19-1.44 6-1.44 6l30.78-8.23 2.63-1c69.77-26.28 29.43-13.67 11.53-7.93z"/><path fill="#ff7577" d="M107.21 474.31s-19.51-38.47-2.53-31.72c0 0-.42-29 9.17-31.73 16.69-4.79 34.64 26 34.64 26 9.58-20.17 15.67 28.73 15.67 28.73 11.78-14.34.75 25.61.75 25.61 16.17-11.69-6.39 28.29-6.39 28.29s-62.32-17.41-36.51-20c-.01.03-34.44-27.86-14.8-25.18z"/><path fill="#364167" d="M158.52 519.53s-1.69-.47-4.4-1.27c-.6-1.91-1.35-4.29-2.23-7-9.16-2.33-21.23-8.3-21.23-8.3l20 4.39c-1-3.17-2.16-6.69-3.4-10.46-15.11-6.05-32-16.93-32-16.93l29.94 10.67c-1.08-3.25-2.2-6.62-3.37-10.06l-35.93-30.48 33.41 23.05c-3-8.73-6.12-17.61-9.14-25.74-10.7-6.3-19.79-17.1-19.79-17.1l18.35 13.26a239 239 0 0 0-9.93-23.46 268.56 268.56 0 0 1 12.91 23.61l5-16.43c-.16 6.68-2.46 15.32-3.62 19.26 3.57 7.33 7.56 16.08 11.7 26.16l7.95-29.95c0 6.17-3.68 26.12-5.54 35.91 1.42 3.6 2.86 7.35 4.29 11.24l11.3-16.21a162.25 162.25 0 0 1-9.79 20.39q1.92 5.34 3.82 11l7.66-8c-1.68 3.24-4.57 7.78-6.67 11q1.29 3.95 2.55 8c-1.09 2.13-1.84 3.45-1.84 3.45z"/><path fill="#00b5a9" d="M203.93 468.58s15.32-40.33-.84-31.81c0 0-2.67-28.86-12.49-30.58-17.11-3-31.68 29.57-31.68 29.57-11.67-19-12.54 30.23-12.54 30.23-13.23-13 2 25.55 2 25.55-17.38-9.92 9.33 27.46 9.33 27.46s60.12-23.93 34.18-23.77c0-.01 31.3-31.4 12.04-26.65z"/><path fill="#364167" d="M157.71 519s1.64-.65 4.24-1.74l1.48-7.23c8.85-3.28 20.22-10.51 20.22-10.51L164.26 506c.68-3.26 1.44-6.88 2.27-10.76 14.38-7.62 30-20.23 30-20.23l-28.62 13.79c.72-3.35 1.49-6.82 2.27-10.36l32.48-34.08-30.76 26.46c2-9 4.21-18.15 6.34-26.56 10-7.41 17.88-19.1 17.88-19.1l-16.85 15.13a239.53 239.53 0 0 1 7.39-24.39s-4.41 8.81-10.34 24.85l-6.72-15.81c.87 6.63 4.08 15 5.64 18.77-2.76 7.67-5.81 16.8-8.85 27.25L155.3 442c.68 6.14 6.43 25.58 9.32 35.12q-1.55 5.6-3.07 11.63l-13-14.92a160.56 160.56 0 0 0 11.89 19.23q-1.33 5.54-2.63 11.38l-8.46-7.14c2 3.05 5.37 7.26 7.8 10.22-.58 2.7-1.14 5.46-1.69 8.26 1.37 1.98 2.25 3.22 2.25 3.22z"/></g></svg>