<svg id="Layer_1" data-name="Layer 1" xmlns="http://www.w3.org/2000/svg" viewBox="0 0 572 572"><defs><style>.cls-1{fill:none}.cls-5{fill:#00b5a9}.cls-6{fill:#ff7577}.cls-7{fill:#364167}.cls-12{opacity:.5}.cls-9{fill:#57438e}.cls-10{fill:#381e60}.cls-11{fill:#fff2ff}.cls-12{fill:#aab8e5}.cls-13{isolation:isolate}.cls-16{fill:#433f6d}.cls-17{fill:#dbac37}.cls-19{fill:#806cbe}.cls-20{fill:#fff9ff}.cls-21{fill:#87ceff}.cls-22{fill:#ff6690}.cls-25{fill:#bcbace}.cls-26{fill:#8e90ff}</style><clipPath id="clip-path"><circle class="cls-1" cx="286" cy="286" r="286"/></clipPath><clipPath id="clip-path-2"><circle class="cls-1" cx="286.24" cy="285.96" r="286"/></clipPath></defs><g clip-path="url(#clip-path)"><g id="Layer_1-2" data-name="Layer 1-2"><circle cx="286.24" cy="285.96" r="286" fill="#f3e6d5"/><g clip-path="url(#clip-path-2)"><path class="cls-5" d="M453.74 540.33c19.08-13.39 46.83-33.94-4.38-5.91 41.16-92.66 1.52-20-6.27-5.57 4.26-26 13.91-88.7-5.39-14.45-17.49-70.15-14.3-36.33-10.7-9.4-10-20.6-23.19-44.81-6 9.27-60.56-84.51-1.88 15.81-1.88 15.81-101.34-63.24-8.89 4.94-8.89 4.94-109.43-35.48-4.72 8.26-4.72 8.26-99.3-7-1.49 9.8-1.49 9.8-80.69 14-1.65 6.9-1.65 6.9l35.21-9.42 3-1.14c79.79-30.07 33.64-15.66 13.16-9.09zM536.35 104.7c-15.66-17.27-39.49-42.25-5.32 5.08-97-29.33-20 1-4.75 6.91-26.27-1-89.74-2.78-13.67 7.14-67.43 26.07-34.27 18.71-8 11.84-19.19 12.48-41.58 28.57 10 4.8-76.33 70.59 15.92-.1 15.92-.1-50.16 108.41 6 8.21 6 8.21-21.61 113 8.79 3.65 8.79 3.65 5.39 99.4 9.91.26 9.91.26 23.91 78.33 7 .78 7 .78l-13.72-33.76-1.51-2.84c-39.74-75.48-19.71-31.48-10.65-11.97z"/><path class="cls-6" d="M122.89 542.57s-22.33-44-2.9-36.28c0 0-.47-33.16 10.49-36.31 19.1-5.48 39.63 29.8 39.63 29.8 11-23.08 17.93 32.86 17.93 32.86 13.47-16.4.85 29.3.85 29.3 18.5-13.38-7.3 32.36-7.3 32.36s-71.29-19.92-41.79-22.89c0 0-39.39-31.91-16.91-28.84z"/><path class="cls-7" d="M181.59 594.3s-1.94-.54-5-1.45c-.68-2.18-1.55-4.9-2.55-8.06-10.47-2.66-24.28-9.49-24.28-9.49l22.84 5c-1.17-3.62-2.47-7.65-3.89-12-17.28-6.92-36.6-19.36-36.6-19.36l34.25 12.21c-1.23-3.72-2.52-7.58-3.85-11.51l-41.08-34.82 38.21 26.36a1240 1240 0 0 0-10.44-29.44c-12.25-7.22-22.65-19.56-22.65-19.56l21 15.16c-4.23-11.17-8.2-20.78-11.37-26.84 0 0 6.09 9.48 14.78 27l5.72-18.79c-.18 7.64-2.81 17.53-4.13 22 4.07 8.38 8.64 18.4 13.38 29.93l9.1-34.27c0 7.07-4.21 29.88-6.34 41.09 1.62 4.11 3.27 8.4 4.91 12.86l12.92-18.55c-2.93 8-8.06 17.7-11.19 23.32q2.21 6.12 4.37 12.63l8.77-9.15c-1.92 3.71-5.23 8.91-7.64 12.57q1.48 4.5 2.93 9.19c-1.32 2.46-2.17 3.97-2.17 3.97zM18.07 127.79s1.46 1.38 3.75 3.61c-.41 2.24-.9 5-1.49 8.32 8 7.22 17.1 19.68 17.1 19.68l-17.91-15c-.64 3.75-1.36 7.92-2.13 12.44 12.09 14.16 23.42 34.1 23.42 34.1l-24.66-26.72c-.64 3.86-1.29 7.88-1.94 12l20.2 49.92L12.83 185c-1.63 10.46-3.16 21.11-4.44 31 7.5 12.08 11 27.84 11 27.84L7.81 220.61c-1.44 11.85-2.39 22.21-2.4 29 0 0-1-11.23-.55-30.78l-13.79 14C-5.22 226.18 1.7 218.65 5 215.3c.24-9.3.84-20.3 2-32.72l-24 26.12c3.29-6.26 17.61-24.5 24.71-33.44.47-4.39 1-9 1.63-13.67L-10.7 172c6.31-5.72 15.36-11.92 20.74-15.45q.9-6.44 2-13.21l-12 4c3.43-2.4 8.77-5.46 12.61-7.59.51-3.11 1.07-6.28 1.67-9.49 2.29-1.53 3.75-2.47 3.75-2.47z"/><path class="cls-5" d="M233.54 536s17.52-46.13-1-36.38c0 0-3-33-14.29-35-19.57-3.42-36.25 33.83-36.25 33.83-13.34-21.78-14.33 34.55-14.33 34.55-15.14-14.87 2.26 29.23 2.26 29.23-19.81-11.35 10.7 31.41 10.7 31.41s68.77-27.38 39.1-27.2c.07.05 35.83-35.86 13.81-30.44z"/><path class="cls-7" d="M180.66 593.69s1.87-.75 4.85-2c.45-2.24 1-5 1.69-8.27 10.13-3.77 23.13-12 23.13-12l-22.18 7.43c.78-3.73 1.65-7.88 2.6-12.32 16.45-8.72 34.34-23.14 34.34-23.14l-32.76 15.78c.83-3.83 1.7-7.81 2.6-11.86l37.16-39-35.2 30.27c2.34-10.3 4.81-20.77 7.26-30.39 11.41-8.47 20.44-21.85 20.44-21.85l-19.27 17.31a280.78 280.78 0 0 1 8.46-27.9s-5.05 10.08-11.83 28.42l-7.69-18.08c1 7.59 4.67 17.14 6.46 21.48-3.17 8.77-6.65 19.21-10.14 31.17l-12.68-33.1c.78 7 7.35 29.26 10.67 40.18q-1.78 6.39-3.52 13.31l-14.83-17.07c3.78 7.66 9.9 16.74 13.6 22q-1.5 6.32-3 13l-9.68-8.1c2.3 3.48 6.14 8.3 8.92 11.69-.66 3.09-1.31 6.24-1.93 9.44 1.52 2.19 2.53 3.6 2.53 3.6z"/><path class="cls-6" d="M119 93.85s41.22 27.12 20.52 30.06c0 0 16.87 28.55 8.91 36.73-13.86 14.23-49.19-6.21-49.19-6.21 1.9 25.5-31.87-19.63-31.87-19.63-3.56 20.92-15.28-25-15.28-25-9.42 20.8-9.72-31.71-9.72-31.71S114.14 60 90 77.2c0 0 50 8.16 29 16.65z"/><path class="cls-7" d="M42.36 78.07s2-.5 5.06-1.23c1.67 1.56 3.78 3.49 6.21 5.74 10.37-2.89 25.79-3.81 25.79-3.81l-22.31 7c2.81 2.56 5.94 5.42 9.33 8.49 18.44-2.57 41.39-1.36 41.39-1.36L72 99.29c2.92 2.62 6 5.33 9.06 8.08l52.94 9.85-46.25-3.93c7.92 7 16.07 14 23.67 20.38 14.22.19 29.37 5.74 29.37 5.74l-25.76-2.74c9.22 7.6 17.44 14 23.2 17.66 0 0-10-5.21-26.23-16.1l4.35 19.15c-3.63-6.72-6.26-16.62-7.33-21.15a533.252 533.252 0 0 1-26.47-19.35l9.11 34.27c-3.51-6.14-11.17-28-14.89-38.82-3.44-2.76-7-5.67-10.64-8.73l-2 22.52c-1.43-8.4-1.79-19.37-1.86-25.8q-4.95-4.21-10.06-8.8l-3.08 12.3c-.17-4.17.12-10.33.4-14.7q-3.53-3.18-7.09-6.53c-.07-2.79-.08-4.52-.08-4.52z"/><path class="cls-5" d="M26.18 154.45s7.68 48.75 18.92 31.09c0 0 19 27.16 29.78 23.3 18.69-6.74 14.67-47.34 14.67-47.34 22.41 12.28-4.7-37.15-4.7-37.15 20.52 5.4-16.47-24.25-16.47-24.25 22.83 0-24.88-22-24.88-22s-46.11 57.9-20.44 43c-.06.07-13.3 48.99 3.12 33.35z"/><path class="cls-7" d="M43.47 78.14s-1.25 1.57-3.22 4.14c.72 2.17 1.61 4.84 2.64 8-6.89 8.32-14.13 21.91-14.13 21.91l15.57-17.45c1.17 3.62 2.48 7.66 3.86 12-10 15.74-18.33 37.13-18.33 37.13l20.61-29.97c1.18 3.73 2.4 7.62 3.63 11.58l-12.91 52.3L56.73 134c3.08 10.11 6.13 20.42 8.77 30-5.7 13-6.9 29.11-6.9 29.11l8.14-24.59a281.67 281.67 0 0 1 6.5 28.48s-.62-11.25-3.83-30.54l15.65 11.84c-4.64-6.09-12.56-12.56-16.27-15.44-1.6-9.19-3.76-20-6.67-32.1l27.44 22.45c-4.15-5.69-20.9-21.76-29.2-29.59q-1.63-6.44-3.55-13.3l21.34 7.46c-7.08-4.78-16.9-9.62-22.72-12.35-1.22-4.15-2.51-8.42-3.85-12.78L64 94.88c-3.73-1.88-9.45-4.16-13.55-5.72-1-3-2-6.07-3-9.15-2.4-1.15-3.98-1.87-3.98-1.87z"/></g></g><path d="M526.39 373.89a1.34 1.34 0 0 0 0-.66 3.14 3.14 0 0 0-1.33-1.51l-67.82-39.17a6.56 6.56 0 0 0-6.17 0l-30.84 17.8c-1.16.68-1.44 1.35-1.35 1.92v3.15c-.15 1.14 1.35 2 1.35 2s64.75 37.4 67.84 39.17a5.87 5.87 0 0 0 2.82.79 7 7 0 0 0 3.34-.79l27.76-16 3.08-1.78a2.54 2.54 0 0 0 1.32-1.38 1.38 1.38 0 0 0 0-.67z" opacity=".5" fill="#647ddd"/><path class="cls-9" d="M533 377.42a1.17 1.17 0 0 0 0-.67v-3.52l-7.32-1.46-61.82-35.7a6.58 6.58 0 0 0-6.18 0l-28.6 16.53-3.56-.7v3.52c-.16 1.14 1.35 2 1.35 2s64.75 37.4 67.84 39.17a5.84 5.84 0 0 0 2.82.79 7 7 0 0 0 3.34-.79l27.76-16 3.08-1.78a2.48 2.48 0 0 0 1.31-1.38z"/><path class="cls-10" d="M528.63 377.05l-27.76 16a6.58 6.58 0 0 1-6.16 0l-67.84-39.17s-3.08-1.78 0-3.56l30.83-17.8a6.58 6.58 0 0 1 6.18 0l67.82 39.17s3.09 1.77 0 3.55z"/><path class="cls-11" d="M519.34 368.17l-55.46-32.05-30.85 17.79 55.54 32.03 30.77-17.77zM519 374l-.52-.31a2.55 2.55 0 0 0-2.51 0l-15.81 9.13a1 1 0 0 0 0 1.67l.19.11a2.92 2.92 0 0 0 2.89 0l15.76-9.07a.87.87 0 0 0 0-1.53z"/><ellipse class="cls-11" cx="445.37" cy="342.99" rx="1.54" ry=".65"/><path class="cls-12" d="M202.6 371.18l.12-.25.48.17.57.2 1.14.41 1.15.4.57.2.62.22c.17.06 5.21 1.71 5.89 2l64.65 37.53.91 1.28-.9 2.34-1.82 1.05-64.71-37.57v-.05c-1.76-1.53-3.65-3.57-5.4-5.09z"/><g class="cls-13"><path d="M203.84 369.81l.48.17.57.2 1.15.4 1.14.41.58.2.61.22-1.35 1.5-3.29-2.86a2.56 2.56 0 0 0 .11-.24z" fill="#342646"/><path d="M208.37 371.41c.19.06 5.73 1.87 6 2-.12.21-.21.24-.58.45a3.49 3.49 0 0 0-1.75 2.67 2.89 2.89 0 0 0 .5 1.52c-1.78-1.54-3.7-3.61-5.48-5.15-.22-.46.94-1.55 1.31-1.49z" fill="#ffe2d7"/><path class="cls-16" d="M212 376.54c0 1 .7 1.47 1.59 1a3.56 3.56 0 0 0 1.64-2.77c0-1-.7-1.46-1.59-1a3.56 3.56 0 0 0-1.64 2.77z"/></g><g class="cls-13"><path class="cls-17" d="M276.26 414.33l-64.71-37.56.91 1.28 64.72 37.56-.92-1.28z"/><path class="cls-17" d="M277.17 412l-64.72-37.57-.9 2.34 64.71 37.56.91-2.33z"/><path fill="#fccf4f" d="M278.98 410.94l-64.71-37.56-1.82 1.05L277.17 412l1.81-1.06z"/><path class="cls-16" d="M277.17 412l-.91 2.33.92 1.28 1.81-1.05.91-2.33-.92-1.29-1.81 1.06z"/></g><path class="cls-12" d="M185.26 469.09L71.32 406.24l74.19-14.9 119.99 31.42-80.24 46.33z"/><path class="cls-19" d="M180.94 391.14a3.53 3.53 0 0 1 3.31 0c.93.54 1 1.34 0 1.9a3.48 3.48 0 0 1-3.3 0c-.9-.52-1.01-1.32-.01-1.9zm2.36.57a1.59 1.59 0 0 0-1.53-.09c-.41.23-.37.6.14.9a1.61 1.61 0 0 0 1.54.08c.39-.22.36-.6-.15-.89"/><g class="cls-13"><path class="cls-20" d="M181.91 392.52a1.61 1.61 0 0 0 1.54.08c.39-.22.36-.6-.15-.89a1.59 1.59 0 0 0-1.53-.09c-.41.23-.37.6.14.9z"/><path class="cls-19" d="M177.23 393.36l-1.01.58 11.06 1.15 1.01-.58-11.06-1.15z"/><path class="cls-20" d="M182.66 396a1.62 1.62 0 0 0-1.56-.09c-.39.23-.36.6.16.9a1.59 1.59 0 0 0 1.53.09c.41-.29.37-.66-.13-.9z"/><path class="cls-19" d="M174.12 398.62l-1.88 1.08a21.67 21.67 0 0 0 19.71 0c2.65-1.52 4.11-3.55 4.12-5.71s-1.43-4.18-4-5.71a21.78 21.78 0 0 0-19.72 0l1.87 1.09a17.65 17.65 0 0 1 16 0c2.12 1.24 3.28 2.88 3.28 4.62s-1.2 3.39-3.34 4.63a17.63 17.63 0 0 1-16 0zM82.92 403.08l4.87 2.83 68.69-39.66-4.87-2.83-68.69 39.66z"/><path class="cls-20" d="M158.78 405.87a1.61 1.61 0 0 0 1.54.09c.39-.23.36-.6-.14-.9a1.64 1.64 0 0 0-1.54-.09c-.41.24-.36.6.14.9z"/><path class="cls-20" d="M150.91 412c-2.21-1.28-3.36-3-3.28-4.79s1.26-3.27 3.33-4.46a17.63 17.63 0 0 1 16 0c2.13 1.24 3.29 2.88 3.29 4.63s-1.2 3.38-3.34 4.62a17.63 17.63 0 0 1-16 0z"/><path class="cls-20" d="M159.53 409.3a1.59 1.59 0 0 0-1.56-.08c-.39.22-.35.59.16.89a1.59 1.59 0 0 0 1.53.09c.41-.2.34-.6-.13-.9z"/><path class="cls-19" d="M96.77 411.13l2.26 1.31 68.69-39.66-2.26-1.31-68.69 39.66zM101.65 413.96l2.26 1.32 68.69-39.66-2.26-1.32-68.69 39.66zM149.09 401.69l1.87 1.08c-2.07 1.19-3.25 2.78-3.33 4.46s1.07 3.51 3.28 4.79c-2.21-1.28-3.36-3-3.28-4.79s1.26-3.27 3.33-4.46a17.63 17.63 0 0 1 16 0c2.13 1.24 3.29 2.88 3.29 4.63s-1.2 3.39-3.34 4.62l1.87 1.09a21.78 21.78 0 0 1-19.72 0 21.78 21.78 0 0 0 19.72 0c2.64-1.53 4.11-3.56 4.12-5.71s-1.43-4.19-4.06-5.71a21.67 21.67 0 0 0-19.71 0z"/><path class="cls-21" d="M149.09 401.69c-2.55 1.47-4 3.42-4.11 5.5-.12 2.24 1.32 4.34 4 5.92a21.78 21.78 0 0 0 19.72 0l-1.83-1.11a17.63 17.63 0 0 1-16 0c-2.21-1.28-3.36-3-3.28-4.79s1.26-3.27 3.33-4.46z"/><path class="cls-19" d="M106.53 416.8l2.25 1.31 68.69-39.66-2.25-1.31-68.69 39.66z"/><path class="cls-20" d="M135.66 419.22a1.61 1.61 0 0 0 1.54.09c.39-.23.35-.6-.16-.89a1.59 1.59 0 0 0-1.53-.1c-.41.24-.36.61.15.9z"/><path class="cls-20" d="M127.7 425.42c-2.21-1.28-3.37-3-3.28-4.79s1.26-3.26 3.33-4.46a17.63 17.63 0 0 1 16 0c2.13 1.24 3.29 2.88 3.28 4.63s-1.19 3.39-3.33 4.62a17.54 17.54 0 0 1-16 0z"/><path class="cls-20" d="M136.4 422.66a1.6 1.6 0 0 0-1.55-.09c-.4.22-.36.6.15.9a1.6 1.6 0 0 0 1.54.08c.4-.24.36-.55-.14-.89z"/><path class="cls-21" d="M221.46 411.29l22.63 13.15 6.37-3.68-22.63-13.14-6.37 3.67z"/><path class="cls-19" d="M125.88 415.09l1.87 1.08c-2.07 1.2-3.25 2.78-3.33 4.46s1.07 3.51 3.28 4.79c-2.21-1.28-3.37-3-3.28-4.79s1.26-3.26 3.33-4.46a17.63 17.63 0 0 1 16 0l1.88-1.08a21.67 21.67 0 0 0-19.71 0z"/><path class="cls-22" d="M225.45 421.93l11.46 6.66 6.37-3.68-11.46-6.66-6.37 3.68z"/><path class="cls-21" d="M213.88 431.84l8.67 5.04 6.37-3.68-8.67-5.04-6.37 3.68z"/><path class="cls-19" d="M147.83 440.8l2.26 1.31 68.69-39.66-2.26-1.31-68.69 39.66zM154.25 444.53l2.25 1.31 68.69-39.66-2.26-1.31-68.68 39.66zM167.09 447.81l2.26 1.31 32.29-18.64-2.26-1.31-32.29 18.64zM172.48 450.94l2.26 1.31 32.29-18.63-2.26-1.32-32.29 18.64zM177.87 454.07l2.26 1.31 32.28-18.63-2.26-1.32-32.28 18.64zM182.49 456.75l2.26 1.32 32.28-18.64-2.26-1.31-32.28 18.63z"/><path class="cls-20" d="M265.51 422.76l-80.25 46.33-112.88-65.6 80.25-46.33zm-96.71-21.07a21.67 21.67 0 0 0-19.71 0c-2.55 1.47-4 3.42-4.11 5.5-.12 2.24 1.32 4.34 4 5.92a21.78 21.78 0 0 0 19.72 0c2.64-1.53 4.11-3.56 4.12-5.71s-1.43-4.19-4.06-5.71m-23.21 13.4a21.67 21.67 0 0 0-19.71 0c-2.55 1.47-4 3.42-4.12 5.5-.11 2.24 1.33 4.34 4 5.92a19.77 19.77 0 0 0 9.85 2.36 20 20 0 0 0 9.87-2.36c2.64-1.53 4.11-3.55 4.12-5.71s-1.43-4.19-4.06-5.71m46.5-26.81a21.78 21.78 0 0 0-19.72 0c-2.54 1.47-4 3.43-4.11 5.51-.12 2.24 1.33 4.33 4.05 5.91a21.67 21.67 0 0 0 19.71 0c2.65-1.52 4.11-3.55 4.12-5.71s-1.43-4.18-4-5.71M87.79 405.91l68.69-39.66-4.87-2.83-68.69 39.66 4.87 2.83m16.12 9.37l68.69-39.66-2.27-1.32-68.68 39.7 2.26 1.32m-9.75-5.67L162.85 370l-2.26-1.31L91.9 408.3l2.26 1.31m4.84 2.83l68.69-39.66-2.26-1.31-68.66 39.66 2.23 1.31m9.76 5.67l68.68-39.66-2.25-1.31-68.66 39.66 2.26 1.31m47.71 27.73l68.69-39.66-2.26-1.31-68.69 39.66 2.26 1.31m-6.41-3.73l68.69-39.66-2.26-1.31-68.69 39.66 2.26 1.31m-6.93-4l68.69-39.66-2.26-1.31-68.69 39.63 2.26 1.32m100.92-13.65l6.38-3.68-22.63-13.15-6.37 3.68 22.62 13.15m-14.35 8.29l6.37-3.68-17-9.9-6.37 3.68 17 9.9m7.18-4.14l6.37-3.68-11.46-6.66-6.37 3.68 11.46 6.66m-62.17 23.67L207 433.62l-2.26-1.32-32.29 18.64 2.26 1.32m-5.39-3.14l32.29-18.64-2.26-1.31-32.29 18.64 2.26 1.31m10.78 6.26l32.28-18.64-2.26-1.31-32.28 18.64 2.26 1.31m4.62 2.69L217 439.43l-2.26-1.31-32.28 18.64 2.26 1.31m37.8-21.19l6.37-3.68-8.67-5-6.37 3.68 8.67 5"/><path class="cls-22" d="M172.3 388.28c-2.54 1.47-4 3.43-4.11 5.51-.12 2.24 1.33 4.33 4.05 5.91l1.88-1.08c-2.2-1.28-3.36-3-3.28-4.79s1.27-3.27 3.33-4.46z"/><path class="cls-20" d="M193.42 394c0-1.74-1.16-3.38-3.28-4.62a17.65 17.65 0 0 0-16 0c-2.06 1.19-3.24 2.77-3.33 4.46s1.08 3.51 3.28 4.79a17.63 17.63 0 0 0 16 0c2.13-1.25 3.31-2.89 3.33-4.63z"/><path class="cls-19" d="M91.9 408.3l2.26 1.31 68.69-39.66-2.26-1.31L91.9 408.3z"/><path class="cls-21" d="M125.88 415.09c-2.55 1.47-4 3.42-4.12 5.5-.11 2.24 1.33 4.34 4 5.92a19.77 19.77 0 0 0 9.85 2.36 20 20 0 0 0 9.87-2.36c2.64-1.53 4.11-3.55 4.12-5.71s-1.43-4.19-4.06-5.71l-1.88 1.08c2.13 1.24 3.29 2.88 3.28 4.63s-1.19 3.39-3.33 4.62a17.54 17.54 0 0 1-16 0c-2.21-1.28-3.37-3-3.28-4.79s1.26-3.26 3.33-4.46zM212.68 422.83l17.05 9.9 6.37-3.68-17.04-9.9-6.38 3.68z"/><path class="cls-19" d="M140.9 436.77l2.26 1.32 68.69-39.66-2.26-1.31-68.69 39.65z"/></g><path class="cls-12" d="M293.52 386.37L143.83 321l150.6-82.92S450.19 304.89 438.69 308s-145.17 78.37-145.17 78.37z"/><ellipse cx="379.97" cy="246.27" rx="32.1" ry="13.17" fill="#ddcebc" opacity=".64"/><path class="cls-20" d="M397.38 194.27l-29.63 9.95v37.29c0 7.55 10 13.67 22.43 13.67s22.44-6.12 22.44-13.67v-37.29z"/><ellipse class="cls-20" cx="390.18" cy="204.22" rx="22.44" ry="13.67"/><path d="M371.08 211.39c3.95 3.9 11 6.5 19.1 6.5s15.15-2.6 19.11-6.5a7.55 7.55 0 0 0 .42-2.45c0-6.57-8.74-11.9-19.53-11.9s-19.52 5.33-19.52 11.9a7.55 7.55 0 0 0 .42 2.45z" fill="#a04a58"/><path class="cls-25" d="M390.18 192.12c11.32 0 20.87 5.54 20.87 12.1s-9.55 12.1-20.87 12.1-20.86-5.54-20.86-12.1 9.55-12.1 20.86-12.1m0-1.57c-12.39 0-22.43 6.12-22.43 13.67s10 13.67 22.43 13.67 22.44-6.12 22.44-13.67-10-13.67-22.44-13.67z"/><path class="cls-20" d="M409.33 219.29l-.82-.47v3.8a13.92 13.92 0 0 1 6.13 11.51 2.49 2.49 0 0 1-2.25 4h-3.88v3.25a9.34 9.34 0 0 0 4.69-1.27h3.88a9.27 9.27 0 0 0 4.69-8.13 17.17 17.17 0 0 0-12.44-12.69z"/><path class="cls-25" d="M405.45 221.47l-.82-.48v3.8a13.92 13.92 0 0 1 6.13 11.51 6.18 6.18 0 0 1-6.13 6.15v3.25a9.41 9.41 0 0 0 9.38-9.4 17.17 17.17 0 0 0-8.56-14.83z"/><path class="cls-9" d="M189.35 190.21l129.75-74.32a11.48 11.48 0 0 1 8-1.37c3.68.85 7.13 2 7.12 5.22l.2 120.6-11.42 6.75c3.74 1.82 117.63 57.25 117.82 57.39l.27 4.65a5.59 5.59 0 0 1-2.8 4.86c-19.38 11.23-132.95 76.89-132.95 76.89a12.07 12.07 0 0 1-12.08 0l-107.94-62.4a3.63 3.63 0 0 1-1.82-3.15l-.19-124.67a12.07 12.07 0 0 1 6.04-10.45z"/><path class="cls-10" d="M187.1 324.92l147.4-84.1.3-120.33a4.51 4.51 0 0 0-6.76-3.93l-135.92 77.86a9.55 9.55 0 0 0-4.8 8.25z"/><path class="cls-10" d="M328.74 123.54L193.8 201l-.28 113.28 135.22-77.62V123.54z"/><path class="cls-20" d="M187.19 324.91l147.32-85 104.18 60.22a4.51 4.51 0 0 1 0 7.82l-135.63 78.42a9.51 9.51 0 0 1-9.54 0z"/><path class="cls-9" d="M228 327.53l-7.34 4.21-7.41-4.19 7.33-4.21zM238.79 321.31l-7.34 4.21-7.45-4.19 7.33-4.21zM249.61 315.09l-7.33 4.22-7.42-4.2 7.34-4.21zM260.44 308.88l-7.33 4.21-7.42-4.19 7.34-4.22zM271.27 302.66l-7.34 4.21-7.41-4.19 7.33-4.21zM282.1 296.44l-7.34 4.21-7.42-4.19 7.34-4.21zM292.92 290.22l-7.33 4.22-7.42-4.2 7.34-4.21zM303.75 284l-7.33 4.21L289 284l7.34-4.22zM314.58 277.79l-7.34 4.21-7.41-4.19 7.33-4.21zM325.41 271.57l-7.34 4.21-7.42-4.19 7.34-4.21zM336.23 265.35l-7.33 4.22-7.42-4.2 7.34-4.21zM347.06 259.14l-7.34 4.21-7.41-4.19 7.33-4.22zM238.37 333.41l-7.37 4.21-7.41-4.19 7.33-4.21zM249.2 327.19l-7.34 4.22-7.42-4.2 7.34-4.21zM260 321l-7.33 4.21-7.4-4.21 7.34-4.22zM270.85 314.76l-7.34 4.24-7.41-4.19 7.33-4.21zM281.68 308.54l-7.34 4.21-7.41-4.19 7.33-4.21zM292.5 302.32l-7.33 4.22-7.42-4.2 7.34-4.21zM303.33 296.11l-7.33 4.21-7.42-4.19 7.34-4.22zM314.16 289.89l-7.34 4.21-7.41-4.19 7.33-4.21zM325 283.67l-7.34 4.21-7.41-4.19 7.33-4.21zM335.81 277.45l-7.33 4.22-7.42-4.2 7.34-4.21zM346.64 271.24l-7.33 4.21-7.42-4.19 7.34-4.22z"/><path class="cls-9" d="M357.47 265l-12.3 7.06-7.42-4.19 12.3-7.06zM253.62 336.51l-12.18 7-7.44-4.19 12.18-7z"/><path class="cls-9" d="M259.6 333.08l-7.33 4.21-7.42-4.19 7.34-4.21zM270.43 326.86l-7.33 4.21-7.42-4.19 7.33-4.21zM281.26 320.64l-7.34 4.22-7.41-4.2 7.33-4.21zM292.09 314.43l-7.34 4.21-7.42-4.19 7.34-4.22zM302.91 308.21l-7.33 4.21-7.42-4.19 7.34-4.23zM313.74 302l-7.33 4.21L299 302l7.34-4.21zM324.57 295.77l-7.34 4.23-7.41-4.2 7.33-4.21zM335.4 289.56l-7.34 4.21-7.42-4.19 7.34-4.22zM346.22 283.34l-7.33 4.21-7.42-4.19 7.34-4.21zM357.05 277.12l-7.33 4.21-7.42-4.19 7.33-4.21zM367.88 270.9l-7.34 4.22-7.41-4.2 7.33-4.21zM259.19 345.18l-7.34 4.21-7.41-4.19 7.33-4.21zM270 339l-7.33 4.21-7.41-4.21 7.34-4.21zM280.84 332.75l-7.33 4.25-7.42-4.19 7.33-4.22zM291.67 326.53l-7.34 4.21-7.41-4.19 7.33-4.21zM302.5 320.31l-7.34 4.21-7.42-4.19 7.34-4.21zM313.32 314.09l-7.32 4.22-7.42-4.2 7.34-4.21zM324.15 307.88l-7.34 4.21-7.41-4.19 7.33-4.22zM335 301.66l-7.34 4.21-7.41-4.19 7.33-4.21zM345.81 295.44l-7.34 4.21-7.42-4.19 7.34-4.21zM356.63 289.22l-7.33 4.22-7.42-4.2 7.34-4.21zM372.14 280.32l-12 6.9-7.43-4.22 12-6.9z"/><path class="cls-9" d="M378.29 276.79L371 281l-7.42-4.19 7.34-4.21zM271 351.88l-7.33 4.21-7.42-4.19 7.34-4.21zM281.86 345.66l-7.33 4.21-7.42-4.19 7.33-4.21zM292.69 339.44l-7.34 4.21-7.41-4.19 7.33-4.21zM357.65 302.14l-61.47 35.3-7.42-4.19L350.24 298zM368.48 295.92l-7.33 4.21-7.42-4.19 7.33-4.21zM379.31 289.7l-7.31 4.22-7.41-4.2 7.33-4.21zM390.13 283.49l-7.33 4.21-7.42-4.19 7.34-4.22zM307.42 340.46l50.55-29.19 28.89 17.8-50.53 29.19-28.91-17.8z"/><path class="cls-19" d="M307.8 197.01l8.77-5.07v.37l-8.62 4.98-.15-.28zM301.07 201.26l-.17-.27 3.41-1.97-.16.46-3.08 1.78zM311.81 204.45l4.79-2.76v.35l-4.64 2.68-.15-.27z"/><g class="cls-13"><path class="cls-26" d="M311.96 204.72l4.67 8.68-5.77 3.34-16.11 9.3 7.89-22.3 1.51-4.26.16-.46 1.82-5.12 1.67 3.11.15.28 3.86 7.16.15.27z"/><path class="cls-21" d="M301.07 201.26l1.57 2.48-7.89 22.3-5.89-2.23 2.81-7.37.17-.46 4.6-12.04.18-.48 2.19-5.77 2.09 3.3.17.27z"/><path class="cls-26" d="M282.85 221.53l6.01 2.28 5.89 2.23-8.64 4.99-15.1 8.71 9.84-15.37 1.71-2.68.15-.22.14.06z"/><path class="cls-19" d="M279.94 223.21l-.19-.25 12.09-6.98-.17.46-8.82 5.09-.14-.06-.15.22-2.62 1.52z"/><path class="cls-21" d="M279.94 223.21l.91 1.16-9.84 15.37-2.3-4.47 3.07-7.35.2-.47 3.91-9.38 3.86 4.89.19.25z"/><path class="cls-19" d="M266.5 230.97l-.14-.28 5.62-3.24-.2.47-5.28 3.05zM262.64 223.45l-.14-.29 34.12-19.7-.18.48-33.8 19.51z"/><path class="cls-26" d="M266.5 230.97l2.21 4.3 2.3 4.47-5.49 3.17-14.25 8.23 6.53-21.15 1.41-4.56.14-.45 1.53-4.96 1.62 3.14.14.29 3.72 7.24.14.28z"/><path class="cls-19" d="M256.14 227.2l-.16-.27 3.37-1.95-.14.45-3.07 1.77zM251.36 219.2l65.18-37.63v.37l-65.01 37.54-.17-.28zM316.52 171.83v.37l-109.63 63.29-.42.24v-.37l.42-.24 109.63-63.29z"/></g><path class="cls-19" d="M206.5 245.11l.42-.24 41.93-24.22-.18.48-41.75 24.1-.42.25v-.37zM239.85 236.6l-.2-.25 3.95-2.28-.19.48-3.56 2.05zM206.56 265.22l.42-.24 7.85-4.54-.24.5-7.61 4.39-.42.25v-.36z"/><g class="cls-13"><path class="cls-26" d="M239.85 236.6l1.84 2.34 9.58 12.2-18.55 10.71-14.94 8.63 6.43-15.82 4.8-11.8.2-.48 5.18-12.73 5.26 6.7.2.25z"/><path class="cls-21" d="M219.53 250.69l4.68 3.97-6.43 15.82-10.77 6.21 7.58-15.75.24-.5 4.7-9.75z"/><path class="cls-19" d="M206.53 255.47l.42-.24 22.26-12.85-.2.48-22.06 12.74-.42.24v-.37z"/></g><path class="cls-21" d="M256.14 227.2l1.66 2.79-6.53 21.15-9.58-12.2 1.72-4.39.19-.48 5.07-12.94.18-.48 1.34-3.41 1.17 1.96.17.28 4.45 7.45.16.27z"/><path class="cls-19" d="M316.49 160.85v.36l-110.05 63.53v-.36l110.05-63.53zM206.86 224.68l.03 10.44-.42.24v.37l.42-.24.03 9.38-.42.24v.37l.42-.25.03 10-.42.24v.37l.42-.24.03 9.38-.42.24v.36l.42-.25.03 11.36 110.09-63.56v.49l-110.51 63.8-.15-52.49.42-.25z"/><path d="M328 116.56l-135.88 77.86a9.55 9.55 0 0 0-4.8 8.25l-.22 122.25 4.44-2.53C218 283.33 317.56 136.08 330.63 116a4.53 4.53 0 0 0-2.63.56z" opacity=".2" fill="#fff9ff"/><path class="cls-5" d="M536.35 104.7c-15.66-17.27-39.49-42.25-5.32 5.08-97-29.33-20 1-4.75 6.91-26.27-1-89.74-2.78-13.67 7.14-67.43 26.07-34.27 18.71-8 11.84-19.19 12.48-41.58 28.57 10 4.8-76.33 70.59 15.92-.1 15.92-.1-50.16 108.41 6 8.21 6 8.21-21.61 113 8.79 3.65 8.79 3.65 5.39 99.4 9.91.26 9.91.26 23.91 78.33 7 .78 7 .78l-13.72-33.76-1.51-2.84c-39.74-75.48-19.71-31.48-10.65-11.97z"/><path class="cls-6" d="M370 462.69a17.26 17.26 0 1 1-17.66-16.84h.39A17.07 17.07 0 0 1 370 462.69z"/><ellipse class="cls-7" cx="177.87" cy="51.72" rx="11.89" ry="11.61"/><path class="cls-5" d="M51.56 351.6a12.19 12.19 0 1 1-12.47-11.9h.28a12.06 12.06 0 0 1 12.19 11.9z"/><path d="M204.27 36.82S234 61.54 265.45 40.5c0 0-20.38-18.12-61.18-3.68z" fill="#00b4d8"/></g></svg>