<svg xmlns="http://www.w3.org/2000/svg" data-name="Layer 1" viewBox="0 0 500 500"><defs><clipPath id="a"><circle cx="250" cy="250" r="250" fill="none"/></clipPath></defs><circle cx="250" cy="250" r="250" fill="#f3e6d5"/><g clip-path="url(#a)"><path fill="#2c3893" d="M260 242.7c.17-5.64 1.67-10.18 5.55-14.36 6.16-6.63 7.52-1.85 14.66-4.7 4.8-1.92 5.45-7.45 12.1-8.22 2.63-.3 3.76 3 6.05 2.84 3.26-.21 4.65-2.27 7.83-2.84 4.95-.89 9.21-3.06 14.6-1.8s5.85 4.35 10.78 3.58c7.14-1.12 9.27-10 17.22-8.9 5.24.74 10.65 7.55 14.44 11 12.95-3.47 37.76-8.25 30.13 12.07 10.42 2.23 17.72 3.06 21 15.21-.79-.16-2.66-.63-2.9-.68 22.22-4 19.83 17.41 32.25 26.05 2.42 1.68 6.15 1.27 8.34 3.73 2.33 2.62-.14 6.23 2.74 9.19 2.23 2.28 7.32 1.74 10.14 4.16 2.64 2.27 5.85 8.61 6.89 11.88-2.46 4.18.06 7.63-1.63 12.59-1.05 3.11-5.19 9.91-7 12.2-8.21 10.38-22 15.43-34.67 16.88-18 2.06-41.53 1.79-58.24-3.79-6.49-2.17-13.09-5.08-19.46-7.31-15.21-5.33-36.8-11.24-50.45-20.19"/><path fill="#364167" d="M463.27 430.24c-18-12.12-53.42-7.69-76.21-7.52-6.6 0-39.57 2.66-31.67-7.9 4.57-6.1 31.23-2.6 38.61-7.3 23.39-14.9-35.2-11.53-45.46-9.65-25.46 4.67-49.19 8.19-74.67 9.86 7.92-1.4 31.75-8.48 24.44-14.79-2.66-2.29-8-3.06-14.36-3-34.64-5.83-69.39.13-102.83 2.82-22.18 1.78-88.62.86-83.32 26 4.48 1.72 8.86 3.58 13 5.55-2.94 12.34-48.1 9.12-43 24.37 30.14 6.18 61.23 2 92.36 4.12 43.23 2.95 84.56.19 127.12-3.2 21.23-1.69 181.22-.52 175.99-19.36z"/><path fill="#364167" d="M563.21 464.48c-18-12.12-53.42-7.69-76.21-7.53-6.6.05-39.57 2.67-31.67-7.89 4.58-6.11 31.23-2.61 38.61-7.31 23.39-14.89-35.2-11.52-45.46-9.64-25.46 4.66-49.19 8.18-74.67 9.86 7.92-1.41 31.75-8.49 24.44-14.79-2.66-2.29-8-3.06-14.36-3-34.64-5.83-69.39.13-102.83 2.81-16.35 1.32-56.77 1.16-74.75 11.07a10.54 10.54 0 0 0 .85 18.84l.13.06a3.22 3.22 0 0 1 .7 5.47c-7.35 5.62-26.63 6.85-35.72 11.8a5.38 5.38 0 0 0 1.37 10c30.34 7 75.31 22.5 104.5 24.49 43.23 2.94 66.57-21.45 109.13-24.84 21.18-1.73 181.17-.56 175.94-19.4z"/><path fill="#192a51" d="M508.23 328.61c-11.41-.41-24.2 2.56-35.11 1.09-13.58-1.84-29.6-16.61-41.39-24.5-23.17-15.49-45.72-27.82-74.21-27.82-10.74 0-23.76 1.48-33.43-3.49-12.28-6.3-19.36-20.55-32.73-26.81-23.51-11-43.72-16.53-70-17.66-22.74-1-45.1-5.19-67.29 2.46s-34.49 14.17-58 9.5c-10.89-2.16-22.09-2.43-32.7-5.63C50.24 231.8 41 224.58 27.05 224c-15.27-.66-31.21-.6-46.43.17a24.76 24.76 0 0 0-.16 3.1l5.45 157c29.1-6.58 63.51-1.77 93.7-3.27 22.37-1.12 44.94.05 67.58-1.1 47.21-2.39 94.58-7.7 141.91-9.8 46.15-2 96.11 8.23 141.3-.8 43.74-8.73 89.26-8.13 133-15.72-.94-16.85-42.3-24.51-55.17-24.97z"/><path fill="#df4994" d="M169.66 396.24c19.14-7 47.21-18.08-2.36-6 55.69-68.94 5.8-16.55-4-6.12 9.47-20.95 31.79-71.75-1.28-13.41 1.08-63.2-3.87-33.92-7-10.37-3.8-19.65-9.46-43.07-7.15 6.48-32-85-5.16 12.92-5.16 12.92-71.29-76.3-8.62 2.16-8.62 2.16-84.4-54.69-5.86 5.92-5.86 5.92-82.27-28.35-3.47 7.93-3.47 7.93-71.29-6.45-3 5.45-3 5.45h31.86l2.8-.27c74.25-7.35 32.02-5.61 13.24-4.69z"/><path fill="#ff7577" d="M271.77 57.56a15.09 15.09 0 1 1-15.08-14.74 14.91 14.91 0 0 1 15.08 14.74z"/><path fill="#df4994" d="M371.14 390.38s-19.51-38.47-2.53-31.72c0 0-.42-29 9.17-31.73 16.69-4.79 34.64 26 34.64 26 9.58-20.17 15.67 28.73 15.67 28.73 11.78-14.34.75 25.61.75 25.61 16.17-11.7-6.39 28.29-6.39 28.29s-62.31-17.41-36.51-20c0 .03-34.44-27.86-14.8-25.18z"/><path fill="#364167" d="M422.45 435.6s-1.69-.47-4.4-1.27c-.6-1.91-1.35-4.29-2.23-7-9.16-2.33-21.23-8.3-21.23-8.3l20 4.39c-1-3.17-2.16-6.69-3.4-10.47-15.11-6.05-32-16.92-32-16.92l29.94 10.67c-1.08-3.25-2.2-6.62-3.37-10.06l-35.91-30.44 33.41 23c-3-8.74-6.12-17.61-9.13-25.74-10.71-6.31-19.8-17.1-19.8-17.1l18.35 13.26a236.6 236.6 0 0 0-9.93-23.46s5.32 8.28 12.91 23.6l5-16.42c-.16 6.68-2.46 15.32-3.62 19.26 3.57 7.33 7.56 16.08 11.7 26.16l7.95-30c0 6.18-3.68 26.12-5.54 35.92 1.42 3.59 2.86 7.35 4.29 11.24l11.3-16.21a161.39 161.39 0 0 1-9.74 20.43q1.92 5.36 3.82 11l7.66-8c-1.68 3.24-4.57 7.79-6.67 11q1.29 3.94 2.56 8c-1.17 2.14-1.92 3.46-1.92 3.46z"/><path fill="#704aad" d="M467.86 384.65s15.32-40.33-.84-31.81c0 0-2.67-28.86-12.49-30.58-17.11-3-31.68 29.57-31.68 29.57-11.67-19-12.54 30.23-12.54 30.23-13.23-13 2 25.55 2 25.55-17.32-9.92 9.35 27.45 9.35 27.45s60.12-23.93 34.18-23.77c-.02 0 31.28-31.39 12.02-26.64z"/><path fill="#192a51" d="M421.64 435.06s1.64-.65 4.24-1.74l1.48-7.23c8.85-3.29 20.22-10.51 20.22-10.51l-19.39 6.49c.68-3.26 1.44-6.89 2.27-10.77 14.38-7.62 30-20.22 30-20.22l-28.64 13.79c.72-3.35 1.49-6.82 2.27-10.36l32.48-34.08-30.76 26.46c2-9 4.21-18.16 6.34-26.56 10-7.41 17.88-19.1 17.88-19.1l-16.83 15.13a239.53 239.53 0 0 1 7.39-24.36s-4.41 8.81-10.34 24.84L433.53 341c.87 6.63 4.08 15 5.64 18.77-2.76 7.67-5.81 16.8-8.85 27.25l-11.09-28.92c.68 6.14 6.43 25.58 9.32 35.12-1 3.72-2.06 7.61-3.07 11.63l-13-14.92a160.56 160.56 0 0 0 11.89 19.23q-1.34 5.54-2.63 11.38l-8.46-7.14c2 3.05 5.37 7.26 7.8 10.22-.58 2.7-1.14 5.46-1.69 8.26 1.37 1.95 2.25 3.18 2.25 3.18z"/><ellipse cx="128.29" cy="148.89" fill="#364167" rx="15.09" ry="14.74"/><path fill="#00b5a9" d="M504.37 265.06a15.09 15.09 0 1 1-15.08-14.75 14.91 14.91 0 0 1 15.08 14.75z"/><path fill="#00b4d8" d="M366.45 101.87s8.44 43.69 51.79 47.91c0 0-4.93-31-51.79-47.91z"/><circle cx="257.43" cy="159.53" r="33.65" fill="#192a51"/><path fill="#192a51" d="M218.37 424.2s46.71 23.17 88.63-1.37c0 0 17.86-11.57 44.61-33.42 0 0-37.46 2.07-38.83 2.75S258.62 415 256.38 415s-38.01 9.2-38.01 9.2z"/><path fill="#192a51" d="M175.71 391.21s28 43.55 80.67 25.83v-12.27l-61.19-26.59zM265.61 402.78l-41.89-30.81-1.64-18.48 66.12-4.93 17.99 16.4 2.25 10.71-42.83 27.11z"/><path fill="#efb289" d="M242.46 216.36c-6.39.16-17.5 6.82-17.5 6.82a71.88 71.88 0 0 0-22 4.62c-15 8.46-11.18 39.43-11.18 39.43L185.06 310c-5.75-.32-17.25 7.5-17.25 7.5a63.19 63.19 0 0 1-19 4.95c-3-3.83-10.7-3.51-10.7-3.51-2.55-4.64-8.78-5.43-8.78-5.43-8-15.8-9.73-12-9.73-12-1.76-4.15-2.55-2.88-2.55-2.88-3.36-6.54-4.48-.32-4.48-.32a2.69 2.69 0 0 0-3.35-1l1 14.69 2.55 10.05-7.18-3.67c-.79-4.63-2.4-6.39-2.4-6.39.8-8.14-4.14-9.57-4.14-9.57l-.65 9.89 1.92 9.1 15.77 11.57c6.78.8 27.5 4 27.5 4 45.44 2.39 61.38-10.37 61.38-10.37l6.78-38.27s13.94 34.68-1.6 76.54c0 0 56.15-8.16 96.07 0h2.25c-15.55-41.86-1.6-76.54-1.6-76.54l8.42 29.85c1.37 10 10.17 11.19 10.17 11.19 8.48 4.06 55.92 7.45 55.92 7.45l32.89-7.11 12.2-12.21c3.21-12.54.85-18.64.85-18.64-5.26.16-5.6 14.57-5.6 14.57-3.38 1-5.76 4.91-5.76 4.91h-3.56l3.56-9.14-2.54-8-2.88-9.5c-4.58.85-4.58 3.74-4.58 3.74-3.55 1.35-5.08 9.82-5.08 9.82l-3.12 6.73c-7.78 1.77-20.5 9.89-20.5 9.89l-14.84-2.47c-7.77-4.95-25.09-12.37-25.09-12.37-8.49-13.78-8.92-43.29-8.92-43.29 2.23-49.34-32.09-41.66-32.09-41.66-5.91-5.27-20.44-5-20.44-5"/><path fill="#efb289" d="M243.88 188.81h28.85v43.71h-28.85z"/><path fill="#e7a8b0" d="M273.81 189.82h-32.09a74 74 0 0 1 1.57 7.61c3.9 3.85 13.09 3.82 13.09 3.82 7.15.6 11.73-1.47 14.39-3.42a35.52 35.52 0 0 1 3.04-8.01z"/><path fill="#efb289" d="M197.45 350.1s-6.23-9.07-22.8-13.93c0 0-16.58-10.19-26.87 4.35 0 0-9.93 16 0 25.91l13.48 11S177.22 404 223 404c0 0 30.51 5.32 49.67 15.25 0 0 2.84 2.13 8.16 1.42 0 0 29.44 8.32 40.09 5 0 0 3.9-4.69 2.13-8.94 0 0 2.13-12.78-4.25-15.26 0 0 6.07-12.59-33.72-2.48 0 0-12.48.36-30.18-9.23 0 0-4.88-3.66-15.93-15.25.03.07-13.85-17.66-41.52-24.41z"/><path fill="#efb289" d="M318.8 401.54s6.07-12.59-33.72-2.48c0 0-5.15.13-13.5-2.29-7.52 4.32-16.62 9.4-24 13 8.44 2.43 17.64 5.6 25.11 9.47 0 0 2.84 2.13 8.16 1.42l.59.17c8-2.74 16-5.3 22-6.81a132.07 132.07 0 0 0 19.78-5.19c-.45-3.09-1.6-6.19-4.42-7.29z"/><path fill="#e92232" d="M306.84 288.42c.56-10.88-.15-30.34-.15-30.34-9-10.42-10.37-36-10.37-36a17.8 17.8 0 0 0-7-3.4c6.49 40.08-29.41 37.11-29.41 37.11-33.62-1.79-28.59-29.96-26.91-36.74a81 81 0 0 0-8.07 4.13c-1.22 18.73-10.68 34.9-10.68 34.9a133.39 133.39 0 0 0-2.56 30.34s13.94 34.68-1.6 76.54c0 0 56.15-8.16 96.07 0h2.25c-15.52-41.86-1.57-76.54-1.57-76.54z"/><path fill="#b2182b" d="M211.66 283.42v2.48c0 1.61.06 2.52.06 2.52A77.6 77.6 0 0 1 215 300.2c19.26 6.24 34.91-8.93 34.91-8.93-29.46 12.29-38.23-7.8-38.25-7.85zM303.5 300.35a79 79 0 0 1 3.34-11.93c.07-1.36.12-2.87.16-4.45-1.68 3.14-11.42 18.38-38 7.3 0 0 15.44 14.98 34.5 9.08z"/><path fill="#192a51" d="M226.83 404.77c16.84-15.22 10.27-32.22 10.21-32.35a81.67 81.67 0 0 0-39.59-22.32s-6.23-9.07-22.8-13.93c0 0-16.58-10.19-26.87 4.35 0 0-9.93 16 0 25.91l13.48 11S177.22 404 223 404c0 0 1.41.28 3.83.77z"/><path fill="#efb289" d="M331.74 351s-32.44 11.49-45.58 31.21c0 0-33.41 20.27-46.89 25.33 0 0-20.06.95-32 1.78 0 0-15.6-5.76-20.53 3.27 0 0-7.81 1.66-7 10.69 0 0-2.58 3.29-.06 8.62 0 0-.76 6.17 8.28 4.52 0 0 .9-.18 8.21.28 2.06.13 17.25-2.74 27.93-3.15 0 0 16-.2 25.46-7.08 0 0 35.88-13.84 53.8-18.39 0 0 36.55-5.7 60.78-28.51L381.42 365s5.3-10.88 0-19.66c0 0-16.41-24.23-33.25-6.16 0-.04-11.5 4.05-16.43 11.82z"/><path fill="#192a51" d="M302.29 408.41l1.11-.29s36.55-5.7 60.78-28.51L381.42 365s5.3-10.88 0-19.66c0 0-16.41-24.23-33.25-6.16 0 0-11.5 4.09-16.43 11.9 0 0-30 10.63-44 29l-1.6 2.23s15.86 9.3 16.15 26.1z"/><path fill="#efb289" d="M246.57 146.85H270a7.06 7.06 0 0 1 7.06 7.06v27.47a18.79 18.79 0 0 1-18.79 18.79 18.79 18.79 0 0 1-18.79-18.79v-27.47a7.06 7.06 0 0 1 7.06-7.06z"/><circle cx="258.3" cy="146.42" r="14.42" fill="#192a51"/><circle cx="258.3" cy="123.69" r="14.42" fill="#192a51"/></g></svg>