<svg xmlns="http://www.w3.org/2000/svg" data-name="Layer 1" viewBox="0 0 500 500"><defs><clipPath id="a"><circle cx="250" cy="250" r="250" fill="none"/></clipPath><clipPath id="b"><circle cx="770" cy="250" r="250" fill="none"/></clipPath><clipPath id="c"><circle cx="-270" cy="250" r="250" fill="none"/></clipPath></defs><circle cx="250" cy="250" r="250" fill="#434444"/><g clip-path="url(#a)"><path fill="#353535" d="M526.313 507.557c-13.438-4.892-30.448-3.882-42.673-10.6-15.222-8.369-25.99-42.084-35.623-61.243-18.928-37.644-38.9-69.094-73.02-79.37-12.872-3.877-29.3-5.782-38.051-18.651-11.124-16.357-11.49-45.843-23.929-62.5-14.749-19.747-27.442-32.552-44.686-43.455-.012 8.545-7.9 3.687-11.156 1.97-5.637-2.973-11.586-14.76-17.967-17.161-26.679-10.041-51.044-26.09-81.975-19.63-30.757 6.422-49.385 14.352-74.919-2.96-11.8-8.007-25.065-12.56-35.952-22.448-13.416-12.188-20.412-29.184-36.728-35.349a398.19 398.19 0 0 0-55.693-16.434c-.968 1.961-1.16 3.8-1.969 5.808l-82.853 298.715c38.6-1.945 77.069 19.577 114.086 27.617 27.425 5.958 53.787 16.314 81.55 22.309 57.911 12.5 117.662 19.555 175.535 32.656 56.442 12.777 110.414 50.228 169.67 49.462 57.368-.74 111.537 16.827 168.254 18.255 8.416-32.065-36.757-61.476-51.901-66.991z"/><path fill="#ff7577" d="M324.221 48.816a15.09 15.09 0 1 1-15.085-14.741 14.916 14.916 0 0 1 15.085 14.741zM166.862 449.542a10.168 10.168 0 1 1-10.165-9.933 10.05 10.05 0 0 1 10.165 9.933z"/><ellipse cx="128.293" cy="148.888" fill="#364167" rx="15.085" ry="14.741"/><path fill="#00b5a9" d="M504.371 265.055a15.088 15.088 0 1 1-15.086-14.74 14.916 14.916 0 0 1 15.086 14.74z"/><path fill="#00b4d8" d="M371.7 129.845s8.438 43.684 51.79 47.905c-.005 0-4.933-30.995-51.79-47.905zM75.753 262.248s-31.234 31.685-10.172 69.812c0 0 22.761-21.609 10.172-69.812z"/><path fill="#f3e6d5" d="M305.151 266.484c10.9 14.558 11.258 40.354 21.01 54.652a27.3 27.3 0 0 0 9.93 8.677 77.332 77.332 0 0 0 2.647-20.7q0-17.6-5.924-30.142a68.824 68.824 0 0 0-16.378-21.954 116.94 116.94 0 0 0-24.828-16.813q-11.719-6.036-25.13-11.9c14.243 9.373 26.305 21.669 38.673 38.18zM240.5 215.262q1.329.5 2.629 1.014a39.073 39.073 0 0 1-6.67-5.949 23.234 23.234 0 0 1-4.878-8.712 37.294 37.294 0 0 1-1.394-10.628 38.739 38.739 0 0 1 1.394-10.541 24.486 24.486 0 0 1 4.269-8.625 20.417 20.417 0 0 1 7.491-5.836 25.756 25.756 0 0 1 11.064-2.178 26.718 26.718 0 0 1 10.629 2.09 21.875 21.875 0 0 1 8.537 6.709 33.174 33.174 0 0 1 5.662 11.76 63.87 63.87 0 0 1 2 17.075h58.891a93.474 93.474 0 0 0-4.879-31.013 74.14 74.14 0 0 0-13.845-24.306 70.87 70.87 0 0 0-21.6-16.813 90.105 90.105 0 0 0-27.965-8.712v-37.46h-27.7V119.9a100.967 100.967 0 0 0-29.794 7.23 75.3 75.3 0 0 0-23 14.81 63.679 63.679 0 0 0-14.81 21.517 69.143 69.143 0 0 0-5.226 27.181q0 3.627.243 7.032c25.743-4.205 46.41 9.143 68.952 17.592z"/><path fill="#f3e6d5" d="M193.253 242.735a112.874 112.874 0 0 0 24.916 16.377q14.46 7.146 31.71 14.113a111.474 111.474 0 0 1 13.939 6.969 39.313 39.313 0 0 1 9.321 7.579 26.005 26.005 0 0 1 5.228 9.322 41.205 41.205 0 0 1 1.655 12.37 35 35 0 0 1-1.481 10.367 22.65 22.65 0 0 1-4.617 8.364 22.181 22.181 0 0 1-7.924 5.662 28.41 28.41 0 0 1-11.413 2.091 40.441 40.441 0 0 1-12.719-2 27.03 27.03 0 0 1-10.8-6.708 33.153 33.153 0 0 1-7.492-12.458q-2.788-7.749-2.788-19.427h-58.722q0 21.431 6.621 36.677a73.86 73.86 0 0 0 17.6 25.351 75.023 75.023 0 0 0 25.176 15.332 120.426 120.426 0 0 0 29.184 6.8V414.7h27.7v-35.019a98.578 98.578 0 0 0 28.835-7.056 71.377 71.377 0 0 0 22.218-14.461 62.861 62.861 0 0 0 16.693-28.351 27.3 27.3 0 0 1-9.93-8.677c-9.752-14.3-10.108-40.094-21.01-54.652-12.368-16.511-24.43-28.807-38.673-38.176a549.631 549.631 0 0 0-6.145-2.649 106.374 106.374 0 0 1-14.548-7.579q-1.4-.894-2.652-1.8-1.3-.516-2.629-1.014c-22.546-8.449-43.213-21.8-68.96-17.591a66.842 66.842 0 0 0 5.506 23.284 64.809 64.809 0 0 0 16.201 21.776z"/></g><g clip-path="url(#b)"><path fill="#353535" d="M1046.313 507.557c-13.438-4.892-30.448-3.882-42.673-10.6-15.222-8.369-25.99-42.084-35.623-61.243-18.928-37.644-38.9-69.094-73.02-79.37-12.872-3.877-29.3-5.782-38.051-18.651-11.124-16.357-11.49-45.843-23.929-62.5-14.749-19.747-44.686-43.455-44.686-43.455s-22.742-12.79-29.123-15.191c-26.679-10.041-51.044-26.09-81.975-19.63-30.757 6.422-49.385 14.352-74.919-2.96-11.8-8.007-25.065-12.56-35.952-22.448-13.416-12.185-20.412-29.181-36.728-35.346a398.19 398.19 0 0 0-55.693-16.434c-.968 1.961-1.16 3.8-1.969 5.808l-82.853 298.712c38.6-1.945 77.069 19.577 114.086 27.617 27.425 5.958 53.787 16.314 81.55 22.309 57.911 12.5 117.662 19.555 175.535 32.656 56.442 12.777 110.414 50.228 169.67 49.462 57.368-.74 111.537 16.827 168.254 18.255 8.416-32.065-36.757-61.476-51.901-66.991z"/></g><g clip-path="url(#c)"><path fill="#353535" d="M6.313 507.557c-13.438-4.892-30.448-3.882-42.673-10.6-15.222-8.369-25.99-42.084-35.623-61.243-18.928-37.644-38.9-69.094-73.02-79.37-12.872-3.877-29.3-5.782-38.051-18.651-11.124-16.357-11.49-45.843-23.929-62.5-14.749-19.747-44.686-43.455-44.686-43.455s-22.742-12.79-29.123-15.191c-26.679-10.041-51.044-26.09-81.975-19.63-30.757 6.422-49.385 14.352-74.919-2.96-11.805-8.007-25.065-12.56-35.952-22.448-13.416-12.185-20.412-29.181-36.728-35.346a398.19 398.19 0 0 0-55.693-16.434c-.968 1.961-1.16 3.8-1.969 5.808l-82.853 298.715c38.6-1.945 77.069 19.577 114.086 27.617 27.425 5.958 53.787 16.314 81.55 22.309 57.911 12.5 117.662 19.555 175.535 32.656 56.442 12.777 110.414 50.228 169.67 49.462 57.368-.74 111.537 16.827 168.254 18.255 8.416-32.068-36.757-61.479-51.901-66.994z"/></g></svg>