<svg xmlns="http://www.w3.org/2000/svg" viewBox="0 0 76 355.23"><path fill="#fff" d="M50.4 6.31c5.08.1 9.84 2.26 13.28 5.82 3.37 3.5 5.52 8.29 5.5 13.63l.11 21.15c.02.21.03.35-.06.53l-.09 17.42.01.14-.49 212.78-.03.04.04.03-.03.04.04.03-.03.04.05.04-.03.04.04.03-.03.04.04.03-.03.04-.03.04.04.03-.03.04v.07l-.03.04.01.07-.03.04.04.03-.03.04-.03.04.01.07-.03.04.01.07-.03.04-.03.04v.07L48.6 329.04l-.03.04-.03.11-.03.04-8.49 21.24c-.23.58-.71 1.07-1.32 1.34-1.25.49-2.6-.13-3.05-1.36L27.33 329l-.01-.14-19.58-50.1-.08-.07v-.07l-.04-.03.03-.04-.04-.03-.04-.03.03-.04-.01-.07-.04-.03v-.07l-.04-.03-.01-.07.03-.04-.04-.03-.01-.07-.01-.07v-.07l.03-.04-.04-.03-.01-.07-.01-.07.51-212.91.02-.18.35-16.89c-.13-.3-.23-.65-.19-1l.39-21.89c.21-5.12 2.34-9.78 5.66-13.09 3.32-3.39 7.91-5.45 12.94-5.45 7.67.24 15.64-.32 23.28.03zm9.9 9.14c-2.6-2.65-6.17-4.31-9.98-4.38-7.64.24-15.55-.25-23.22-.03-3.71-.04-7.08 1.5-9.56 4.05-2.52 2.51-4.12 6-4.25 9.9l-.39 19.06 51.65-.06-.08-18.21c.02-4.07-1.61-7.71-4.17-10.33zm4.14 46.98l.07-13.12c-17.27.11-34.2.04-51.46-.17l-.27 13.14 25.89.09.18.02 25.59.04zm-.03 4.76l-6.96-.02-16.23-.05-.55 198.52 23.3 8.87.44-207.32zm-27.95-.09l-23.79-.06-.45 207.32 23.68-8.75.56-198.51zm26.75 212.26l-24.96-9.57-25.31 9.38 18.16 46.44.25.01.25.02.28-.02.49.03.31.01 12.01.16 18.52-46.46zm-20.4 51.18l-9.88-.16 4.9 12.67 4.98-12.51z"/></svg>