<?xml version="1.0" encoding="utf-8"?>
<!-- Generator: Adobe Illustrator 22.0.1, SVG Export Plug-In . SVG Version: 6.00 Build 0)  -->
<svg version="1.1" id="Layer_1" xmlns="http://www.w3.org/2000/svg" xmlns:xlink="http://www.w3.org/1999/xlink" x="0px" y="0px"
	 viewBox="0 0 158.9 194.5" style="enable-background:new 0 0 158.9 194.5;" xml:space="preserve">
<style type="text/css">
	.st0{fill:none;stroke:#EA2232;stroke-width:3;stroke-miterlimit:10;}
	.st1{fill:none;stroke:#EA2232;stroke-width:3;stroke-linecap:round;stroke-miterlimit:10;}
</style>
<circle class="st0" cx="59.6" cy="27.9" r="14.9"/>
<circle class="st0" cx="98.9" cy="28.4" r="14.9"/>
<g>
	<circle class="st1" cx="79.3" cy="64.2" r="14.9"/>
	<line class="st1" x1="61.4" y1="102.4" x2="61.4" y2="181.5"/>
	<line class="st1" x1="96.6" y1="102.4" x2="96.6" y2="181.5"/>
	<path class="st1" d="M61.8,142.8h-3c-6.1,0-11.1-5-11.1-11.1v-30.6c0-10.4,8.5-19,19-19H92c10.4,0,19,8.5,19,19v30.6
		c0,6.1-5,11.1-11.1,11.1h-2.8"/>
</g>
<g>
	<circle class="st1" cx="119.2" cy="61" r="14.9"/>
	<line class="st1" x1="134.2" y1="90.7" x2="134.2" y2="150"/>
	<path class="st1" d="M129.2,72.1h1.9c9.3,0,17,7.7,17,17v27.4c0,5.5-4.5,10-10,10h-2.5"/>
</g>
<g>
	<circle class="st1" cx="39.6" cy="61" r="14.9"/>
	<line class="st1" x1="24.7" y1="90.7" x2="24.7" y2="150"/>
	<path class="st1" d="M29.7,72.1h-2c-9.3,0-17,7.7-17,17v27.4c0,5.5,4.5,10,10,10h2.5"/>
</g>
</svg>
