<?xml version="1.0" encoding="utf-8"?>
<!-- Generator: Adobe Illustrator 22.1.0, SVG Export Plug-In . SVG Version: 6.00 Build 0)  -->
<svg version="1.1" id="Layer_1" xmlns="http://www.w3.org/2000/svg" xmlns:xlink="http://www.w3.org/1999/xlink" x="0px" y="0px"
	 viewBox="0 0 200 200" style="enable-background:new 0 0 200 200;" xml:space="preserve">
<g>
	<g>
		<path style="fill:#E92232;" d="M175.7,74.4l-15.3,2.9c-1.2,0.3-2.1,0.9-2.3,2L141.6,130l-18.8-4.8l-2.6-21.1
			c-0.6-3.4-2.6-6.6-5.9-8.3L87.8,83l16.7-20.3l3.8,9.4c1.5,3.4,4.7,5.7,8.2,5.7c14.1,0.6,27.9,1.4,28.8,1.4l0,0
			c4.7,0,8.8-3.7,9.1-8.6c0.3-4.8-3.8-9.1-8.8-9.4l-22.3-1.1l-8.2-21.4c-3.5-13.4-21.4-17.1-30.3-6.3L55.5,68.2
			c-6.8,8.3-3.5,20,3.8,24.5l4.1,17.4c-21.4-4.8-42,10.8-42,32.2c0,14.8,10.3,27.7,24.4,31.7l-4.1,8.8h-3.8c-1.8,0-2.9,1.1-2.9,2.9
			s1.2,2.9,2.9,2.9h13.5c1.8,0,2.9-1.1,2.9-2.9s-1.2-2.9-2.9-2.9h-3.2l3.5-7.4c1.2,0,2.6,0.3,3.8,0.3h31.1l7.3,7.4h-4.4
			c-1.8,0-2.9,1.1-2.9,2.9c0,1.7,1.2,2.9,2.9,2.9h18.2c1.8,0,2.9-1.1,2.9-2.9c0-1.7-1.2-2.9-2.9-2.9h-5.3l-7.3-7.4h40.2l3.5,7.4
			h-3.2c-1.8,0-2.9,1.1-2.9,2.9c0,1.7,1.2,2.9,2.9,2.9h13.5c1.8,0,2.9-1.1,2.9-2.9c0-1.7-1.2-2.9-2.9-2.9h-3.8l-3.5-7.4h0.6
			c12.6,0,22.9-10,22.9-22.2c0-10.3-7-19.1-17.3-21.7l-0.9-0.3L163,82.7l13.5-2.6c1.5-0.3,2.6-1.7,2.3-3.4
			C178.9,75.3,177.4,74.1,175.7,74.4z M60.2,71.9l29.4-35.7c5.9-7.1,17.6-4.8,20,4.3v0.3l9.4,23.1c0.3,1.1,1.5,1.7,2.6,1.7l24.1,1.1
			c1.8,0,3.2,1.7,3.2,3.4s-1.5,2.9-3.2,3.1c-6.2,0,13.8,0.6-28.5-1.4c-1.5,0-2.6-0.9-2.9-2l-6.2-14c-0.9-2-3.5-2.6-5-0.9L80.8,82.1
			c-1.2,1.4-0.6,3.4,0.9,4.3l29.7,14.5c1.5,0.9,2.6,2.3,2.6,3.7l5.6,39.6c0.3,2.6-1.8,5.1-4.4,5.4c-2.6,0.3-5.3-1.7-5.6-4.3
			l-4.7-35.4c0-0.9-0.6-1.7-1.5-2.3c-42.3-21.1-39.1-18.3-42-21.4C57,82.4,56.7,76.1,60.2,71.9z M99.3,112.1l0.9,7.1l-30.3-7.7
			l-3.5-15.4C76.4,101,83.1,104.1,99.3,112.1z M159.8,153.2c0,9.1-7.6,16.5-17,16.5H89.9l-15-15.1c2.6-3.4,4.4-7.7,4.4-12.3
			c0-11.1-9.1-20-20.6-20s-20.6,8.8-20.6,20c0,11.1,9.1,20,20.6,20c4.4,0,8.5-1.4,12-3.7L82,169.7H56.4c-15.6,0-28.2-12.3-28.2-27.4
			c0-8.6,4.1-16.5,10.9-21.7c12.9-9.7,26.7-4,27.9-4c0,0,0,0,0.3,0l34.1,8.6L104,146c0.9,5.7,6.2,10,12,9.1c5.9-0.9,10.3-6,9.4-11.7
			l-1.5-12.6l23.2,6C154.5,138.9,159.8,145.5,159.8,153.2z M60.5,140.3c-1.2-1.1-2.9-1.1-4.1,0c-1.2,1.1-1.2,2.9,0,4l10,10
			c-2.3,1.4-5,2.3-7.9,2.3c-7.9,0-14.7-6.3-14.7-14.3s6.5-14.3,14.7-14.3c7.9,0,14.7,6.3,14.7,14.3c0,2.9-0.9,5.7-2.6,8L60.5,140.3z
			"/>
	</g>
	<g>
		<path style="fill:#E92232;" d="M128.7,36.5c8.8,0,15.9-6.8,15.9-15.4s-7-15.4-15.9-15.4s-15.9,6.8-15.9,15.4
			S120.1,36.5,128.7,36.5z M128.7,11.7c5.3,0,10,4.3,10,9.7s-4.4,9.4-10,9.4c-5.3,0-10-4.3-10-9.7S123.4,11.7,128.7,11.7z"/>
	</g>
</g>
</svg>
