<?xml version="1.0" encoding="utf-8"?>
<!-- Generator: Adobe Illustrator 22.1.0, SVG Export Plug-In . SVG Version: 6.00 Build 0)  -->
<svg version="1.1" id="Layer_1" xmlns="http://www.w3.org/2000/svg" xmlns:xlink="http://www.w3.org/1999/xlink" x="0px" y="0px"
	 viewBox="0 0 200 200" style="enable-background:new 0 0 200 200;" xml:space="preserve">
<style type="text/css">
	.st0{fill:none;stroke:#E92232;stroke-width:4;stroke-miterlimit:10;}
	.st1{fill:#FFFFFF;stroke:#E92232;stroke-width:4;stroke-miterlimit:10;}
	.st2{fill:#FFF5F6;stroke:#E92232;stroke-width:4;stroke-miterlimit:10;}
</style>
<polygon class="st0" points="11.5,26 11.5,182.7 60.4,167.7 113.4,182.7 156.6,168.3 197.7,182.7 197.3,29.2 156.6,14.5 116.2,29.5 
	63.8,10.5 "/>
<line class="st0" x1="63.8" y1="10.5" x2="60.4" y2="167.7"/>
<line class="st0" x1="116.2" y1="29.5" x2="113.4" y2="182.7"/>
<line class="st0" x1="156.6" y1="14.5" x2="156.6" y2="168.3"/>
<path class="st1" d="M80.1,114.5c0,19.9-37.5,50.3-37.5,50.3S5.1,134.4,5.1,114.5s16.8-36,37.5-36S80.1,94.6,80.1,114.5z"/>
<ellipse class="st1" cx="42.3" cy="113.8" rx="22.3" ry="21.5"/>
<path class="st1" d="M146.4,46.5c0,19.9-37.5,50.3-37.5,50.3S71.5,66.4,71.5,46.5s16.8-36,37.5-36S146.4,26.6,146.4,46.5z"/>
<ellipse class="st1" cx="108.6" cy="45.9" rx="22.3" ry="21.5"/>
<path class="st2" d="M197.7,129.6c0,19.9-37.5,50.3-37.5,50.3s-37.5-30.4-37.5-50.3s16.8-36,37.5-36S197.7,109.7,197.7,129.6z"/>
<ellipse class="st2" cx="159.9" cy="128.9" rx="22.3" ry="21.5"/>
</svg>
