<svg xmlns="http://www.w3.org/2000/svg" width="106.433" height="19.432" viewBox="0 0 106.433 19.432"><defs><style>.a{fill:#46484e;}</style></defs><g transform="translate(-33.039 -258.489)"><path class="a" d="M450.407,280.849h-5.075l-1.179-3.187h-6.562l-1.259,3.187H431.31l7.031-18.28h5.183Zm-7.54-6.8L440.9,268.22l-2,5.825Z" transform="translate(-340.75 -3.491)"/><path class="a" d="M559.828,280.849h-5.076l-1.179-3.187h-6.562l-1.259,3.187h-5.022l7.031-18.28h5.183Zm-7.54-6.8-1.969-5.825-2,5.825Z" transform="translate(-434.367 -3.491)"/><path class="a" d="M322.2,280.849l2.781-7.424V262.569h-4.754v7.058h-6.857v-7.058h-4.754v18.28h4.754v-7.607h6.857v7.607Z" transform="translate(-235.775 -3.49)"/><path class="a" d="M692.149,269.221a6.932,6.932,0,0,0-3.6-2.092,15.022,15.022,0,0,1-2.415-.833,1.488,1.488,0,0,1-.9-1.25,1.353,1.353,0,0,1,.685-1.183,2.472,2.472,0,0,1,1.37-.39,5.039,5.039,0,0,1,3.07,1.166l1.459-3.9a12.213,12.213,0,0,0-5.285-1.235,6.657,6.657,0,0,0-2.919.621l-2.907,7.76a3.707,3.707,0,0,0,1.061,1.437,5.109,5.109,0,0,0,1.234.722q.456.2,2.227.722a8.14,8.14,0,0,1,2.079.825,1.584,1.584,0,0,1,.832,1.353,1.552,1.552,0,0,1-.751,1.38,2.751,2.751,0,0,1-1.57.433,6.354,6.354,0,0,1-4.176-1.921l-1.554,4.148a10.689,10.689,0,0,0,5.856,1.738,9.192,9.192,0,0,0,3.053-.5q4.071-1.408,4.071-6.046A4.586,4.586,0,0,0,692.149,269.221Z" transform="translate(-553.603 -0.873)"/><path class="a" d="M177.865,267.207l-1.355,3.616h3.856a3.605,3.605,0,0,1-.913,2.054,3.9,3.9,0,0,1-2.875,1.053,4.275,4.275,0,0,1-3.264-1.3,6.053,6.053,0,0,1-1.652-4.342,6.656,6.656,0,0,1,.457-2.431,4.413,4.413,0,0,1,4.325-3.193,5.606,5.606,0,0,1,4.253,1.687l1.55-4.137c-.029-.022-.057-.046-.086-.068a8.99,8.99,0,0,0-5.491-1.661,9.5,9.5,0,0,0-7.553,3.093,10.551,10.551,0,0,0-.348,12.91,9.243,9.243,0,0,0,7.727,3.428,9.6,9.6,0,0,0,5.357-1.473c.205-.135.4-.278.592-.428l3.3-8.812Z" transform="translate(-114.385 0)"/><path class="a" d="M33.267,272.239l-.228,0v8.548H49.266V262.569h-.021A18.027,18.027,0,0,1,33.267,272.239Z" transform="translate(0 -3.491)"/></g></svg>