<svg xmlns="http://www.w3.org/2000/svg" viewBox="0 0 175.716 112.489"><g fill="none" stroke="#eb1f2e" stroke-linecap="round" stroke-linejoin="round" stroke-width="2" data-name="Layer 2"><path d="M44.566 67.219c3.082 3.731 4.267 6.129 4.267 9.922v30.614M31.616 61.533c.045 1.023.066 2.064.058 3.108-.053 6.513-1.274 13.134-5.453 16.076L1.01 98.468M44.177 67.466c-.241.379-1.2.207-2.126-.382l-8.687-5.512-3.377-2.143-7.746-4.915a2.006 2.006 0 0 1-.617-2.76L43.65 17.039a2.006 2.006 0 0 1 2.76-.617L66.22 28.991a2.007 2.007 0 0 1 .618 2.761L45.686 65.087zM73.104 11.778A10.779 10.779 0 1 1 62.324 1a10.778 10.778 0 0 1 10.78 10.778zM61.223 40.6a34.372 34.372 0 0 0 3.459 7.952M36.032 28.817S23.142 18.85 17.897 24.1l-6.992 6.992M17.898 111.49h68.27M127.77 67.219c3.083 3.731 4.268 6.129 4.268 9.922v30.614M114.822 61.533c.044 1.023.065 2.064.057 3.108-.053 6.513-1.274 13.134-5.453 16.076l-25.21 17.751M127.382 67.466c-.24.379-1.2.207-2.126-.382l-8.687-5.512-3.377-2.143-7.746-4.915a2.006 2.006 0 0 1-.617-2.76l22.03-34.715a2.006 2.006 0 0 1 2.76-.617l19.81 12.569a2.008 2.008 0 0 1 .617 2.761L128.89 65.087zM156.309 11.778A10.779 10.779 0 1 1 145.53 1a10.778 10.778 0 0 1 10.778 10.778zM144.428 40.6c12.145 24.486 30.279 4.218 30.279 4.218M119.237 28.817s-12.89-9.967-18.135-4.721l-6.992 6.992M101.103 111.49h68.27"/><path d="M86.169 67.219c3.082 3.731 4.267 6.129 4.267 9.922v30.614M73.219 61.533c.044 1.023.066 2.064.057 3.108-.053 6.513-1.274 13.134-5.452 16.076l-25.21 17.751M85.78 67.466c-.241.379-1.2.207-2.127-.382l-8.686-5.512-3.378-2.143-7.745-4.915a2 2 0 0 1-.617-2.76l22.026-34.715a2.007 2.007 0 0 1 2.76-.617l19.81 12.569a2.006 2.006 0 0 1 .617 2.761L87.289 65.087zM114.707 11.778A10.779 10.779 0 1 1 103.927 1a10.778 10.778 0 0 1 10.78 10.778zM102.826 40.6a34.329 34.329 0 0 0 3.459 7.952M77.635 28.817S64.745 18.85 59.5 24.1c-5.245 5.25-6.992 6.992-6.992 6.992M59.5 111.49h68.27"/></g></svg>