<svg xmlns="http://www.w3.org/2000/svg" viewBox="0 0 108.104 126.735"><path fill="none" stroke="#eb1f2e" stroke-linecap="round" stroke-linejoin="round" stroke-width="2" d="M1.012 87.03l23.5-13.824 12.186-34.558M107.091 87.03l-23.5-13.824-10.953-30.411M37.474 83.064L6.542 94.632l45.255 13.824"/><path fill="none" stroke="#eb1f2e" stroke-linecap="round" stroke-linejoin="round" stroke-width="2" d="M72.54 86.047a2.006 2.006 0 0 1-1.987 2.013l-31.584.206a1.957 1.957 0 0 1-1.972-1.987l-.357-54.46a1.957 1.957 0 0 1 1.946-2.012L70.17 29.6a2 2 0 0 1 2.013 1.986l.058 8.769.026 4zM66.297 7.116a13.968 13.968 0 1 1-19.4-3.708 13.967 13.967 0 0 1 19.4 3.708zM10.327 125.735h88.47"/><path fill="none" stroke="#eb1f2e" stroke-linecap="round" stroke-linejoin="round" stroke-width="2" d="M72.523 83.437l29.4 11.195-44.596 13.824"/></svg>