<svg xmlns="http://www.w3.org/2000/svg" viewBox="0 0 119.513 145.177"><path fill="none" stroke="#eb1f2e" stroke-linecap="round" stroke-linejoin="round" stroke-width="2" d="M1.014 144.177h88.469M57.154 14.966A13.968 13.968 0 1 1 43.186 1a13.968 13.968 0 0 1 13.968 13.966zM50.778 89.575l5.66 17.224-3.163 33.544M35.572 89.575l-5.167 17.224 3.163 33.544M61.837 86.435a3.14 3.14 0 0 1-3.14 3.14H27.653a3.139 3.139 0 0 1-3.139-3.14V34.657a3.139 3.139 0 0 1 3.14-3.14h31.043a3.14 3.14 0 0 1 3.14 3.14zM61.837 42.575h41.47"/><path fill="none" stroke="#eb1f2e" stroke-linecap="round" stroke-linejoin="round" stroke-width="2" d="M61.837 56.456l20.044 11.693V23.914"/><circle cx="81.881" cy="15.62" r="7.603" fill="none" stroke="#eb1f2e" stroke-linecap="round" stroke-linejoin="round" stroke-width="2"/><circle cx="110.91" cy="43.267" r="7.603" fill="none" stroke="#eb1f2e" stroke-linecap="round" stroke-linejoin="round" stroke-width="2"/></svg>