<svg xmlns="http://www.w3.org/2000/svg" viewBox="0 0 141.121 145.769"><path fill="none" stroke="#eb1f2e" stroke-linecap="round" stroke-linejoin="round" stroke-width="2" d="M54.972 117.807A26.963 26.963 0 1 1 28.01 90.844a26.962 26.962 0 0 1 26.962 26.963zM140.12 117.807a26.963 26.963 0 1 1-26.961-26.963 26.962 26.962 0 0 1 26.962 26.963zM58.973 84.8c4.965 3.99 9.409 9.012 10.922 14.87v39.671"/><rect width="58.461" height="35.585" x="-40.056" y="65.579" fill="none" stroke="#eb1f2e" stroke-linecap="round" stroke-linejoin="round" stroke-width="2" rx="2" ry="2" transform="rotate(-57.603)"/><path fill="none" stroke="#eb1f2e" stroke-linecap="round" stroke-linejoin="round" stroke-width="2" d="M102.01 14.967A13.967 13.967 0 1 1 88.045 1a13.968 13.968 0 0 1 13.967 13.967zM86.749 52.1c2.193 7.351 5.774 15.357 10.974 15.357h13.642"/></svg>