<svg xmlns="http://www.w3.org/2000/svg" viewBox="0 0 152.041 115.718"><path fill="none" stroke="#eb1f2e" stroke-linecap="round" stroke-linejoin="round" stroke-width="2" d="M43.064 87.728l38.713-61.014a2 2 0 0 1 2.76-.617l35.447 22.489a2.076 2.076 0 0 1 .665 2.79L98.51 88.526"/><circle cx="112.321" cy="19.045" r="18.045" fill="none" stroke="#eb1f2e" stroke-linecap="round" stroke-linejoin="round" stroke-width="2"/><path fill="none" stroke="#eb1f2e" stroke-linecap="round" stroke-linejoin="round" stroke-width="2" d="M110.327 68.621c5.406 6.45 13.418 13.772 20.167 10.831l15.841-6.9M73.52 39.728c-8.612-6.228-20.848-13.305-26.723-8.484L33.343 42.286M1.014 83.714c15 0 15 6 30 6s15-6 30-6 15 6 30 6 15-6 30.007-6c15.007 0 15 6 30.006 6M1.014 108.718c15 0 15 6 30 6s15-6 30-6 15 6 30 6 15-6 30.007-6c15.007 0 15 6 30.006 6"/></svg>