<svg xmlns="http://www.w3.org/2000/svg" viewBox="0 0 90.497 186.551"><path fill="none" stroke="#eb1f2e" stroke-linecap="round" stroke-linejoin="round" stroke-width="2" d="M52.16 123.955v55.375M25.924 124.032c-.325 9.275.906 19.283 6.841 23.462 12.36 8.7 19.4 9.72 19.4 9.72"/><rect width="58.461" height="35.585" x="-123.217" y="23.742" fill="none" stroke="#eb1f2e" stroke-linecap="round" stroke-linejoin="round" stroke-width="2" rx="2" ry="2" transform="rotate(-89.203)"/><path fill="none" stroke="#eb1f2e" stroke-linecap="round" stroke-linejoin="round" stroke-width="2" d="M51.738 41.867a13.968 13.968 0 1 1-19.216-4.578 13.967 13.967 0 0 1 19.216 4.578z"/><path fill="none" stroke="#eb1f2e" stroke-linecap="round" stroke-linejoin="round" stroke-width="2" d="M22.772 69.703c-6.1-3.027-16.229-10.382-16.229-25.842 0-22.117 24.882-42.852 24.882-42.852M1.014 185.551h88.469M58.375 68.792c6.108-3.485 14.52-10.843 14.52-24.93 0-22.118-24.882-42.853-24.882-42.853"/></svg>