<svg xmlns="http://www.w3.org/2000/svg" viewBox="0 0 155.619 158.611"><rect width="35.586" height="58.461" x="54.341" y="61.134" fill="none" stroke="#eb1f2e" stroke-miterlimit="10" stroke-width="2" rx="2" ry="2" transform="rotate(-12.606)"/><path fill="none" stroke="#eb1f2e" stroke-miterlimit="10" stroke-width="2" d="M94.358 28a13.968 13.968 0 1 1-14.043-13.894A13.969 13.969 0 0 1 94.358 28z"/><path fill="none" stroke="#eb1f2e" stroke-linecap="round" stroke-linejoin="round" stroke-width="2" d="M88.534 102.751l6.918 21.301-3.163 33.545M105.706 98.911l7.716 23.76-3.163 33.543M103.13 49.101l28.034-4.27M69.053 60.03l-8.636 4.614-29.45-18.397"/><path fill="none" stroke="#eb1f2e" stroke-miterlimit="10" stroke-width="2" d="M27.64 9.094a13.967 13.967 0 1 1-18.545-6.8 13.967 13.967 0 0 1 18.545 6.8z"/><path fill="none" stroke="#eb1f2e" stroke-miterlimit="10" stroke-width="2" d="M14.214 17.43l3.764-1.742 13.931 30.109-3.763 1.741zM152.362 31.447a10.518 10.518 0 1 1-1.737-14.773 10.518 10.518 0 0 1 1.737 14.773z"/><path fill="none" stroke="#eb1f2e" stroke-miterlimit="10" stroke-width="2" d="M126.708 44.869l15.486-19.606 2.45 1.936-15.485 19.605z"/></svg>