<svg xmlns="http://www.w3.org/2000/svg" id="Layer_1" x="0" y="0" version="1.1" viewBox="0 0 1131.3 262.8" xml:space="preserve"><style>.st4{enable-background:new}</style><g id="Layer_2_1_"><g id="Layer_1-2"><g id="Layer_2-2"><g id="Layer_1-2-2"><circle cx="116" cy="98.1" r="77.3" fill="#ed3237"/><circle cx="154.7" cy="164.7" r="77.3" fill="#fff212"/><circle cx="77.3" cy="164.7" r="77.3" fill="#00afef"/><path fill="#fff" d="M125.9 62.1v6.3h6.3v51.9c-22.8-14.6-53.1-8.1-67.7 14.7s-8.1 53.1 14.7 67.7c22.8 14.6 53.1 8.1 67.7-14.7 5.1-7.9 7.8-17.1 7.8-26.6v-93h6.3v-6.3h-35.1zm-20.2 126c-14.7 0-26.5-11.9-26.6-26.5S91 135 105.6 135s26.5 11.9 26.6 26.5c0 14.6-11.9 26.5-26.5 26.6z"/><g class="st4"><path d="M323.7 193.9v8.4h-16.6V249h-10.3v-46.7h-16.7v-8.4h43.6zM387.9 193.9v8.2h-24.4v15.3h19.3v7.9h-19.3v15.6h24.4v8.2h-34.8V194h34.8zM457.5 236c.6 0 1 .2 1.4.6l4 4.4c-2.2 2.8-5 4.9-8.3 6.4-3.3 1.5-7.2 2.2-11.8 2.2-4.1 0-7.8-.7-11-2.1-3.3-1.4-6.1-3.3-8.4-5.8-2.3-2.5-4.1-5.5-5.3-8.9-1.2-3.5-1.8-7.2-1.8-11.3 0-4.1.7-7.9 2.1-11.4 1.4-3.4 3.3-6.4 5.8-8.9s5.5-4.4 8.9-5.8c3.5-1.4 7.3-2.1 11.5-2.1 4.1 0 7.7.7 10.7 2 3.1 1.3 5.7 3 7.9 5.2l-3.4 4.8c-.2.3-.5.6-.8.8-.3.2-.8.3-1.3.3-.6 0-1.2-.2-1.8-.7-.6-.5-1.4-1-2.3-1.5-.9-.5-2.1-1-3.6-1.5-1.4-.5-3.3-.7-5.5-.7-2.6 0-5 .5-7.1 1.4-2.2.9-4 2.2-5.6 3.9s-2.8 3.7-3.7 6.1c-.9 2.4-1.3 5.1-1.3 8.1 0 3.1.4 5.9 1.3 8.3.9 2.4 2.1 4.4 3.6 6.1 1.5 1.7 3.3 2.9 5.3 3.8 2 .9 4.2 1.3 6.6 1.3 1.4 0 2.7-.1 3.8-.2 1.1-.2 2.2-.4 3.1-.7 1-.3 1.9-.8 2.7-1.3.9-.5 1.7-1.2 2.5-1.9.3-.2.5-.4.8-.6.4-.2.7-.3 1-.3zM540.2 249h-10.3v-24.1H504V249h-10.3v-55.1H504v23.7h25.9v-23.7h10.3V249zM580.7 194c.3 0 .6.1.8.2.2.1.5.3.7.5.2.2.5.5.8.9l28.9 36.9c-.1-.9-.2-1.8-.2-2.6s-.1-1.6-.1-2.4V194h9v55h-5.3c-.8 0-1.5-.1-2-.4-.5-.3-1.1-.7-1.6-1.4L583 210.6c.1.8.1 1.6.2 2.4s.1 1.5.1 2.2V249h-9v-55.1h5.4c.3 0 .7 0 1 .1zM707.6 221.5c0 4-.7 7.8-2 11.2-1.3 3.4-3.2 6.4-5.7 8.9s-5.4 4.5-8.8 5.9c-3.4 1.4-7.2 2.1-11.4 2.1s-8-.7-11.4-2.1c-3.4-1.4-6.4-3.4-8.8-5.9s-4.4-5.5-5.7-8.9c-1.3-3.4-2-7.2-2-11.2 0-4 .7-7.8 2-11.2 1.3-3.4 3.2-6.4 5.7-8.9s5.4-4.5 8.8-5.9 7.3-2.1 11.4-2.1 8 .7 11.4 2.1 6.4 3.4 8.8 5.9 4.3 5.5 5.7 8.9c1.3 3.4 2 7.1 2 11.2zm-10.5 0c0-3-.4-5.7-1.2-8.1s-2-4.4-3.5-6.1c-1.5-1.7-3.3-3-5.5-3.9-2.1-.9-4.6-1.3-7.3-1.3s-5.1.4-7.3 1.3-4 2.2-5.5 3.9c-1.5 1.7-2.7 3.7-3.5 6.1s-1.2 5.1-1.2 8.1.4 5.7 1.2 8.1c.8 2.4 2 4.4 3.5 6.1 1.5 1.7 3.3 2.9 5.5 3.8 2.2.9 4.6 1.3 7.3 1.3s5.1-.4 7.3-1.3c2.1-.9 4-2.2 5.5-3.8s2.7-3.7 3.5-6.1c.8-2.4 1.2-5.1 1.2-8.1z"/></g><path d="M748.8 240.6h22.1v8.5h-32.3V194h10.3v46.6z"/><g class="st4"><path d="M850.7 221.5c0 4-.7 7.8-2 11.2-1.3 3.4-3.2 6.4-5.7 8.9s-5.4 4.5-8.8 5.9c-3.4 1.4-7.2 2.1-11.4 2.1s-8-.7-11.4-2.1c-3.4-1.4-6.4-3.4-8.8-5.9s-4.4-5.5-5.7-8.9c-1.3-3.4-2-7.2-2-11.2 0-4 .7-7.8 2-11.2 1.3-3.4 3.2-6.4 5.7-8.9s5.4-4.5 8.8-5.9 7.3-2.1 11.4-2.1 8 .7 11.4 2.1 6.4 3.4 8.8 5.9 4.3 5.5 5.7 8.9c1.3 3.4 2 7.1 2 11.2zm-10.5 0c0-3-.4-5.7-1.2-8.1s-2-4.4-3.5-6.1c-1.5-1.7-3.3-3-5.5-3.9-2.1-.9-4.6-1.3-7.3-1.3s-5.1.4-7.3 1.3-4 2.2-5.5 3.9c-1.5 1.7-2.7 3.7-3.5 6.1s-1.2 5.1-1.2 8.1.4 5.7 1.2 8.1c.8 2.4 2 4.4 3.5 6.1 1.5 1.7 3.3 2.9 5.5 3.8 2.2.9 4.6 1.3 7.3 1.3s5.1-.4 7.3-1.3c2.1-.9 4-2.2 5.5-3.8s2.7-3.7 3.5-6.1c.8-2.4 1.2-5.1 1.2-8.1zM907 241.5c2.3 0 4.3-.2 6-.6 1.7-.4 3.3-1 4.9-1.7v-10H911c-.7 0-1.2-.2-1.6-.6-.4-.4-.6-.8-.6-1.4v-5.8h18.3v22.3c-1.4 1-2.9 1.9-4.4 2.6-1.5.8-3.1 1.4-4.8 1.8-1.7.5-3.6.8-5.5 1.1-2 .2-4.1.4-6.3.4-4 0-7.7-.7-11.1-2.1-3.4-1.4-6.3-3.3-8.8-5.8-2.5-2.5-4.4-5.5-5.8-8.9-1.4-3.5-2.1-7.2-2.1-11.3 0-4.1.7-7.9 2-11.4s3.3-6.4 5.7-8.9c2.5-2.5 5.5-4.4 9-5.8 3.5-1.4 7.5-2.1 11.9-2.1 4.5 0 8.4.7 11.7 2 3.3 1.3 6.1 3.1 8.4 5.2l-3 4.7c-.6.9-1.4 1.4-2.3 1.4-.6 0-1.2-.2-1.9-.6-.8-.5-1.6-1-2.5-1.4-.9-.5-1.8-.9-2.8-1.3-1-.4-2.2-.6-3.5-.9s-2.8-.3-4.4-.3c-2.7 0-5.2.5-7.4 1.4-2.2.9-4.1 2.2-5.6 3.9s-2.7 3.7-3.6 6.1-1.3 5.1-1.3 8c0 3.2.4 6 1.3 8.5s2.1 4.6 3.7 6.3c1.6 1.7 3.5 3 5.7 3.9 2.6.8 5 1.3 7.6 1.3zM971.2 249h-10.3v-55.1h10.3V249zM1041.3 193.9v8.2h-24.4v15.3h19.3v7.9h-19.3v15.6h24.4v8.2h-34.8V194h34.8zM1102.6 203.9c-.3.6-.6 1-1 1.2s-.8.3-1.3.3-1.1-.2-1.7-.6c-.6-.4-1.4-.8-2.3-1.3-.9-.5-1.9-.9-3-1.3-1.2-.4-2.5-.6-4.1-.6-1.4 0-2.7.2-3.7.5s-1.9.8-2.7 1.4-1.3 1.3-1.6 2.2c-.4.9-.5 1.8-.5 2.8 0 1.3.4 2.4 1.1 3.2s1.7 1.6 2.9 2.2c1.2.6 2.6 1.2 4.1 1.6 1.5.5 3.1 1 4.7 1.5s3.1 1.2 4.7 1.9c1.5.7 2.9 1.6 4.1 2.7 1.2 1.1 2.2 2.5 2.9 4.1s1.1 3.5 1.1 5.8c0 2.5-.4 4.8-1.3 7s-2.1 4.1-3.7 5.7c-1.6 1.6-3.6 2.9-6 3.8-2.4.9-5.1 1.4-8.1 1.4-1.8 0-3.5-.2-5.2-.5-1.7-.3-3.3-.8-4.9-1.5-1.6-.6-3-1.4-4.4-2.3-1.4-.9-2.6-1.9-3.6-3l3-4.9c.3-.4.6-.7 1-.9.4-.2.8-.4 1.3-.4.6 0 1.3.3 2.1.8.7.5 1.6 1.1 2.6 1.7s2.2 1.2 3.5 1.7c1.4.5 3 .8 4.9.8 2.9 0 5.2-.7 6.8-2.1s2.4-3.4 2.4-6c0-1.4-.4-2.6-1.1-3.5s-1.7-1.7-2.9-2.3c-1.2-.6-2.6-1.2-4.1-1.6-1.5-.4-3.1-.9-4.7-1.4-1.6-.5-3.1-1.1-4.7-1.8s-2.9-1.6-4.1-2.8c-1.2-1.1-2.2-2.6-2.9-4.3s-1.1-3.8-1.1-6.3c0-2 .4-4 1.2-5.9s2-3.6 3.5-5.1c1.5-1.5 3.4-2.7 5.7-3.5 2.2-.9 4.8-1.3 7.7-1.3 3.3 0 6.3.5 9 1.5s5.1 2.4 7 4.3l-2.6 5.1z"/></g><g class="st4"><path d="M281.4 35.6v-6.7c13.9.7 25.4 1 34.4 1 6.9 0 16.5-.2 28.7-.5 8.9-.3 16.3-.5 22.3-.5 11.2 0 20.1 1.4 26.6 4.3 9.1 4 16.2 10.1 21.3 18.3 5.2 8.2 7.7 18.9 7.7 32.1 0 14.6-3.4 27.5-10.1 38.9-6.7 11.3-16.2 20.2-28.4 26.6-10.2 5.4-22.6 8-37.1 8-1.4 0-6.9-.2-16.6-.6-9.7-.4-15.2-.6-16.4-.6-4.2 0-15 .4-32.5 1.1v-6.7l3.8-.7c7.8-1.4 12.4-2.7 13.8-3.9 1.3-1.2 2.1-3 2.4-5.3.2-3.5.4-21.8.4-54.8 0-24.3-.2-37.9-.7-41-.3-2.1-1-3.6-2.2-4.6-1.2-1-5.7-2.2-13.6-3.6l-3.8-.8zm48 109.5c7.2 1.2 13.3 1.8 18.1 1.8 13.7 0 24-4.1 31-12.3 8.9-10.5 13.3-25.7 13.3-45.6 0-17.1-3.9-30.1-11.8-38.9-6.4-7.2-16.4-10.8-29.9-10.8-5.7 0-12.6.6-20.7 1.7-.6 9.4-.9 26.8-.9 52.3 0 14.6.3 31.8.9 51.8zM449.7 35.6v-6.7c10.8.7 21.8 1 32.9 1 11.6 0 23.1-.3 34.5-1v6.7c-9.1 1.6-14.4 2.7-16 3.4-1.6.7-2.7 1.8-3.3 3.2-.6 1.4-.9 5.8-.9 13.2l.1 6.2-.1 23.2c8.5.3 17.5.5 27.2.5 8.7 0 16.3-.1 22.8-.5l-.2-32.1c0-5.7-.3-9.3-1-10.7-.7-1.4-1.9-2.5-3.8-3.3-1.4-.6-6.5-1.7-15.3-3.2v-6.7c11.5.7 22.1 1 31.8 1 9.1 0 21-.3 35.7-1v6.7l-14.3 3.1c-1.6.4-2.7.9-3.3 1.5-.6.6-1.1 1.4-1.4 2.3-.6 2-1 8.2-1.1 18.7-.1 16.6-.2 27.5-.2 32.5 0 20.6.2 35.8.5 45.5.1 3.3.9 5.5 2.2 6.8 1.4 1.3 6 2.6 14 3.8l3.5.5v6.7c-12.6-.7-23.8-1-33.7-1-9.7 0-21 .3-33.8 1v-6.7l15-3.1c1.8-.6 3.1-1.5 3.8-2.8.7-1.2 1.1-4 1.1-8.4l.3-39.8-24.4-.1c-1.1 0-9.6.1-25.4.4.1 24.6.2 39.3.5 44.2.2 2.6.9 4.5 2.3 5.7s5.9 2.4 13.6 3.5c.8.1 2.1.3 3.9.6v6.7c-13.2-.7-25.1-1-35.6-1-10.8 0-21.4.3-31.9 1v-6.7c8.2-1.6 13.2-2.7 14.9-3.3 1.7-.6 3-1.5 3.7-2.8.7-1.3 1.1-4.1 1.1-8.5l.4-35.2c0-18.4-.1-34-.3-47-.1-6.4-.6-10.4-1.5-12-.5-1-1.5-1.8-2.8-2.4-1.3-.8-6.5-2-15.5-3.6zM614.8 35.6v-6.7c14.4.7 30 1 46.9 1 19.6 0 39.7-.3 60.5-1 .2 12.6.9 23.6 2.2 32.9h-7.6c-.7-1.9-1.2-3.4-1.5-4.4-2.9-8.6-5.2-13.5-6.9-14.9-1.7-1.4-5.4-2.1-11.3-2.1h-34.2c-.5 10.2-.8 24.9-.9 44.2l15.6.2c8.1 0 13.1-.8 15-2.4 1.9-1.6 3.9-7 6-16.1h7.4c-.7 8.8-1 16.6-1 23.4 0 6.4.3 14.5 1 24.1h-7.4c-1.7-9.7-3.3-15.3-4.8-16.7-1.6-1.4-6.2-2.2-14.1-2.2h-17.6v50.5h35.6c3.9 0 6.6-.2 7.9-.7 2.1-.8 4-2.2 5.7-4.2 3.6-4.1 7.9-10.5 12.8-19.3h7.9c-3.5 9.9-7.2 21.9-11.2 35.8-20.3-.7-41.6-1-63.7-1-10.1 0-24.1.3-42.2 1v-6.7c9.9-1.8 15.6-3.3 17-4.3 2-1.4 3-4.9 3-10.5v-3.1l.2-35.8V67.9l-.1-13.4c0-6.4-.3-10.4-1-12-.7-1.6-1.9-2.8-3.8-3.7-2-.9-7.1-2-15.4-3.2zM755.3 35.6v-6.7c14.4.7 30 1 46.9 1 19.6 0 39.7-.3 60.5-1 .2 12.6.9 23.6 2.2 32.9h-7.6c-.7-1.9-1.2-3.4-1.5-4.4-2.9-8.6-5.2-13.5-6.9-14.9-1.7-1.4-5.4-2.1-11.3-2.1h-34.2c-.5 10.2-.8 24.9-.9 44.2l15.6.2c8.1 0 13.1-.8 15-2.4 1.9-1.6 3.9-7 6-16.1h7.4c-.7 8.8-1 16.6-1 23.4 0 6.4.3 14.5 1 24.1H839c-1.7-9.7-3.3-15.3-4.8-16.7-1.6-1.4-6.2-2.2-14.1-2.2h-17.6v50.5h35.6c3.9 0 6.6-.2 7.9-.7 2.1-.8 4-2.2 5.7-4.2 3.6-4.1 7.9-10.5 12.8-19.3h7.9c-3.5 9.9-7.2 21.9-11.2 35.8-20.3-.7-41.6-1-63.7-1-10.1 0-24.1.3-42.2 1v-6.7c9.9-1.8 15.6-3.3 17-4.3 2-1.4 3-4.9 3-10.5v-3.1l.2-35.8V67.9l-.1-13.4c0-6.4-.3-10.4-1-12-.7-1.6-1.9-2.8-3.8-3.7-2-.9-7.1-2-15.3-3.2zM1014.4 67h-8.3c-4.1-12.7-6.6-19.9-7.6-21.6-.9-1.7-2.2-2.9-3.9-3.6-1.7-.7-7-1-15.9-1H970v84.3c0 10.5.4 16.8 1.1 19 .4 1.1 1.2 2.1 2.6 2.8 1.4.7 6.8 1.9 16.2 3.6v6.7c-18.2-.7-29.9-1-35-1-7 0-17.8.3-32.3 1v-6.7c9.5-1.7 15.2-3 17-4 1.2-.7 2-1.8 2.5-3.3.4-1.5.7-7.8.7-18.9V40.8h-15c-5.1 0-8.4.4-10.1 1.3-1.6.8-3 2.4-4.1 4.6-1.6 3.4-3.9 10.1-6.8 20.3h-8.1c1-8.8 1.6-15 1.9-18.3.2-3.4.5-9.9.8-19.7 23.6.7 46.7.9 69.2.8 19.1-.2 32.8-.5 41.1-.8.1 11.6 1 24.2 2.7 38zM1105.7 28.9v6.7l-3.3.5c-7.9 1-12.7 2.2-14.3 3.6-1.6 1.4-2.4 4.2-2.4 8.4v3.3l-.2 30.3.1 34.6.1 17.6c0 5.2.3 8.4.8 9.8.5 1.3 1.4 2.3 2.6 3 2.1 1.1 6.6 2.3 13.2 3.3.7.1 1.8.3 3.3.5v6.7c-12.2-.7-23-1-32.3-1-8.8 0-20.5.3-35 1v-6.7c9.3-1.7 14.3-2.8 15.2-3.2 1.4-.5 2.4-1.3 3.1-2.3.9-1.4 1.4-4.2 1.4-8.5.1-10 .2-27 .2-51l-.3-32.9v-2.7c0-4.8-.7-7.9-2.1-9.3-1.4-1.4-6-2.7-13.9-4.1-.9-.2-2.2-.5-3.8-.8V29c15.3.7 26.8 1 34.5 1 8.3-.1 19.3-.4 33.1-1.1z"/></g></g></g></g></g></svg>