<svg xmlns="http://www.w3.org/2000/svg" width="146.059" height="35.783" viewBox="0 0 146.059 35.783"><defs><style>.a{fill:#e06358;}</style></defs><g transform="translate(-0.281)"><path class="a" d="M59.465,9.64a10.706,10.706,0,0,1,1.114,4.9,10.706,10.706,0,0,1-1.114,4.9A9.692,9.692,0,0,1,56.594,22.9a12.162,12.162,0,0,1-7.371,2.659H43.866v4.7a9.222,9.222,0,0,1-.086,1.454,2.9,2.9,0,0,1-.386,1.08q-.6,1.122-3.343,1.122-3,0-3.514-1.537a6.751,6.751,0,0,1-.257-2.161V7.147q0-.956.043-1.413a3.684,3.684,0,0,1,.429-1.122q.6-1.122,3.343-1.122h9.171a12.108,12.108,0,0,1,7.328,2.66A9.606,9.606,0,0,1,59.465,9.64Zm-10.2,8.56a4.234,4.234,0,0,0,2.528-.914,3.185,3.185,0,0,0,1.243-2.743A3.185,3.185,0,0,0,51.794,11.8a4.172,4.172,0,0,0-2.571-.956H43.866V18.2Z" transform="translate(10.352 1.004)"/><path class="a" d="M57.31,5.791q0-.956.043-1.413a4.333,4.333,0,0,1,.386-1.122q.6-1.122,3.343-1.122,2.614,0,3.257,1.122a2.9,2.9,0,0,1,.386,1.122,9.221,9.221,0,0,1,.086,1.454v19.24a4.385,4.385,0,0,0,.257,1.912q.257.374,1.114.374a5.486,5.486,0,0,1,1.2.083,1.836,1.836,0,0,1,.729.332q.857.54.857,2.95,0,2.618-.857,3.2-1.114.748-5.314.249-3.3-.416-4.285-2.119-1.2-2.036-1.2-6.483Z" transform="translate(16.4 0.614)"/><path class="a" d="M77.9,31.964a9.322,9.322,0,0,1-7.2-3.158,11.322,11.322,0,0,1-2.828-7.771V13.763q0-1,.043-1.454a4.479,4.479,0,0,1,.386-1.08q.6-1.122,3.343-1.122,3,0,3.514,1.579a6.346,6.346,0,0,1,.257,2.119v7.272a3.533,3.533,0,0,0,.986,2.66,4.28,4.28,0,0,0,5.442-.042,3.41,3.41,0,0,0,1.071-2.618V13.721q0-.956.043-1.413a3.679,3.679,0,0,1,.428-1.122q.557-1.08,3.3-1.08,2.7,0,3.3,1.122a3.287,3.287,0,0,1,.343,1.122,8.4,8.4,0,0,1,.086,1.413v14.71a8.866,8.866,0,0,1-.086,1.413,2.585,2.585,0,0,1-.386,1.039q-.643,1.08-3.3,1.08-2.614,0-3.214-1A3.224,3.224,0,0,1,83,29.3a4.278,4.278,0,0,1-.771.831,10.456,10.456,0,0,1-1.157.914A5.853,5.853,0,0,1,77.9,31.964Z" transform="translate(19.437 2.906)"/><path class="a" d="M95.429,13.056q2.014-2.95,4.843-2.95a7.069,7.069,0,0,1,6.513,3.615,14.123,14.123,0,0,1,1.115-1.288,9.021,9.021,0,0,1,2.143-1.5,5.979,5.979,0,0,1,3-.831,7.409,7.409,0,0,1,5.743,2.576q2.314,2.535,2.314,8.436V28.39a9.116,9.116,0,0,1-.086,1.454,2.9,2.9,0,0,1-.385,1.08q-.558,1.122-3.3,1.122-2.7,0-3.3-1.164a4.472,4.472,0,0,1-.385-1.08q-.044-.5-.044-1.454V21.076q0-3.615-2.656-3.615a2.177,2.177,0,0,0-2.058.956,5.791,5.791,0,0,0-.514,2.7V28.39a8.654,8.654,0,0,1-.086,1.454,2.9,2.9,0,0,1-.385,1.08q-.6,1.122-3.343,1.122-2.7,0-3.3-1.164a4.481,4.481,0,0,1-.386-1.08q-.043-.5-.043-1.454V21.076q0-3.615-2.657-3.615-2.571,0-2.571,3.615v7.355a9.223,9.223,0,0,1-.086,1.454,2.9,2.9,0,0,1-.386,1.081q-.643,1.08-3.343,1.08t-3.3-1.122a4.485,4.485,0,0,1-.386-1.08q-.043-.457-.043-1.454V13.763q0-.956.043-1.413a3.25,3.25,0,0,1,.429-1.08q.643-1.122,3.043-1.122T94.7,10.9A2.973,2.973,0,0,1,95.429,13.056Z" transform="translate(25.242 2.906)"/><path class="a" d="M12.622,33.85a10.868,10.868,0,0,0,3.73-.636,11.732,11.732,0,0,0,3.73.636c6.825,0,12.34-6.095,12.34-13.563S26.866,6.724,20.081,6.724a1.089,1.089,0,0,0-1.19,1,1.089,1.089,0,0,0,1.19,1,9.093,9.093,0,0,1,6.309,2.612c-2.182-.067-4.4,1.574-3.571,3.818,0,.033.04.067.04.1a13.961,13.961,0,0,1,.913,5.023,13.275,13.275,0,0,1-4.047,9.678l-.04.033a1.26,1.26,0,0,0-.079,1.842,8.942,8.942,0,0,1-2.778-.6c-.04,0-.04,0-.079-.033-.04,0-.04,0-.079-.033-.04,0-.119-.033-.159-.033h-.238a.415.415,0,0,0-.2.033h-.04a.467.467,0,0,0-.2.067,8.779,8.779,0,0,1-3.214.6c-5.515,0-9.959-5.191-9.959-11.554S7.146,8.733,12.622,8.733a1.089,1.089,0,0,0,1.19-1,1.089,1.089,0,0,0-1.19-1C5.8,6.724.281,12.819.281,20.287.281,27.788,5.836,33.85,12.622,33.85Z" transform="translate(0 1.933)"/><path class="a" d="M8.743,11.946a1.341,1.341,0,0,0-1.579.569A14.572,14.572,0,0,0,7.69,25.738a1.235,1.235,0,0,0,1.093.569,1.467,1.467,0,0,0,.526-.1.934.934,0,0,0,.567-1.339,12.862,12.862,0,0,1-.445-11.617A.968.968,0,0,0,8.743,11.946Z" transform="translate(1.595 3.416)"/><path class="a" d="M12.768,10.324a1.072,1.072,0,0,0,1.162-1,8.835,8.835,0,0,1,.5-3.013,10.94,10.94,0,0,1,2.828-4.42A.909.909,0,0,0,17.183.481a1.291,1.291,0,0,0-1.627.067,13.031,13.031,0,0,0-3.37,5.223,11.4,11.4,0,0,0-.581,3.583A1.092,1.092,0,0,0,12.768,10.324Z" transform="translate(3.256 0.064)"/><path class="a" d="M20.847,2.517a8.613,8.613,0,0,1,5.714-.228,7.332,7.332,0,0,1-3.254,2.672,10.286,10.286,0,0,1-6.667.033,1.255,1.255,0,0,0-1.508.619.946.946,0,0,0,.754,1.238,16.187,16.187,0,0,0,4.325.652,10.866,10.866,0,0,0,4.167-.782A9.122,9.122,0,0,0,29.3,2.061.942.942,0,0,0,28.625.855C25.212-.285,22.2-.285,19.7.855a.914.914,0,0,0-.476,1.336A1.425,1.425,0,0,0,20.847,2.517Z" transform="translate(4.254)"/></g></svg>