<svg xmlns="http://www.w3.org/2000/svg" width="60.689" height="58.658" viewBox="0 0 60.689 58.658"><defs><style>.a{fill:#4e35e7;stroke:#4e35e7;stroke-width:2px;}</style></defs><path class="a" d="M47.413,27.977a6.064,6.064,0,0,0-5.985-10.367l-3.787-6.559a4.091,4.091,0,0,0-7-.137A60.175,60.175,0,0,1,12.41,29.353a.978.978,0,0,0-.327,1.287c.04.073,6.312,10.935,6.354,11.007a.977.977,0,1,0,1.693-.977L14.247,30.482A62.1,62.1,0,0,0,32.292,11.957a2.136,2.136,0,0,1,3.657.072L49.508,35.514a2.136,2.136,0,0,1-1.766,3.2,62.131,62.131,0,0,0-25.9,6.78c-.034.017-9.178,5.3-9.808,5.661a3.426,3.426,0,0,1-4.675-1.253l-4.95-8.574a3.427,3.427,0,0,1,1.253-4.675l5.957-3.44a.977.977,0,1,0-.977-1.693l-5.957,3.44A5.383,5.383,0,0,0,.72,42.31l4.95,8.574a5.383,5.383,0,0,0,7.345,1.968l.225-.13,6.111,10.585a3.176,3.176,0,0,0,4.34,1.163l2.143-1.238A3.175,3.175,0,0,0,27,58.892l-4.331-7.5a.977.977,0,1,0-1.693.977l4.331,7.5a1.222,1.222,0,0,1-.448,1.67l-2.143,1.238a1.222,1.222,0,0,1-1.67-.448L14.933,51.744l7.825-4.518a60.173,60.173,0,0,1,25.06-6.556A4.09,4.09,0,0,0,51.2,34.537Zm-.279-6.75a4.117,4.117,0,0,1-.717,5.024l-3.993-6.916A4.109,4.109,0,0,1,47.134,21.228Zm9.558-4.345-2.528,1.46a.977.977,0,1,1-.977-1.693l2.528-1.46a.977.977,0,0,1,.977,1.693Zm-10.874-5.57.617-2.3a.977.977,0,1,1,1.888.506l-.617,2.3a.977.977,0,1,1-1.888-.506Zm12.781,16a.978.978,0,0,1-.943.725,16.035,16.035,0,0,1-2.555-.65.977.977,0,1,1,.506-1.888l2.3.617a.977.977,0,0,1,.691,1.2Z" transform="translate(1.015 -7.248)"/></svg>