<svg xmlns="http://www.w3.org/2000/svg" width="86.643" height="86.643" viewBox="0 0 86.643 86.643"><defs><style>.a{fill:#4e35e7;}</style></defs><path class="a" d="M84.1,81.566H72.936V56.69a5.082,5.082,0,0,0-5.077-5.077H64.085a22.031,22.031,0,0,0-5.8-10.863,18.135,18.135,0,0,0-6.134-4.013,25.243,25.243,0,0,0,8.116-18.18c0-6.005-1.671-10.719-4.965-14.009A16.5,16.5,0,0,0,43.321,0,16.5,16.5,0,0,0,31.339,4.549c-3.295,3.29-4.965,8-4.965,14.009a25.243,25.243,0,0,0,8.116,18.18,18.136,18.136,0,0,0-6.134,4.013,22.03,22.03,0,0,0-5.8,10.863H18.784a5.082,5.082,0,0,0-5.077,5.077V81.566H2.538a2.538,2.538,0,0,0,0,5.077H84.1a2.538,2.538,0,1,0,0-5.077ZM43.321,5.077c3.728,0,9.579,1.239,11.347,8.607a14.79,14.79,0,0,1-5.221-1.632,5.762,5.762,0,0,0-3.986-.837,7.635,7.635,0,0,0-3.062,1.7c-1.6,1.266-3.944,3.109-10.858,3.482C32.4,6.609,39.175,5.077,43.321,5.077Zm-11.616,16.4c8.621-.454,11.842-3,13.839-4.572.289-.228.661-.522.892-.663.2.086.5.235.76.361a20.027,20.027,0,0,0,7.989,2.236,20.794,20.794,0,0,1-3.752,11.149c-2.343,3.333-5.3,5.245-8.112,5.245s-5.769-1.912-8.113-5.245A21.339,21.339,0,0,1,31.706,21.476ZM41.968,40.445h2.708c7.044,0,12.183,4.119,14.177,11.169H27.791C29.784,44.563,34.923,40.445,41.968,40.445ZM18.784,81.566V56.69H67.859V81.566Z" transform="translate(0 0)"/><circle class="a" cx="2.041" cy="2.041" r="2.041" transform="translate(41.745 65.306)"/></svg>