<svg xmlns="http://www.w3.org/2000/svg" width="48.193" height="59.063" viewBox="0 0 48.193 59.063"><defs><style>.a{fill:#4e35e7;stroke:#4e35e7;stroke-width:1.4px;}</style></defs><g transform="translate(-47.763 0.7)"><g transform="translate(48.489 0)"><path class="a" d="M153.081,481.89a.845.845,0,0,0-.845.845v.857h-26.3v-.857a.845.845,0,1,0-1.689,0v1.7a.845.845,0,0,0,.845.845h27.987a.845.845,0,0,0,.845-.845v-1.7A.845.845,0,0,0,153.081,481.89Z" transform="translate(-115.718 -427.618)"/><path class="a" d="M129.862,156.975a2.665,2.665,0,0,0,.844,5.192h.98a7.445,7.445,0,0,0,3.636,6.233v2.4l-2.861.767h-.006l-1.641.44a8.808,8.808,0,0,0-6.523,8.217.845.845,0,0,0,.817.872h.028a.845.845,0,0,0,.844-.817,7.077,7.077,0,0,1,5.271-6.64l.841-.225.5,1.8a3.119,3.119,0,0,0,5,1.564l1.529-1.274,1.529,1.274a3.12,3.12,0,0,0,5-1.564l.5-1.8.841.225a7.077,7.077,0,0,1,5.271,6.64.845.845,0,0,0,.844.817h.028a.845.845,0,0,0,.817-.872,8.808,8.808,0,0,0-6.523-8.217l-1.641-.44h-.006l-2.861-.767v-2.4a7.446,7.446,0,0,0,3.636-6.233h.98a2.665,2.665,0,0,0,.617-5.257v-2.3A9.151,9.151,0,0,0,134.77,146.5a.845.845,0,1,0,.785,1.5,7.462,7.462,0,0,1,10.917,6.613v2.227h-2.8a1.432,1.432,0,0,1-1.431-1.43.845.845,0,0,0-1.689,0,1.432,1.432,0,0,1-1.43,1.43h-7.574v-2.227a7.409,7.409,0,0,1,1.356-4.291.845.845,0,0,0-1.381-.973,9.089,9.089,0,0,0-1.664,5.264v2.364Zm-.131,2.527a.977.977,0,0,1,.975-.976h.977v1.951h-.976A.977.977,0,0,1,129.731,159.5Zm5.441,16.246a1.407,1.407,0,0,1-.952-.984l-.495-1.787,1.749-.469a3.82,3.82,0,0,0,1.858,2.292l-.818.681A1.406,1.406,0,0,1,135.172,175.748Zm8.858-.984a1.431,1.431,0,0,1-2.295.717l-.818-.681a3.819,3.819,0,0,0,1.858-2.292l1.749.469Zm-2.792-3.317a2.113,2.113,0,1,1-4.227,0v-2.307a7.42,7.42,0,0,0,4.227,0ZM148.52,159.5a.977.977,0,0,1-.976.976h-.976v-1.951h.976a.977.977,0,0,1,.976.976Zm-7.119-1.963a3.113,3.113,0,0,0,2.276.987h1.2V162a5.754,5.754,0,0,1-11.508,0v-3.479h5.754A3.111,3.111,0,0,0,141.4,157.539Z" transform="translate(-115.755 -129.078)"/><path class="a" d="M193.809,8.824a.736.736,0,0,1,.212.652l-.285,1.662a2.426,2.426,0,0,0,3.519,2.557l1.492-.785a.736.736,0,0,1,.685,0l1.492.785a2.426,2.426,0,0,0,3.519-2.557l-.285-1.662a.736.736,0,0,1,.212-.652l1.207-1.177a2.426,2.426,0,0,0-1.344-4.137l-1.669-.242a.736.736,0,0,1-.554-.4l-.746-1.512a2.426,2.426,0,0,0-4.35,0l-.746,1.512a.736.736,0,0,1-.554.4l-1.668.242A2.425,2.425,0,0,0,192.6,7.646Zm-.215-3.141a.718.718,0,0,1,.595-.5l1.668-.242a2.425,2.425,0,0,0,1.826-1.327l.746-1.512a.736.736,0,0,1,1.32,0l.746,1.512a2.425,2.425,0,0,0,1.826,1.327l1.669.242a.736.736,0,0,1,.408,1.256l-1.207,1.177a2.425,2.425,0,0,0-.7,2.147l.285,1.662a.736.736,0,0,1-1.068.776l-1.492-.785a2.425,2.425,0,0,0-2.257,0l-1.492.785a.736.736,0,0,1-1.068-.776l.285-1.662a2.426,2.426,0,0,0-.7-2.147L193.78,6.437A.718.718,0,0,1,193.594,5.682Z" transform="translate(-175.719 0)"/><path class="a" d="M348.958,41.992a2.426,2.426,0,0,0-1.344-4.137l-1.668-.242a.736.736,0,0,1-.554-.4l-.746-1.512a2.426,2.426,0,0,0-4.35,0l-.746,1.512a.736.736,0,0,1-.554.4l-1.669.242a2.426,2.426,0,0,0-1.344,4.137l1.207,1.177a.736.736,0,0,1,.212.652l-.285,1.662a2.426,2.426,0,0,0,3.519,2.557l1.492-.785a.735.735,0,0,1,.685,0l1.492.785a2.426,2.426,0,0,0,3.519-2.557l-.285-1.662a.736.736,0,0,1,.212-.652Zm-2.386-.033a2.424,2.424,0,0,0-.7,2.147l.285,1.662a.736.736,0,0,1-1.068.776L343.6,45.76a2.425,2.425,0,0,0-2.257,0l-1.492.785a.736.736,0,0,1-1.068-.776l.285-1.662a2.425,2.425,0,0,0-.7-2.147l-1.207-1.177a.736.736,0,0,1,.408-1.256l1.668-.242a2.425,2.425,0,0,0,1.826-1.327l.746-1.512a.736.736,0,0,1,1.32,0l.746,1.512a2.425,2.425,0,0,0,1.827,1.327l1.668.242a.736.736,0,0,1,.408,1.256Z" transform="translate(-302.952 -30.478)"/><path class="a" d="M60.1,47.856a2.411,2.411,0,0,0,.965-2.372l-.285-1.662a.736.736,0,0,1,.212-.652L62.2,41.994a2.426,2.426,0,0,0-1.344-4.137l-1.668-.242a.736.736,0,0,1-.554-.4L57.886,35.7a2.41,2.41,0,0,0-2.175-1.352h0A2.411,2.411,0,0,0,53.536,35.7l-.746,1.512a.736.736,0,0,1-.554.4l-1.668.242a2.426,2.426,0,0,0-1.344,4.137L50.43,43.17a.736.736,0,0,1,.212.652l-.285,1.662a2.423,2.423,0,0,0,3.519,2.557l1.492-.785a.736.736,0,0,1,.685,0l1.492.785a2.411,2.411,0,0,0,2.554-.185Zm-4.39-2.374a2.424,2.424,0,0,0-1.129.279l-1.492.785a.736.736,0,0,1-1.068-.776l.285-1.662a2.425,2.425,0,0,0-.7-2.147L50.4,40.784a.736.736,0,0,1,.408-1.256l1.668-.242A2.425,2.425,0,0,0,54.3,37.959l.746-1.512a.718.718,0,0,1,.66-.411h0a.717.717,0,0,1,.66.41h0l.746,1.512a2.425,2.425,0,0,0,1.826,1.327l1.668.242a.736.736,0,0,1,.408,1.256l-1.207,1.177a2.424,2.424,0,0,0-.7,2.147l.285,1.662a.736.736,0,0,1-1.068.776l-1.492-.785A2.423,2.423,0,0,0,55.711,45.482Z" transform="translate(-48.489 -30.479)"/></g></g></svg>