<svg xmlns="http://www.w3.org/2000/svg" width="63.336" height="61.675" viewBox="0 0 63.336 61.675"><defs><style>.a{fill:#4e35e7;stroke:#4e35e7;stroke-width:1.4px;}</style></defs><g transform="translate(0.7 -6.164)"><path class="a" d="M.907,26.451a.907.907,0,0,0,.907-.907V20.652h45.7V34.9a.907.907,0,1,0,1.814,0V8.981A2.119,2.119,0,0,0,47.21,6.864H2.117A2.119,2.119,0,0,0,0,8.981V25.544a.907.907,0,0,0,.907.907ZM2.117,8.678H47.21a.3.3,0,0,1,.3.3v9.858H1.814V8.981a.3.3,0,0,1,.3-.3Z" transform="translate(0)"/><circle class="a" cx="1.769" cy="1.769" r="1.769" transform="translate(4.936 11.955)"/><circle class="a" cx="1.769" cy="1.769" r="1.769" transform="translate(10.316 11.955)"/><circle class="a" cx="1.769" cy="1.769" r="1.769" transform="translate(15.695 11.955)"/><path class="a" d="M123.789,151.7a3.269,3.269,0,0,0-.671-2.015,3.347,3.347,0,0,0-1.1-4.249,3.209,3.209,0,0,0-1.828-.569h-.01c-1.2,0-3.574.01-4.654.01h-.406c.077-.556.148-1.088.2-1.638a7.266,7.266,0,0,0-.831-4.658,3.785,3.785,0,0,0-4.711-1.734,1.289,1.289,0,0,0-.928,1.444c.11,1.012.232,2.207.311,3.394a1.067,1.067,0,0,1-.074.5c-.614,1.194-2.734,5.22-3.166,6.051-1.518,0-2.132,0-2.89-.013a1.941,1.941,0,0,0-1.964,1.94v8.789a1.941,1.941,0,0,0,1.941,1.94s12.3,0,15.277-.025a3.055,3.055,0,0,0,2.984-3.383q-.009-.077-.022-.152a3.282,3.282,0,0,0,1.458-3.368A2.939,2.939,0,0,0,123.789,151.7Zm-2.429,1.016a1.147,1.147,0,0,0-.5,1.229,1.555,1.555,0,0,1-.828,1.984,1.153,1.153,0,0,0-.659,1.355,1.3,1.3,0,0,1-.215,1.36,1.194,1.194,0,0,1-.89.414c-3.014.03-15.259.025-15.26.025a.126.126,0,0,1-.126-.126v-8.789a.124.124,0,0,1,.038-.09.122.122,0,0,1,.086-.037h0c.832.012,1.489.014,3.318.013a1.145,1.145,0,0,0,1.02-.619c.49-.944,2.738-5.214,3.356-6.416a2.859,2.859,0,0,0,.271-1.453c-.071-1.077-.177-2.152-.277-3.1a2.016,2.016,0,0,1,2.251,1.067,5.639,5.639,0,0,1,.569,3.541c-.052.57-.131,1.14-.215,1.742a1.647,1.647,0,0,0,.2,1.482,1.149,1.149,0,0,0,.865.392l5.828-.01a1.489,1.489,0,0,1,1.443,1.246,1.514,1.514,0,0,1-.257,1.144,1.152,1.152,0,0,0,.173,1.569,1.442,1.442,0,0,1,.427,1.059A1.225,1.225,0,0,1,121.36,152.714Z" transform="translate(-88.843 -114.033)"/><path class="a" d="M55.451,218a6.454,6.454,0,0,0-4.1,1.461l-2.029-1.877v-7.458a.907.907,0,0,0-1.814,0v5.78l-2.545-2.354a5.563,5.563,0,0,0,.273-5.68l7.218-5.492a4.531,4.531,0,1,0-1.1-1.442l-7.218,5.492a5.579,5.579,0,1,0-.406,8.453l3.778,3.494v.3a.3.3,0,0,1-.3.3H2.117a.3.3,0,0,1-.3-.3V194.152a.907.907,0,0,0-1.814,0v24.535A2.119,2.119,0,0,0,2.117,220.8H47.21a2.116,2.116,0,0,0,1.811-1.026l1.1,1.02A6.482,6.482,0,1,0,55.451,218Zm0-21.766a2.731,2.731,0,1,1-2.731,2.731A2.734,2.734,0,0,1,55.451,196.238Zm-18.9,14.25a3.765,3.765,0,1,1,3.765,3.765A3.769,3.769,0,0,1,36.547,210.488Zm18.9,18.672a4.67,4.67,0,1,1,4.67-4.67A4.676,4.676,0,0,1,55.451,229.16Z" transform="translate(0 -163.835)"/></g></svg>