<?xml version="1.0" encoding="utf-8"?>
<!-- Generator: Adobe Illustrator 24.2.1, SVG Export Plug-In . SVG Version: 6.00 Build 0)  -->
<svg version="1.1" id="Layer_1" xmlns="http://www.w3.org/2000/svg" xmlns:xlink="http://www.w3.org/1999/xlink" x="0px" y="0px"
	 viewBox="0 0 595.3 340.1" style="enable-background:new 0 0 595.3 340.1;" xml:space="preserve">
<style type="text/css">
	.st0{fill:#C4E4E4;}
	.st1{fill:#EDF0F2;}
	.st2{fill:#054669;}
	.st3{fill:#53BED7;}
	.st4{fill:#12676F;}
	.st5{fill:#02384F;}
	.st6{fill:#2CAEAB;}
	.st7{fill:#E4E364;}
	.st8{fill:#FFFFFF;}
	.st9{fill:#EAEAEA;}
	.st10{fill:#F5A764;}
	.st11{fill:#4B4842;}
</style>
<g>
	<g>
		<g>
			<path class="st0" d="M128.2,297.4h336.7c23.7-13.5,39.6-39,39.6-68.2c0-33.6-21.1-62.2-50.7-73.4c-5.8-25.2-25.1-45.3-49.8-52.2
				c-2.6-37.9-34.2-67.8-72.7-67.8c-31.5,0-58.3,19.9-68.5,47.9c-14.6-13.7-34.2-22.2-55.9-22.2c-45,0-81.5,36.5-81.5,81.5
				c0,8.5,1.3,16.7,3.7,24.3c-22.7,12.9-38,37.3-38,65.3C91.1,260.2,106,284.3,128.2,297.4z"/>
			<path class="st1" d="M488.9,292.2H106.6c-4.2,0-7.7,2.8-7.7,6.1l0,0c0,3.4,3.4,6.1,7.7,6.1h382.3c4.2,0,7.7-2.8,7.7-6.1l0,0
				C496.6,295,493.1,292.2,488.9,292.2z"/>
		</g>
		<g>
			<circle class="st0" cx="466.8" cy="138.9" r="9.9"/>
			
				<ellipse transform="matrix(0.9239 -0.3827 0.3827 0.9239 -52.617 53.8325)" class="st0" cx="109" cy="159.2" rx="11.9" ry="11.9"/>
			<circle class="st0" cx="258.9" cy="53.7" r="6.8"/>
		</g>
	</g>
	<g>
		<g>
			<circle class="st2" cx="203.7" cy="104.1" r="26.2"/>
			<circle class="st3" cx="203.7" cy="104.1" r="22.7"/>
			<path class="st2" d="M205.6,104.1c0,1.1-0.9,1.9-1.9,1.9c-1.1,0-1.9-0.9-1.9-1.9c0-1.1,0.9-1.9,1.9-1.9
				C204.8,102.2,205.6,103.1,205.6,104.1z"/>
			<path class="st2" d="M196.6,111.9c-0.2,0-0.3-0.1-0.5-0.2c-0.3-0.3-0.3-0.7,0-0.9l6.9-6.9v-17c0-0.4,0.3-0.6,0.6-0.6
				s0.6,0.3,0.6,0.6v17.2c0,0.2-0.1,0.3-0.2,0.5l-7.1,7.1C196.9,111.8,196.7,111.9,196.6,111.9z"/>
		</g>
	</g>
	<g>
		<g>
			<path class="st3" d="M362.8,288.9v3.2H335v-3.2c0-1.5,1.2-2.8,2.8-2.8h22.2C361.6,286.1,362.8,287.4,362.8,288.9z"/>
			<path class="st3" d="M356.7,289.7v2.4H335v-2.4c0-1.5,1.2-2.8,2.8-2.8h16.1C355.4,286.9,356.7,288.2,356.7,289.7z"/>
			<g>
				<path class="st3" d="M380.9,198.8c-1.7,0-3.3,0.7-4.5,1.9c-1.1,1.1-1.8,2.7-1.8,4.5v20.5c0,6.2-5.1,11.3-11.3,11.3h-24.7
					c1.1-0.4,2.2-1.1,3.1-1.9c2.6-2.3,4.2-5.8,4.2-9.4v-20.5c0-3.5,2.8-6.3,6.3-6.3H380.9z"/>
				<path class="st4" d="M374.6,205.1v20.5c0,6.2-5.1,11.3-11.3,11.3h-35.1c-1.7,0-3.2,1.4-3.2,3.2l0,0c0,1.7,1.4,3.2,3.2,3.2h37.2
					c8.6,0,15.5-6.9,15.5-15.5v-29h0C377.4,198.8,374.6,201.7,374.6,205.1z"/>
			</g>
			<rect x="347.9" y="243.3" class="st3" width="3.2" height="46.7"/>
		</g>
		<g>
			<path class="st5" d="M352.8,161.8c0,0,5,5.2,12.7,1.8c7.7-3.4,9.2-15.1-2.3-23.2c-9.1-6.5-2.3-22.1-11.5-31.2
				c-5.2-5.1-14.7-6.2-16.8-1.1c0,0-4.4-0.6-7.4,4.9c-3.2,5.9-4.6,22.4,5.1,27.5C342.3,145.6,327,162.6,352.8,161.8z"/>
			<path class="st6" d="M291,138.4c-1,0.2-1.8,2.5-0.3,4.3l28.9,32c1.8,2.1,4.9,2.4,7.1,0.6l20.7-17.1c4.9-4.8,6.5-10.6,3.7-13.7v0
				c-2.9-3.2-10-3.8-14.7,2.1l-14.9,16.1c0,0-20.3-17.1-22.3-20.7c-1.4-2.4-6.4-11.9-7.1-11.9c-0.9,0,2.2,8.2,2.2,8.2L291,138.4z"/>
			<g>
				<path class="st6" d="M330.1,121.1c0,0-1.1,20,12.3,14.1l-0.2,5.8h9.8c0,0-4.2-8.8-2.2-13.4c2-4.6-1.6-8.2-3.5-4.7l-0.5,1.2
					c0,0,0.6-0.8-4-1.9c-5.3-1.3-5.9-3.8-6.7-5.7C335.1,116.4,332.1,120,330.1,121.1z"/>
			</g>
			<path class="st7" d="M342.3,140.8c0,0-3.9,10.3-9.2,15.5c-5.3,5.3-5.4,10.2,1.4,17s0.5,31.5,0.5,31.5h31.1c0,0-6.3-11.5-4.2-29
				c2.9-23.6-4.2-34.2-11-37.3L342.3,140.8z"/>
			<g>
				<path class="st6" d="M352.9,191.3l-50.5,2.5c-1,0-1.7-1.1-1.2-2c1-1.9,3.1-4.3,7-3.9c3.7,0.4,6,1.1,6,1.1l30.3-8.9l-2.3-22.8
					c-1.4-7.4,3.6-12.4,7.9-12.5l0,0c4.3-0.1,7.6,4.9,8.1,11.7l-0.2,29.9C357.9,189.1,355.6,191.3,352.9,191.3z"/>
			</g>
			<g>
				<g>
					<path class="st6" d="M293,275.2c0,0,0,11-6.5,8.2c-6.6-2.8-17.2-4.9-18.7-5.9c-1.6-1,1.4-3.2,5.1-2.7c3.6,0.4,9.7,1.4,10.5-2.6
						L293,275.2z"/>
					<path class="st2" d="M283,245.7c-0.1,13.9,0.7,25.8,0.7,25.8l12.7,4.3l3.5-24.4L283,245.7z"/>
				</g>
				<g>
					<path class="st6" d="M308.7,288.7c0,0,3.6,10.4-3.5,9.9c-7.1-0.5-17.8,0.9-19.6,0.4c-1.8-0.5,0.3-3.5,3.9-4.2
						c3.6-0.8,9.6-1.8,9.1-5.9L308.7,288.7z"/>
					<path class="st5" d="M342.9,237l-41.7,0.7l9.5,51.1h-13.4c0,0-23.4-56.7-15.8-67.2c7.3-10,53.5-16.7,53.5-16.7h31.1
						C366.2,204.9,373.2,233.4,342.9,237z"/>
				</g>
				<path class="st2" d="M335,204.9h31.1c0,0,0.2,1.3,0.5,3.4c2.8,20.1-15.6,38-38.2,25c-14.2-8.1-34.1-23.7-44.3-13.6
					c0,0-2.7-16.3,11.7-20.3c3-0.8,6.1-0.9,9.2-0.3L335,204.9z"/>
			</g>
		</g>
	</g>
	<g>
		<g>
			<rect x="217.9" y="193" class="st3" width="108" height="4.1"/>
			<g>
				<g>
					<polygon class="st3" points="226,292.3 246.8,197.1 242.6,197.1 222.6,292.3 					"/>
					<polygon class="st3" points="328.6,292.3 308.7,197.1 304.5,197.1 325.2,292.3 					"/>
				</g>
			</g>
		</g>
		<g>
			<path class="st4" d="M300.4,190.4h-19.3c-0.8,0-1.5,0.7-1.5,1.5v1.1h22.4V192C301.9,191.1,301.3,190.4,300.4,190.4z"/>
			<g>
				<path class="st4" d="M276.5,191.6c0,0.8-0.6,1.4-1.4,1.4h-20.6c-1.4,0-2.8-0.3-4.1-0.8c-5.2-2-8.3-7.4-7.7-13.1l2.8-23.2
					c0.4-3.2,3.1-5.6,6.3-5.6h1.2v2.8h-1.2c-1.8,0-3.3,1.3-3.5,3.1l-2.8,23.2c-0.5,4.5,1.9,8.6,5.9,10.2c1,0.4,2.1,0.6,3.1,0.6h20.6
					C275.9,190.2,276.5,190.9,276.5,191.6L276.5,191.6z"/>
				<g>
					<path class="st4" d="M250.9,124.6l2.5,40.7c0.3,4.7,4.3,8.5,9,8.5l-3.6-57.7C254.1,116.1,250.6,119.9,250.9,124.6z"/>
					<polygon class="st6" points="263.5,116.1 258.8,116.1 262.4,173.8 267.1,173.8 					"/>
				</g>
			</g>
		</g>
	</g>
	<g>
		<polygon class="st3" points="211.3,262.6 178,262.6 182.1,292 207.2,292 		"/>
		<g>
			<path class="st6" d="M191.1,262.6h2.1c-0.8-4.4-1.8-10.7-2.9-18.3c-2.4-16-10.2-39.6-15.3-45.5c0,0-3.3,25.6,5.6,40.5
				C186.6,249.3,189.4,256.8,191.1,262.6z"/>
			<path class="st6" d="M207.3,244.2c-3.5,10.1-7.1,14.9-9.7,18.4h2.3c2.6-2.3,6.7-6,11.1-10.4c7.4-7.4,14.3-20.6,15.2-26.3
				C226.3,225.9,211.3,232.7,207.3,244.2z"/>
			<path class="st6" d="M188.1,262.6h2c-0.6-2.3-3.6-12.3-13.6-21.2c-11.4-10.2-20-13-20-13s4.7,15.2,13.7,20.5
				C178.8,254.1,184.6,256.8,188.1,262.6z"/>
			<path class="st6" d="M193.6,262.6h2c2.8-4,7.9-12.6,9.6-24.5c2.4-16.6-0.2-25.3-0.2-25.3s-10.8,15-9.8,25.9
				C196.1,248.7,196.3,255.9,193.6,262.6z"/>
		</g>
	</g>
	<g>
		<g>
			<g>
				<rect x="383.6" y="261.5" class="st3" width="2.9" height="30.8"/>
				<rect x="428.1" y="261.5" class="st3" width="2.9" height="30.8"/>
			</g>
			<rect x="367.8" y="254.3" class="st6" width="47.4" height="7.2"/>
			<rect x="415.2" y="254.3" class="st6" width="15.8" height="7.2"/>
			<rect x="367.8" y="261.5" class="st3" width="47.4" height="3.7"/>
			<g>
				<rect x="367.8" y="261.5" class="st3" width="2.9" height="30.8"/>
				<rect x="412.3" y="261.5" class="st3" width="2.9" height="30.8"/>
			</g>
			<rect x="415.2" y="261.5" class="st3" width="15.8" height="3.7"/>
		</g>
		<g>
			<g>
				<path class="st6" d="M402,242.4c0,0-13.3-25.4-1.7-44.7C400.3,197.7,412.4,211.9,402,242.4z"/>
				<path class="st6" d="M402.2,244.2c0,0-3.9-25.5,11.6-38.5C413.8,205.7,419.9,221.3,402.2,244.2z"/>
				<path class="st6" d="M401.6,244.8c0,0,5-22.5,22.2-28.3C423.8,216.5,423.8,231.5,401.6,244.8z"/>
				<path class="st6" d="M402.4,245.7c0,0-19-14.7-16.9-33.4C385.5,212.3,399.7,218.9,402.4,245.7z"/>
			</g>
			<path class="st2" d="M418.2,238.3h-30.4l2.7,11.6c0.6,2.8,3.1,4.7,6,4.7h13.2c2.8,0,5.3-2,6-4.7L418.2,238.3z"/>
		</g>
	</g>
	<g>
		<g>
			<path class="st6" d="M319.4,67.5h-71.5c-1.4,0-2.6,1.1-2.6,2.6V106c0,1.4,1.1,2.6,2.6,2.6H273c3.1,0,5.7,2.4,5.8,5.5l0.1,2
				c0.1,1.1,1.3,1.7,2.2,1.1l10.1-7.4c1-0.7,2.2-1.1,3.4-1.1h24.6c1.4,0,2.6-1.1,2.6-2.6V70.1C321.9,68.7,320.8,67.5,319.4,67.5z"/>
			<g>
				<polygon class="st7" points="257.5,84.1 268.1,84.1 268.1,75 257.5,75 257.5,78.6 255.1,78.6 255.1,80.5 257.5,80.5 				"/>
				<polygon class="st7" points="269.9,77.6 269.9,81.5 274.7,83.4 274.7,75.7 				"/>
				<rect x="256.2" y="89.1" class="st8" width="17.9" height="1.6"/>
				<rect x="256.2" y="94" class="st8" width="17.9" height="1.6"/>
				<rect x="256.2" y="98.9" class="st8" width="9.1" height="1.6"/>
			</g>
			<g>
				<rect x="285.4" y="74.3" class="st8" width="27.7" height="26.3"/>
				<g>
					<path class="st2" d="M308.5,92.7l-6.2-2.1l-2.6-0.5v0l0,0l0,0v0l-2.6,0.5l-6.2,2.1c-1.5,0.5-2.5,1.9-2.5,3.5v4.3h11.4h0.1h11.4
						v-4.3C311.1,94.7,310,93.3,308.5,92.7z"/>
					<g>
						<path class="st6" d="M294.8,84.7c0,0-1.7-6,3.1-5.9c0,0,0.8-0.8,3-0.7c2.3,0.1,4.3,1.9,5.3,0.3c0.5-0.8,1.7,5.7-3,6.3
							l-5.2,0.4L294.8,84.7z"/>
						<g>
							<g>
								<polygon class="st9" points="299.5,92.9 299.5,92.9 299.5,92.9 299.5,92.9 299.5,92.9 299.5,92.9 299.5,92.9 								"/>
								<polygon class="st9" points="299.5,92.9 299.5,92.9 299.5,92.9 299.5,92.9 299.5,92.9 299.5,92.9 299.5,92.9 								"/>
							</g>
							<g>
								<path class="st6" d="M301.8,89.2v2l0,0c-0.4,1-1.5,2.1-2.3,2.1c-0.9,0-1.9-1-2.4-2.1l0,0v-2c0.5,0.5,1.3,0.9,2.3,0.9
									C300.5,90.1,301.3,89.7,301.8,89.2z"/>
								<g>
									<g>
										<ellipse class="st6" cx="302.9" cy="85.1" rx="1.3" ry="1.3"/>
										<path class="st6" d="M297.3,85.1c0-0.7-0.6-1.3-1.3-1.3c-0.7,0-1.3,0.6-1.3,1.3s0.6,1.3,1.3,1.3
											C296.7,86.3,297.3,85.8,297.3,85.1z"/>
									</g>
									<path class="st10" d="M297.1,89.2v0.6c0.6,0.4,1.4,0.9,2.3,0.9c1,0,1.7-0.5,2.3-0.9v-0.6c-0.5,0.5-1.3,0.9-2.3,0.9
										C298.4,90.1,297.7,89.7,297.1,89.2z"/>
									<path class="st6" d="M303.2,83c0,0-3.4-0.3-4.7-1.7c0,0-1.3,1.6-2.8,1.7l0,2.9c0,0,0.2,4.2,3.7,4.1c3.6,0,3.7-4.1,3.7-4.1
										L303.2,83z"/>
									<path class="st11" d="M294.8,84.7"/>
								</g>
							</g>
						</g>
					</g>
				</g>
			</g>
		</g>
		<g>
			<path class="st2" d="M413.8,81.9H366c-2.2,0-4,1.8-4,4v25.3v13c0,0.7,0.9,1.1,1.4,0.6l8.5-8.5c0.7-0.7,1.8-1.2,2.8-1.2h39.1
				c2.2,0,4-1.8,4-4V85.8C417.7,83.7,415.9,81.9,413.8,81.9z"/>
			<g>
				<rect x="374.3" y="91.9" class="st8" width="31.9" height="2.2"/>
				<rect x="374.3" y="98.3" class="st8" width="31.9" height="2.2"/>
				<rect x="374.3" y="104.7" class="st8" width="16.2" height="2.2"/>
			</g>
		</g>
		<g>
			<path class="st2" d="M220.6,140.4h-56c-3.7,0-6.7,3-6.7,6.7v28.2c0,3.7,3,6.7,6.7,6.7h56c3.7,0,6.7-3,6.7-6.7v-28.2
				C227.4,143.4,224.4,140.4,220.6,140.4z"/>
			<g>
				<rect x="165.9" y="147.8" class="st8" width="24.6" height="2.2"/>
				<rect x="165.9" y="154.1" class="st8" width="24.6" height="2.2"/>
				<rect x="165.9" y="160.5" class="st8" width="12.5" height="2.2"/>
			</g>
			<g>
				<rect x="196.5" y="147.8" class="st7" width="24.6" height="2.2"/>
				<rect x="196.5" y="154.1" class="st7" width="24.6" height="2.2"/>
				<rect x="196.5" y="160.5" class="st7" width="24" height="2.2"/>
			</g>
			<g>
				<rect x="165.9" y="171.5" class="st7" width="3.7" height="6"/>
				<rect x="181.4" y="169" class="st7" width="3.7" height="8.4"/>
				<rect x="173.5" y="173.1" class="st7" width="3.7" height="4.3"/>
			</g>
			<rect x="206.2" y="167.9" class="st8" width="14.3" height="9.7"/>
		</g>
	</g>
</g>
</svg>
