<?xml version="1.0" encoding="utf-8"?>
<!-- Generator: Adobe Illustrator 24.0.0, SVG Export Plug-In . SVG Version: 6.00 Build 0)  -->
<svg version="1.1" id="Layer_1" xmlns="http://www.w3.org/2000/svg" xmlns:xlink="http://www.w3.org/1999/xlink" x="0px" y="0px"
	 viewBox="0 0 128 136" style="enable-background:new 0 0 128 136;" xml:space="preserve">
<title>miscellaneous47 expandlines</title>
<path d="M51,71c0,7.2,5.8,13,13,13s13-5.8,13-13s-5.8-13-13-13S51,63.8,51,71z M73,71c0,5-4,9-9,9s-9-4-9-9s4-9,9-9S73,66,73,71z"/>
<path d="M35,75c-3.7-0.1-6.9,2.8-7,6.5V95c0,1.1,0.9,2,2,2s2-0.9,2-2V81.5c0.2-1.5,1.5-2.6,3-2.5h5c1.1,0,2-0.9,2-2s-0.9-2-2-2H35z"
	/>
<path d="M99,124h-9.4c0-0.2,0.1-0.4,0.1-0.6L92,98.6c0.2-1.7-0.4-3.4-1.5-4.7c-0.7-0.7-1.5-1.3-2.5-1.6c-0.2-5.7-4.3-10.6-10-11.7
	c-0.9,1.3-2,2.5-3.2,3.5c3.7,0.3,8.3,2,9,7.9H44.1c0.8-5.9,5.4-7.6,9-7.9c-1.2-1-2.2-2.2-3.1-3.5c-5.6,1.2-9.7,6-9.9,11.7
	c-1,0.3-1.8,0.9-2.5,1.6c-1.2,1.3-1.7,3-1.6,4.7l2.3,24.8c0,0.2,0.1,0.4,0.1,0.7H29c-1.1,0-2,0.9-2,2s0.9,2,2,2h70c1.1,0,2-0.9,2-2
	S100.1,124,99,124z M43.2,124c-0.5,0-0.9-0.5-0.9-1L40,98.2c-0.1-0.6,0.1-1.2,0.5-1.6c0.3-0.4,0.8-0.6,1.4-0.6h44.2
	c0.5,0,1,0.2,1.3,0.6c0.4,0.4,0.6,1,0.5,1.6l-2.3,24.8c0,0.5-0.4,0.9-0.9,0.9H43.2z"/>
<path d="M98,97c1.1,0,2-0.9,2-2V81.5c-0.1-3.7-3.3-6.6-7-6.5h-5c-1.1,0-2,0.9-2,2s0.9,2,2,2h5c1.5-0.1,2.8,1,3,2.5V95
	C96,96.1,96.9,97,98,97z"/>
<path d="M64,108c-3.3,0-6,2.7-6,6s2.7,6,6,6c3.3,0,6-2.7,6-6S67.3,108,64,108z M64,116c-1.1,0-2-0.9-2-2s0.9-2,2-2s2,0.9,2,2
	S65.1,116,64,116z"/>
<path d="M25,20c5.5,0,10-4.5,10-10S30.5,0,25,0S15,4.5,15,10S19.5,20,25,20z M25,4c3.3,0,6,2.7,6,6s-2.7,6-6,6s-6-2.7-6-6
	S21.7,4,25,4z"/>
<path d="M48,52c1.1,0,2-0.9,2-2s-0.9-2-2-2h-4.6L45,34.2c0.1-1.3-0.3-2.7-1.2-3.7c-0.2-0.3-0.5-0.5-0.8-0.7v-2
	c0.2-4.4-2.8-8.2-7-9.2C35,20,33.6,21.1,32.2,22c3.2,0.1,6.8,1.2,6.8,5.8V29H11v-1.2c0-4.6,3.6-5.7,6.8-5.8
	c-1.5-0.9-2.8-2.1-3.8-3.4c-4.2,1-7.2,4.9-7,9.2v2c-0.3,0.2-0.5,0.4-0.8,0.7c-0.9,1-1.4,2.4-1.2,3.8L6.6,48H2c-1.1,0-2,0.9-2,2
	s0.9,2,2,2H48z M9,33.8c0-0.2,0-0.4,0.2-0.6C9.3,33.1,9.5,33,9.7,33h30.6c0.2,0,0.4,0.1,0.5,0.2c0.1,0.2,0.2,0.4,0.2,0.6l-1.6,14
	c0,0,0,0.1,0,0.1H10.6L9,33.8z"/>
<circle cx="25" cy="41" r="2"/>
<path d="M103,20c5.5,0,10-4.5,10-10s-4.5-10-10-10S93,4.5,93,10S97.5,20,103,20z M103,4c3.3,0,6,2.7,6,6s-2.7,6-6,6s-6-2.7-6-6
	S99.7,4,103,4z"/>
<path d="M126,48h-4.6l1.6-13.8c0.1-1.3-0.3-2.7-1.2-3.7c-0.2-0.3-0.5-0.5-0.8-0.7v-2c0.2-4.4-2.8-8.2-7-9.2
	c-1.1,1.3-2.4,2.5-3.9,3.4c3.2,0.1,6.8,1.2,6.8,5.8V29H89v-1.2c0-4.6,3.6-5.7,6.8-5.8c-1.5-0.9-2.8-2.1-3.8-3.4
	c-4.2,1-7.2,4.9-7,9.2v2c-0.3,0.2-0.5,0.4-0.8,0.7c-0.9,1-1.4,2.4-1.2,3.8L84.6,48H80c-1.1,0-2,0.9-2,2s0.9,2,2,2h46
	c1.1,0,2-0.9,2-2S127.1,48,126,48z M87,33.8c0-0.2,0-0.4,0.2-0.6c0.1-0.1,0.3-0.2,0.5-0.2h30.6c0.2,0,0.4,0.1,0.5,0.2
	c0.1,0.2,0.2,0.4,0.2,0.6l-1.6,14c0,0,0,0.1,0,0.1H88.6L87,33.8z"/>
<circle cx="103" cy="41" r="2"/>
<path d="M64,7c8.8,0,17.5,2.1,25.3,6c-0.3-1.5-0.4-3-0.2-4.5c-15.9-7.2-34.2-7.2-50.2,0c0.2,1.5,0.1,3-0.2,4.5C46.5,9.1,55.2,7,64,7
	z"/>
<path d="M33.2,112C14.4,100,4.4,78.1,7.6,56h-4c-3.3,24.5,8.6,48.6,30.1,60.9L33.2,112z"/>
<path d="M120.4,56c3.2,22.1-6.9,44-25.7,56l-0.5,5c21.5-12.3,33.5-36.4,30.2-61H120.4z"/>
</svg>
