<?xml version="1.0" encoding="utf-8"?>
<!-- Generator: Adobe Illustrator 24.0.0, SVG Export Plug-In . SVG Version: 6.00 Build 0)  -->
<svg version="1.1" id="Layer_1" xmlns="http://www.w3.org/2000/svg" xmlns:xlink="http://www.w3.org/1999/xlink" x="0px" y="0px"
	 viewBox="0 0 64 68" style="enable-background:new 0 0 64 68;" xml:space="preserve">
<g>
	<g>
		<g>
			<g>
				<g>
					<g>
						<path d="M51.6,63H12.4C10,63,8,61,8,58.7V5.3C8,3,10,1,12.4,1h29.1C42.3,1,43,1.7,43,2.5v7.9c0,1.9,1.6,3.5,3.5,3.5h8
							c0.8,0,1.5,0.7,1.5,1.5v43.3C56,61,54,63,51.6,63z M12.4,3C11.1,3,10,4.1,10,5.3v53.3c0,1.3,1.1,2.3,2.4,2.3h39.2
							c1.3,0,2.4-1.1,2.4-2.3V15.9h-7.5c-3.1,0-5.5-2.5-5.5-5.5V3H12.4z"/>
					</g>
					<g>
						<path d="M55,16c-0.3,0-0.5-0.1-0.7-0.3l-13-13c-0.4-0.4-0.4-1,0-1.4s1-0.4,1.4,0l13,13c0.4,0.4,0.4,1,0,1.4
							C55.5,15.9,55.3,16,55,16z"/>
					</g>
				</g>
			</g>
		</g>
		<g>
			<g>
				<g>
					<g>
						<path d="M20.3,36.6H16c-0.6,0-1-0.4-1-1v-4.3c0-0.6,0.4-1,1-1h4.3c0.6,0,1,0.4,1,1v4.3C21.3,36.2,20.8,36.6,20.3,36.6z
							 M16.9,34.6h2.3v-2.3h-2.3V34.6z"/>
					</g>
					<g>
						<path d="M48.1,34.5H25.5c-0.6,0-1-0.4-1-1s0.4-1,1-1h22.6c0.6,0,1,0.4,1,1S48.7,34.5,48.1,34.5z"/>
					</g>
				</g>
				<g>
					<g>
						<path d="M20.3,47.3H16c-0.6,0-1-0.4-1-1V42c0-0.6,0.4-1,1-1h4.3c0.6,0,1,0.4,1,1v4.3C21.3,46.9,20.8,47.3,20.3,47.3z
							 M16.9,45.3h2.3V43h-2.3V45.3z"/>
					</g>
					<g>
						<path d="M48.1,45.2H25.5c-0.6,0-1-0.4-1-1s0.4-1,1-1h22.6c0.6,0,1,0.4,1,1S48.7,45.2,48.1,45.2z"/>
					</g>
				</g>
				<g>
					<g>
						<path d="M20.3,58H16c-0.6,0-1-0.4-1-1v-4.3c0-0.6,0.4-1,1-1h4.3c0.6,0,1,0.4,1,1V57C21.3,57.6,20.8,58,20.3,58z M16.9,56h2.3
							v-2.3h-2.3V56z"/>
					</g>
					<g>
						<path d="M48.1,55.9H25.5c-0.6,0-1-0.4-1-1s0.4-1,1-1h22.6c0.6,0,1,0.4,1,1S48.7,55.9,48.1,55.9z"/>
					</g>
				</g>
			</g>
			<g>
				<g>
					<path d="M21.8,26.8c-4.7,0-8.6-3.8-8.6-8.5s3.8-8.5,8.6-8.5c0.6,0,1,0.4,1,1v6.5h6.6c0.6,0,1,0.4,1,1
						C30.4,23,26.5,26.8,21.8,26.8z M20.8,12c-3.1,0.5-5.6,3.2-5.6,6.4c0,3.6,2.9,6.5,6.6,6.5c3.3,0,6-2.4,6.5-5.5h-6.5
						c-0.6,0-1-0.4-1-1V12z"/>
				</g>
				<g>
					<path d="M33.3,15.4h-7.6c-0.6,0-1-0.4-1-1V7c0-0.6,0.4-1,1-1c4.7,0,8.6,3.8,8.6,8.5C34.3,15,33.9,15.4,33.3,15.4z M26.8,13.4
						h5.5c-0.4-2.8-2.7-5-5.5-5.4V13.4z"/>
				</g>
			</g>
		</g>
	</g>
</g>
</svg>
