<?xml version="1.0" encoding="utf-8"?>
<!-- Generator: Adobe Illustrator 24.0.0, SVG Export Plug-In . SVG Version: 6.00 Build 0)  -->
<svg version="1.1" id="Layer_1" xmlns="http://www.w3.org/2000/svg" xmlns:xlink="http://www.w3.org/1999/xlink" x="0px" y="0px"
	 viewBox="0 0 256 273.8" style="enable-background:new 0 0 256 273.8;" xml:space="preserve">
<style type="text/css">
	.st0{fill-rule:evenodd;clip-rule:evenodd;}
</style>
<g>
	<path class="st0" d="M56,0c-6,0-11,5-11,11v11H11c-3,0-6,1-8,3c-2,3-3,6-3,8v223c0,3,1,6,3,8s5,3,8,3h234c3,0,6-1,8-3s3-5,3-8V33
		c0-2-1-5-3-8c-2-2-5-3-8-3h-33V11c0-6-5-11-11-11h-12c-6,0-11,5-11,11v11H78V11c0-6-5-11-11-11H56z M11,84h234v172H11V84z M11,33
		h34v12c0,6,5,11,11,11h11c6,0,11-5,11-11V33h100v12c0,6,5,11,11,11h12c6,0,11-5,11-11V33h33v39H11V33z M56,11h11v34H56V11z M189,11
		h12v34h-12V11z"/>
	<polygon class="st0" points="41,123 63,123 63,145 41,145 	"/>
	<polygon class="st0" points="92,123 114,123 114,145 92,145 	"/>
	<polygon class="st0" points="142,123 164,123 164,145 142,145 	"/>
	<polygon class="st0" points="193,123 215,123 215,145 193,145 	"/>
	<polygon class="st0" points="41,159 63,159 63,181 41,181 	"/>
	<polygon class="st0" points="41,196 63,196 63,218 41,218 	"/>
	<polygon class="st0" points="92,159 114,159 114,181 92,181 	"/>
	<polygon class="st0" points="92,196 114,196 114,218 92,218 	"/>
	<polygon class="st0" points="142,159 164,159 164,181 142,181 	"/>
	<polygon class="st0" points="142,196 164,196 164,218 142,218 	"/>
	<polygon class="st0" points="193,159 215,159 215,181 193,181 	"/>
	<polygon class="st0" points="193,196 215,196 215,218 193,218 	"/>
</g>
</svg>
