<?xml version="1.0" encoding="utf-8"?>
<!-- Generator: Adobe Illustrator 24.0.0, SVG Export Plug-In . SVG Version: 6.00 Build 0)  -->
<svg version="1.1" id="Layer_1" xmlns="http://www.w3.org/2000/svg" xmlns:xlink="http://www.w3.org/1999/xlink" x="0px" y="0px"
	 viewBox="0 0 64 69" style="enable-background:new 0 0 64 69;" xml:space="preserve">
<title>pay 2</title>
<g>
	<path d="M34,5.7c0,0.6-0.4,1-1,1h-5.2c-0.6,0-1-0.4-1-1s0.4-1,1-1H33C33.6,4.7,34,5.2,34,5.7z M36.9,5c-0.4-0.4-1-0.4-1.4,0
		c-0.1,0.1-0.2,0.2-0.2,0.3c-0.1,0.2-0.1,0.5,0,0.8c0.1,0.1,0.1,0.2,0.2,0.3c0.1,0.1,0.2,0.2,0.3,0.2c0.1,0.1,0.3,0.1,0.4,0.1
		c0.3,0,0.5-0.1,0.7-0.3C37.3,6,37.3,5.4,36.9,5C36.9,5,36.9,5,36.9,5z M35.6,57.7c0,2-1.6,3.6-3.6,3.6s-3.6-1.6-3.6-3.6
		c0-2,1.6-3.6,3.6-3.6c0,0,0,0,0,0C34,54.1,35.6,55.7,35.6,57.7z M33.6,57.7c0-0.9-0.7-1.6-1.6-1.6c-0.9,0-1.6,0.7-1.6,1.6
		s0.7,1.6,1.6,1.6c0,0,0,0,0,0C32.9,59.3,33.6,58.6,33.6,57.7z M52.3,6.7v9.8c0,0.6-0.4,1-1,1s-1-0.4-1-1v-5H13.7v4.2
		c0,0.6-0.4,1-1,1s-1-0.4-1-1v-9c0-3.7,3-6.7,6.7-6.7c0,0,0,0,0,0h27.2C49.3,0,52.3,3,52.3,6.7L52.3,6.7z M50.3,9.5V6.7
		c0-2.6-2.1-4.7-4.7-4.7H18.4c-2.6,0-4.7,2.1-4.7,4.7v2.8L50.3,9.5z M52.3,25.2v32c0,3.7-2.9,6.7-6.7,6.8c0,0,0,0-0.1,0H18.4
		c-3.7,0-6.7-3-6.7-6.7v-9.4c0-0.6,0.4-1,1-1s1,0.4,1,1v3.5h36.7V25.2c0-0.6,0.4-1,1-1S52.3,24.7,52.3,25.2L52.3,25.2z M50.3,57.2
		v-3.8H13.7v3.9c0,2.6,2.1,4.7,4.7,4.7h27.2C48.2,62,50.3,59.9,50.3,57.2L50.3,57.2L50.3,57.2z M51.3,18.6c-0.6,0-1,0.4-1,1V22
		c0,0.6,0.4,1,1,1s1-0.4,1-1v-2.3C52.3,19.1,51.9,18.7,51.3,18.6L51.3,18.6z M36.2,45.9H3c-1.7,0-3-1.3-3-3v-20c0-1.7,1.3-3,3-3
		h33.2c1.7,0,3,1.3,3,3V43C39.1,44.6,37.8,45.9,36.2,45.9z M2,31h35.1v-2.9H2V31z M2,22.9v3.2h35.1v-3.2c0-0.6-0.4-1-1-1H3
		C2.4,21.9,2,22.3,2,22.9z M3,43.9h33.2c0.6,0,1-0.4,1-1V33H2v10C2,43.5,2.5,43.9,3,43.9L3,43.9z M35.7,36.5v4.9c0,0.6-0.4,1-1,1
		h-7.3c-0.6,0-1-0.4-1-1v-4.9c0-0.6,0.4-1,1-1h7.3C35.2,35.5,35.6,36,35.7,36.5C35.6,36.5,35.6,36.5,35.7,36.5L35.7,36.5z
		 M33.7,37.5h-5.3v2.9h5.3L33.7,37.5z M13.4,19c0.3-0.3,0.4-0.7,0.2-1.1c-0.1-0.2-0.3-0.4-0.5-0.5c-0.4-0.2-0.8-0.1-1.1,0.2
		c-0.1,0.1-0.2,0.2-0.2,0.3c-0.2,0.5,0,1.1,0.5,1.3C12.7,19.4,13.1,19.3,13.4,19z"/>
</g>
</svg>
