<?xml version="1.0" encoding="utf-8"?>
<!-- Generator: Adobe Illustrator 24.0.0, SVG Export Plug-In . SVG Version: 6.00 Build 0)  -->
<svg version="1.1" id="Layer_1" xmlns="http://www.w3.org/2000/svg" xmlns:xlink="http://www.w3.org/1999/xlink" x="0px" y="0px"
	 viewBox="0 0 64 55" style="enable-background:new 0 0 64 55;" xml:space="preserve">
<title>find web address</title>
<path d="M57,8H7c-1.7,0-3,1.3-3,3v34c0,1.7,1.3,3,3,3h50c1.7,0,3-1.3,3-3V11C60,9.3,58.7,8,57,8z M7,10h50c0.6,0,1,0.4,1,1v3H6v-3
	C6,10.4,6.4,10,7,10z M57,46H7c-0.6,0-1-0.4-1-1V16h52v29C58,45.6,57.6,46,57,46z"/>
<path d="M55,13c0.6,0,1-0.4,1-1c0-0.6-0.4-1-1-1l0,0c-0.6,0-1,0.4-1,1C54,12.6,54.4,13,55,13z"/>
<path d="M51,13c0.6,0,1-0.4,1-1c0-0.6-0.4-1-1-1l0,0c-0.6,0-1,0.4-1,1C50,12.6,50.4,13,51,13z"/>
<path d="M47,13c0.6,0,1-0.4,1-1c0-0.6-0.4-1-1-1l0,0c-0.6,0-1,0.4-1,1C46,12.6,46.4,13,47,13z"/>
<path d="M16.1,25.1c-0.5-0.1-1.1,0.3-1.1,0.8l-0.5,3l-0.6-1.2c-0.2-0.3-0.5-0.6-0.9-0.6c-0.4,0-0.7,0.2-0.9,0.6l-0.6,1.3l-0.5-3
	c-0.1-0.6-0.6-0.9-1.2-0.8c-0.6,0.1-0.9,0.6-0.8,1.2l0,0l1,6c0.1,0.4,0.4,0.8,0.8,0.8H11c0.4,0,0.7-0.2,0.9-0.6l1.1-2.2l1.1,2.2
	c0.2,0.4,0.6,0.6,1.1,0.5c0.4-0.1,0.8-0.4,0.8-0.8l1-6C17.1,25.7,16.7,25.2,16.1,25.1C16.2,25.1,16.2,25.1,16.1,25.1z"/>
<path d="M26.1,25.1c-0.5-0.1-1,0.3-1.1,0.8l-0.5,3l-0.6-1.2c-0.2-0.3-0.5-0.6-0.9-0.6c-0.4,0-0.7,0.2-0.9,0.6l-0.6,1.3l-0.5-3
	c-0.1-0.6-0.6-0.9-1.2-0.8c-0.6,0.1-0.9,0.6-0.8,1.2l0,0l1,6c0.1,0.4,0.4,0.8,0.8,0.8H21c0.4,0,0.7-0.2,0.9-0.6l1.1-2.2l1.1,2.2
	c0.2,0.5,0.8,0.7,1.3,0.5c0.3-0.1,0.5-0.4,0.6-0.8l1-6C27.1,25.7,26.8,25.2,26.1,25.1C26.2,25.1,26.2,25.1,26.1,25.1z"/>
<path d="M36.1,25.1c-0.5-0.1-1.1,0.3-1.2,0.8l-0.5,3l-0.6-1.2c-0.2-0.5-0.8-0.7-1.3-0.5c-0.2,0.1-0.4,0.3-0.5,0.5l-0.6,1.3l-0.5-3
	c-0.1-0.6-0.6-0.9-1.2-0.8c-0.6,0.1-0.9,0.6-0.8,1.2l0,0l1,6c0.1,0.4,0.4,0.8,0.8,0.8H31c0.4,0,0.7-0.2,0.9-0.6l1.1-2.2l1.1,2.2
	c0.2,0.5,0.8,0.7,1.3,0.4c0.3-0.1,0.5-0.4,0.5-0.7l1-6C37.1,25.7,36.7,25.2,36.1,25.1C36.2,25.1,36.1,25.1,36.1,25.1z"/>
<path d="M52.1,35.2c3.4-2.9,3.8-7.9,0.9-11.3c-1.1-1.4-2.7-2.3-4.4-2.7c-2.1-0.4-4.2,0-6,1.1c-3.7,2.4-4.7,7.4-2.3,11.1
	c2.2,3.4,6.6,4.6,10.2,2.8l2.8,4.2c0.2,0.3,0.5,0.5,0.8,0.5c0.6,0,1-0.4,1-1c0-0.2-0.1-0.4-0.2-0.5L52.1,35.2z M45.7,35
	c-3.2-0.7-5.3-3.9-4.6-7.1s3.9-5.3,7.1-4.6s5.3,3.9,4.6,7.1S48.9,35.7,45.7,35L45.7,35z"/>
</svg>
