<?xml version="1.0" encoding="utf-8"?>
<!-- Generator: Adobe Illustrator 24.0.0, SVG Export Plug-In . SVG Version: 6.00 Build 0)  -->
<svg version="1.1" id="Layer_1" xmlns="http://www.w3.org/2000/svg" xmlns:xlink="http://www.w3.org/1999/xlink" x="0px" y="0px"
	 viewBox="0 0 100 100" style="enable-background:new 0 0 100 100;" xml:space="preserve">
<path d="M33.2,43.1c-0.6-0.6-1.5-0.6-2.1,0l-8,8c-0.3,0.3-0.4,0.7-0.4,1.1s0.2,0.8,0.4,1.1L45.9,76c0.3,0.3,0.7,0.4,1.1,0.4
	s0.8-0.2,1.1-0.4l8-8c0.3-0.3,0.4-0.7,0.4-1.1s-0.2-0.8-0.4-1.1L33.2,43.1z M46.9,72.9L26.2,52.2l5.9-5.9l20.7,20.7L46.9,72.9z
	 M57.1,19.2c-0.6-0.6-1.5-0.6-2.1,0l-8,8c-0.3,0.3-0.4,0.7-0.4,1.1s0.2,0.8,0.4,1.1l22.8,22.8c0.3,0.3,0.7,0.4,1.1,0.4
	c0.4,0,0.8-0.2,1.1-0.4l8-8c0.6-0.6,0.6-1.5,0-2.1L57.1,19.2z M70.8,49L50.1,28.3l5.9-5.9l20.7,20.7L70.8,49z M49.7,47.8
	c0.4,0,0.8-0.1,1.1-0.4c0.6-0.6,0.6-1.5,0-2.1l-0.8-0.8c-0.6-0.6-1.5-0.6-2.1,0s-0.6,1.5,0,2.1l0.8,0.8
	C48.9,47.6,49.3,47.8,49.7,47.8z M44.7,43.4c0.3,0.3,0.7,0.4,1.1,0.4s0.8-0.1,1.1-0.4c0.6-0.6,0.6-1.5,0-2.1L46,40.5
	c-0.6-0.6-1.5-0.6-2.1,0c-0.6,0.6-0.6,1.5,0,2.1L44.7,43.4z M40.7,39.4c0.3,0.3,0.7,0.4,1.1,0.4s0.8-0.1,1.1-0.4
	c0.6-0.6,0.6-1.5,0-2.1l-0.8-0.8c-0.6-0.6-1.5-0.6-2.1,0s-0.6,1.5,0,2.1L40.7,39.4z M57.8,52.3c-0.6-0.6-1.5-0.6-2.1,0
	c-0.6,0.6-0.6,1.5,0,2.1l0.8,0.8c0.3,0.3,0.7,0.4,1.1,0.4s0.8-0.1,1.1-0.4c0.6-0.6,0.6-1.5,0-2.1L57.8,52.3z M53.6,51.7
	c0.4,0,0.8-0.1,1.1-0.4c0.6-0.6,0.6-1.5,0-2.1l-0.8-0.8c-0.6-0.6-1.5-0.6-2.1,0c-0.6,0.6-0.6,1.5,0,2.1l0.8,0.8
	C52.9,51.6,53.2,51.7,53.6,51.7z M61.8,56.2c-0.6-0.6-1.5-0.6-2.1,0c-0.6,0.6-0.6,1.5,0,2.1l0.8,0.8c0.3,0.3,0.7,0.4,1.1,0.4
	s0.8-0.1,1.1-0.4c0.6-0.6,0.6-1.5,0-2.1L61.8,56.2z M65.7,60.2c-0.6-0.6-1.5-0.6-2.1,0s-0.6,1.5,0,2.1l0.4,0.4
	c0.3,0.3,0.7,0.4,1.1,0.4s0.8-0.1,1.1-0.4c0.6-0.6,0.6-1.5,0-2.1L65.7,60.2z M93.6,29.8h-4.7l0-4.7c0-0.4-0.2-0.8-0.4-1.1
	s-0.7-0.4-1.1-0.4h-4.7v-4.7c0-0.8-0.7-1.5-1.5-1.5h-4.7v-4.7c0-0.8-0.7-1.5-1.5-1.5h-4.7V6.4c0-0.8-0.7-1.5-1.5-1.5h-6.2
	c-0.4,0-0.8,0.2-1.1,0.4l-56,56C5.1,61.6,5,62,5,62.4l0,6.3c0,0.4,0.2,0.8,0.4,1.1C5.7,70,6,70.1,6.5,70.2l4.7,0l0,4.7
	c0,0.4,0.2,0.8,0.4,1.1c0.3,0.3,0.7,0.4,1.1,0.4h0l4.7,0l0,4.7c0,0.4,0.2,0.8,0.4,1.1c0.3,0.3,0.7,0.5,1.1,0.4l4.7,0l0,4.7
	c0,0.4,0.2,0.8,0.4,1.1c0.3,0.3,0.7,0.4,1.1,0.4h0l4.7,0l0,4.7c0,0.4,0.2,0.8,0.4,1.1c0.3,0.3,0.7,0.4,1.1,0.4h0l6.3,0
	c0.4,0,0.8-0.2,1.1-0.4l56-56c0.3-0.3,0.4-0.7,0.4-1.1v-6.2C95.1,30.5,94.4,29.8,93.6,29.8z M92.1,36.9L37,92l-4.1,0l0-4.7
	c0-0.4-0.2-0.8-0.4-1.1c-0.3-0.3-0.7-0.4-1.1-0.4h0l-4.7,0l0-4.7c0-0.4-0.2-0.8-0.4-1.1c-0.3-0.3-0.6-0.4-1.1-0.4l-4.7,0l0-4.7
	c0-0.4-0.2-0.8-0.4-1.1c-0.3-0.3-0.7-0.4-1.1-0.4h0l-4.7,0l0-4.7c0-0.4-0.2-0.8-0.4-1.1c-0.3-0.3-0.7-0.4-1.1-0.4l-4.7,0L8,63
	l28.2-28.2c0.1,0.1,0.1,0.2,0.2,0.3l0.4,0.4c0.3,0.3,0.7,0.4,1.1,0.4s0.8-0.1,1.1-0.4c0.6-0.6,0.6-1.5,0-2.1L38.5,33
	c-0.1-0.1-0.2-0.1-0.3-0.2L63.1,7.9h4.1v4.7c0,0.8,0.7,1.5,1.5,1.5h4.7v4.7c0,0.8,0.7,1.5,1.5,1.5h4.7v4.7c0,0.8,0.7,1.5,1.5,1.5
	h4.7l0,4.7c0,0.4,0.2,0.8,0.4,1.1s0.7,0.4,1.1,0.4h4.7L92.1,36.9L92.1,36.9z"/>
</svg>
