<?xml version="1.0" encoding="utf-8"?>
<!-- Generator: Adobe Illustrator 24.0.0, SVG Export Plug-In . SVG Version: 6.00 Build 0)  -->
<svg version="1.1" id="Layer_1" xmlns="http://www.w3.org/2000/svg" xmlns:xlink="http://www.w3.org/1999/xlink" x="0px" y="0px"
	 viewBox="0 0 512 523" style="enable-background:new 0 0 512 523;" xml:space="preserve">
<g>
	<path d="M485.4,354.3c0-46.9-36.1-85.6-81.9-89.7V2h-241L26.6,137.9V510h376.9v-66C449.4,439.9,485.4,401.3,485.4,354.3z M157.7,30
		v103.1H54.6L157.7,30z M43,493.6V149.5h131.1V18.4h213v246.2c-45.9,4.2-81.9,42.8-81.9,89.7s36.1,85.6,81.9,89.7v49.6H43z
		 M395.3,428.1c-40.7,0-73.7-33.1-73.7-73.7s33.1-73.7,73.7-73.7s73.7,33.1,73.7,73.7S435.9,428.1,395.3,428.1z"/>
	<polygon points="378.9,371.4 360.1,352.6 348.5,364.2 378.9,394.6 442.1,331.4 430.5,319.9 	"/>
	<path d="M346.1,51.2H215v147.5h131.1V51.2z M329.7,182.3h-98.3V67.5h98.3V182.3z"/>
	<rect x="75.7" y="231.4" width="278.6" height="16.4"/>
	<rect x="75.7" y="305.2" width="204.8" height="16.4"/>
	<rect x="75.7" y="378.9" width="204.8" height="16.4"/>
	<rect x="75.7" y="452.6" width="278.6" height="16.4"/>
</g>
</svg>
