<svg xmlns="http://www.w3.org/2000/svg" viewBox="0 0 684.5 299.9"><g fill="#ffffff"><path d="M342 126.4h6.8c0-10.1.2-16 .5-17.8.5-4.2 2.3-7.6 5.3-10 3-2.5 7.3-3.7 12.9-3.7 4 0 8.5.9 13.5 2.7v14.7c-2.8-.8-5-1.2-6.8-1.2-2.3 0-3.9.5-4.9 1.4-.8.7-1.1 2.2-1.1 4.4l-.1 9.6h12.2v16.3H368v60.4h-19.2v-60.4H342v-16.4zM399 94.9c3.4 0 6.3 1.2 8.7 3.7 2.4 2.4 3.6 5.4 3.6 8.9 0 3.4-1.2 6.4-3.6 8.8-2.4 2.4-5.2 3.6-8.6 3.6-3.4 0-6.3-1.2-8.7-3.7-2.4-2.5-3.6-5.5-3.6-9 0-3.4 1.2-6.3 3.6-8.7 2.3-2.5 5.2-3.6 8.6-3.6zm-9.6 31.5h19.2v76.7h-19.2v-76.7zM428.4 98.2h19.2v28.3H459V143h-11.4v60.1h-19.2V143h-9.9v-16.6h9.9V98.2zM525.9 126.4h19.2v76.7h-19.2V195c-3.8 3.6-7.5 6.1-11.3 7.7-3.8 1.6-7.9 2.4-12.3 2.4-9.9 0-18.5-3.8-25.7-11.5-7.2-7.7-10.8-17.2-10.8-28.6 0-11.8 3.5-21.5 10.5-29.1 7-7.6 15.5-11.3 25.5-11.3 4.6 0 8.9.9 12.9 2.6 4 1.7 7.8 4.3 11.2 7.8v-8.6zm-20.2 15.8c-5.9 0-10.9 2.1-14.8 6.3-3.9 4.2-5.9 9.6-5.9 16.2s2 12.1 6 16.3c4 4.3 8.9 6.4 14.8 6.4 6 0 11-2.1 15-6.3 4-4.2 6-9.7 6-16.5 0-6.7-2-12.1-6-16.2s-9-6.2-15.1-6.2zM566.9 98.2h19.2v28.3h11.4V143h-11.4v60.1h-19.2V143H557v-16.6h9.9V98.2zM643.9 124.4c7.2 0 14 1.8 20.4 5.4 6.4 3.6 11.3 8.5 14.9 14.7 3.6 6.2 5.4 12.9 5.4 20.1 0 7.2-1.8 14-5.4 20.3-3.6 6.3-8.5 11.2-14.7 14.8-6.2 3.5-13 5.3-20.5 5.3-11 0-20.4-3.9-28.1-11.7-7.8-7.8-11.7-17.3-11.7-28.5 0-12 4.4-22 13.2-29.9 7.6-7 16.5-10.5 26.5-10.5zm.3 18.2c-6 0-11 2.1-14.9 6.2-4 4.2-6 9.5-6 16 0 6.7 2 12.1 5.9 16.2 3.9 4.1 8.9 6.2 14.9 6.2s11-2.1 15-6.3c4-4.2 6-9.6 6-16.1 0-6.6-2-11.9-5.9-16-3.9-4.2-8.9-6.2-15-6.2z"/></g><path fill="#ffffff" d="M0 149.9C-.2 65.9 69.3-1.5 152.8 0c80.2 1.5 147.5 67.3 147 150.8-.4 83.5-69.5 150.8-153.3 149C66.5 298.1-.2 232.5 0 149.9zM124.5 221h.2v5.5c.1 4.1 1.6 7.3 5.5 9 4.1 1.7 7.5.5 10.4-2.6 5.5-5.7 11.1-11.3 16.6-17 17.7-18 35.3-36 53-54.1 4.2-4.3 4.3-9.2.3-13.4-23.2-24-46.4-47.9-69.7-71.8-2.9-3-6.8-3.7-10.3-2-3.4 1.6-5.4 5.2-5.1 9.2.2 2.7.4 5.3.4 8-.1 5.9 2.1 10.8 6.2 14.9 8.4 8.3 16.7 16.6 25 24.9 5.1 5.1 10.3 10.2 15.4 15.4 3 3 3.1 7.6.7 10.8-2.5 3.3-7.1 4.2-10.6 2.1-1.1-.6-2-1.6-2.9-2.5L141 138.8c-2.8-2.7-6.1-3.4-9.7-1.9-3.6 1.5-5.4 4.4-5.3 8.3 0 2.7.1 5.4 0 8-.2 6.3 2.1 11.4 6.5 15.8 3 3 6.1 6 9.1 9.1 4.4 4.4 4.4 8.8.1 13.2-3.8 3.9-7.9 7.5-11.5 11.7-2.1 2.4-3.7 5.5-4.6 8.5-1.2 3.2-.9 6.4-1.1 9.5z"/><path fill="none" d="M124.5 221c.2-3.1-.1-6.3.8-9.2.9-3.1 2.6-6.1 4.6-8.5 3.5-4.1 7.6-7.8 11.5-11.7 4.3-4.4 4.3-8.8-.1-13.2-3-3-6-6.1-9.1-9.1-4.4-4.4-6.7-9.5-6.5-15.8.1-2.7 0-5.3 0-8 0-4 1.7-6.8 5.3-8.3 3.6-1.5 7-.9 9.7 1.9l18.6 18.6c.9.9 1.9 1.8 2.9 2.5 3.6 2.1 8.1 1.1 10.6-2.1s2.3-7.8-.7-10.8c-5.1-5.2-10.3-10.3-15.4-15.4-8.3-8.3-16.6-16.7-25-24.9-4.2-4.1-6.4-8.9-6.2-14.9.1-2.7-.2-5.3-.4-8-.3-4 1.7-7.6 5.1-9.2 3.5-1.7 7.4-1 10.3 2l69.7 71.8c4 4.1 3.9 9.1-.3 13.4-17.6 18-35.3 36.1-53 54.1-5.5 5.7-11.1 11.3-16.6 17-3 3-6.4 4.3-10.4 2.6-4-1.6-5.4-4.9-5.5-9v-5.5c.2-.3.2-.3.1-.3z"/></svg>