<svg xmlns="http://www.w3.org/2000/svg" viewBox="0 0 773.72 410.5"><g fill="#222"><path d="M408.53 222.39h7.1c.05-10.45.22-16.62.51-18.53.54-4.39 2.38-7.87 5.53-10.43 3.15-2.56 7.6-3.84 13.36-3.84 4.15 0 8.84.95 14.06 2.86v15.23c-2.88-.83-5.25-1.24-7.1-1.24-2.34 0-4.05.49-5.13 1.46-.78.73-1.17 2.25-1.17 4.54l-.07 9.96h12.67v16.91h-12.67v62.75h-19.99v-62.75h-7.1v-16.92zM467.8 189.59c3.5 0 6.51 1.27 9.02 3.81s3.76 5.61 3.76 9.23c0 3.56-1.24 6.6-3.72 9.12-2.48 2.51-5.45 3.77-8.91 3.77-3.55 0-6.58-1.28-9.09-3.84-2.51-2.56-3.76-5.67-3.76-9.34 0-3.51 1.24-6.52 3.72-9.01 2.48-2.5 5.47-3.74 8.98-3.74zm-9.99 32.8h19.99v79.67h-19.99v-79.67zM498.37 193.03h19.99v29.36h11.86v17.21h-11.86v62.46h-19.99V239.6h-10.25v-17.21h10.25v-29.36zM599.71 222.39h19.99v79.67h-19.99v-8.42c-3.9 3.71-7.81 6.38-11.74 8.02-3.93 1.63-8.18 2.45-12.76 2.45-10.29 0-19.19-3.99-26.7-11.97-7.51-7.98-11.26-17.9-11.26-29.76 0-12.3 3.63-22.38 10.9-30.24 7.26-7.86 16.09-11.79 26.47-11.79 4.78 0 9.26.9 13.46 2.71 4.19 1.81 8.07 4.52 11.63 8.13v-8.8zM578.7 238.8c-6.18 0-11.31 2.19-15.4 6.55-4.09 4.37-6.13 9.97-6.13 16.8 0 6.88 2.08 12.55 6.24 16.99 4.16 4.44 9.28 6.66 15.36 6.66 6.28 0 11.48-2.18 15.62-6.55 4.14-4.37 6.2-10.09 6.2-17.17 0-6.93-2.07-12.54-6.2-16.84-4.14-4.3-9.37-6.44-15.69-6.44zM642.33 193.03h19.99v29.36h11.86v17.21h-11.86v62.46h-19.99V239.6h-10.25v-17.21h10.25v-29.36zM722.28 220.34c7.52 0 14.58 1.88 21.2 5.64 6.61 3.76 11.78 8.86 15.49 15.3 3.71 6.44 5.56 13.4 5.56 20.87 0 7.52-1.87 14.55-5.6 21.09-3.73 6.54-8.82 11.65-15.27 15.34-6.44 3.68-13.55 5.53-21.31 5.53-11.42 0-21.17-4.06-29.25-12.19-8.08-8.13-12.12-18-12.12-29.62 0-12.45 4.56-22.82 13.69-31.12 8.01-7.22 17.22-10.84 27.61-10.84zm.33 18.82c-6.21 0-11.38 2.16-15.51 6.48-4.13 4.32-6.2 9.85-6.2 16.58 0 6.93 2.04 12.55 6.12 16.84 4.08 4.3 9.25 6.44 15.51 6.44s11.47-2.17 15.62-6.52c4.15-4.34 6.23-9.93 6.23-16.77 0-6.83-2.04-12.39-6.12-16.66-4.07-4.25-9.29-6.39-15.65-6.39z"/></g><path fill="#ea2232" d="M53.16 246.75c-.16-87.27 72.01-157.33 158.8-155.7 83.38 1.57 153.24 69.96 152.79 156.75-.45 86.73-72.18 156.74-159.34 154.84-83.14-1.81-152.44-69.97-152.25-155.89zm129.39 73.91c.07.01.14.01.21.02 0 1.89-.03 3.78.01 5.67.07 4.23 1.62 7.61 5.72 9.3 4.23 1.75 7.76.48 10.84-2.69 5.73-5.9 11.49-11.76 17.24-17.64 18.35-18.73 36.71-37.46 55.04-56.2 4.32-4.42 4.43-9.59.28-13.88-24.12-24.89-48.27-49.77-72.42-74.63-3.01-3.1-7.05-3.82-10.68-2.08-3.56 1.71-5.59 5.43-5.31 9.58.19 2.77.46 5.54.4 8.31-.16 6.17 2.16 11.18 6.49 15.47 8.69 8.6 17.3 17.28 25.95 25.92 5.34 5.34 10.74 10.64 16.01 16.06a8.603 8.603 0 0 1 .7 11.27c-2.61 3.39-7.35 4.39-11.05 2.2-1.13-.67-2.11-1.62-3.05-2.55-6.47-6.42-12.87-12.9-19.37-19.3-2.89-2.85-6.37-3.52-10.12-1.93-3.76 1.6-5.58 4.55-5.53 8.67.03 2.78.09 5.56-.01 8.34-.24 6.52 2.2 11.89 6.76 16.42 3.15 3.13 6.3 6.28 9.43 9.43 4.52 4.56 4.56 9.1.06 13.68-3.97 4.04-8.26 7.81-11.92 12.11-2.15 2.53-3.84 5.71-4.81 8.88-.94 3-.64 6.36-.87 9.57z"/><path fill="#fff" d="M182.55 320.66c.23-3.2-.07-6.57.85-9.57.97-3.17 2.66-6.36 4.81-8.88 3.66-4.3 7.95-8.07 11.92-12.11 4.5-4.58 4.47-9.12-.06-13.68-3.13-3.16-6.28-6.3-9.43-9.43-4.56-4.53-7-9.9-6.76-16.42.1-2.77.05-5.56.01-8.34-.05-4.11 1.77-7.06 5.53-8.67 3.74-1.59 7.23-.92 10.12 1.93 6.49 6.39 12.9 12.88 19.37 19.3.94.93 1.93 1.88 3.05 2.55 3.7 2.19 8.44 1.19 11.05-2.2 2.57-3.34 2.37-8.12-.7-11.27-5.27-5.41-10.67-10.71-16.01-16.06-8.64-8.65-17.26-17.32-25.95-25.92-4.33-4.29-6.65-9.3-6.49-15.47.07-2.76-.21-5.54-.4-8.31-.28-4.15 1.75-7.88 5.31-9.58 3.63-1.74 7.67-1.01 10.68 2.08 24.15 24.86 48.3 49.74 72.42 74.63 4.15 4.29 4.04 9.46-.28 13.88-18.33 18.75-36.69 37.47-55.04 56.2-5.75 5.87-11.51 11.74-17.24 17.64-3.07 3.17-6.61 4.44-10.84 2.69-4.11-1.7-5.66-5.08-5.72-9.3-.03-1.89-.01-3.78-.01-5.67-.05-.01-.12-.02-.19-.02z"/><g fill="#222"><path d="M371.92 962.61h6.83c.05-10.05.21-15.99.49-17.83.52-4.23 2.29-7.57 5.32-10.04 3.03-2.47 7.32-3.7 12.86-3.7 3.99 0 8.5.92 13.53 2.75v14.66c-2.77-.8-5.05-1.2-6.83-1.2-2.25 0-3.9.47-4.93 1.41-.75.7-1.13 2.16-1.13 4.37l-.07 9.58h12.19v16.28h-12.19v60.39h-19.24v-60.39h-6.83v-16.28zM428.96 931.04c3.37 0 6.26 1.22 8.68 3.66 2.41 2.44 3.62 5.4 3.62 8.88 0 3.43-1.19 6.35-3.58 8.77s-5.25 3.63-8.57 3.63c-3.42 0-6.34-1.23-8.75-3.7s-3.62-5.46-3.62-8.98c0-3.38 1.19-6.27 3.58-8.67 2.38-2.39 5.26-3.59 8.64-3.59zm-9.62 31.57h19.24v76.66h-19.24v-76.66zM458.38 934.35h19.24v28.25h11.41v16.56h-11.41v60.1h-19.24v-60.1h-9.86V962.6h9.86v-28.25zM555.89 962.61h19.24v76.66h-19.24v-8.1c-3.75 3.57-7.52 6.14-11.3 7.71-3.78 1.57-7.87 2.36-12.28 2.36-9.9 0-18.46-3.84-25.69-11.52s-10.84-17.23-10.84-28.64c0-11.84 3.5-21.54 10.49-29.1 6.99-7.56 15.48-11.34 25.48-11.34 4.6 0 8.91.87 12.95 2.61 4.04 1.74 7.77 4.35 11.19 7.82v-8.46zm-20.22 15.78c-5.95 0-10.89 2.1-14.82 6.31-3.93 4.2-5.9 9.6-5.9 16.17 0 6.62 2 12.07 6 16.35 4 4.27 8.93 6.41 14.78 6.41 6.04 0 11.05-2.1 15.03-6.31 3.98-4.2 5.97-9.71 5.97-16.52 0-6.67-1.99-12.07-5.97-16.21-3.97-4.13-9-6.2-15.09-6.2zM596.9 934.35h19.24v28.25h11.41v16.56h-11.41v60.1H596.9v-60.1h-9.86V962.6h9.86v-28.25zM673.85 960.63c7.23 0 14.03 1.81 20.4 5.43 6.36 3.62 11.33 8.53 14.9 14.73 3.57 6.2 5.35 12.89 5.35 20.08 0 7.23-1.8 14-5.39 20.29-3.59 6.29-8.49 11.21-14.69 14.76-6.2 3.55-13.04 5.32-20.5 5.32-10.99 0-20.38-3.91-28.15-11.73s-11.66-17.32-11.66-28.5c0-11.98 4.39-21.96 13.18-29.95 7.69-6.95 16.55-10.43 26.56-10.43zm.31 18.11c-5.98 0-10.95 2.08-14.93 6.24-3.98 4.16-5.96 9.48-5.96 15.96 0 6.67 1.96 12.07 5.89 16.21 3.93 4.13 8.9 6.2 14.93 6.2 6.02 0 11.03-2.09 15.03-6.27s6-9.56 6-16.14-1.97-11.92-5.89-16.03c-3.93-4.11-8.95-6.17-15.07-6.17z"/></g><path fill="#ea2232" d="M29.96 986.04c-.16-83.98 69.29-151.4 152.81-149.83 80.24 1.51 147.46 67.33 147.03 150.84-.43 83.45-69.46 150.83-153.33 149-80.02-1.73-146.7-67.33-146.51-150.01zm124.5 71.12c.07.01.13.01.2.01 0 1.82-.02 3.64 0 5.45.07 4.07 1.56 7.32 5.51 8.95 4.07 1.68 7.47.46 10.43-2.59 5.51-5.68 11.06-11.32 16.59-16.97 17.66-18.03 35.32-36.04 52.97-54.09 4.16-4.25 4.27-9.23.27-13.36a94147.8 94147.8 0 0 0-69.69-71.82c-2.89-2.98-6.79-3.68-10.28-2-3.42 1.64-5.38 5.23-5.11 9.22.18 2.66.45 5.33.38 7.99-.15 5.94 2.08 10.76 6.25 14.89 8.36 8.27 16.65 16.62 24.97 24.94 5.14 5.14 10.33 10.24 15.41 15.45 2.95 3.03 3.14 7.63.67 10.84-2.51 3.26-7.07 4.23-10.63 2.12-1.08-.64-2.03-1.55-2.94-2.45-6.22-6.18-12.39-12.42-18.64-18.57-2.78-2.74-6.13-3.39-9.74-1.85-3.62 1.54-5.37 4.38-5.32 8.34.03 2.67.09 5.35-.01 8.02-.23 6.27 2.12 11.44 6.5 15.8 3.03 3.02 6.06 6.04 9.07 9.08 4.35 4.39 4.39 8.75.05 13.16-3.82 3.89-7.95 7.51-11.47 11.66-2.07 2.43-3.7 5.5-4.63 8.55-.87 2.91-.58 6.15-.81 9.23z"/><path fill="#fff" d="M154.46 1057.16c.23-3.08-.06-6.33.82-9.21.93-3.05 2.56-6.12 4.63-8.55 3.52-4.14 7.65-7.77 11.47-11.66 4.33-4.41 4.3-8.77-.05-13.16-3.01-3.04-6.04-6.06-9.07-9.08-4.38-4.36-6.73-9.53-6.5-15.8.1-2.67.04-5.35.01-8.02-.05-3.96 1.7-6.8 5.32-8.34 3.6-1.53 6.95-.89 9.74 1.85 6.25 6.15 12.41 12.39 18.64 18.57.9.9 1.85 1.81 2.94 2.45 3.56 2.11 8.12 1.14 10.63-2.12 2.47-3.21 2.28-7.81-.67-10.84-5.08-5.21-10.26-10.31-15.41-15.45-8.32-8.32-16.61-16.67-24.97-24.94-4.17-4.13-6.4-8.95-6.25-14.89.07-2.66-.2-5.33-.38-7.99-.27-3.99 1.69-7.58 5.11-9.22 3.49-1.67 7.38-.98 10.28 2 23.24 23.93 46.47 47.86 69.69 71.82 4 4.13 3.89 9.1-.27 13.36-17.64 18.04-35.31 36.06-52.97 54.09-5.54 5.65-11.08 11.3-16.59 16.97-2.96 3.05-6.36 4.27-10.43 2.59-3.95-1.64-5.44-4.89-5.51-8.95-.03-1.82 0-3.64 0-5.45-.07-.02-.14-.02-.21-.03z"/><g><path fill="#f8f6eb" d="M24.62 98.96s-8.16.73-12.06 3.64-8.88 7.65-9.24 10.7c-.14 1.22.11 1.79.47 2.03.32.22.39.66.09.91-1.7 1.44-4.51 4.5-3.76 8.58l.81 4.37c.09.5.73.65 1.03.24.15-.2.31-.42.48-.64.38-.47 1.14-.11 1.01.48-.68 3.11-1.24 8.92 3.06 11.82 5.77 3.89 16.09 8.08 22.26 5.78.4-.15.51-.67.2-.96l-1.5-1.43s5.68 3.73 13.5-1.02c6.19-3.76 6.59-10.27 6.48-12.82a.578.578 0 0 0-.93-.43l-.94.72s2.87-3.14 1.88-10.5c-.69-5.1-2.59-10.68-3.79-13.85-.22-.59-1.1-.44-1.11.19-.01.53-.67.76-1.01.36-2.46-2.93-9.32-9.95-16.93-8.17z"/><path fill="#d9d7ca" d="M36.76 130.73c-7.64 3.22-15.17-.71-18.83-6.41-.28-.43-.94-.3-1.04.21-.1.53-.19 1.07-.08 1.58.1.46-.41.83-.83.61-7.77-4.02-5.94-13.82-3.96-22.4.12-.53-.5-.92-.92-.58-3.59 2.9-7.47 6.89-7.78 9.57-.14 1.22.11 1.79.47 2.03.32.22.39.66.09.91-1.7 1.44-4.51 4.5-3.76 8.58l.81 4.37c.09.5.73.65 1.03.24.15-.2.31-.42.49-.64.38-.47 1.14-.11 1.01.48-.68 3.11-1.24 8.92 3.06 11.82 5.77 3.89 16.09 8.08 22.26 5.78.4-.15.51-.67.2-.96l-1.5-1.43s5.68 3.73 13.5-1.02c6.19-3.76 6.59-10.27 6.48-12.82a.578.578 0 0 0-.93-.43l-.94.72s2.61-2.86 1.99-9.52c-.04-.41-.49-.63-.85-.44-2.21 1.18-4.62 1.98-7.16 2.27-.53.06-.69.74-.25 1.04 3.1 2.1-3.55 3.46-2.28 5.67.16.27.02.64-.28.77z"/><path fill="#d9d7ca" d="M17.09 122.84c-.04-.33-.16-.64-.43-.89.13.29.28.59.43.89z"/><path fill="#ee2528" d="M231.97 73.13c-5.14-10.5-24.44-24.11-43.75-31.97-8.3-13.3-44.6-26.52-60.09-29.33-8.3-1.5-39.56-2.83-65.27 12.26-25.71 15.09-44.47 79.39-41.5 86.02 1.24 2.76-3.63-5.2-1.6-5.33 2.85-.18 5.21-2.12 6.2-4.67 1.57-4.06 6.79-11.02 23.92-8.46 3.86.58 7.42.58 10.61.26 8.09-.83 15.47 4.55 16.86 12.2.38 2.08.85 4.04 1.37 5.83a55.945 55.945 0 0 1 1.93 20.22c-1.42 16.26 6.95 26.91 6.95 26.91 45.03-17.14 164.17-40.55 164.38-54.26.19-13.71-13.09-15.53-20.01-29.68z"/><path fill="#c9202a" d="M239.58 83.38l-.19.13c-41.54 25.46-91.97 39.61-137.96 39.61-13.35 0 1.48-24.05 11.87-33.95-8.9 4.24-16.32 14.15-23.73 8.49-16.32-14.15-5.93-38.2-13.35-58 0 25.46-25.22 45.27-45.99 39.61-2.74-.96 2.2 1.46 0 0-6.19 12.65-10.06 28.19-8.87 30.85 1.24 2.76 3.33 3.46 5.35 3.33 2.85-.18 5.21-2.12 6.2-4.67 1.57-4.06-.17-19.68 16.96-17.12 3.86.58 7.42.58 10.61.26 8.09-.83 15.47 4.55 16.86 12.2.38 2.08.85 4.04 1.37 5.83a55.945 55.945 0 0 1 1.93 20.22c-1.42 16.26 6.95 26.91 6.95 26.91 29.64-9.55 164.17-40.55 164.38-54.26.14-9.51-6.19-13.31-12.39-19.44z"/><path fill="#f8f6eb" d="M66.92 180.4s-10.16-29.81 16.78-48.32c13.28-9.13 155.18-64.67 172.55-50.05 17.37 14.62 27.86 21.98 24.03 26.37s-139.79 22.3-213.36 72z"/><path fill="#d9d7ca" d="M256.26 82.03c-.5-.42-1.12-.77-1.82-1.08 4.07 7.17 6.69 15.18 2.33 22.45-3.98 8.86-14.03 1.72-23.62 3.44-2.23.4-3.28 3.15-1.79 4.85.26.29.54.48.88.48-13.01 9.02-25.5.74-38.27 2.54-6.18.87-11.21 5.59-12.51 11.69-.23 1.08-.26 1.86.2 1.86-15.33 7.31-39.66-3.93-50.39 6.3-11.82 13.15-55.52 20.31-54.75 3.56-15.9 15.29-9.6 42.3-9.6 42.3 73.57-49.7 209.53-67.62 213.36-72.01s-6.65-11.77-24.02-26.38z"/><path fill="#fff" d="M148.4 24.05s-32.73-16.8-43.16 2.82c-10.42 19.63 68.88 15.04 43.16-2.82z" opacity=".2"/></g></svg>