<svg xmlns="http://www.w3.org/2000/svg" viewBox="0 0 300 300" fill="#ffffff"><path fill="none" d="M96.7 215.4c1.6-2.7 3.8-5.1 6.3-6.7-2.6-1.7-4.7-4-6.3-6.7-1.6 2.8-3.8 5.1-6.3 6.7 2.5 1.7 4.7 4 6.3 6.7zM150.6 127.9c7.1 0 13-6.6 13-14.7s-5.8-14.7-13-14.7-13 6.6-13 14.7c.1 8.1 5.9 14.7 13 14.7z"/><path fill="none" d="M171.9 135.4c-.9 1-2.4 1.3-3.6.6-2.7-1.5-5.4-2.3-8.3-2.3h-18.8c-2.8 0-5.6.8-8.3 2.3-1.2.7-2.7.4-3.6-.6l-25.4-28.1-6.1 6.8 34.9 38.6c.5.5.8 1.2.8 2v82.9h14.2v-35.5c0-1.6 1.3-2.9 2.9-2.9 1.6 0 2.9 1.3 2.9 2.9v35.5h14.3v-83c0-.7.3-1.4.8-2l34.9-38.6-6.1-6.8-25.5 28.2zM81.2 154c-2.6-1.7-4.7-4-6.3-6.7-1.6 2.8-3.8 5.1-6.3 6.7 2.6 1.7 4.7 4 6.3 6.7 1.5-2.7 3.7-5 6.3-6.7zM178.9 78.4c1.6-2.7 3.8-5.1 6.3-6.7-2.6-1.7-4.7-4-6.3-6.7-1.6 2.8-3.8 5.1-6.3 6.7 2.5 1.6 4.7 3.9 6.3 6.7zM209.5 180.9c-2.7 5.9-7.2 10.7-12.6 13.5 5.4 2.9 9.9 7.6 12.6 13.5 2.7-5.9 7.2-10.6 12.6-13.5-5.5-2.8-9.9-7.6-12.6-13.5z"/><path d="M162.8 74.6c7.3 0 13.2 6.7 13.2 14.8 0 1.6 1.3 2.9 2.9 2.9 1.6 0 2.9-1.3 2.9-2.9 0-8.2 5.9-14.8 13.1-14.8 1.6 0 2.9-1.3 2.9-2.9s-1.3-2.9-2.9-2.9c-7.2 0-13.1-6.7-13.1-14.9 0-1.6-1.3-2.9-2.9-2.9-1.6 0-2.9 1.3-2.9 2.9 0 8.2-5.9 14.9-13.2 14.9-1.6 0-2.9 1.3-2.9 2.9s1.3 2.9 2.9 2.9zm16.1-9.7c1.6 2.8 3.8 5.1 6.3 6.7-2.6 1.7-4.7 4-6.3 6.7-1.6-2.7-3.8-5.1-6.3-6.7 2.5-1.7 4.7-4 6.3-6.7zM80.6 205.8c-1.6 0-2.9 1.3-2.9 2.9s1.3 2.9 2.9 2.9c7.3 0 13.2 6.7 13.2 14.8 0 1.6 1.3 2.9 2.9 2.9s2.9-1.3 2.9-2.9c0-8.2 5.9-14.8 13.1-14.8 1.6 0 2.9-1.3 2.9-2.9s-1.3-2.9-2.9-2.9c-7.2 0-13.1-6.7-13.1-14.9 0-1.6-1.3-2.9-2.9-2.9s-2.9 1.3-2.9 2.9c0 8.2-5.9 14.9-13.2 14.9zm16.1-3.9c1.6 2.8 3.8 5.1 6.3 6.7-2.6 1.7-4.7 4-6.3 6.7-1.6-2.7-3.8-5.1-6.3-6.7 2.5-1.6 4.7-3.9 6.3-6.7zM233.8 191.5c-11.8 0-21.4-10.8-21.4-24.1 0-1.6-1.3-2.9-2.9-2.9-1.6 0-2.9 1.3-2.9 2.9 0 13.3-9.6 24.1-21.5 24.1-1.6 0-2.9 1.3-2.9 2.9 0 1.6 1.3 2.9 2.9 2.9 11.8 0 21.5 10.8 21.5 24 0 1.6 1.3 2.9 2.9 2.9 1.6 0 2.9-1.3 2.9-2.9 0-13.2 9.6-24 21.4-24 1.6 0 2.9-1.3 2.9-2.9.1-1.6-1.3-2.9-2.9-2.9zM209.5 208c-2.7-5.9-7.2-10.6-12.6-13.5 5.4-2.9 9.9-7.6 12.6-13.5 2.7 5.9 7.2 10.7 12.6 13.5-5.5 2.8-9.9 7.6-12.6 13.5zM74.8 174.7c1.6 0 2.9-1.3 2.9-2.9 0-8.2 5.9-14.8 13.1-14.8 1.6 0 2.9-1.3 2.9-2.9s-1.3-2.9-2.9-2.9c-7.2 0-13.1-6.7-13.1-14.9 0-1.6-1.3-2.9-2.9-2.9s-2.9 1.3-2.9 2.9c0 8.2-5.9 14.9-13.2 14.9-1.6 0-2.9 1.3-2.9 2.9s1.3 2.9 2.9 2.9c7.3 0 13.2 6.7 13.2 14.8 0 1.6 1.3 2.9 2.9 2.9zM68.5 154c2.6-1.7 4.7-4 6.3-6.7 1.6 2.8 3.8 5.1 6.3 6.7-2.6 1.7-4.7 4-6.3 6.7-1.6-2.7-3.7-5-6.3-6.7z"/><path d="M209.5 112.2l-10-11.2c-1.1-1.2-3.2-1.2-4.3 0l-26.1 28.8c-1.8-.8-3.7-1.3-5.6-1.6 3.7-3.7 6-9.1 6-15 0-11.3-8.4-20.5-18.8-20.5s-18.8 9.2-18.8 20.5c0 5.9 2.3 11.2 6 15-1.9.3-3.8.8-5.6 1.6L106.1 101c-.6-.6-1.3-1-2.2-1-.8 0-1.6.4-2.2 1l-10.1 11.2c-1 1.1-1 2.8 0 3.9l35.9 39.7V243.6h46V155.9l35.9-39.7c1.2-1.2 1.2-2.9.1-4zm-71.8 1c0-8.1 5.8-14.7 13-14.7 7.1 0 13 6.6 13 14.7s-5.8 14.7-13 14.7-13-6.6-13-14.7zm30.9 39.5c-.5.5-.8 1.2-.8 2v83h-14.3v-35.5c0-1.6-1.3-2.9-2.9-2.9-1.6 0-2.9 1.3-2.9 2.9v35.5h-14.2v-82.9c0-.7-.3-1.4-.8-2l-34.9-38.6 6.1-6.8 25.4 28.1c.9 1 2.4 1.3 3.6.6 2.7-1.5 5.4-2.3 8.3-2.3H160c2.8 0 5.6.8 8.3 2.3 1.2.7 2.7.4 3.6-.6l25.4-28.1 6.1 6.8-34.8 38.5z"/></svg>