<svg xmlns="http://www.w3.org/2000/svg" viewBox="292 -292 800 800"><circle cx="691.3" cy="106.4" r="389.1" fill="#fff"/><path fill="#1e1e1e" d="M692 508c-220.6 0-400-179.4-400-400s179.4-400 400-400 400 179.4 400 400-179.4 400-400 400zm0-787.5c-213.7 0-387.5 173.8-387.5 387.5S478.3 495.5 692 495.5s387.5-173.8 387.5-387.5S905.7-279.5 692-279.5z"/><g fill="none" stroke="#1e1e1e" stroke-miterlimit="10" stroke-width="8"><path d="M563.9 226.5v-20.2H558.5v-11c0-2.1 3.7-4.2 5.4-5.1v-18H558.5v-11c0-2.1 3.7-4.2 5.4-5.1v-12.7h-14.6V59.7h9.2v-18h-5.2v-9.4c0-2.3 5-4.5 5.2-4.6V13.6h-12.4v-61.8h7v-18.6h-4.4v-7.9c0-1.9 4.2-3.8 4.4-3.9v-8.1h-8.3v-38.8c1.5-2.5 10.8-19.5-7.5-34.1l-1.1-.7c-3.9-2.5-12.1-7.6-12.1-13.4v-23.6h-2.2v23.6c0 6-8.6 11.3-12.3 13.6l-1 .6c-18.2 14.5-8.9 31.6-7.4 34v38.8h-8.3v8.1h.1s4.5 1.9 4.5 3.9v7.9h-4.6v18.6h7v61.8h-12.4v14.1l.1-.1s5.3 2.3 5.3 4.7v9.4H487.5v18h8.2v82.6H481v13.4h.1s6.3 2.7 6.3 5.5v11H481v17.6h.1s6.3 2.7 6.3 5.5v11H481v21.3h1.1c6.8 0 9.8 7.3 10.3 8.5v177.2h60.2l.1-177.7c.3-.8 3.6-9.1 11.2-9.1zm-30.3-329c0-2 4.5-3.9 4.5-3.9s4.5 1.9 4.5 3.9v11.8h-9v-11.8zm-15 0c0-2 4.5-3.9 4.5-3.9s4.5 1.9 4.5 3.9v11.8h-9v-11.8zm0 27.8c0-2 4.5-3.9 4.5-3.9s4.5 1.9 4.5 3.9v7.9h-9v-7.9zm-.9 107.1c0-2.4 5.3-4.7 5.3-4.7s5.3 2.3 5.3 4.7v9.4h-10.6v-9.4zm-9.4 174h-12.6v-11c0-2.7 6.3-5.5 6.3-5.5s6.3 2.7 6.3 5.5v11zm0-34.2h-12.6v-11c0-2.8 6.3-5.5 6.3-5.5s6.3 2.7 6.3 5.5v11zm2.3-130.4H500v-9.4c0-2.4 5.3-4.7 5.3-4.7s5.3 2.3 5.3 4.7v9.4zm1.9-108.5h-9v-7.9c0-2 4.5-3.9 4.5-3.9s4.5 1.9 4.5 3.9v7.9zm0-24h-9v-11.8c0-2 4.5-3.9 4.5-3.9s4.5 1.9 4.5 3.9v11.8zm16.7 297.1h-12.5v-11c0-2.7 6.3-5.5 6.3-5.5s6.3 2.7 6.3 5.5c-.1 2.7-.1 11-.1 11zm0-34.2h-12.5v-11c0-2.8 6.3-5.5 6.3-5.5s6.3 2.7 6.3 5.5c-.1 2.8-.1 11-.1 11zm4.4-246.9c0-2 4.5-3.9 4.5-3.9s4.5 1.9 4.5 3.9v7.9h-9v-7.9zm1.9 107.1c0-2.4 5.3-4.7 5.3-4.7s5.3 2.3 5.3 4.7v9.4h-10.6v-9.4zm14.7 174h-12.6v-11c0-2.7 6.3-5.5 6.3-5.5s6.3 2.7 6.3 5.5v11zm0-34.2h-12.6v-11c0-2.8 6.3-5.5 6.3-5.5s6.3 2.7 6.3 5.5v11zM610.2 82.1V31.7h5.7V16.4h-3.6V9.9c0-1.6 3.5-3.1 3.6-3.2V.1h-6.8v-31.8c1.2-2 8.8-16-6.2-27.9l-.9-.6c-3.2-2-9.9-6.2-9.9-11v-19.3h-1.8v19.3c0 4.9-7.1 9.2-10.1 11.1l-.8.5c-14.9 11.9-7.3 25.8-6 27.8V.1h-6.8v6.7h.1s3.7 1.6 3.7 3.2v6.5H566.6v15.2h5.7v50.5m27.7-95c0-1.6 3.7-3.2 3.7-3.2s3.7 1.6 3.7 3.2v9.6H600v-9.6zm-12.3 0c0-1.6 3.7-3.2 3.7-3.2s3.7 1.6 3.7 3.2v9.6h-7.4v-9.6zm0 22.7c0-1.6 3.7-3.2 3.7-3.2s3.7 1.6 3.7 3.2v6.5h-7.4V9.9zm-4.9 6.5h-7.4V9.9c0-1.6 3.7-3.2 3.7-3.2s3.7 1.6 3.7 3.2v6.5zm0-19.6h-7.4v-9.6c0-1.6 3.7-3.2 3.7-3.2s3.7 1.6 3.7 3.2v9.6zM600 9.9c0-1.6 3.7-3.2 3.7-3.2s3.7 1.6 3.7 3.2v6.5H600V9.9zM831.4 235.7l.1 177.7h60.2V236.1c.4-1.2 3.4-8.5 10.3-8.5h1.1v-21.3H896.7v-11c0-2.8 6.3-5.5 6.3-5.5h.1v-17.6H896.7v-11c0-2.8 6.3-5.5 6.3-5.5h.1v-13.4h-14.6V59.7h8.2v-18H891.3v-9.4c0-2.4 5.3-4.7 5.3-4.7l.1.1V13.6h-12.4v-61.8h7v-18.6h-4.6v-7.9c0-2 4.5-3.9 4.5-3.9h.1v-8.1H883v-38.8c1.5-2.5 10.8-19.5-7.4-34l-1-.6c-3.7-2.3-12.3-7.6-12.3-13.6v-23.6H860v23.6c0 5.8-8.2 11-12.1 13.4l-1.1.7c-18.3 14.6-9 31.6-7.5 34.1v38.8H831v8.1c.2.1 4.4 2 4.4 3.9v7.9H831v18.6h7v61.8h-12.4v14.1c.3.1 5.2 2.3 5.2 4.6v9.4h-5.2v18h9.2v83.7h-14.6v12.7c1.7.9 5.4 2.9 5.4 5.1v11H820.2v18c1.7.9 5.4 2.9 5.4 5.1v11H820.2v20.2c7.5 0 10.8 8.3 11.2 9.2zm19-326.4h-9v-11.8c0-2 4.5-3.9 4.5-3.9s4.5 1.9 4.5 3.9v11.8zm15 0h-9v-11.8c0-2 4.5-3.9 4.5-3.9s4.5 1.9 4.5 3.9v11.8zm0 24h-8.9v-7.9c0-2 4.5-3.9 4.5-3.9s4.5 1.9 4.5 3.9-.1 7.9-.1 7.9zm.9 108.5h-10.6v-9.4c0-2.4 5.3-4.7 5.3-4.7s5.3 2.3 5.3 4.7v9.4zm9.4 153.5c0-2.8 6.3-5.5 6.3-5.5s6.3 2.7 6.3 5.5v11h-12.6v-11zm0-34.1c0-2.8 6.3-5.5 6.3-5.5s6.3 2.7 6.3 5.5v11h-12.6v-11zm-2.3-128.8c0-2.4 5.3-4.7 5.3-4.7s5.3 2.3 5.3 4.7v9.4h-10.6v-9.4zm-1.9-107.1c0-2 4.5-3.9 4.5-3.9s4.5 1.9 4.5 3.9v7.9h-9v-7.9zm0-27.8c0-2 4.5-3.9 4.5-3.9s4.5 1.9 4.5 3.9v11.8h-9v-11.8zm-16.7 297.8c0-2.8 6.3-5.5 6.3-5.5s6.3 2.7 6.3 5.5v11h-12.7c.1.1.1-8.2.1-11zm0-34.1c0-2.8 6.3-5.5 6.3-5.5s6.3 2.7 6.3 5.5v11h-12.7c.1 0 .1-8.2.1-11zm-4.4-227.9h-9v-7.9c0-2 4.5-3.9 4.5-3.9s4.5 1.9 4.5 3.9v7.9zm-1.9 108.5h-10.6v-9.4c0-2.4 5.3-4.7 5.3-4.7s5.3 2.3 5.3 4.7v9.4zm-14.7 153.5c0-2.8 6.3-5.5 6.3-5.5s6.3 2.7 6.3 5.5v11h-12.6v-11zm0-34.1c0-2.8 6.3-5.5 6.3-5.5s6.3 2.7 6.3 5.5v11h-12.6v-11z"/><path d="M832.5 141.2V85.8h-281v55.4h13.4v-10.9c0-2.8 6.3-5.5 6.3-5.5s6.3 2.7 6.3 5.5v11h-11.3v87.3H564c-5.8 0-8.6 6.3-9.2 7.6v177.1h62.9v-75.7c0-36.3 36.4-51 52-57.2 1.4-.6 2.6-1.1 3.6-1.5 11.8-5.1 18-9.2 18.3-9.3l.5-.3.5.3c.3.2 6.6 4.3 18.3 9.3 1 .4 2.2.9 3.6 1.5 15.5 6.2 52 20.9 52 57.2v75.7h62.9v-177c-.5-1.3-3.3-7.6-9.2-7.6H818v-87.3h-11.3v-11c0-2.8 6.3-5.5 6.3-5.5s6.3 2.7 6.3 5.5v10.9h13.2zm-46.1-50.3h12.5v14.7h-12.5V90.9zm-40.3 0h12.5v14.7h-12.5V90.9zm-40.2 0h12.5v14.7h-12.5V90.9zm-20.2 0h12.6v14.7h-12.6V90.9zm0 39.5c0-2.8 6.3-5.5 6.3-5.5s6.3 2.7 6.3 5.5v11h-12.6v-11zm-40.2-39.5H658v14.7h-12.5V90.9zm-40.3 0h12.5v14.7h-12.5V90.9zm-40.3 14.7V90.9h12.5v14.7h-12.5zm27.3 299.3h-16v-19.6c0-3.1 8-6.1 8-6.1s8 3 8 6.1v19.6zm0-51.3h-16V334c0-3.1 8-6.1 8-6.1s8 3 8 6.1v19.6zm0-48.2h-16v-12.3c0-3.1 8-6.1 8-6.1s8 3 8 6.1v12.3zm0-41h-16v-12.3c0-3.1 8-6.1 8-6.1s8 3 8 6.1v12.3zm4-51.7h-21.5v-21.9c0-5.5 10.7-10.9 10.7-10.9s10.7 5.4 10.7 10.9c.1 5.5.1 21.9.1 21.9zm1.4-71.3h-12.5v-11c0-2.8 6.3-5.5 6.3-5.5s6.3 2.7 6.3 5.5c-.1 2.7-.1 11-.1 11zm0-35.8h-12.5V90.9h12.5v14.7zm7.6 24.7c0-2.8 6.3-5.5 6.3-5.5s6.3 2.7 6.3 5.5v11h-12.5c-.1.1-.1-8.2-.1-11zm26.5 82.4h-21.5v-21.9c0-5.5 10.7-10.9 10.7-10.9s10.7 5.4 10.7 10.9c.1 5.5.1 21.9.1 21.9zm6.2-71.3h-12.5v-11c0-2.7 6.3-5.5 6.3-5.5s6.3 2.7 6.3 5.5c-.1 2.7-.1 11-.1 11zm0-35.8h-12.5V90.9h12.5v14.7zm7.6 24.7c0-2.8 6.3-5.5 6.3-5.5s6.3 2.7 6.3 5.5v11h-12.5c-.1.1-.1-8.2-.1-11zm21.7 82.4h-21.5v-21.9c0-5.5 10.7-10.9 10.7-10.9s10.7 5.4 10.7 10.9c.1 5.5.1 21.9.1 21.9zm10.9-71.3h-12.5v-11c0-2.8 6.3-5.5 6.3-5.5s6.3 2.7 6.3 5.5c-.1 2.7-.1 11-.1 11zm0-35.8h-12.5V90.9h12.5v14.7zm24.6 107.1h-21.4v-21.9c0-5.5 10.7-10.9 10.7-10.9s10.7 5.4 10.7 10.9v21.9zm3.2-71.3v-11c0-2.8 6.3-5.5 6.3-5.5s6.3 2.7 6.3 5.5v11h-12.6zm32.3 71.3h-21.5v-21.9c0-5.5 10.7-10.9 10.7-10.9s10.7 5.4 10.7 10.9c.1 5.5.1 21.9.1 21.9zm.3-71.3H726v-11c0-2.8 6.3-5.5 6.3-5.5s6.3 2.7 6.3 5.5c-.1 2.7-.1 11-.1 11zm0-35.8H726V90.9h12.5v14.7zm7.6 35.8v-11c0-2.7 6.3-5.5 6.3-5.5s6.3 2.7 6.3 5.5v11h-12.6zm27.7 71.3h-21.5v-21.9c0-5.5 10.7-10.9 10.7-10.9s10.7 5.4 10.7 10.9c.1 5.5.1 21.9.1 21.9zm5-71.3h-12.5v-11c0-2.8 6.3-5.5 6.3-5.5s6.3 2.7 6.3 5.5c-.1 2.7-.1 11-.1 11zm0-35.8h-12.5V90.9h12.5v14.7zm7.6 24.8c0-2.8 6.3-5.5 6.3-5.5s6.3 2.7 6.3 5.5v11h-12.5c-.1 0-.1-8.3-.1-11zm21.4 274.5h-16v-19.6c0-3.1 8-6.1 8-6.1s8 3 8 6.1v19.6zm0-51.3h-16V334c0-3.1 8-6.1 8-6.1s8 3 8 6.1v19.6zm0-48.2h-16v-12.3c0-3.1 8-6.1 8-6.1s8 3 8 6.1v12.3zm0-41h-16v-12.3c0-3.1 8-6.1 8-6.1s8 3 8 6.1v12.3zm1.5-73.6v21.9h-21.5v-21.9c0-5.5 10.7-10.9 10.7-10.9s10.8 5.4 10.8 10.9zm-2.7-85.2V90.9h12.5v14.7h-12.5zM811.6 82.1V31.7h5.7V16.4H813.5V9.9c0-1.6 3.7-3.2 3.7-3.2h.1V.1h-6.8v-31.8c1.2-2 8.9-16-6-27.8l-.8-.5c-3-1.9-10.1-6.2-10.1-11.1v-19.3h-1.8v19.3c0 4.8-6.7 9-9.9 11l-.9.6c-15 11.9-7.4 25.9-6.1 27.9V.1H768v6.6c.2.1 3.6 1.6 3.6 3.2v6.5H768v15.2h5.7v50.5M784-3.2h-7.4v-9.6c0-1.6 3.7-3.2 3.7-3.2s3.7 1.6 3.7 3.2v9.6zm12.3 0h-7.4v-9.6c0-1.6 3.7-3.2 3.7-3.2s3.7 1.6 3.7 3.2v9.6zm0 19.6h-7.4V9.9c0-1.6 3.7-3.2 3.7-3.2s3.7 1.6 3.7 3.2v6.5zm4.9-6.5c0-1.6 3.7-3.2 3.7-3.2s3.7 1.6 3.7 3.2v6.5h-7.4V9.9zm0-22.7c0-1.6 3.7-3.2 3.7-3.2s3.7 1.6 3.7 3.2v9.6h-7.4v-9.6zM784 16.4h-7.4V9.9c0-1.6 3.7-3.2 3.7-3.2s3.7 1.6 3.7 3.2v6.5z"/></g></svg>