<svg xmlns="http://www.w3.org/2000/svg" id="Layer_1" viewBox="0 0 800 800"><style>.st1{fill:#1E1E1E}</style><g id="XMLID_2_"><circle id="XMLID_1_" cx="399.3" cy="398.4" r="389.1" fill="#fff"/><g id="XMLID_6_"><g id="Page-1_3_"><g id="Jobs_3_" transform="translate(-489 -1938)"><g id="Group-14_3_" transform="translate(0 1695)"><g id="Group-10-Copy-3_1_" transform="translate(491 245)"><g id="Singapore_1_"><g id="Mask_1_"><path id="XMLID_70_" d="M398 798C177.4 798-2 618.6-2 398S177.4-2 398-2s400 179.4 400 400-179.4 400-400 400zm0-787.5C184.3 10.5 10.5 184.3 10.5 398S184.3 785.5 398 785.5 785.5 611.7 785.5 398 611.7 10.5 398 10.5z" class="st1"/></g></g></g></g></g></g><path id="XMLID_7_" d="M473.5 395c-5.1 0-9.2 4.1-9.2 9.2v48c0 5.1 4.1 9.2 9.2 9.2s9.2-4.1 9.2-9.2v-48c-.1-5.1-4.2-9.2-9.2-9.2zm-149.8 0c-5.1 0-9.2 4.1-9.2 9.2v48c0 5.1 4.1 9.2 9.2 9.2s9.2-4.1 9.2-9.2v-48c0-5.1-4.1-9.2-9.2-9.2zm262.8.3c5.1 0 9.2-4.1 9.2-9.2v-48c0-5.1-4.1-9.2-9.2-9.2s-9.2 4.1-9.2 9.2v48c0 5.1 4.1 9.2 9.2 9.2zm-56.9 0c5.1 0 9.2-4.1 9.2-9.2v-48c0-5.1-4.1-9.2-9.2-9.2s-9.2 4.1-9.2 9.2v48c0 5.1 4.1 9.2 9.2 9.2zm114.4 0c5.1 0 9.2-4.1 9.2-9.2v-48c0-5.1-4.1-9.2-9.2-9.2s-9.2 4.1-9.2 9.2v48c0 5.1 4.1 9.2 9.2 9.2zm-427.3 0c5.1 0 9.2-4.1 9.2-9.2v-48c0-5.1-4.1-9.2-9.2-9.2s-9.2 4.1-9.2 9.2v48c.1 5.1 4.2 9.2 9.2 9.2zm-56.9 0c5.1 0 9.2-4.1 9.2-9.2v-48c0-5.1-4.1-9.2-9.2-9.2s-9.2 4.1-9.2 9.2v48c.1 5.1 4.2 9.2 9.2 9.2zm114.5 0c5.1 0 9.2-4.1 9.2-9.2v-48c0-5.1-4.1-9.2-9.2-9.2s-9.2 4.1-9.2 9.2v48c0 5.1 4.1 9.2 9.2 9.2zm437.9 134h-44.5V295.6c0-2.2-1.4-4.1-3.5-4.7l-41.7-13c-.9-.8-2.1-1.3-3.3-1.3h-65.4c-.5 0-.9.1-1.3.2-.9-.2-1.8-.3-2.8 0l-45.2 14.1c-2.1.6-3.5 2.5-3.5 4.7v20.3h-.3v-60.8h6.1c1.3 0 2.6-.5 3.5-1.4.9-.9 1.4-2.2 1.4-3.5v-17c0-1.3-.5-2.6-1.4-3.5-.9-.9-2.2-1.4-3.5-1.4h-24.2l-10.1-15.5c-.9-1.4-2.5-2.2-4.1-2.2H331.8c-1.7 0-3.2.8-4.1 2.2l-10.1 15.5h-24.2c-1.3 0-2.6.5-3.5 1.4-.9.9-1.4 2.2-1.4 3.5v17c0 1.3.5 2.6 1.4 3.5.9.9 2.2 1.4 3.5 1.4h6.1v60.8h-.5v-9.2c0-.5-.1-1-.2-1.5.1-.5.2-1 .2-1.5v-11.1c0-2.2-1.4-4.1-3.5-4.7l-41.7-13c-.9-.8-2.1-1.3-3.3-1.3H185c-.4 0-.9.1-1.3.2-.9-.2-1.8-.3-2.8 0L135.8 288c-2.1.6-3.5 2.5-3.5 4.7v11.1c0 .5.1 1 .2 1.5-.1.5-.2 1-.2 1.5v222.6H87.8c-2.7 0-4.9 2.2-4.9 4.9s2.2 4.9 4.9 4.9h94.6c.5 0 .9-.1 1.3-.2.4.1.8.2 1.3.2h109c1.3 0 2.6-.5 3.5-1.4.9-.9 1.4-2.2 1.4-3.5v-.8h202v.8c0 1.3.5 2.6 1.4 3.5.9.9 2.2 1.4 3.5 1.4H551c.5 0 .9-.1 1.3-.2.4.1.9.2 1.3.2H712c2.7 0 4.9-2.2 4.9-4.9.2-2.8-2-5-4.7-5zm-534.7 0h-35.3V311.7h35.3v217.6zm0-230.4h-35.3v-2.6l35.3-11v13.6zm66.4 230.4H190V311.7h53.9v217.6zm0-230.4H190v-15.4h53.9v15.4zm45.2 230.4h-33.7V311.7h33.7v217.6zm0-230.4h-33.7v-13.1l33.7 10.5v2.6zm45.4-78.5h131.3l4.6 7.1H329.9l4.6-7.1zm-36.1 24.8v-7.1h203.5v7.1H298.4zm190.5 53.9c-.9-.9-2.2-1.4-3.5-1.4h-8.2c.7-.9 1-1.9 1-3v-21.6c0-7.3-4.7-12.1-8.6-14.3-1.1-.6-2.1-1.1-3.1-1.5h24.3v58.6h-.7c.2-.5.3-1 .3-1.5v-11.8c0-1.3-.6-2.6-1.5-3.5zm-19 49h2.3c-.6.8-.9 1.8-.9 2.8v17c0 1.3.5 2.6 1.4 3.5 0 0 .1 0 .1.1h-5.1s.1 0 .1-.1c.9-.9 1.4-2.2 1.4-3.5v-16.3c.1-.1.2-.2.2-.4.2-.4.3-.7.4-1.1.2-.6.2-1.3.1-2zm-145.4-38.7h-4.7v-1.9h160.7v1.9h-156zm132.6 62s.1 0 0 0l-5 .1s.1 0 .1-.1c.9-.9 1.4-2.2 1.4-3.5V354h2v13.9c.1 1.3.6 2.6 1.5 3.5zm-116-33.2v-.7c0-.3-.1-.6-.1-.9-.1-.7-.1-1.3-.2-2-.1-.4-.1-.7-.2-1.1l-.3-1.8c-.1-.4-.2-.7-.3-1.1-.1-.6-.3-1.1-.5-1.7-.1-.4-.2-.7-.4-1.1-.2-.5-.4-1.1-.6-1.6-.1-.4-.3-.7-.4-1.1-.2-.5-.5-1.1-.7-1.6-.2-.3-.3-.7-.5-1-.3-.5-.5-1-.8-1.5 0-.1-.1-.1-.1-.2-.1-.5-.3-1-.5-1.5h129.8c-.2.3-.3.5-.5.8-.2.3-.3.6-.5.8-.3.5-.6 1.1-.9 1.6-.2.3-.3.6-.5.9-.3.5-.5 1.1-.7 1.7-.1.3-.3.7-.4 1-.2.6-.4 1.1-.6 1.7-.1.4-.2.7-.4 1.1-.2.6-.3 1.1-.5 1.7-.1.4-.2.7-.3 1.1l-.3 1.8c-.1.4-.1.7-.2 1.1-.1.7-.2 1.3-.2 2 0 .3-.1.6-.1.9v.7H341.1zm100.4 33.2c.1 0 .1 0 0 0l-5 .1s.1 0 .1-.1c.9-.9 1.4-2.2 1.4-3.5V354h2v13.9c.1 1.3.6 2.6 1.5 3.5zm-15.5 0l-5 .1s.1 0 .1-.1c.9-.9 1.4-2.2 1.4-3.5V354h2v13.9c0 1.3.5 2.6 1.5 3.5zm-15.6 0l-5 .1s.1 0 .1-.1c.9-.9 1.4-2.2 1.4-3.5V354h2v13.9c0 1.3.6 2.6 1.5 3.5zm-15.6 0s.1 0 0 0l-5 .1s.1 0 .1-.1c.9-.9 1.4-2.2 1.4-3.5V354h2v13.9c.1 1.3.6 2.6 1.5 3.5zm-15.6 0s.1 0 0 0l-5 .1s.1 0 .1-.1c.9-.9 1.4-2.2 1.4-3.5V354h2v13.9c.1 1.3.6 2.6 1.5 3.5zm-15.6 0c.1 0 .1 0 0 0l-5 .1s.1 0 .1-.1c.9-.9 1.4-2.2 1.4-3.5V354h2v13.9c.1 1.3.6 2.6 1.5 3.5zm-15.5 0l-5 .1s.1 0 .1-.1c.9-.9 1.5-2.2 1.5-3.5V354h2v13.9c-.1 1.3.4 2.6 1.4 3.5zm-31.2 0s.1 0 0 0l-5.2.1v-23.4h4.7c-.6.8-.9 1.8-.9 2.8v17c0 1.3.5 2.6 1.4 3.5zm-10.2-33.2c-1.3 0-2.6.5-3.5 1.4-.6.7-1.1 1.5-1.3 2.4v-16c.8.5 1.7.7 2.6.7h23.4c.4.7.7 1.4 1 2.1.1.3.2.6.4.9.3.8.6 1.6.8 2.5.1.4.2.7.3 1.1.2.9.4 1.7.5 2.6.1.3.1.7.2 1 .1.4.1.9.1 1.4h-24.5zm16.3-40.6h-8.2c-1.3 0-2.6.5-3.5 1.4-.9.9-1.4 2.2-1.4 3.5v11.8c0 .5.1 1 .3 1.5h-.7v-58.6h24.3c-1 .4-2 .9-3.1 1.5-3.9 2.2-8.7 7-8.6 14.3v21.6c-.1 1.1.3 2.2.9 3zm4.6 73.8c.9-.9 1.5-2.2 1.5-3.5v-17c0-1-.3-2-.9-2.8h2.3c-.1.3-.1.6-.1.9 0 .9.3 1.8.8 2.6v16.3c0 1.3.5 2.6 1.4 3.5h.1-5.1c-.1 0-.1 0 0 0zm7.5-85.1v-13c0-1.6.6-2.1 2.1-3.1.7-.4 1.5-.7 2.1-.9.7.2 1.8.7 2.6 1.2 1.1.9 1.5 1.4 1.6 2.8v13h-8.4zm9.8-29h19.3c-1 .4-2 .9-3.1 1.5-2.3 1.3-4.8 3.4-6.5 6.5-1.7-3-4.3-5.2-6.5-6.5-1.2-.6-2.3-1.1-3.2-1.5zm20.6 28.9v-13c.1-1.6.6-2.1 2.1-3.1.7-.4 1.5-.7 2.1-.9.7.2 1.8.7 2.6 1.2 1.1.9 1.5 1.4 1.6 2.8v13h-8.4zm9.8-28.9h19.3c-1 .4-2 .9-3.1 1.5-2.3 1.3-4.8 3.4-6.6 6.5-1.7-3-4.3-5.2-6.5-6.5-1.1-.6-2.2-1.1-3.1-1.5zm20.7 29v-13c.1-1.6.6-2.1 2.1-3.1.7-.4 1.5-.7 2.1-.9.7.2 1.8.7 2.5 1.2 1.1.9 1.6 1.4 1.6 2.8v13H396zm9.7-29H425c-1 .4-2 .9-3.1 1.5-2.3 1.3-4.8 3.4-6.5 6.5-1.7-3-4.3-5.2-6.6-6.5-1.1-.6-2.1-1.1-3.1-1.5zm20.7 29v-13c.1-1.6.6-2.1 2.1-3.1.7-.4 1.5-.7 2.1-.9.7.2 1.8.7 2.6 1.2 1.1.9 1.5 1.4 1.6 2.8v13h-8.4zm9.7-29h19.3c-1 .4-2 .9-3.1 1.5-2.3 1.3-4.8 3.4-6.5 6.5-1.7-3-4.3-5.2-6.5-6.5-1.2-.6-2.2-1.1-3.2-1.5zm20.7 29v-13c0-1.6.6-2.1 2.1-3.1.7-.4 1.5-.7 2.1-.9.7.2 1.8.7 2.6 1.2 1.1.9 1.6 1.4 1.6 2.8v13h-8.4zm-61.6 237h-37.3v-4h37.3v4zm0-13.9h-37.3v-17h37.3v17zm0-26.8h-37.3v-14.1h37.3v14.1zm0-24h-37.3v-12.7h37.3v12.7zm0-22.6H358c.8-16 10.2-25.2 21.1-31.9 5.6-3.3 11.3-5.5 15.6-6.8.2-.1.3-.1.5-.1V436zm47.2 87.3h-37.3v-4h37.3v4zm0-13.9h-37.3v-17h37.3v17zm0-26.8h-37.3v-14.1h37.3v14.1zm0-24h-37.3v-12.7h37.3v12.7zM405.1 436v-38.8c.2 0 .3.1.5.1 6.5 2 16.2 6 23.7 12.5 7.2 6.4 12.4 14.2 13 26.1h-37.2zm93.2 87.5h-46v-85.6c0-16.1-7.4-27.7-16.5-35.5l-3.2 3.7 3.2-3.7c-9.2-7.9-20-12.2-27.3-14.5-3.5-1.1-6.1-1.7-7.3-1.9-.6-.1-1.3-.1-1.9 0-1.2.2-3.8.8-7.4 1.9-4.8 1.5-11.3 3.9-17.7 7.7-12.9 7.5-26.1 20.7-26.1 42.3v85.6H302v-146c.2.9.7 1.7 1.3 2.4.9.9 2.2 1.4 3.5 1.4h186.8c1.3 0 2.6-.5 3.5-1.4.6-.7 1.1-1.4 1.3-2.3v145.9zm-14.4-175.4h4.7v23.4h-5.3s.1 0 .1-.1c.9-.9 1.4-2.2 1.4-3.5v-17c0-1-.3-2-.9-2.8zm14.4-6.1c-.2-.9-.7-1.7-1.3-2.3-.9-.9-2.2-1.4-3.5-1.4h-24.4c0-.4 0-.9.1-1.3 0-.4.1-.7.2-1.1.1-.8.3-1.7.5-2.5l.3-1.2c.2-.8.5-1.6.8-2.3.1-.3.3-.7.4-1 .3-.7.6-1.4 1-2.1h23.4c.9 0 1.8-.3 2.6-.7V342zm47.9 187.3h-35.3V311.7h35.3v217.6zm0-227.5h-35.3v-2.6l35.3-11v13.6zm66.4 227.5h-53.9V311.7h53.9v217.6zm1.7-227.5h-55.6v-15.3h55.6v15.3zm9.8-13.1l33.7 10.5v2.6h-33.7v-13.1zm33.7 240.6h-33.7V311.7h33.7v217.6z" class="st1"/></g></g></svg>