<svg xmlns="http://www.w3.org/2000/svg" xmlns:xlink="http://www.w3.org/1999/xlink" viewBox="0 0 494.4 643.3"><defs><path id="a" d="M137.7 450.6h214.1v207.1H137.7z"/></defs><clipPath id="b"><use overflow="visible" xlink:href="#a"/></clipPath><path fill="none" stroke="#efefef" stroke-linecap="round" stroke-miterlimit="10" stroke-width="10" d="M316.7 503c0 38.5-69.8 130.2-69.8 130.2s-69.8-91.7-69.8-130.2 31.2-69.8 69.8-69.8 69.8 31.3 69.8 69.8z" clip-path="url(#b)"/><g fill="none" stroke="#efefef" stroke-linecap="round" stroke-miterlimit="10" stroke-width="10"><path d="M252.1 452.4l-114.4-1.8s-49.8-111.8-49.8-184C87.9 125 245.2 10.1 245.2 10.1"/><path d="M241.7 452.4l114.4-1.8s49.8-111.8 49.8-184c0-141.6-157.3-256.5-157.3-256.5"/><circle cx="245.8" cy="228.5" r="69.8"/><path d="M109.5 344.1H382M106.2 344.1h282.2M110.5 369.4H384"/></g><path fill="none" stroke="#efefef" stroke-linecap="round" stroke-miterlimit="10" stroke-width="10" d="M87.9 266.6L13.5 391.5h101.3M409 266.6l74.4 124.9H382.1"/></svg>