<svg xmlns="http://www.w3.org/2000/svg" xmlns:xlink="http://www.w3.org/1999/xlink" data-name="Layer 2" viewBox="0 0 1920 1080"><defs><clipPath id="d"><path fill="none" d="M0 0h1920v1080H0z"/></clipPath><linearGradient id="a" x1="939.247" x2="986.973" y1="535.407" y2="1143.913" gradientUnits="userSpaceOnUse"><stop offset="0" stop-color="#3b4970"/><stop offset="1" stop-color="#2a284b"/></linearGradient><linearGradient id="b" x1="1254.89" x2="1263.855" y1="277.153" y2="263.977" gradientTransform="rotate(5.709 -3107.704 2049.351)" gradientUnits="userSpaceOnUse"><stop offset="0" stop-color="#ef605d"/><stop offset="1" stop-color="#aa3a3d"/></linearGradient><linearGradient id="e" x1="1338.9" x2="1517.849" y1="647.076" y2="647.076" xlink:href="#a"/><linearGradient id="f" x1="1486.269" x2="1407.027" y1="565.994" y2="606.57" gradientTransform="rotate(15.63 1214.922 602.957)" xlink:href="#a"/><linearGradient id="c" x1="1603.218" x2="1512.097" y1="531.211" y2="577.87" gradientUnits="userSpaceOnUse"><stop offset="0" stop-color="#fbb03b"/><stop offset="1" stop-color="#ef795d"/></linearGradient><linearGradient id="g" x1="1162.386" x2="1170.345" y1="172.139" y2="156.495" gradientTransform="rotate(35.262 390.453 710.618)" xlink:href="#b"/><linearGradient id="h" x1="1415.776" x2="1543.659" y1="542.702" y2="542.702" xlink:href="#a"/><linearGradient id="i" x1="1554.973" x2="1565.913" y1="548.429" y2="536.689" gradientUnits="userSpaceOnUse"><stop offset="0" stop-color="#b5bcc9"/><stop offset="1" stop-color="#9097a0"/></linearGradient><linearGradient id="j" x1="1523.969" x2="1500.392" y1="561.646" y2="597.874" xlink:href="#c"/><linearGradient id="k" x1="1505.097" x2="1531.211" y1="526.777" y2="526.777" xlink:href="#a"/><linearGradient id="l" x1="1383.18" x2="1378.115" y1="631.754" y2="612.762" gradientTransform="rotate(-6.993 927.04 481.34)" gradientUnits="userSpaceOnUse"><stop offset="0" stop-color="#047a69"/><stop offset="1" stop-color="#00d48e"/></linearGradient><linearGradient id="m" x1="1409.283" x2="1416.458" y1="670.479" y2="689.049" gradientTransform="rotate(-6.993 927.04 481.34)" gradientUnits="userSpaceOnUse"><stop offset="0" stop-color="#04a369"/><stop offset="1" stop-color="#00d48e"/></linearGradient><linearGradient id="n" x1="1332.1" x2="1387.229" y1="691.966" y2="653.744" gradientTransform="rotate(-6.993 927.04 481.34)" gradientUnits="userSpaceOnUse"><stop offset=".082" stop-color="#ef605d"/><stop offset="1" stop-color="#783a4f"/></linearGradient><clipPath id="o"><path fill="none" d="M1494.172 489.225l58.573-12.746-28.489 57.81-52.635 2.611 22.551-47.675z"/></clipPath><linearGradient id="p" x1="1428.767" x2="1442.124" y1="605.956" y2="594.612" gradientUnits="userSpaceOnUse"><stop offset="0" stop-color="#e0e8fc"/><stop offset=".334" stop-color="#ced9f0"/><stop offset="1" stop-color="#a9bcd8"/></linearGradient><linearGradient id="q" x1="1518.821" x2="1441.423" y1="564.114" y2="601.441" xlink:href="#c"/><linearGradient id="r" x1="1509.52" x2="1526.249" y1="586.702" y2="560.733" gradientUnits="userSpaceOnUse"><stop offset="0" stop-color="#048f69"/><stop offset="1" stop-color="#00d48e"/></linearGradient></defs><g clip-path="url(#d)"><path fill="url(#a)" d="M1955.919 1119l-22.404-817.421-35.472 22.454-54.141 127.378-36.967-1.56-283.473 422.71-82.879-42.485-40.723 66.064-112.21-28.345-50.078 64.633L1117.124 915l-54.48 72.356-106.639-38.878-65.959 46.152-48.696-46.55-48.54 10.292-44.807-35.553-31.566 50.522-28.177 16.841-9.26-65.655L644.487 891 612.8 953l-47.9 52.1 1.257 40.612L505 1013l-42 46h-47.481l-112.047-60-52.846 44-83.221-28.933-72.779 38.962-99.525-67.461L-29 1101l74 114 528-16 10.286-80H838.8l-4.895-35.729L1955.919 1119z"/><path fill="#b5bcc9" d="M1642.094 516.783l16.642-7.685a3.5 3.5 0 0 1 4.62 1.655l.019.039a5.52 5.52 0 0 1-2.272 7.217 5.52 5.52 0 0 1-6.931-1.274l-.807-.965-8.984 4.149z"/><path fill="url(#b)" d="M1419.047 704.317l-10.091 3.411a7.017 7.017 0 0 0-4.741 7.268l1.12 12.621a4.447 4.447 0 0 0 5.569 3.905 4.447 4.447 0 0 0 3.236-5.089l-1.305-7.227a5.916 5.916 0 0 1 3.3-6.4l4.58-2.161z"/><path fill="url(#e)" d="M1488.207 587.426S1408.064 678 1338.9 705.445l3.294 6.038s139.975-43.365 175.655-93.866l-17.382-34.948z"/><path fill="url(#f)" d="M1478.667 582.97l-16.282 9.67a26.37 26.37 0 0 0-1.393 44.457l13.739 9.371a13.467 13.467 0 0 1-.444 22.541l-58.22 36.436 2.83 7.709 88.719-35.848a30.718 30.718 0 0 0 11.45-48.89z"/><path fill="url(#c)" d="M1537.983 542.892s42.68-2.445 106.963-28.043l2.271 6.492s-94.317 69.616-123.038 61.559l5.7-31.328z"/><path fill="#fbb03b" d="M1551.882 566.018l-2.21 15.474a8.172 8.172 0 0 1-8.718 6.993l-6.637-.51 2.378-6.953 9.881-11.345z"/><path fill="url(#g)" d="M1342.364 704.317l-8.81 1.6a5.9 5.9 0 0 0-4.835 5.461l-.619 10.632a3.738 3.738 0 0 0 4.151 3.931 3.739 3.739 0 0 0 3.316-3.834l-.2-6.17a4.974 4.974 0 0 1 3.529-4.918l4.074-1.234z"/><path fill="url(#h)" d="M1560.724 493.884l-6.693 1.366a26.283 26.283 0 0 1-20.357-4.243l-1.586-1.113a22.731 22.731 0 0 0-21.225-2.614 28.746 28.746 0 0 0-14.764 12.753 17.2 17.2 0 0 1-15.284 8.639q-8.772-.137-17.542-.376c-7.587-.209-15.346-.453-22.583 1.837s-13.981 7.661-15.727 15.047a11.388 11.388 0 0 0-.039 5.637c1.022 3.685 4.371 6.373 5.4 10.055 1.457 5.2-2.2 10.55-6.618 13.656s-9.693 4.859-13.971 8.152-7.487 9.075-5.37 14.041a14.555 14.555 0 0 0 4.3 5.153 39.951 39.951 0 0 0 11.5 6.994c1.852 1.229 3.886 2.265 5.26 3.012 8.527 4.634 18.221 6.931 27.858 7.591 7.708.527 15.822-.024 22.479-3.945 11.687-6.885 16.183-22.392 27.95-29.14 5.719-3.279 12.47-4.069 18.945-5.307a125.784 125.784 0 0 0 22.7-6.6c3.615-1.433 7.251-3.093 10-5.842 2.634-2.631-.418-6.858 3.616-10.1.038-.04.083-.071.12-.113a3.455 3.455 0 0 0 .509-3.848l-3.333-6.629a29.5 29.5 0 0 0 16.034-19.37l.508-1.979a10.349 10.349 0 0 0-12.087-12.714z"/><path fill="url(#i)" d="M1560.781 535.795l-11.771 13.561a3.84 3.84 0 0 0 .43 5.457 3.841 3.841 0 0 0 5.218-.259l12.756-13.074a3.839 3.839 0 0 0-1.047-6.124l-.985-.486a3.841 3.841 0 0 0-4.601.925z"/><ellipse cx="1561.259" cy="531.366" fill="#b5bcc9" rx="8.508" ry="13.174" transform="rotate(-16.069 1561.29 531.372)"/><path fill="url(#j)" d="M1477.731 583.526a460.051 460.051 0 0 1 36.854 39.859l42.248-62.582a7.5 7.5 0 0 0-.145-8.68l-6.821-9.277a7.5 7.5 0 0 0-9.434-2.245c-15.862 8.058-60.457 33.947-62.702 42.925z"/><path fill="url(#k)" d="M1544.832 532.657s9 8.281 10.731 8a4.4 4.4 0 0 0 1.016-.185 7.192 7.192 0 0 0 2.4-1.934c.038-.04.083-.071.12-.113a3.455 3.455 0 0 0 .509-3.848l-3.333-6.629A29.5 29.5 0 0 0 1570 514.673s-31.949-10.147-25.168 17.984z"/><path fill="url(#l)" d="M1382.9 584.739l-9.415-20.027 37.932-7.25s-5.93 14.163-6.674 14.994-16.065 9.59-16.065 9.59z"/><path fill="url(#m)" d="M1410.486 618.772l12.916 19.042 19.739-42.992-24.229 19.134-8.426 4.816z"/><path fill="url(#n)" d="M1387.421 586.372l-52.549 43.02a2.166 2.166 0 0 0-.072 3.291l.277.248a2.168 2.168 0 0 0 2.52.266l6.415-4.1a2.838 2.838 0 0 1 4.007 1.008 2.167 2.167 0 0 1-.664 2.648l-44.173 38.7a5.055 5.055 0 0 0-.165 7.676 5.055 5.055 0 0 0 6.4.275l31.189-25.864a2.167 2.167 0 0 1 3.329.767 2.165 2.165 0 0 1-.391 2.405l-12.337 10.613a2.943 2.943 0 0 0-.218 3.789 2.942 2.942 0 0 0 4.316.426l27.5-22.476a2.167 2.167 0 0 1 3.238.4l.27.4a2.166 2.166 0 0 1-.138 2.614l-12.126 10.853a2.917 2.917 0 0 0 .284 4.055 2.918 2.918 0 0 0 4-.1l58-54.417a2.167 2.167 0 0 0-.08-3.154l-26.019-23.273a2.165 2.165 0 0 0-2.813-.07z"/><path fill="none" stroke="#fbb03b" stroke-linecap="round" stroke-miterlimit="10" stroke-width="6" d="M1327.63 677.999l-6.124 4.852M1296.154 680.542l-6.123 4.852M1329.2 637.034l-3.718 2.963"/><path fill="none" stroke="#fbb03b" stroke-linecap="round" stroke-miterlimit="10" stroke-width="12" d="M1357.636 626.778l70.73-60.337M1391.353 613.076l-86.858 74.433" opacity=".31"/><path fill="#00bf7e" d="M1494.172 489.225l58.573-12.746-28.489 57.81-52.635 2.611 22.551-47.675z"/><g clip-path="url(#o)"><path fill="#fff" d="M1553.774 479.112l-69.906 19.427-.738 5.976 69.938-23.661.706-1.742z" opacity=".38"/></g><path fill="#00d48e" d="M1391.544 571.288l102.628-82.063s-2.682 12.072 8.593 26 21.451 19.1 21.451 19.1L1428.353 615a28.575 28.575 0 0 1-41.151-5.235 28.576 28.576 0 0 1 4.342-38.477z"/><path fill="#00bf7e" d="M1470.412 508.445s-3.515 37.211 31.358 44.2l5.821-4.541s-31.316-5.726-31.726-43.731z"/><path fill="#fff" d="M1506.125 519.21l-113.674 96.128 5.961 3.557 115.524-91.966-7.811-7.719z" opacity=".31"/><path fill="url(#p)" d="M1447.977 593.933l-13.065 12.858a3.5 3.5 0 0 1-4.908 0l-.031-.03a5.519 5.519 0 0 1-.3-7.56 5.519 5.519 0 0 1 6.953-1.144l1.086.635 7.053-6.941z"/><path fill="url(#q)" d="M1550.361 570.77s-43.511-5.892-108.04 28.209l-2.715-3.754s39.84-48.186 102.98-55.437"/><path fill="url(#r)" d="M1535.741 543.623c3.219 1.333 4.849 4.908 6.29 8.116a16.9 16.9 0 0 1 .047 14.286c-2.371 4.727-7.272 7.826-12.417 9.046s-10.542.77-15.754-.12c-5.42-.926-7.816-.882-16.044 1.862 4.423.3 7.945 2.8 11.786 5.011 10.25 5.906 23.732 3.258 33.422-3.527 5.873-4.113 10.872-9.835 12.855-16.725 3.682-27-21.2-32.149-39.5-24.83s-7.939 11.274-7.939 11.274 3.67-1.421 8.546-2.906c5.931-1.81 13.643-3.585 18.708-1.487z"/></g></svg>