<svg id="Layer_2" data-name="Layer 2" xmlns="http://www.w3.org/2000/svg" xmlns:xlink="http://www.w3.org/1999/xlink" viewBox="0 0 1920 1080"><defs><clipPath id="clip-path"><rect width="1920" height="1080" style="fill:none"/></clipPath><linearGradient id="linear-gradient" x1="936.732" y1="266.132" x2="1008.739" y2="1184.224" gradientUnits="userSpaceOnUse"><stop offset="0" stop-color="#3b4970"/><stop offset="1" stop-color="#2a284b"/></linearGradient><linearGradient id="linear-gradient-2" x1="1103.269" y1="108.9" x2="1114.468" y2="92.44" gradientTransform="translate(188.447 319.307) rotate(5.709)" gradientUnits="userSpaceOnUse"><stop offset="0" stop-color="#ef605d"/><stop offset="1" stop-color="#aa3a3d"/></linearGradient><linearGradient id="linear-gradient-3" x1="1320.995" y1="402.153" x2="1222" y2="452.843" gradientTransform="translate(207.377 -305.033) rotate(15.63)" xlink:href="#linear-gradient"/><linearGradient id="linear-gradient-4" x1="1517.364" y1="301.669" x2="1403.53" y2="359.958" gradientUnits="userSpaceOnUse"><stop offset="0" stop-color="#fbb03b"/><stop offset="1" stop-color="#ef795d"/></linearGradient><linearGradient id="linear-gradient-5" x1="931.165" y1="111.092" x2="941.109" y2="91.548" gradientTransform="translate(481.891 -95.031) rotate(35.262)" xlink:href="#linear-gradient-2"/><linearGradient id="linear-gradient-6" x1="1283.2" y1="316.024" x2="1442.96" y2="316.024" xlink:href="#linear-gradient"/><linearGradient id="linear-gradient-7" x1="1588.314" y1="279.569" x2="1570.942" y2="287.569" gradientUnits="userSpaceOnUse"><stop offset="0" stop-color="#e0e8fc"/><stop offset="0.334" stop-color="#ced9f0"/><stop offset="1" stop-color="#a9bcd8"/></linearGradient><linearGradient id="linear-gradient-8" x1="1459.019" y1="482.731" x2="1473.054" y2="472.151" gradientTransform="translate(-72.663 204.316) rotate(-13.945)" xlink:href="#linear-gradient-7"/><linearGradient id="linear-gradient-9" x1="1418.362" y1="339.691" x2="1388.908" y2="384.948" xlink:href="#linear-gradient-4"/><linearGradient id="linear-gradient-10" x1="1394.785" y1="296.129" x2="1427.408" y2="296.129" xlink:href="#linear-gradient"/><linearGradient id="linear-gradient-11" x1="1273.829" y1="398.103" x2="1267.502" y2="374.378" gradientTransform="translate(-51.706 116.446) rotate(-6.993)" gradientUnits="userSpaceOnUse"><stop offset="0" stop-color="#047a69"/><stop offset="1" stop-color="#00d48e"/></linearGradient><linearGradient id="linear-gradient-12" x1="1306.439" y1="446.481" x2="1315.402" y2="469.68" gradientTransform="translate(-51.706 116.446) rotate(-6.993)" gradientUnits="userSpaceOnUse"><stop offset="0" stop-color="#04a369"/><stop offset="1" stop-color="#00d48e"/></linearGradient><linearGradient id="linear-gradient-13" x1="1210.017" y1="473.324" x2="1278.887" y2="425.574" gradientTransform="translate(-51.706 116.446) rotate(-6.993)" gradientUnits="userSpaceOnUse"><stop offset="0.082" stop-color="#ef605d"/><stop offset="1" stop-color="#783a4f"/></linearGradient><clipPath id="clip-path-2"><polygon points="1381.138 249.217 1454.31 233.294 1418.72 305.514 1352.965 308.776 1381.138 249.217" style="fill:none"/></clipPath><linearGradient id="linear-gradient-14" x1="1299.429" y1="395.045" x2="1316.116" y2="380.873" xlink:href="#linear-gradient-7"/><linearGradient id="linear-gradient-15" x1="1411.931" y1="342.774" x2="1315.24" y2="389.405" xlink:href="#linear-gradient-4"/><linearGradient id="linear-gradient-16" x1="1400.311" y1="370.992" x2="1421.21" y2="338.549" gradientUnits="userSpaceOnUse"><stop offset="0" stop-color="#048f69"/><stop offset="1" stop-color="#00d48e"/></linearGradient></defs><title>Ghass_illustartion_final</title><g style="clip-path:url(#clip-path)"><polygon points="0 1028.168 50.728 947.16 122.735 1004.166 200.743 987.664 279 1062.302 385 988.302 500.773 995.165 604.163 905.156 788.975 914.157 829.306 801.645 1062.992 869.152 1135.367 770.142 1269.302 794.145 1752.496 188.802 1811.904 191.302 1898.913 -12.936 1955.919 -48.94 1991.922 1184.184 23.725 1199.185 -45.281 1055.171 0 1028.168" style="fill:url(#linear-gradient)"/><path d="M1287.286,517.924l-12.606,4.262a8.765,8.765,0,0,0-5.923,9.079l1.4,15.767a5.555,5.555,0,0,0,6.956,4.878h0a5.555,5.555,0,0,0,4.043-6.357l-1.63-9.028a7.392,7.392,0,0,1,4.12-8l5.722-2.7Z" style="fill:url(#linear-gradient-2)"/><path d="M1373.686,371.9s-100.12,113.149-186.524,147.437l4.114,7.543s174.866-54.174,219.44-117.263L1389,365.953Z" style="fill:#2a3251"/><path d="M1361.768,366.33l-20.341,12.08a32.943,32.943,0,0,0-1.741,55.538l17.164,11.708a16.824,16.824,0,0,1-.555,28.16l-72.731,45.517,3.535,9.631,110.834-44.784a38.375,38.375,0,0,0,14.3-61.076Z" style="fill:url(#linear-gradient-3)"/><path d="M1435.869,316.262s53.318-3.055,133.625-35.034l2.837,8.111s-117.833,86.969-153.707,76.906l7.124-39.137Z" style="fill:url(#linear-gradient-4)"/><path d="M1453.233,345.152l-2.762,19.332a10.21,10.21,0,0,1-10.891,8.736l-8.291-.638,2.971-8.686,12.344-14.172Z" style="fill:#fbb03b"/><path d="M1191.489,517.924l-11.006,2a7.368,7.368,0,0,0-6.041,6.822l-.772,13.282a4.669,4.669,0,0,0,5.185,4.911h0a4.67,4.67,0,0,0,4.143-4.789l-.247-7.708a6.211,6.211,0,0,1,4.409-6.144l5.089-1.542Z" style="fill:url(#linear-gradient-5)"/><path d="M1464.279,255.038l-8.362,1.706a32.832,32.832,0,0,1-25.432-5.3l-1.98-1.391a28.4,28.4,0,0,0-26.517-3.265h0a35.9,35.9,0,0,0-18.443,15.931,21.49,21.49,0,0,1-19.094,10.792q-10.959-.17-21.915-.47c-9.478-.26-19.171-.565-28.212,2.3s-17.466,9.57-19.647,18.8a14.244,14.244,0,0,0-.049,7.042c1.277,4.6,5.461,7.962,6.751,12.561,1.821,6.493-2.751,13.18-8.267,17.06s-12.11,6.071-17.454,10.185-9.353,11.336-6.709,17.54a18.2,18.2,0,0,0,5.373,6.437,49.879,49.879,0,0,0,14.368,8.737c2.315,1.536,4.855,2.831,6.571,3.764,10.653,5.789,22.764,8.659,34.8,9.482,9.628.659,19.766-.029,28.081-4.928,14.6-8.6,20.217-27.973,34.918-36.4,7.145-4.1,15.578-5.083,23.667-6.63a157.087,157.087,0,0,0,28.356-8.252c4.516-1.79,9.059-3.863,12.495-7.3,3.291-3.288-.522-8.568,4.517-12.613.048-.05.1-.089.15-.141a4.316,4.316,0,0,0,.636-4.807l-4.164-8.282a36.86,36.86,0,0,0,20.032-24.2l.634-2.472A12.929,12.929,0,0,0,1464.279,255.038Z" style="fill:url(#linear-gradient-6)"/><path d="M1565.931,283.645l20.79-9.6a4.373,4.373,0,0,1,5.772,2.067l.024.049a6.9,6.9,0,0,1-2.839,9.016h0a6.9,6.9,0,0,1-8.659-1.592l-1.007-1.2-11.224,5.184Z" style="fill:url(#linear-gradient-7)"/><path d="M1464.35,307.4l-14.7,16.94a4.8,4.8,0,0,0,.537,6.818h0a4.8,4.8,0,0,0,6.518-.323l15.936-16.333a4.8,4.8,0,0,0-1.308-7.65l-1.231-.608A4.8,4.8,0,0,0,1464.35,307.4Z" style="fill:url(#linear-gradient-8)"/><ellipse cx="1464.946" cy="301.863" rx="10.629" ry="16.458" transform="translate(-26.317 417.291) rotate(-16.069)" style="fill:#e0e8fc"/><path d="M1360.6,367.024a574.928,574.928,0,0,1,46.041,49.794l52.779-78.18a9.368,9.368,0,0,0-.181-10.844l-8.522-11.589a9.363,9.363,0,0,0-11.786-2.805C1419.114,323.467,1363.4,355.808,1360.6,367.024Z" style="fill:url(#linear-gradient-9)"/><path d="M1444.425,303.475s11.238,10.346,13.406,9.992a5.5,5.5,0,0,0,1.269-.231,9,9,0,0,0,3-2.416c.048-.05.1-.089.15-.141a4.316,4.316,0,0,0,.636-4.807l-4.164-8.282a36.86,36.86,0,0,0,17.148-16.581S1435.953,268.332,1444.425,303.475Z" style="fill:url(#linear-gradient-10)"/><path d="M1242.131,368.539,1230.37,343.52l47.387-9.057s-7.408,17.693-8.337,18.732-20.07,11.98-20.07,11.98Z" style="fill:url(#linear-gradient-11)"/><polygon points="1276.591 411.056 1292.727 434.844 1317.386 381.136 1287.118 405.039 1276.591 411.056" style="fill:url(#linear-gradient-12)"/><path d="M1247.777,370.58l-65.647,53.743a2.706,2.706,0,0,0-.09,4.111l.346.31a2.707,2.707,0,0,0,3.147.332l8.014-5.126a3.546,3.546,0,0,1,5.006,1.258h0a2.705,2.705,0,0,1-.829,3.308l-55.184,48.349a6.315,6.315,0,0,0-.2,9.59h0a6.314,6.314,0,0,0,8,.344l38.963-32.311a2.707,2.707,0,0,1,4.159.958h0a2.706,2.706,0,0,1-.489,3l-15.412,13.259a3.675,3.675,0,0,0-.272,4.733h0a3.674,3.674,0,0,0,5.391.532l34.354-28.078a2.706,2.706,0,0,1,4.045.5l.337.5a2.706,2.706,0,0,1-.172,3.265l-15.148,13.558a3.643,3.643,0,0,0,.355,5.066h0a3.643,3.643,0,0,0,4.993-.127l72.46-67.981a2.7,2.7,0,0,0-.1-3.939l-32.5-29.075A2.706,2.706,0,0,0,1247.777,370.58Z" style="fill:url(#linear-gradient-13)"/><line x1="1173.082" y1="485.046" x2="1165.432" y2="491.108" style="fill:none;stroke:#fbb03b;stroke-linecap:round;stroke-miterlimit:10;stroke-width:6px"/><line x1="1133.761" y1="488.223" x2="1126.111" y2="494.284" style="fill:none;stroke:#fbb03b;stroke-linecap:round;stroke-miterlimit:10;stroke-width:6px"/><line x1="1175.044" y1="433.869" x2="1170.399" y2="437.571" style="fill:none;stroke:#fbb03b;stroke-linecap:round;stroke-miterlimit:10;stroke-width:6px"/><line x1="1210.568" y1="421.058" x2="1298.928" y2="345.681" style="fill:none;stroke:#fbb03b;stroke-linecap:round;stroke-miterlimit:10;stroke-width:12px;opacity:0.31"/><line x1="1252.69" y1="403.94" x2="1144.18" y2="496.927" style="fill:none;stroke:#fbb03b;stroke-linecap:round;stroke-miterlimit:10;stroke-width:12px;opacity:0.31"/><polygon points="1381.138 249.217 1454.31 233.294 1418.72 305.514 1352.965 308.776 1381.138 249.217" style="fill:#00bf7e"/><g style="clip-path:url(#clip-path-2)"><polygon points="1455.596 236.583 1368.265 260.852 1367.342 268.319 1454.714 238.76 1455.596 236.583" style="fill:#fff;opacity:0.38"/></g><path d="M1252.928,351.736l128.21-102.519s-3.351,15.082,10.734,32.477,26.8,23.858,26.8,23.858L1298.912,406.344a35.7,35.7,0,0,1-51.409-6.54h0A35.7,35.7,0,0,1,1252.928,351.736Z" style="fill:#00d48e"/><path d="M1351.455,273.228s-4.391,46.486,39.175,55.219l7.272-5.673s-39.123-7.153-39.635-54.631Z" style="fill:#00bf7e"/><polygon points="1396.07 286.677 1254.06 406.765 1261.508 411.209 1405.828 296.32 1396.07 286.677" style="fill:#fff;opacity:0.31"/><path d="M1323.428,380.025l-16.322,16.063a4.375,4.375,0,0,1-6.131,0l-.039-.038a6.9,6.9,0,0,1-.375-9.445h0a6.9,6.9,0,0,1,8.687-1.428l1.355.793,8.812-8.672Z" style="fill:url(#linear-gradient-14)"/><path d="M1451.332,351.088s-54.356-7.36-134.97,35.241l-3.392-4.689s49.771-60.2,128.649-69.256" style="fill:url(#linear-gradient-15)"/><path d="M1433.068,317.175c4.021,1.665,6.057,6.132,7.858,10.139,2.52,5.609,2.814,12.35.058,17.847-2.961,5.9-9.084,9.776-15.512,11.3s-13.169.963-19.681-.15c-6.771-1.156-9.764-1.1-20.043,2.327,5.526.378,9.926,3.5,14.725,6.26,12.8,7.378,29.647,4.071,41.752-4.406,7.337-5.138,13.582-12.287,16.059-20.894,4.6-33.726-26.484-40.163-49.342-31.019s-9.918,14.084-9.918,14.084,4.585-1.775,10.676-3.63C1417.107,316.777,1426.74,314.554,1433.068,317.175Z" style="fill:url(#linear-gradient-16)"/></g></svg>