<svg xmlns="http://www.w3.org/2000/svg" viewBox="0 0 492 736.5"><path fill="none" stroke="#3a3a3a" stroke-linecap="round" stroke-linejoin="round" stroke-miterlimit="10" stroke-width="10" d="M396.4 315.7c18.5-20.5 29.6-47.7 29.6-77.4 0-57.1-41.3-104.5-95.6-114.2 2.7-8.5 4.3-17.6 4.3-27.2 0-48.9-39.6-88.6-88.6-88.6-48.9 0-88.6 39.6-88.6 88.6 0 8 1.1 15.8 3 23.2C106.2 133.4 66 182.2 66 240.5c0 29.1 10 55.8 26.8 77-48.7 26.5-81.6 78-81.6 137.2 0 86.2 69.9 156 156 156 28.8 0 55.8-7.8 78.9-21.4 23.2 13.8 50.3 21.6 79.3 21.6 86.2 0 156-69.9 156-156 .1-60.8-34.5-113.3-85-139.2zM243.2 215.1V724M43.5 724h403.6M150.4 455.5l92.1 92.1M320.9 380l-74.6 74.5M184.2 260.1l58.3 58.3"/><circle cx="112.2" cy="260.1" r="31.5" fill="#00c479"/><circle cx="175.2" cy="387" r="31.5" fill="#00c479"/><circle cx="206.8" cy="166.5" r="31.5" fill="#00c479"/><ellipse cx="345.2" cy="260.1" fill="#00c479" rx="31.5" ry="31.5" transform="rotate(-22.5 345.159 260.137)"/><ellipse cx="313.6" cy="451.5" fill="#00c479" rx="31.5" ry="31.5" transform="rotate(-22.5 313.627 451.449)"/><circle cx="376.7" cy="533.1" r="31.5" fill="#00c479"/><circle cx="112.2" cy="533.1" r="31.5" fill="#00c479"/></svg>