<svg xmlns="http://www.w3.org/2000/svg" xmlns:xlink="http://www.w3.org/1999/xlink" viewBox="0 0 659 643.3"><defs><path id="a" d="M167.8 376.9v262.8L56.6 691l-78.7-133.5V396.3z"/></defs><clipPath id="b"><use overflow="visible" xlink:href="#a"/></clipPath><g fill="none" stroke="#efefef" stroke-linecap="round" stroke-miterlimit="10" stroke-width="10" clip-path="url(#b)"><circle cx="111.9" cy="523" r="99.5"/><circle cx="111.9" cy="523" r="65.7"/></g><path fill="none" stroke="#efefef" stroke-linecap="round" stroke-miterlimit="10" stroke-width="10" d="M172.3 294h135v213.2h-135"/><defs><path id="c" d="M409.7 295.5l-19.2 18.1-40.1 73.1v200.5l71.5 53.7-279 7.2 6.3-519 49.5-25.4L206.3-27l154.8 10.2 7.7 125.6 67.2 46.9-7.6 147.2z"/></defs><clipPath id="d"><use overflow="visible" xlink:href="#c"/></clipPath><g fill="none" stroke="#efefef" stroke-linecap="round" stroke-miterlimit="10" stroke-width="10" clip-path="url(#d)"><path d="M333.3 133.7V13.4h-89.5v120.3c-42 0-76.1 34.1-76.1 76.1v414.9h241.7V209.8c.1-42.1-34-76.1-76.1-76.1zM243.9 91h84.3"/></g><path fill="none" stroke="#efefef" stroke-linecap="round" stroke-miterlimit="10" stroke-width="10" d="M444.9 426.5h204.4v71.1H444.9zM353.8 372.7h289.1"/><path fill="none" stroke="#efefef" stroke-linecap="round" stroke-miterlimit="10" stroke-width="10" d="M566.5 630.8H433.1c-45.7 0-82.8-37-82.8-82.8V377.3c0-45.7 37-82.8 82.8-82.8h133.4c45.7 0 82.8 37 82.8 82.8V548c0 45.7-37.1 82.8-82.8 82.8z"/></svg>