<svg xmlns="http://www.w3.org/2000/svg" viewBox="0 0 659 800"><g fill="none" stroke="#efefef" stroke-linecap="round" stroke-miterlimit="10" stroke-width="10"><path d="M99.9 285.7L14 497.4h85.9v157.1h142.5v134.2h377.3V537.2L649 283.3"/><path d="M98.9 291.5c0-151.9 123.2-277.8 275.2-277.8s274.9 119 274.9 271"/></g><path fill="none" stroke="#efefef" stroke-linecap="round" stroke-miterlimit="10" stroke-width="10" d="M413.3 422.1h-82.2c-6.6 0-12-5.4-12-12v-2.2c0-6.6 5.4-12 12-12h82.2c6.6 0 12 5.4 12 12v2.2c0 6.6-5.4 12-12 12z"/><path fill="none" stroke="#efefef" stroke-linecap="round" stroke-miterlimit="10" stroke-width="10" d="M391.3 448h-38.2c-6.6 0-12-5.4-12-12v-2.2c0-6.6 5.4-12 12-12h38.2c6.6 0 12 5.4 12 12v2.2c0 6.6-5.4 12-12 12z"/><g fill="none" stroke="#efefef" stroke-linecap="round" stroke-miterlimit="10" stroke-width="10"><path d="M360.7 395.8V295M360.7 316.2h-21c-6.6 0-12-5.4-12-12v-9c0-6.6 5.4-12 12-12h9c6.6 0 12 5.4 12 12v21z"/></g><g fill="none" stroke="#efefef" stroke-linecap="round" stroke-miterlimit="10" stroke-width="10"><path d="M386.9 395.8V295M386.9 316.2h21c6.6 0 12-5.4 12-12v-9c0-6.6-5.4-12-12-12h-9c-6.6 0-12 5.4-12 12v21z"/></g><path fill="none" stroke="#efefef" stroke-linecap="round" stroke-miterlimit="10" stroke-width="10" d="M360.7 316.2h26.2"/><g fill="none" stroke="#efefef" stroke-linecap="round" stroke-miterlimit="10" stroke-width="10"><path d="M374.7 150.1c57.8 0 104.6 46.8 104.6 104.6 0 29.6-12.3 56.4-32.1 75.4-7.9 7.6-38.5 15.9-35.2 63.5M373.1 150.1c-57.8 0-104.6 46.8-104.6 104.6 0 29.6 12.3 56.4 32.1 75.4 7.9 7.6 38.5 15.9 35.2 63.5"/></g><path fill="none" stroke="#efefef" stroke-linecap="round" stroke-miterlimit="10" stroke-width="10" d="M373.7 92.5V117M482.3 128.7l-16.9 17.7M537.8 237l-24.5-.1M265.8 128.7l17 17.7M210.4 237l24.5-.1"/></svg>