<svg xmlns="http://www.w3.org/2000/svg" xmlns:xlink="http://www.w3.org/1999/xlink" width="1920" height="768" data-name="Layer 2"><defs><clipPath id="h"><path fill="none" d="M0 0h1920v1080H0z"/></clipPath><linearGradient id="b" x1="2157.618" x2="2164.121" y1="-100.533" y2="-110.09" gradientTransform="scale(-1 1) rotate(-23.13 2559.117 8945.307)" gradientUnits="userSpaceOnUse"><stop offset="0" stop-color="#ef605d"/><stop offset="1" stop-color="#aa3a3d"/></linearGradient><linearGradient id="a" x1="2021.961" x2="2151.767" y1="367.506" y2="367.506" gradientTransform="scale(-1 1) rotate(-28.82 1065.508 7293.98)" gradientUnits="userSpaceOnUse"><stop offset="0" stop-color="#3b4970"/><stop offset="1" stop-color="#2a284b"/></linearGradient><linearGradient id="k" x1="2767.338" x2="2709.857" y1="24.224" y2="53.657" gradientTransform="scale(-1 1) rotate(-13.18 3676.58 18159.724)" xlink:href="#a"/><linearGradient id="c" x1="2301.891" x2="2291.804" y1="168.294" y2="172.94" gradientTransform="scale(-1 1) rotate(26.18 -510.57 -7231.541)" gradientUnits="userSpaceOnUse"><stop offset="0" stop-color="#e0e8fc"/><stop offset=".334" stop-color="#ced9f0"/><stop offset="1" stop-color="#a9bcd8"/></linearGradient><linearGradient id="d" x1="2262.965" x2="2202.05" y1="179.994" y2="211.185" gradientTransform="scale(-1 1) rotate(26.18 -510.57 -7231.541)" gradientUnits="userSpaceOnUse"><stop offset="0" stop-color="#fbb03b"/><stop offset="1" stop-color="#ef795d"/></linearGradient><linearGradient id="n" x1="3128.712" x2="3134.485" y1="-969.173" y2="-980.521" gradientTransform="matrix(-.994 .112 .112 .994 4633.071 1422.98)" xlink:href="#b"/><linearGradient id="o" x1="2087.859" x2="2180.623" y1="244.575" y2="244.575" gradientTransform="scale(-1 1) rotate(-16.91 1692.266 12244.446)" xlink:href="#a"/><linearGradient id="p" x1="1505.403" x2="1513.553" y1="550.108" y2="543.965" gradientTransform="scale(-1 1) rotate(-42.77 181.382 4209.72)" xlink:href="#c"/><linearGradient id="q" x1="2156.207" x2="2139.105" y1="305.537" y2="331.816" gradientTransform="scale(-1 1) rotate(-28.82 1065.508 7293.98)" xlink:href="#d"/><linearGradient id="r" x1="2154.882" x2="2173.166" y1="221.742" y2="221.742" gradientTransform="scale(-1 1) rotate(9.1 -2016.328 -21753.462)" xlink:href="#a"/><linearGradient id="s" x1="-2333.999" x2="-2324.31" y1="-1154.993" y2="-1163.222" gradientTransform="scale(1 -1) rotate(68.28 -865.535 1732.757)" xlink:href="#c"/><linearGradient id="t" x1="-2268.676" x2="-2324.819" y1="-1185.344" y2="-1158.268" gradientTransform="scale(1 -1) rotate(68.28 -865.535 1732.757)" xlink:href="#d"/><linearGradient id="u" x1="1388.815" x2="1391.815" y1="438.585" y2="543.58" xlink:href="#a"/><linearGradient id="v" x1="1388.46" x2="1380.961" y1="705.805" y2="821.299" xlink:href="#a"/><linearGradient id="e" x1="1329.821" x2="1308.367" y1="593.786" y2="42.116" gradientUnits="userSpaceOnUse"><stop offset="0" stop-color="#04a369"/><stop offset="1" stop-color="#00d48e"/></linearGradient><linearGradient id="x" x1="1389.134" x2="1389.134" y1="180.333" y2="546.566" xlink:href="#a"/><linearGradient id="y" x1="1506.13" x2="1484.676" y1="586.93" y2="35.259" xlink:href="#e"/><linearGradient id="z" x1="1248.852" x2="1248.852" y1="180.333" y2="546.566" xlink:href="#a"/><linearGradient id="A" x1="1241.29" x2="1219.836" y1="597.229" y2="45.559" xlink:href="#e"/><linearGradient id="B" x1="1172.636" x2="1172.636" y1="180.333" y2="546.566" xlink:href="#a"/><linearGradient id="C" x1="1529.415" x2="1529.415" y1="180.333" y2="546.566" xlink:href="#a"/><linearGradient id="D" x1="1599.87" x2="1578.416" y1="583.285" y2="31.614" xlink:href="#e"/><linearGradient id="E" x1="1605.631" x2="1605.631" y1="180.333" y2="546.566" xlink:href="#a"/><linearGradient id="f" x1="949.439" x2="945.941" y1="928.584" y2="915.464" gradientTransform="rotate(-58.749 1015.473 588.477)" gradientUnits="userSpaceOnUse"><stop offset="0" stop-color="#047a69"/><stop offset="1" stop-color="#00d48e"/></linearGradient><linearGradient id="G" x1="967.473" x2="972.429" y1="955.337" y2="968.165" gradientTransform="rotate(-58.749 1015.473 588.477)" xlink:href="#e"/><linearGradient id="g" x1="914.152" x2="952.237" y1="970.181" y2="943.775" gradientTransform="rotate(-58.749 1015.473 588.477)" gradientUnits="userSpaceOnUse"><stop offset=".082" stop-color="#ef605d"/><stop offset="1" stop-color="#783a4f"/></linearGradient><clipPath id="I"><path fill="none" d="M1266.465 732.528l18.132-37.23 19.182 40.178-21.092 29.675z"/></clipPath><linearGradient id="J" x1="1266.732" x2="1304.15" y1="755.544" y2="755.544" xlink:href="#a"/><linearGradient id="K" x1="1017.613" x2="1014.115" y1="1040.926" y2="1027.806" gradientTransform="scale(-1 1) rotate(-58.74 -439.706 3173.907)" xlink:href="#f"/><linearGradient id="L" x1="1035.647" x2="1040.603" y1="1067.678" y2="1080.507" gradientTransform="scale(-1 1) rotate(-58.74 -439.706 3173.907)" xlink:href="#e"/><linearGradient id="M" x1="982.326" x2="1020.411" y1="1082.522" y2="1056.117" gradientTransform="scale(-1 1) rotate(-58.74 -439.706 3173.907)" xlink:href="#g"/><clipPath id="N"><path fill="none" d="M1512.968 732.528l-18.132-37.23-19.183 40.178 21.092 29.675z"/></clipPath><linearGradient id="O" x1="1475.283" x2="1512.701" y1="755.544" y2="755.544" xlink:href="#a"/><linearGradient id="i" x1="2157.618" x2="2164.121" y1="-100.533" y2="-110.09" gradientTransform="scale(-1 1) rotate(-23.13 2559.117 8945.307)" gradientUnits="userSpaceOnUse" xlink:href="#b"/><linearGradient id="j" x1="2021.961" x2="2151.767" y1="367.506" y2="367.506" gradientTransform="scale(-1 1) rotate(-28.82 1065.508 7293.98)" gradientUnits="userSpaceOnUse" xlink:href="#a"/><linearGradient id="l" x1="2301.891" x2="2291.804" y1="168.294" y2="172.94" gradientTransform="scale(-1 1) rotate(26.18 -510.57 -7231.541)" gradientUnits="userSpaceOnUse" xlink:href="#c"/><linearGradient id="m" x1="2262.965" x2="2202.05" y1="179.994" y2="211.185" gradientTransform="scale(-1 1) rotate(26.18 -510.57 -7231.541)" gradientUnits="userSpaceOnUse" xlink:href="#d"/><linearGradient id="w" x1="1329.821" x2="1308.367" y1="593.786" y2="42.116" gradientUnits="userSpaceOnUse" xlink:href="#e"/><linearGradient id="F" x1="949.439" x2="945.941" y1="928.584" y2="915.464" gradientTransform="rotate(-58.749 1015.473 588.477)" gradientUnits="userSpaceOnUse" xlink:href="#f"/><linearGradient id="H" x1="914.152" x2="952.237" y1="970.181" y2="943.775" gradientTransform="rotate(-58.749 1015.473 588.477)" gradientUnits="userSpaceOnUse" xlink:href="#g"/></defs><g opacity=".29" transform="matrix(.7356 0 0 .7356 417.106 -.204)"><path fill="none" stroke="#3b4970" stroke-miterlimit="10" d="M1731.313 336.183l2.245 27.491m-21.397-27.491l10.464 27.491 10.465-27.004m-19.155-.487l-2.242 27.491" opacity=".45"/><path fill="#e0e8fc" d="M1730.112 340.988h-14.973v-4.154a2.388 2.388 0 0 1 2.388-2.388h10.2a2.388 2.388 0 0 1 2.388 2.388v4.154zm-14.973 2.412h14.97a1.2 1.2 0 0 0 1.2-1.2 1.2 1.2 0 0 0-1.2-1.2h-14.97a1.2 1.2 0 0 0-1.2 1.2 1.2 1.2 0 0 0 1.2 1.2z"/><path fill="none" stroke="#3b4970" stroke-miterlimit="10" d="M1718.609 363.674l-2.035-27.491m10.03 27.491l1.995-27.491" opacity=".45"/><path d="M1706.209 366.179h32.832v2.24h-32.832z" opacity=".1"/><path fill="none" stroke="#3b4970" stroke-miterlimit="10" d="M1707.994 336.67l-1.785 27.377m30.97-27.377l1.862 27.377" opacity=".45"/><path fill="#d1d9e8" d="M1722.625 323.125h-21.595l6.223 14.641h30.745l6.222-14.641zm9.696 62.697h-19.391a4.282 4.282 0 0 1-4.251-3.762l-2.47-20.145h32.832l-2.469 20.145a4.282 4.282 0 0 1-4.251 3.762z"/><path fill="#e0e8fc" d="M1732.862 383.166h-20.473a4.566 4.566 0 0 1-3.823-2.025l.113.919a4.282 4.282 0 0 0 4.251 3.762h19.391a4.282 4.282 0 0 0 4.251-3.762l.113-.919a4.566 4.566 0 0 1-3.823 2.025z"/><rect width="36.657" height="4.263" x="1704.297" y="361.915" fill="#e0e8fc" rx=".989" ry=".989"/><path fill="#e0e8fc" d="M1694.144 248.824c1.531 37.7 19.447 74.3 19.447 74.3h5.581s-6.849-36.6-7.435-74.3c-.586-37.7 4.683-56.733 10.888-56.733-16.231 0-30.012 19.033-28.481 56.733z"/><path fill="#d1d9e8" d="M1722.625 192.091c-6.2 0-11.473 19.033-10.888 56.733.585 37.7 7.435 74.3 7.435 74.3h6.907s6.849-36.6 7.435-74.3c.586-37.7-4.684-56.733-10.889-56.733z"/><path fill="#e0e8fc" d="M1722.625 192.091c6.2 0 11.474 19.033 10.888 56.733-.586 37.7-7.434 74.3-7.434 74.3h5.581s17.916-36.6 19.447-74.3c1.531-37.7-12.25-56.733-28.482-56.733z"/><path fill="#d1d9e8" d="M1678.513 248.824c2.371 37.7 30.12 74.3 30.12 74.3h4.958s-17.916-36.6-19.447-74.3c-1.531-37.7 12.25-56.733 28.481-56.733-25.139 0-46.484 19.033-44.112 56.733z"/><path fill="#e0e8fc" d="M1666.211 248.824c3.033 37.7 38.519 74.3 38.519 74.3h3.9s-27.749-36.6-30.12-74.3c-2.371-37.7 18.973-56.733 44.112-56.733-32.147 0-59.444 19.033-56.411 56.733z"/><path fill="#d1d9e8" d="M1654.546 248.824c3.66 37.7 46.484 74.3 46.484 74.3h3.7s-35.486-36.6-38.519-74.3c-3.033-37.7 24.264-56.733 56.414-56.733-38.798 0-71.739 19.033-68.079 56.733zm68.079-56.733c16.232 0 30.013 19.033 28.482 56.733-1.531 37.7-19.447 74.3-19.447 74.3h4.958s27.748-36.6 30.12-74.3c2.372-37.7-18.973-56.733-44.113-56.733z"/><path fill="#e0e8fc" d="M1722.625 192.091c25.14 0 46.484 19.033 44.113 56.733-2.371 37.7-30.12 74.3-30.12 74.3h3.9s35.487-36.6 38.52-74.3c3.033-37.7-24.262-56.733-56.413-56.733z"/><path fill="#d1d9e8" d="M1722.625 192.091c32.151 0 59.448 19.033 56.415 56.733-3.033 37.7-38.52 74.3-38.52 74.3h3.7s42.825-36.6 46.485-74.3c3.66-37.7-29.282-56.733-68.08-56.733z"/></g><g opacity=".5" transform="matrix(.7356 0 0 .7356 417.106 -.204)"><path fill="none" stroke="#3b4970" stroke-miterlimit="10" d="M1687.304 789.186l3.576 43.788m-34.083-43.788l16.669 43.788 16.669-43.012m-30.511-.776l-3.572 43.788" opacity=".45"/><path fill="#e0e8fc" d="M1685.392 796.839h-23.85v-8.033a2.388 2.388 0 0 1 2.388-2.388h19.073a2.388 2.388 0 0 1 2.388 2.388v8.033z"/><path fill="#e0e8fc" d="M1661.541 800.675h23.846a1.918 1.918 0 0 0 1.917-1.918 1.918 1.918 0 0 0-1.917-1.918h-23.846a1.918 1.918 0 0 0-1.917 1.918 1.918 1.918 0 0 0 1.917 1.918z"/><path fill="none" stroke="#3b4970" stroke-miterlimit="10" d="M1667.068 832.974l-3.241-43.788m15.976 43.788l3.178-43.788" opacity=".45"/><path d="M1647.318 836.964h52.296v3.568h-52.296z" opacity=".1"/><path fill="none" stroke="#3b4970" stroke-miterlimit="10" d="M1650.16 789.962l-2.842 43.606m49.33-43.606l2.966 43.606" opacity=".45"/><path fill="#d1d9e8" d="M1673.466 768.387h-34.398l9.912 23.32h48.972l9.911-23.32zm15.443 99.866h-30.886a6.823 6.823 0 0 1-6.772-5.992l-3.933-32.088h52.3l-3.934 32.088a6.821 6.821 0 0 1-6.775 5.992z"/><path fill="#e0e8fc" d="M1689.771 864.022h-32.61a7.274 7.274 0 0 1-6.089-3.225l.179 1.464a6.823 6.823 0 0 0 6.772 5.992h30.886a6.821 6.821 0 0 0 6.771-5.992l.18-1.464a7.275 7.275 0 0 1-6.089 3.225z"/><rect width="58.389" height="6.791" x="1644.271" y="830.173" fill="#e0e8fc" rx="1.212" ry="1.212"/><path fill="#e0e8fc" d="M1628.1 650.036c2.439 60.05 30.976 118.351 30.976 118.351h8.89s-10.91-58.3-11.842-118.351c-.932-60.051 7.459-90.366 17.343-90.366-25.855 0-47.807 30.316-45.367 90.366z"/><path fill="#d1d9e8" d="M1673.466 559.67c-9.884 0-18.276 30.316-17.343 90.366.933 60.05 11.842 118.351 11.842 118.351h11s10.91-58.3 11.842-118.351c.932-60.051-7.457-90.366-17.341-90.366z"/><path fill="#e0e8fc" d="M1673.466 559.67c9.884 0 18.275 30.316 17.343 90.366-.932 60.05-11.842 118.351-11.842 118.351h8.889s28.538-58.3 30.977-118.351-19.513-90.366-45.367-90.366z"/><path fill="#d1d9e8" d="M1603.2 650.036c3.777 60.05 47.976 118.351 47.976 118.351h7.9s-28.537-58.3-30.976-118.351 19.513-90.366 45.367-90.366c-40.044 0-74.043 30.316-70.267 90.366z"/><path fill="#e0e8fc" d="M1583.607 650.036c4.831 60.05 61.355 118.351 61.355 118.351h6.216s-44.2-58.3-47.976-118.351c-3.776-60.051 30.221-90.366 70.264-90.366-51.21 0-94.691 30.316-89.859 90.366z"/><path fill="#d1d9e8" d="M1565.026 650.036c5.83 60.05 74.042 118.351 74.042 118.351h5.894s-56.524-58.3-61.355-118.351c-4.831-60.051 38.649-90.366 89.859-90.366-61.799 0-114.266 30.316-108.44 90.366zm108.44-90.366c25.854 0 47.805 30.316 45.367 90.366-2.438 60.05-30.977 118.351-30.977 118.351h7.9s44.2-58.3 47.976-118.351c3.776-60.051-30.223-90.366-70.266-90.366z"/><path fill="#e0e8fc" d="M1673.466 559.67c40.043 0 74.042 30.316 70.264 90.366-3.778 60.05-47.976 118.351-47.976 118.351h6.216s56.524-58.3 61.355-118.351c4.831-60.051-38.649-90.366-89.859-90.366z"/><path fill="#d1d9e8" d="M1673.466 559.67c51.21 0 94.69 30.316 89.859 90.366-4.831 60.05-61.355 118.351-61.355 118.351h5.893s68.212-58.3 74.042-118.351c5.83-60.051-46.64-90.366-108.439-90.366z"/></g><g opacity=".29" transform="matrix(.7356 0 0 .7356 417.106 -.204)"><path fill="none" stroke="#3b4970" stroke-miterlimit="10" d="M1149.531 595.353l2.514 30.788m-23.963-30.788l11.72 30.788 11.719-30.242m-21.452-.546l-2.511 30.788" opacity=".45"/><path fill="#e0e8fc" d="M1148.187 600.735h-16.769v-4.939a2.388 2.388 0 0 1 2.388-2.388h11.992a2.388 2.388 0 0 1 2.388 2.388v4.939z"/><path fill="#e0e8fc" d="M1131.417 603.431h16.766a1.348 1.348 0 0 0 1.348-1.348 1.347 1.347 0 0 0-1.348-1.348h-16.766a1.348 1.348 0 0 0-1.348 1.348 1.349 1.349 0 0 0 1.348 1.348z"/><path fill="none" stroke="#3b4970" stroke-miterlimit="10" d="M1135.303 626.141l-2.278-30.788m11.232 30.788l2.235-30.788" opacity=".45"/><path d="M1121.417 628.946h36.769v2.509h-36.769z" opacity=".1"/><path fill="none" stroke="#3b4970" stroke-miterlimit="10" d="M1123.415 595.899l-1.998 30.66m34.684-30.66l2.085 30.66" opacity=".45"/><path fill="#d1d9e8" d="M1139.802 580.73h-24.185l6.968 16.396h34.432l6.969-16.396zm10.858 70.215h-21.717a4.8 4.8 0 0 1-4.761-4.213l-2.765-22.561h36.769l-2.765 22.561a4.8 4.8 0 0 1-4.761 4.213z"/><path fill="#e0e8fc" d="M1151.265 647.971h-22.927a5.116 5.116 0 0 1-4.282-2.268l.126 1.029a4.8 4.8 0 0 0 4.761 4.213h21.717a4.8 4.8 0 0 0 4.761-4.213l.126-1.029a5.116 5.116 0 0 1-4.282 2.268z"/><rect width="41.053" height="4.775" x="1119.275" y="624.171" fill="#e0e8fc" rx="1.212" ry="1.212"/><path fill="#e0e8fc" d="M1107.9 497.517c1.715 42.221 21.78 83.213 21.78 83.213h6.25s-7.671-40.992-8.326-83.213c-.655-42.221 5.244-63.536 12.194-63.536-18.175 0-33.609 21.319-31.898 63.536z"/><path fill="#d1d9e8" d="M1139.8 433.981c-6.95 0-12.85 21.315-12.194 63.536.656 42.221 8.326 83.213 8.326 83.213h7.736s7.67-40.992 8.325-83.213c.655-42.221-5.242-63.536-12.193-63.536z"/><path fill="#e0e8fc" d="M1139.8 433.981c6.949 0 12.849 21.315 12.193 63.536-.656 42.221-8.326 83.213-8.326 83.213h6.25s20.065-40.992 21.78-83.213c1.715-42.221-13.717-63.536-31.897-63.536z"/><path fill="#d1d9e8" d="M1090.4 497.517c2.656 42.221 33.732 83.213 33.732 83.213h5.553s-20.065-40.992-21.78-83.213c-1.715-42.221 13.719-63.536 31.9-63.536-28.158 0-52.062 21.319-49.405 63.536z"/><path fill="#e0e8fc" d="M1076.621 497.517c3.4 42.221 43.139 83.213 43.139 83.213h4.371s-31.076-40.992-33.732-83.213c-2.656-42.221 21.248-63.536 49.4-63.536-35.999 0-66.574 21.319-63.178 63.536z"/><path fill="#d1d9e8" d="M1063.558 497.517c4.1 42.221 52.059 83.213 52.059 83.213h4.143s-39.742-40.992-43.139-83.213c-3.397-42.221 27.175-63.536 63.181-63.536-43.451 0-80.344 21.319-76.244 63.536z"/><path fill="#d1d9e8" d="M1139.8 433.981c18.178 0 33.612 21.315 31.9 63.536-1.712 42.221-21.78 83.213-21.78 83.213h5.553s31.076-40.992 33.732-83.213c2.656-42.221-21.249-63.536-49.405-63.536z"/><path fill="#e0e8fc" d="M1139.8 433.981c28.154 0 52.058 21.315 49.4 63.536-2.658 42.221-33.732 83.213-33.732 83.213h4.371s39.742-40.992 43.139-83.213c3.397-42.221-27.171-63.536-63.178-63.536z"/><path fill="#d1d9e8" d="M1139.8 433.981c36.005 0 66.576 21.315 63.18 63.536-3.396 42.221-43.139 83.213-43.139 83.213h4.143s47.96-40.992 52.059-83.213c4.099-42.221-32.791-63.536-76.243-63.536z"/></g><g opacity=".29" transform="matrix(.7356 0 0 .7356 417.106 -.204)"><path fill="none" stroke="#3b4970" stroke-miterlimit="10" d="M850.102 242.549l1.442 17.654m-13.741-17.654l6.72 17.654 6.72-17.341m-12.3-.313l-1.44 17.654" opacity=".45"/><path fill="#e0e8fc" d="M849.331 245.634h-9.615v-1.813a2.388 2.388 0 0 1 2.388-2.388h4.843a2.388 2.388 0 0 1 2.388 2.388v1.813zm-9.615 1.547h9.613a.773.773 0 0 0 .773-.773.773.773 0 0 0-.773-.773h-9.613a.773.773 0 0 0-.773.773.773.773 0 0 0 .773.773z"/><path fill="none" stroke="#3b4970" stroke-miterlimit="10" d="M841.944 260.203l-1.307-17.654m6.441 17.654l1.281-17.654" opacity=".45"/><path d="M833.981 261.812h21.084v1.438h-21.084z" opacity=".1"/><path fill="none" stroke="#3b4970" stroke-miterlimit="10" d="M835.127 242.862l-1.146 17.581m19.888-17.581l1.196 17.581" opacity=".45"/><path fill="#d1d9e8" d="M844.523 234.164h-13.868l3.996 9.402h19.744l3.996-9.402zm6.226 40.262H838.3a2.75 2.75 0 0 1-2.73-2.416l-1.586-12.936h21.084l-1.586 12.936a2.75 2.75 0 0 1-2.733 2.416z"/><path fill="#e0e8fc" d="M851.1 272.72h-13.15a2.931 2.931 0 0 1-2.455-1.3l.072.59a2.75 2.75 0 0 0 2.73 2.416h12.452a2.75 2.75 0 0 0 2.73-2.416l.073-.59a2.933 2.933 0 0 1-2.452 1.3z"/><rect width="23.54" height="2.738" x="832.753" y="259.074" fill="#e0e8fc" rx=".989" ry=".989"/><path fill="#e0e8fc" d="M826.233 186.45c.984 24.209 12.489 47.714 12.489 47.714h3.583a323.355 323.355 0 0 1-4.774-47.714c-.376-24.21 3.008-36.432 6.992-36.432-10.423 0-19.273 12.222-18.29 36.432z"/><path fill="#d1d9e8" d="M844.523 150.018c-3.985 0-7.368 12.222-6.992 36.432a323.355 323.355 0 0 0 4.774 47.714h4.436a323.355 323.355 0 0 0 4.774-47.714c.376-24.21-3.007-36.432-6.992-36.432z"/><path fill="#e0e8fc" d="M844.523 150.018c3.985 0 7.368 12.222 6.992 36.432a323.355 323.355 0 0 1-4.774 47.714h3.584s11.5-23.5 12.488-47.714c.988-24.214-7.866-36.432-18.29-36.432z"/><path fill="#d1d9e8" d="M816.2 186.45c1.523 24.209 19.343 47.714 19.343 47.714h3.184s-11.5-23.5-12.489-47.714c-.989-24.214 7.867-36.432 18.29-36.432-16.148 0-29.856 12.222-28.328 36.432z"/><path fill="#e0e8fc" d="M808.3 186.45c1.948 24.209 24.737 47.714 24.737 47.714h2.506s-17.82-23.5-19.343-47.714c-1.523-24.214 12.185-36.432 28.328-36.432-20.651 0-38.18 12.222-36.228 36.432z"/><path fill="#d1d9e8" d="M800.805 186.45c2.35 24.209 29.85 47.714 29.85 47.714h2.377s-22.789-23.5-24.737-47.714c-1.948-24.214 15.582-36.432 36.228-36.432-24.915 0-46.069 12.222-43.718 36.432zm43.718-36.432c10.424 0 19.273 12.222 18.29 36.432-.983 24.21-12.488 47.714-12.488 47.714h3.184s17.819-23.5 19.342-47.714c1.523-24.214-12.184-36.432-28.328-36.432z"/><path fill="#e0e8fc" d="M844.523 150.018c16.144 0 29.851 12.222 28.328 36.432-1.523 24.21-19.342 47.714-19.342 47.714h2.506s22.788-23.5 24.736-47.714c1.948-24.214-15.582-36.432-36.228-36.432z"/><path fill="#d1d9e8" d="M844.523 150.018c20.646 0 38.176 12.222 36.228 36.432-1.948 24.21-24.736 47.714-24.736 47.714h2.376s27.5-23.5 29.851-47.714c2.351-24.214-18.804-36.432-43.719-36.432z"/></g><g clip-path="url(#h)" transform="matrix(.7356 0 0 .7356 417.106 -.204)"><path fill="none" stroke="#3b4970" stroke-miterlimit="10" d="M1444.165 532.438l14.22 174.134m-135.538-174.134l66.287 174.134 66.287-171.048" opacity=".45"/><path fill="url(#i)" d="M1364.121 772.518l5.219 5.7a5.088 5.088 0 0 1 .472 6.277l-5.125 7.629a3.226 3.226 0 0 1-4.9.535 3.227 3.227 0 0 1-.277-4.366l3.357-4.137a4.291 4.291 0 0 0 .142-5.222l-2.155-2.974z"/><path fill="url(#j)" d="M1361.043 674.047s19.261 85.586 53.619 127.215l-4.2 2.686s-73.794-76.508-78.809-121.08l23.268-16.132z"/><path fill="url(#k)" d="M1368.664 674.551l6.966 11.839a19.128 19.128 0 0 1-14.66 28.741l-12.009 1.151a9.769 9.769 0 0 0-7.6 14.481l24.259 43.514-4.494 3.91-43.848-53.807a22.282 22.282 0 0 1 9.819-35.074z"/><path fill="url(#l)" d="M1262.923 647.018l-13.293.326a2.539 2.539 0 0 0-2.477 2.556v.032a4 4 0 0 0 3.79 3.97 4 4 0 0 0 4.1-3.048l.217-.887 7.176-.175z"/><path fill="url(#m)" d="M1339.048 630.679s-28.563 12.073-78.6 15.993l.6 4.953s75.8 15.06 91.916.623l-5.863-18.511z"/><path fill="#fbb03b" d="M1328.062 638.175l-4.006 10.607a5.929 5.929 0 0 0 3.1 7.493l4.4 2 .92-5.25-2.312-10.665z"/><path fill="url(#n)" d="M1412.855 799.334l5.04 4.1a4.277 4.277 0 0 1 1.163 5.161l-3.325 6.973a2.71 2.71 0 0 1-4.012 1.047 2.712 2.712 0 0 1-.767-3.6l2.283-3.852a3.607 3.607 0 0 0-.523-4.36l-2.157-2.208z"/><path fill="url(#o)" d="M1331.047 583.7l4.356 2.361a19.063 19.063 0 0 0 15.023 1.356l1.336-.438a16.49 16.49 0 0 1 15.281 2.67 20.856 20.856 0 0 1 7.552 11.968 12.477 12.477 0 0 0 8.781 9.224q6.116 1.758 12.253 3.444c5.309 1.458 10.745 2.927 15.283 6.045s8.084 8.269 7.735 13.764a8.256 8.256 0 0 1-1.163 3.92c-1.488 2.341-4.38 3.5-5.874 5.836-2.11 3.3-.7 7.787 1.708 10.874 2.408 3.087 5.7 5.42 7.972 8.609 2.272 3.189 3.279 7.879.762 10.878a10.562 10.562 0 0 1-4.074 2.667 28.975 28.975 0 0 1-9.458 2.424c-1.545.462-3.175.752-4.287.979a49.4 49.4 0 0 1-20.935-.617c-5.46-1.262-10.975-3.358-14.766-7.485-6.656-7.247-6.5-18.957-13.241-26.126-3.276-3.483-7.793-5.457-12.025-7.684-5.066-2.666-10.715-13.056-12.043-15.545-1.272-2.383-3.706-7.837-3.723-7.874-.441-.967-.56-6.674-.56-6.674a21.4 21.4 0 0 1-7.036-16.828l.066-1.481a7.506 7.506 0 0 1 11.077-6.267z"/><path fill="url(#p)" d="M1332.975 615.855l2.739 12.735a2.784 2.784 0 0 1-2.181 3.317 2.785 2.785 0 0 1-3.226-1.989l-3.535-12.769a2.786 2.786 0 0 1 2.807-3.526l.8.036a2.783 2.783 0 0 1 2.596 2.196z"/><ellipse cx="1330.478" cy="612.657" fill="#e0e8fc" rx="9.556" ry="6.172" transform="rotate(-84.488 1330.471 612.659)"/><path fill="url(#q)" d="M1369.065 675.231a333.79 333.79 0 0 0-37.36 12.444l-4.966-54.546a5.438 5.438 0 0 1 3.128-5.465l7.579-3.511a5.437 5.437 0 0 1 6.781 1.872c7.262 10.668 26.551 42.716 24.838 49.206z"/><path fill="url(#r)" d="M1343.765 614.669c0 4.836-5.492 6.965-6.767 6.962a3.237 3.237 0 0 1-.749-.016 5.213 5.213 0 0 1-1.941-1.11c-.032-.023-.067-.041-.1-.067-.82-.676-.464-3.778-.162-4.73l.981-3.1a21.4 21.4 0 0 1-11.356-7.93s16.996-14.569 20.094 9.991z"/><path fill="url(#s)" d="M1288.171 690.234L1276 695.592a2.54 2.54 0 0 0-1.318 3.307l.012.029a4 4 0 0 0 5.015 2.23 4 4 0 0 0 2.635-4.38l-.137-.9 6.57-2.893z"/><path fill="url(#t)" d="M1331.236 627.438s-7.7 30.906-47.982 65.255l1.8 2.837s43.16-13.933 64.977-54.545"/><path fill="none" stroke="#3b4970" stroke-miterlimit="10" d="M1334.087 532.438l-14.204 174.134" opacity=".45"/><path fill="#e0e8fc" d="M1436.558 562.875h-94.845v-39.054a2.388 2.388 0 0 1 2.388-2.388h90.07a2.388 2.388 0 0 1 2.388 2.388v39.054zm-94.845 15.252h94.826a7.626 7.626 0 0 0 7.626-7.626 7.626 7.626 0 0 0-7.626-7.626h-94.826a7.626 7.626 0 0 0-7.626 7.626 7.626 7.626 0 0 0 7.626 7.626z"/><path fill="none" stroke="#3b4970" stroke-miterlimit="10" d="M1363.691 706.572l-12.887-174.134m63.529 174.134l12.639-174.134" opacity=".45"/><path d="M1285.151 722.437h207.965v14.188h-207.965z" opacity=".1"/><path fill="none" stroke="#3b4970" stroke-miterlimit="10" d="M1296.453 535.524l-11.302 173.41m196.172-173.41l11.794 173.41" opacity=".45"/><path fill="url(#u)" d="M1389.134 449.728h-136.789l39.414 92.735h194.747l39.416-92.735z"/><path fill="url(#v)" d="M1450.547 846.864H1327.72a27.129 27.129 0 0 1-26.927-23.828l-15.642-127.6h207.966l-15.642 127.6a27.13 27.13 0 0 1-26.928 23.828z"/><path fill="#e0e8fc" d="M1453.973 830.041h-129.679a28.923 28.923 0 0 1-24.214-12.825l.713 5.82a27.129 27.129 0 0 0 26.927 23.828h122.827a27.13 27.13 0 0 0 26.928-23.828l.713-5.82a28.927 28.927 0 0 1-24.215 12.825z"/><rect width="232.196" height="27.005" x="1273.036" y="695.432" fill="#e0e8fc" rx="1.212" ry="1.212"/><path fill="url(#w)" d="M1208.725-20.917c9.7 238.8 123.182 470.645 123.182 470.645h35.35s-43.384-231.845-47.091-470.645c-3.707-238.8 29.664-359.359 68.968-359.359-102.815 0-190.109 120.559-180.409 359.359z"/><path fill="url(#x)" d="M1389.134-380.276c-39.305 0-72.677 120.559-68.969 359.359 3.708 238.8 47.091 470.645 47.091 470.645h43.755s43.383-231.844 47.091-470.645c3.708-238.801-29.664-359.359-68.968-359.359z"/><path fill="url(#y)" d="M1389.134-380.276c39.3 0 72.676 120.559 68.967 359.359-3.709 238.8-47.09 470.645-47.09 470.645h35.349s113.484-231.845 123.183-470.645c9.699-238.8-77.595-359.359-180.409-359.359z"/><path fill="url(#z)" d="M1109.714-20.917c15.023 238.8 190.787 470.645 190.787 470.645h31.406s-113.483-231.845-123.182-470.645c-9.699-238.8 77.594-359.359 180.409-359.359-159.234 0-294.442 120.559-279.42 359.359z"/><path fill="url(#A)" d="M1031.791-20.917c19.211 238.8 243.991 470.645 243.991 470.645h24.718s-175.763-231.845-190.786-470.645c-15.023-238.8 120.182-359.359 279.42-359.359-203.647 0-376.556 120.559-357.343 359.359z"/><path fill="url(#B)" d="M957.9-20.917c23.185 238.8 294.443 470.645 294.443 470.645h23.437S1051 217.883 1031.791-20.917c-19.209-238.8 153.7-359.359 357.343-359.359-245.756 0-454.416 120.559-431.234 359.359z"/><path fill="url(#C)" d="M1389.134-380.276c102.814 0 190.108 120.559 180.409 359.359-9.699 238.8-123.183 470.645-123.183 470.645h31.406s175.764-231.845 190.787-470.645c15.023-238.8-120.18-359.359-279.419-359.359z"/><path fill="url(#D)" d="M1389.134-380.276c159.239 0 294.441 120.559 279.419 359.359-15.022 238.8-190.787 470.645-190.787 470.645h24.719s224.78-231.845 243.991-470.645c19.211-238.8-153.695-359.359-357.342-359.359z"/><path fill="url(#E)" d="M1389.134-380.276c203.647 0 376.555 120.559 357.342 359.359-19.213 238.8-243.991 470.645-243.991 470.645h23.437s271.259-231.845 294.443-470.645c23.184-238.8-185.476-359.359-431.231-359.359z"/><path fill="url(#F)" d="M1270.7 833.744l-14.892-3.456 12.288-23.681s5.148 9.274 5.281 10.033c.133.759-1.667 12.817-1.667 12.817z"/><path fill="url(#G)" d="M1300.965 833.332l15.855 1.134-14.885-29.094.02 21.328z"/><path fill="url(#H)" d="M1273.523 831.99l.87 46.908a1.5 1.5 0 0 0 1.754 1.447l.253-.045a1.5 1.5 0 0 0 1.222-1.253l.517-5.235a1.96 1.96 0 0 1 2.26-1.744 1.5 1.5 0 0 1 1.153 1.493l2.108 40.517a3.493 3.493 0 0 0 4.1 3.372 3.494 3.494 0 0 0 2.888-3.357l-.7-27.982a1.5 1.5 0 0 1 1.84-1.479 1.5 1.5 0 0 1 1.138 1.241l.482 11.232a2.032 2.032 0 0 0 1.962 1.738 2.032 2.032 0 0 0 2.077-2.159l-.435-24.531a1.5 1.5 0 0 1 1.6-1.587l.332.024a1.5 1.5 0 0 1 1.359 1.192l.7 11.22a2.015 2.015 0 0 0 2.322 1.58 2.015 2.015 0 0 0 1.654-2.212l-4.721-54.74a1.5 1.5 0 0 0-1.745-1.3l-23.754 4.164a1.5 1.5 0 0 0-1.236 1.496z"/><path fill="#fbb03b" d="M1298.986 910.037a1.659 1.659 0 0 1-2.963-1.022l-.014-5.4a1.659 1.659 0 0 1 3.318-.008l.014 5.4a1.652 1.652 0 0 1-.355 1.03zm-12.081 18.163a1.659 1.659 0 0 1-2.962-1.022l-.014-5.4a1.659 1.659 0 0 1 3.318-.009l.014 5.4a1.647 1.647 0 0 1-.356 1.031zm-9.471-38.646a1.659 1.659 0 0 1-2.963-1.017l-.017-3.285a1.659 1.659 0 1 1 3.318-.017l.017 3.285a1.651 1.651 0 0 1-.355 1.034z"/><path fill="#fbb03b" d="M1285.316 867.482a3.318 3.318 0 0 1-5.922-1.924l-2.49-64.178a3.317 3.317 0 0 1 6.63-.257l2.491 64.178a3.312 3.312 0 0 1-.709 2.181zm10.225 54.804a3.318 3.318 0 0 1-5.921-1.917l-3.242-78.956a3.318 3.318 0 1 1 6.63-.273l3.242 78.957a3.3 3.3 0 0 1-.709 2.189z" opacity=".31"/><path fill="#00bf7e" d="M1266.465 732.528l18.132-37.23 19.182 40.178-21.092 29.675z"/><g clip-path="url(#I)"><path fill="#fff" d="M1286.465 695.865l-19.353 46.236 2.926 2.957 17.071-48.065z" opacity=".38"/></g><path fill="#00d48e" d="M1267.1 823.3l-.637-90.775s5.4 6.617 17.779 6.454c12.379-.163 19.535-3.471 19.535-3.471l2.781 86.513a19.741 19.741 0 0 1-20.439 20.089 19.741 19.741 0 0 1-19.019-18.81z"/><path fill="url(#J)" d="M1266.732 753.638s18.686 17.82 37.392 1.888l.026-5.1s-16.5 14.543-37.294-1.487z"/><path fill="#fff" d="M1287.845 738.865l3.544 102.783 4.48-1.714-.496-102.006z" opacity=".31"/><path fill="url(#K)" d="M1508.729 833.744l14.891-3.456-12.287-23.681s-5.148 9.274-5.281 10.033c-.133.759 1.667 12.817 1.667 12.817z"/><path fill="url(#L)" d="M1478.467 833.332l-15.854 1.134 14.885-29.094-.021 21.328z"/><path fill="url(#M)" d="M1505.91 831.99l-.87 46.908a1.5 1.5 0 0 1-1.754 1.447l-.254-.045a1.5 1.5 0 0 1-1.221-1.253l-.517-5.235a1.96 1.96 0 0 0-2.26-1.744 1.5 1.5 0 0 0-1.153 1.493l-2.108 40.517a3.493 3.493 0 0 1-4.095 3.372 3.493 3.493 0 0 1-2.888-3.357l.695-27.982a1.5 1.5 0 0 0-1.839-1.479 1.5 1.5 0 0 0-1.138 1.241l-.482 11.232a2.032 2.032 0 0 1-1.963 1.738 2.032 2.032 0 0 1-2.076-2.159l.435-24.531a1.5 1.5 0 0 0-1.6-1.587l-.332.024a1.5 1.5 0 0 0-1.359 1.192l-.7 11.22a2.015 2.015 0 0 1-2.322 1.58 2.015 2.015 0 0 1-1.654-2.212l4.721-54.74a1.5 1.5 0 0 1 1.745-1.3l23.754 4.164a1.5 1.5 0 0 1 1.235 1.496z"/><path fill="#fbb03b" d="M1480.447 910.037a1.659 1.659 0 0 0 2.963-1.022l.014-5.4a1.659 1.659 0 0 0-3.318-.008l-.014 5.4a1.652 1.652 0 0 0 .355 1.03zm12.081 18.163a1.659 1.659 0 0 0 2.962-1.022l.014-5.4a1.659 1.659 0 0 0-3.318-.009l-.014 5.4a1.647 1.647 0 0 0 .356 1.031zm9.472-38.646a1.659 1.659 0 0 0 2.962-1.017l.017-3.285a1.659 1.659 0 1 0-3.318-.017l-.017 3.285a1.652 1.652 0 0 0 .356 1.034z"/><path fill="#fbb03b" d="M1494.117 867.482a3.318 3.318 0 0 0 5.922-1.924l2.49-64.178a3.317 3.317 0 0 0-6.63-.257l-2.491 64.178a3.3 3.3 0 0 0 .709 2.181zm-10.226 54.804a3.318 3.318 0 0 0 5.922-1.917l3.242-78.956a3.318 3.318 0 1 0-6.63-.273l-3.242 78.957a3.3 3.3 0 0 0 .708 2.189z" opacity=".31"/><path fill="#00bf7e" d="M1512.968 732.528l-18.132-37.23-19.183 40.178 21.092 29.675z"/><g clip-path="url(#N)"><path fill="#fff" d="M1492.968 695.865l19.353 46.236-2.927 2.957-17.07-48.065z" opacity=".38"/></g><path fill="#00d48e" d="M1512.331 823.3l.637-90.775s-5.4 6.617-17.779 6.454c-12.379-.163-19.535-3.471-19.535-3.471l-2.781 86.513a19.741 19.741 0 0 0 20.438 20.089 19.743 19.743 0 0 0 19.02-18.81z"/><path fill="url(#O)" d="M1512.7 753.638s-18.687 17.82-37.392 1.888l-.026-5.1s16.5 14.543 37.294-1.487z"/><path fill="#fff" d="M1491.588 738.865l-3.545 102.783-4.479-1.714.495-102.006z" opacity=".31"/></g></svg>