<svg xmlns="http://www.w3.org/2000/svg" xmlns:xlink="http://www.w3.org/1999/xlink" width="1922" height="768" data-name="Layer 2"><defs><linearGradient id="c" x1="507.262" x2="513.595" y1="484.492" y2="490.408" gradientUnits="userSpaceOnUse"><stop offset="0" stop-color="#e0e8fc"/><stop offset="1" stop-color="#a9bcd8"/></linearGradient><linearGradient id="b" x1="489.324" x2="511.647" y1="510.679" y2="510.679" gradientUnits="userSpaceOnUse"><stop offset="0" stop-color="#04a369"/><stop offset="1" stop-color="#00d48e"/></linearGradient><linearGradient id="g" x1="-48.543" x2="50.934" y1="611.477" y2="542.506" gradientTransform="rotate(-57.651 424.542 30.2) scale(.5915)" gradientUnits="userSpaceOnUse"><stop offset=".082" stop-color="#ef605d"/><stop offset="1" stop-color="#783a4f"/></linearGradient><linearGradient id="d" x1="876.234" x2="910.395" y1="1077.625" y2="1077.625" gradientUnits="userSpaceOnUse"><stop offset="0" stop-color="#ef605d"/><stop offset="1" stop-color="#aa3a3d"/></linearGradient><linearGradient id="a" x1="897.442" x2="1016.859" y1="994.439" y2="994.439" gradientUnits="userSpaceOnUse"><stop offset="0" stop-color="#3b4970"/><stop offset="1" stop-color="#2a284b"/></linearGradient><linearGradient id="j" x1="988.232" x2="1057.505" y1="1024.485" y2="1024.485" gradientTransform="matrix(.5915 0 0 .5915 214.353 106.31)" xlink:href="#a"/><linearGradient id="k" x1="996.667" x2="996.667" y1="931.109" y2="883.9" gradientTransform="matrix(.5915 0 0 .5915 214.353 106.31)" xlink:href="#b"/><linearGradient id="l" x1="976.773" x2="1025.424" y1="801.203" y2="801.203" gradientTransform="matrix(.5915 0 0 .5915 214.353 106.31)" xlink:href="#a"/><linearGradient id="m" x1="1003.453" x2="1005.12" y1="852.508" y2="832.508" gradientTransform="rotate(175.234 -109.391 -48.693) scale(.5915)" xlink:href="#c"/><linearGradient id="n" x1="1025.747" x2="981.399" y1="797.766" y2="814.823" gradientTransform="matrix(.5915 0 0 .5915 214.353 106.31)" xlink:href="#a"/><linearGradient id="o" x1="926.774" x2="914.107" y1="832.372" y2="893.038" gradientTransform="rotate(171.051 -111.34 -44.764) scale(.5915)" xlink:href="#a"/><linearGradient id="p" x1="894.653" x2="904.59" y1="876.835" y2="891.741" gradientTransform="matrix(.2023 .55583 .55583 -.2023 72.5 308.95)" xlink:href="#c"/><linearGradient id="q" x1="947.67" x2="942.336" y1="776.534" y2="823.868" gradientTransform="rotate(171.051 -111.34 -44.764) scale(.5915)" xlink:href="#c"/><linearGradient id="r" x1="1009.644" x2="905.644" y1="868.539" y2="885.539" gradientTransform="matrix(.5915 0 0 .5915 214.353 106.31)" xlink:href="#c"/><linearGradient id="s" x1="1017.44" x2="1014.107" y1="850.099" y2="880.766" gradientTransform="matrix(.5915 0 0 .5915 214.353 106.31)" xlink:href="#b"/><linearGradient id="t" x1="43.627" x2="34.489" y1="502.828" y2="468.558" gradientTransform="rotate(-57.651 424.542 30.2) scale(.5915)" gradientUnits="userSpaceOnUse"><stop offset="0" stop-color="#047a69"/><stop offset="1" stop-color="#00d48e"/></linearGradient><linearGradient id="u" x1="90.73" x2="103.676" y1="572.705" y2="606.213" gradientTransform="rotate(-57.651 424.542 30.2) scale(.5915)" xlink:href="#b"/><clipPath id="v"><path fill="none" d="M366.358 450.236l49.215-96.319 48.085 105.886-56.567 76.44z"/></clipPath><linearGradient id="w" x1="378.701" x2="377.201" y1="562.292" y2="650.792" gradientTransform="matrix(.5915 0 0 .5915 214.353 106.31)" xlink:href="#a"/><linearGradient id="x" x1="1170.368" x2="1178.033" y1="369.946" y2="358.68" gradientTransform="scale(-.5915 .5915) rotate(-54.07 637.333 2832.447)" xlink:href="#d"/><linearGradient id="y" x1="775.422" x2="783.088" y1="211.375" y2="200.109" gradientTransform="matrix(-.47911 .34721 .34721 .47911 996.045 89.38)" xlink:href="#d"/><linearGradient id="z" x1="503.011" x2="508.677" y1="498.319" y2="506.819" gradientTransform="matrix(.5915 0 0 .5915 214.353 106.31)" xlink:href="#c"/><linearGradient id="A" x1="650.108" x2="704.96" y1="662.944" y2="662.944" gradientTransform="matrix(.5915 0 0 .5915 214.353 106.31)" xlink:href="#a"/><linearGradient id="B" x1="590.446" x2="524.946" y1="512.213" y2="491.213" gradientTransform="matrix(.5915 0 0 .5915 214.353 106.31)" xlink:href="#b"/><linearGradient id="C" x1="619.87" x2="605.87" y1="506.386" y2="493.886" gradientTransform="rotate(44.924 -235.744 206.076) scale(.5915)" gradientUnits="userSpaceOnUse"><stop offset="0" stop-color="#e0e8fc"/><stop offset=".334" stop-color="#ced9f0"/><stop offset="1" stop-color="#a9bcd8"/></linearGradient><linearGradient id="D" x1="670.474" x2="623.414" y1="557.949" y2="528.411" gradientTransform="matrix(.5915 0 0 .5915 214.353 106.31)" xlink:href="#b"/><linearGradient id="E" x1="564.4" x2="629.548" y1="451.316" y2="451.316" gradientTransform="scale(-.5915 .5915) rotate(-4.93 1932.407 18860.09)" xlink:href="#a"/><linearGradient id="F" x1="523.364" x2="609.746" y1="516.958" y2="535.636" gradientTransform="matrix(.5915 0 0 .5915 214.353 106.31)" xlink:href="#b"/><linearGradient id="G" x1="610.562" x2="765.38" y1="616.893" y2="616.893" gradientTransform="rotate(21.757 285.05 1028.575) scale(.5915)" xlink:href="#a"/><linearGradient id="H" x1="229.915" x2="292.995" y1="487.325" y2="523.752" gradientTransform="matrix(.5915 0 0 .5915 214.353 106.31)" xlink:href="#b"/><linearGradient id="I" x1="325.82" x2="331.487" y1="584.766" y2="593.266" gradientTransform="scale(-.5915 .5915) rotate(-47.55 22.794 1802.27)" xlink:href="#c"/><linearGradient id="J" x1="342.527" x2="340.249" y1="516.542" y2="577.286" gradientTransform="matrix(.5915 0 0 .5915 214.353 106.31)" xlink:href="#b"/><linearGradient id="K" x1="125.042" x2="257.419" y1="629.553" y2="629.553" gradientTransform="matrix(.5915 0 0 .5915 214.353 106.31)" xlink:href="#a"/><linearGradient id="L" x1="47.376" x2="60.494" y1="688.979" y2="688.979" gradientTransform="matrix(.5915 0 0 .5915 214.353 106.31)" xlink:href="#d"/><linearGradient id="M" x1="84.262" x2="227.643" y1="630.341" y2="630.341" gradientTransform="matrix(.5915 0 0 .5915 214.353 106.31)" xlink:href="#a"/><linearGradient id="N" x1="310.143" x2="312.974" y1="525.11" y2="525.11" gradientTransform="matrix(.5915 0 0 .5915 214.353 106.31)" xlink:href="#a"/><linearGradient id="O" x1="310.143" x2="312.974" y1="634.763" y2="634.763" gradientTransform="matrix(.5915 0 0 .5915 214.353 106.31)" xlink:href="#a"/><linearGradient id="P" x1="366.358" x2="369.189" y1="640.83" y2="640.83" gradientTransform="matrix(.5915 0 0 .5915 214.353 106.31)" xlink:href="#a"/><linearGradient id="Q" x1="367.342" x2="370.174" y1="510.942" y2="510.942" gradientTransform="matrix(.5915 0 0 .5915 214.353 106.31)" xlink:href="#a"/><linearGradient id="R" x1="208.098" x2="229.865" y1="604.937" y2="524.976" gradientTransform="matrix(.5915 0 0 .5915 214.353 106.31)" xlink:href="#b"/><linearGradient id="S" x1="181.703" x2="239.136" y1="431.835" y2="431.835" gradientTransform="matrix(.5915 0 0 .5915 214.353 106.31)" xlink:href="#a"/><linearGradient id="T" x1="213.042" x2="213.35" y1="480.301" y2="461.221" gradientTransform="matrix(.5915 0 0 .5915 214.353 106.31)" xlink:href="#c"/><linearGradient id="U" x1="301.118" x2="217.159" y1="576.072" y2="528.984" gradientTransform="matrix(.5915 0 0 .5915 214.353 106.31)" xlink:href="#b"/><linearGradient id="V" x1="347.711" x2="353.378" y1="512.093" y2="520.593" gradientTransform="scale(-.5915 .5915) rotate(-47.55 22.794 1802.27)" xlink:href="#c"/><linearGradient id="W" x1="200.308" x2="233.218" y1="438.596" y2="438.596" gradientTransform="matrix(.5915 0 0 .5915 214.353 106.31)" xlink:href="#a"/><linearGradient id="X" x1="446.875" x2="460.937" y1="642.144" y2="642.144" gradientTransform="matrix(.5915 0 0 .5915 214.353 106.31)" xlink:href="#a"/><linearGradient id="Y" x1="453.677" x2="465.147" y1="576.622" y2="564.312" gradientTransform="matrix(.5915 0 0 .5915 214.353 106.31)" xlink:href="#a"/><linearGradient id="Z" x1="490.631" x2="492.294" y1="492.598" y2="492.598" gradientTransform="matrix(.5915 0 0 .5915 214.353 106.31)" xlink:href="#a"/><linearGradient id="aa" x1="490.631" x2="492.294" y1="536.243" y2="536.243" gradientTransform="matrix(.5915 0 0 .5915 214.353 106.31)" xlink:href="#a"/><linearGradient id="ab" x1="506.86" x2="508.036" y1="484.651" y2="484.651" gradientTransform="matrix(.5915 0 0 .5915 214.353 106.31)" xlink:href="#a"/><linearGradient id="ac" x1="509.285" x2="510.461" y1="528.647" y2="528.647" gradientTransform="matrix(.5915 0 0 .5915 214.353 106.31)" xlink:href="#a"/><linearGradient id="e" x1="507.262" x2="513.595" y1="484.492" y2="490.408" gradientTransform="matrix(.5915 0 0 .5915 214.353 106.31)" gradientUnits="userSpaceOnUse" xlink:href="#c"/><linearGradient id="f" x1="489.324" x2="511.647" y1="510.679" y2="510.679" gradientTransform="matrix(.5915 0 0 .5915 214.353 106.31)" gradientUnits="userSpaceOnUse" xlink:href="#b"/><linearGradient id="h" x1="876.234" x2="910.395" y1="1077.625" y2="1077.625" gradientTransform="matrix(.5915 0 0 .5915 214.353 106.31)" gradientUnits="userSpaceOnUse" xlink:href="#d"/><linearGradient id="i" x1="897.442" x2="1016.859" y1="994.439" y2="994.439" gradientTransform="matrix(.5915 0 0 .5915 214.353 106.31)" gradientUnits="userSpaceOnUse" xlink:href="#a"/></defs><g fill="none" stroke="#3b4970" stroke-miterlimit="10" opacity=".45"><path stroke-width=".5915" d="M534.319 511.03l6.258-9.47-4.098-4.085-9.256 6.138a20.353 20.353 0 0 0-5.064-2.346l-2.255-11.225h-5.779l-2.199 10.953a20.195 20.195 0 0 0-5.193 2.014l-9.465-6.264-4.089 4.096 6.138 9.254a19.87 19.87 0 0 0-2.169 5.064l-11.047 2.255v5.777l10.776 2.2a20.04 20.04 0 0 0 1.924 5.19l-6.31 9.47 4.073 4.086 9.244-6.138a19.97 19.97 0 0 0 5.059 2.192l2.25 11.067h5.777l2.2-10.796a20.017 20.017 0 0 0 5.193-1.937l9.47 6.303 4.085-4.074-6.138-9.244a20.38 20.38 0 0 0 2.366-5.059l11.245-2.25v-5.778l-10.974-2.199a20.24 20.24 0 0 0-2.022-5.193zm-17.808 18.486a8.71 8.71 0 1 1 8.708-8.709 8.71 8.71 0 0 1-8.708 8.709z"/><path stroke-width=".5915" d="M477.054 575.042l-2.91-12.304a22.989 22.989 0 0 0 4.432-4.522l12.793 1.987 2.28-6.173-10.761-6.646a22.839 22.839 0 0 0-.069-6.321l10.462-7.646-2.754-5.974-12.3 2.907a22.947 22.947 0 0 0-4.518-4.43l1.99-12.793-6.173-2.28-6.645 10.761a22.916 22.916 0 0 0-6.317.07l-7.644-10.457-5.974 2.754 2.906 12.295a22.984 22.984 0 0 0-4.437 4.516l-12.795-1.989-2.28 6.174 10.76 6.643a22.908 22.908 0 0 0 .065 6.32l-10.463 7.646 2.753 5.974 12.303-2.908a22.93 22.93 0 0 0 4.518 4.43l-1.99 12.793 6.174 2.28 6.645-10.758a22.947 22.947 0 0 0 6.322-.06l7.648 10.464zm-12.91-21.534a9.923 9.923 0 1 1 4.86-13.164 9.923 9.923 0 0 1-4.86 13.164z"/><path stroke-width=".5915" d="M530.496 615.523l-2.243-12.444a22.987 22.987 0 0 0 4.667-4.275l12.667 2.674 2.609-6.042-10.387-7.216a22.816 22.816 0 0 0 .274-6.314l10.859-7.068-2.426-6.117-12.438 2.242a22.95 22.95 0 0 0-4.273-4.668l2.676-12.667-6.042-2.608-7.217 10.386a22.932 22.932 0 0 0-6.311-.27l-7.069-10.853-6.116 2.425 2.238 12.434a22.993 22.993 0 0 0-4.67 4.27l-12.67-2.678-2.609 6.042 10.387 7.216a22.904 22.904 0 0 0-.277 6.314l-10.858 7.072 2.425 6.116 12.44-2.242a22.932 22.932 0 0 0 4.272 4.669l-2.674 12.665 6.042 2.608 7.216-10.386a22.944 22.944 0 0 0 6.316.281l7.074 10.864zm-11.73-22.198a9.923 9.923 0 1 1 5.56-12.883 9.924 9.924 0 0 1-5.56 12.883z"/></g><path fill="url(#e)" d="M520.091 396.531l-4.837-5.447-1.552 1.402a1.586 1.586 0 0 0-.156 2.189 1.585 1.585 0 0 0 2.234.205l.45-.374 2.948 3.028z"/><path fill="url(#f)" d="M503.788 401.574v24.096l13.204-5.743-1.38-28.843-11.824 5.787"/><path fill="url(#g)" d="M439.012 526.475l-.046 72.485a2.312 2.312 0 0 0 2.668 2.286l.392-.06a2.312 2.312 0 0 0 1.924-1.899l.954-8.072a3.028 3.028 0 0 1 3.542-2.626 2.312 2.312 0 0 1 1.738 2.337l2.058 62.65a5.395 5.395 0 0 0 6.224 5.33 5.396 5.396 0 0 0 4.561-5.1l-.244-43.242a2.312 2.312 0 0 1 2.885-2.229 2.312 2.312 0 0 1 1.721 1.952l.414 17.365a3.14 3.14 0 0 0 2.98 2.743 3.14 3.14 0 0 0 3.272-3.274l.053-37.907a2.312 2.312 0 0 1 2.52-2.403l.51.046a2.312 2.312 0 0 1 2.065 1.882l.754 17.352a3.114 3.114 0 0 0 3.54 2.51 3.114 3.114 0 0 0 2.62-3.368l-5.671-84.697a2.313 2.313 0 0 0-2.658-2.07l-36.815 5.728a2.312 2.312 0 0 0-1.961 2.28z"/><path fill="none" stroke="#fbb03b" stroke-linecap="round" stroke-miterlimit="10" stroke-width="3.549" d="M474.188 637.827l-.138 8.338m-19.06 19.364l-.138 8.337m-13.416-65.054l-.07 5.075"/><path fill="none" stroke="#fbb03b" stroke-linecap="round" stroke-miterlimit="10" stroke-width="7.098" d="M452.212 578.4l-1.947-99.208m13.45 62.105l2.67 122.061" opacity=".31"/><g fill="none" stroke="#3b4970" stroke-miterlimit="10" opacity=".45"><path stroke-width=".5915" d="M591.21 572.874l-32.324 182.475m97.986-182.475L624.55 755.349m32.947-182.475l32.324 182.475M591.6 572.874l32.324 182.475" opacity=".45"/><path stroke-width=".5915" d="M585.55 608.812h78.542m-91.657 70.05H676.27m-108.347 25.465h112.857M563.8 727.607h121.105m-104.61-93.123h88.318m-93.565 23.28h97.292"/></g><path fill="#e0e8fc" d="M752.125 726.88s-1.861 7.114-.866 10.538a43.852 43.852 0 0 1 .98 4.116c.285 1.518.585 2.949.585 2.949a1.722 1.722 0 0 1-1.639 2.033c-5.045.155-17.964.495-18.31-.065-1.624-2.627 5.773-3.503 11.09-5.718 4.913-2.047 3.006-20.758 3.006-20.758z"/><path fill="url(#h)" d="M743.965 740.733c.028-.01.053-.03.081-.043a12.297 12.297 0 0 0 4.344.76 12.628 12.628 0 0 0 3.794-.558l.64 3.59a1.722 1.722 0 0 1-1.639 2.034c-5.045.154-17.964.495-18.31-.065-1.624-2.627 5.718-3.639 11.09-5.718z"/><path fill="url(#i)" d="M745.207 697.08c.2-4.909-.203-15.33 5.985-20.448 9.41-7.78 39.062-16.58 45.554-18.707 8.143-2.668 16.423.296 18.496 6.625 2.072 6.329-1.44 17.031-9.583 19.697-4.96 1.625-24.365 2.847-39.241 2.123a7.288 7.288 0 0 0-7.618 6.285c-1.097 8.285-5.27 25.237-7.153 39.365l-5.056.077s-.355-10.977-.528-13.841c-.31-5.113-.99-17.851-.856-21.175z"/><path fill="url(#j)" d="M825.57 718.42c1.64 3.704 10.75 35.257 14.297 50.5-2.034.629-2.87 1.36-4.862 2.112-6.18-12.087-20.88-38.364-23.638-44.358-4.992-7.453-12.652-50.715-12.471-58.656.194-8.565 7.93-14.61 14.585-14.461 6.655.148 13.094 7.072 12.9 15.638-.126 5.542-1.92 46.72-.81 49.224z"/><path fill="url(#k)" d="M796.523 605.496h20.58a5.56 5.56 0 0 1 5.57 5.397c.224 7.852.735 22.983 1.636 36.664.815 12.383 4.195 23.89 1.883 27.268l-45.419-11.431s10.732-8.05 10.512-24.15c-.15-10.914-.947-22.247-.427-28.538a5.678 5.678 0 0 1 5.665-5.21z"/><path fill="url(#l)" d="M793.467 580.86c-.867-1.749-1.587-3.687-1.282-5.614a5.738 5.738 0 0 1 5.04-4.68c1.775-.147 3.504.558 5.116 1.318 2.467 1.164 4.897 2.506 7.571 3.036 1.916.38 3.898.33 5.81.73 1.91.402 3.857 1.386 4.685 3.155a6.185 6.185 0 0 1 .478 2.827 8.794 8.794 0 0 1-1.483 4.785 14.294 14.294 0 0 1-3.372 3.091 2.16 2.16 0 0 1-.56.33 1.543 1.543 0 0 1-1.693-.773 6.45 6.45 0 0 1-.622-1.905 10.012 10.012 0 0 0-2.566-4.577 3.603 3.603 0 0 0-1.566-1.037c-1.528-.414-2.931.846-4.318 1.61a7.482 7.482 0 0 1-3.645.924c-.984-.007-1.314-.613-1.872.329-.44.744.337 4.39-.833 4.035-1.656-.504-4.183-6.164-4.888-7.585z"/><rect width="5.515" height="19.589" x="-858.582" y="-544.072" fill="url(#m)" rx="2.757" ry="2.757" transform="rotate(-175.235)"/><ellipse cx="-523.588" cy="851.432" fill="#e0e8fc" rx="11.978" ry="7.465" transform="rotate(-85.235)"/><path fill="#e0e8fc" d="M811.52 591.744c-.41 1.985.207 3.792 1.38 4.034 1.172.243 3.003-2.093 3.413-4.08.411-1.989-.754-2.87-1.927-3.113-1.173-.242-2.456 1.173-2.866 3.159z"/><path fill="url(#n)" d="M816.217 589.963l1.343-4.29a5.874 5.874 0 0 0-4.565-6.943s-4.056-.542-5.289-1.091c-1.683-.75-4.238-2.33-6.024-1.88-1.96.496-2.839 5.054-2.839 5.054a8.983 8.983 0 0 0-.582 3.948l-.118 3.733.968-1.86c.442-2.137 2.31-3.012 5.167-2.425l4.693.971c1.642.34 2.49 1.945 2.255 3.605a1.942 1.942 0 0 0 1.53 2.171l.207.043s.051-1.65 1.242-2.237c1.19-.588 2.012 1.2 2.012 1.2z"/><rect width="78.568" height="46.413" x="-884.848" y="-512.502" fill="url(#o)" rx=".872" ry=".872" transform="rotate(-171.051)"/><path fill="url(#p)" d="M751.14 633.938l-12.571-2.276.684-3.604a2.78 2.78 0 0 1 3.138-2.233 2.78 2.78 0 0 1 2.346 3.16l-.15 1.015 7.225 1.653z"/><rect width="57.27" height="33.831" x="-882.575" y="-466.074" fill="url(#q)" rx=".636" ry=".636" transform="rotate(-171.051)"/><path fill="url(#r)" d="M812.634 611.087a.732.732 0 0 1 .024-.153c-5.37 15.925-37.466 19.625-54.278 19.316-3.244 0-6.495-.043-9.774.007a1.788 1.788 0 0 0-.44 3.537c3.246.682 6.517 1.269 9.798 1.902 24.19 4.745 62.58 1.106 67.001-22.801 1.195-8.144-11.135-9.962-12.33-1.809z"/><path fill="url(#s)" d="M805.705 619.086c5.731-4.043 6.735-8.118 6.755-8.214l-.03.184 1.718-3.959s2.523-2.982 7.716-.808c4.147 1.738 3.308 6.637 3.308 6.637-.1.683-1.487 8.765-11.022 15.911 0 .005-9.216-9.207-8.445-9.751z"/><path fill="#00bf7e" d="M460.165 315.653l-.37.722.66-.082zm28.442 62.631l-19.343-42.594-11.06 51.89-25.64-11.768 22.584 47.686z"/><path fill="#00bf7e" d="M469.264 335.69l-8.808-19.397-.661.082-28.741 56.25 1.51 3.187 25.64 11.769z"/><path fill="url(#t)" d="M434.606 529.1l-22.902-5.782 19.682-36.216s7.678 14.478 7.861 15.655c.184 1.177-2.957 19.749-2.957 19.749z"/><path fill="url(#u)" d="M481.363 529.36l24.457 2.222-22.131-45.383-.6 32.946z"/><g clip-path="url(#v)" transform="matrix(.5915 0 0 .5915 214.353 106.31)"><path fill="#fff" d="M420.425 355.492l-52.857 119.777 7.496 7.868 46.984-124.667z" opacity=".38"/></g><path fill="#00d48e" d="M429.351 512.866l1.703-140.24s8.15 10.381 27.272 10.496c19.123.115 30.28-4.784 30.28-4.784l1.733 133.72a30.5 30.5 0 0 1-32.166 30.426 30.5 30.5 0 0 1-28.822-29.618z"/><path fill="#00bf7e" d="M430.842 405.243s28.741 28.079 58.108 4.022l-.1-7.877s-26.027 21.975-57.678-3.402z"/><path fill="#fff" d="M463.893 383.047l2.431 158.875 6.97-2.514 2.256-157.585z" opacity=".31"/><path fill="url(#w)" d="M430.842 405.243a51.18 51.18 0 0 0 14.645 9.6v80.246s-9.353 2.115-15.866-4.512z"/><path fill="url(#x)" d="M622.251 557.43l1.078 5.279a3.549 3.549 0 0 1-1.97 3.922l-5.802 2.721a2.248 2.248 0 0 1-3.124-1.438 2.248 2.248 0 0 1 1.4-2.71l3.49-1.269a2.992 2.992 0 0 0 1.96-3.071l-.222-2.552z"/><path fill="url(#y)" d="M689.82 455.301l5.279-1.076a3.549 3.549 0 0 1 3.922 1.97l2.72 5.802a2.248 2.248 0 0 1-1.44 3.124 2.248 2.248 0 0 1-2.71-1.4l-1.268-3.49a2.992 2.992 0 0 0-3.07-1.96l-2.553.222z"/><path fill="url(#z)" d="M516.635 405.59l-3.672-6.292-1.798 1.07a1.587 1.587 0 0 0-.584 2.118 1.587 1.587 0 0 0 2.151.64l.514-.279 2.296 3.55z"/><path fill="url(#A)" d="M598.892 446.864l18.288 112.958h6.713l7.444-122.76z"/><path fill="url(#B)" d="M581.615 405.183s-39.478 4.027-62.958-10.43l-1.15 2.549s14.67 17.45 57.983 22.625"/><rect width="4.88" height="12.555" x="122.033" y="685.881" fill="url(#C)" rx="2.44" ry="2.44" transform="rotate(-44.924)"/><path fill="url(#D)" d="M577.152 404.171a8.044 8.044 0 0 0-4.346 9.054c2.439 10.58 5.692 26.08 27.162 34.744l17.357-27.15-30.894-15.238a6.748 6.748 0 0 1-1.005-.635 8.05 8.05 0 0 0-8.274-.775z"/><ellipse cx="534.24" cy="440.475" fill="#e0e8fc" rx="6.408" ry="10.943" transform="rotate(-4.913)"/><path fill="url(#E)" d="M593.575 384.911a21.404 21.404 0 0 0 5.867-20.537 11.204 11.204 0 0 0-1.991-4.273c-2.325-2.86-6.522-3.654-10.1-2.774-3.579.88-6.65 3.146-9.427 5.569a81.024 81.024 0 0 0-15.556 18.517c-1.09 1.766-2.143 3.635-2.388 5.696-.245 2.06.505 4.372 2.303 5.408 1.78 1.026 4.058.565 5.903-.336 2.13-1.042 3.396-2.136 5.741-2.204 2.37-.07 4.681.762 7.153.521a21.27 21.27 0 0 0 12.495-5.587z"/><path fill="url(#F)" d="M576.786 411.594s-33.436 16.594-61.301-8.221l-1.972 1.453s21.491 37.48 68.55 21.906"/><path fill="url(#G)" d="M617.325 420.82c12.121 4.85 26.713 34.46 31.712 41.63l43.333-7.511.773 3.46-42.707 23.813a8.183 8.183 0 0 1-9.3-.743l-42.244-33.963z"/><path fill="url(#H)" d="M413.452 408.62l.3 1.959s-33.686 47-77.737-10.789l12.85-9.013c28.933 46.789 64.587 17.842 64.587 17.842z"/><path fill="url(#I)" d="M390.47 447.315l7.122-1.538.423 2.05a1.586 1.586 0 0 1-1.167 1.859 1.586 1.586 0 0 1-1.925-1.155l-.142-.568-4.167.702z"/><path fill="url(#J)" d="M395.8 414.35v70.536l39.335 3.916-.04-83.325z"/><path fill="url(#K)" d="M364.33 457.057c-1.727-9.237-4.633-15.616-13.58-13.942-8.946 1.674-14.798 10.517-13.071 19.754.99 5.296 6.084 20.774 11.937 32.7-15.536 1.313-61.376 6.819-61.3 11.507.087 5.316 59.198 7.565 66.05 7.453 6.852-.112 12.336-4.511 12.25-9.827-.003-.14-.943-40.455-2.287-47.645z"/><path fill="#e0e8fc" d="M247.378 512.475l39.557.04-18.753-8.945-23.796 1.094z"/><path fill="url(#L)" d="M248.056 519.05c-.072-1.878.17-4.31.284-6.691-1.311-2.039-.987-6.675 1.796-8.02-2.968-2.967-6.492-1.483-7.141.696-.758 2.544-.854 11.685-.099 17.078.267 1.909 1.255 3.063 2.037 2.875 1.358-.327 3.225-3.291 3.124-5.938z"/><path fill="url(#M)" d="M348.32 461.775c1.564-9.266 1.035-16.254-7.94-17.769-8.974-1.515-17.517 4.77-19.08 14.036-.925 5.478-1.065 23.321.824 37.308-9 .564-43.61 4.384-57.93 8.44a49.356 49.356 0 0 1 .62 8.842c20.709.296 53.74 1.986 59.154 1.897 1.944-.031 9.377-2.638 11.248-5.917.036-.067.076-.132.11-.199 6.489-11.586 11.785-39.474 12.994-46.638z"/><circle cx="398.64" cy="416.913" r=".838" fill="url(#N)"/><circle cx="398.64" cy="481.773" r=".838" fill="url(#O)"/><circle cx="431.891" cy="485.361" r=".838" fill="url(#P)"/><circle cx="432.474" cy="408.533" r=".838" fill="url(#Q)"/><path fill="url(#R)" d="M340.116 388.137a16.01 16.01 0 0 1 16.385 13.072l11.225 60.462-49.05 3.279 6.152-62.389a16.01 16.01 0 0 1 15.288-14.424z"/><path fill="url(#S)" d="M355.643 354.238c.241-1.651.286-3.406-.429-4.914-.759-1.603-2.272-2.712-3.825-3.567a22.832 22.832 0 0 0-19.203-1.171 4.517 4.517 0 0 0-1.899 1.208c-1.387 1.704-.08 4.251-.417 6.423-.591 3.823-5.796 5.078-7.477 8.565-1.4 2.909.077 6.329 1.621 9.164 1.42 2.607 2.976 5.24 5.324 7.056 2.38 1.84 5.361 2.676 8.261 3.473l2.717-6.29a6.341 6.341 0 0 1 1.775-2.702c1.158-.868 2.75-.839 4.177-.591 1.356.232 3.622 1.173 4.58-.088.869-1.142.385.296.869-1.142 1.215-3.62 3.371-11.622 3.926-15.423z"/><rect width="5.515" height="19.589" x="337.685" y="376.001" fill="url(#T)" rx="2.757" ry="2.757"/><path fill="url(#U)" d="M393.365 446.75v2.794s-54.549 10.055-68.211-49.39l15.674.793c23.07 48.98 52.537 45.803 52.537 45.803z"/><path fill="url(#V)" d="M413.452 408.748l7.121-1.538.424 2.05a1.586 1.586 0 0 1-1.168 1.859 1.587 1.587 0 0 1-1.925-1.155l-.141-.568-4.168.702z"/><ellipse cx="344.836" cy="375.099" fill="#e0e8fc" rx="7.465" ry="11.978"/><path fill="#e0e8fc" d="M338.394 373.8c.244 2.011-.521 3.762-1.71 3.904-1.19.142-2.82-2.335-3.064-4.348-.244-2.013.99-2.797 2.18-2.942 1.188-.144 2.35 1.373 2.594 3.386z"/><path fill="url(#W)" d="M333.861 371.635l-.982-4.386a5.875 5.875 0 0 1 5.126-6.54s4.086-.204 5.361-.65c1.74-.608 4.417-1.971 6.16-1.373 1.912.657 2.408 5.271 2.408 5.271a8.98 8.98 0 0 1 .252 3.983l-.4 3.663-.605-1.867c-.263-2.166-2.052-3.194-4.949-2.842l-4.757.577c-1.665.202-2.642 1.732-2.544 3.405a1.941 1.941 0 0 1-1.704 2.037l-.21.025s.086-1.648-1.05-2.332c-1.138-.685-2.106 1.03-2.106 1.03z"/><rect width="89.456" height="7.478" x="286.935" y="513.842" fill="#e0e8fc" rx="3.739" ry="3.739"/><path fill="none" stroke="#3b4970" stroke-miterlimit="10" stroke-width=".591" d="M372.651 521.32v227.134M290.218 521.32v227.134" opacity=".45"/><rect width="75.695" height="8.059" x="585.551" y="570.342" fill="#e0e8fc" rx="4.029" ry="4.029"/><path fill="url(#X)" d="M478.68 481.773v16.669l8.317-3.032v-21.575l-8.317 2.365z"/><path fill="url(#Y)" d="M482.839 439.883v14.787l3.288-.789v-18.139l-3.288 1.32z"/><path fill="none" stroke="#3b4970" stroke-miterlimit="10" stroke-width=".591" d="M460.133 218.662v119.203" opacity=".45"/><g opacity=".45" transform="matrix(.5915 0 0 .5915 214.353 106.31)"><path fill="none" stroke="#3b4970" stroke-miterlimit="10" d="M-20.873 174.856L4.229 50.236l43.249 125.156 371.635-.276-29.969-35.709H76.867l-29.389 29.39"/><path fill="none" stroke="#3b4970" stroke-miterlimit="10" d="M134.514 175.392v-35.985l-42.239 35.962"/><path fill="none" stroke="#3b4970" stroke-miterlimit="10" d="M176.754 175.392v-35.985l-42.24 35.962m84.479.023v-35.985l-42.239 35.962m84.478.023v-35.985l-42.239 35.962M303.472 175.392v-35.985l-42.24 35.962m84.479.023v-35.985l-42.239 35.962m84.478.023v-35.985l-42.239 35.962"/><circle cx="4.879" cy="51.886" r="9.778" fill="#e0e8fc"/><path fill="none" stroke="#3b4970" stroke-miterlimit="10" d="M4.879 51.886l292.087 87.519"/><rect width="466.084" height="8.068" x="-40.367" y="170.712" fill="#e0e8fc" rx="4.034" ry="4.034"/></g><circle cx="460.133" cy="216.087" r="6.032" fill="#e0e8fc"/><circle cx="505.054" cy="397.682" r=".492" fill="url(#Z)"/><circle cx="505.054" cy="423.498" r=".492" fill="url(#aa)"/><circle cx="514.509" cy="392.982" r=".348" fill="url(#ab)"/><circle cx="515.943" cy="419.005" r=".348" fill="url(#ac)"/></svg>