<svg xmlns="http://www.w3.org/2000/svg" xmlns:xlink="http://www.w3.org/1999/xlink" viewBox="0 0 752 736.5"><defs><path id="a" d="M129.9 471v-30.1s14.3-11.4 19.3-12.7c5-1.4 56.8-8.5 56.8-8.5l35.2-.9 9.8-144.4L239.4 167l-102.8-37L12 156.7-6 197l12 44-12 15 6 18.3L7 448l56.6 30 66.3-7z"/></defs><clipPath id="b"><use overflow="visible" xlink:href="#a"/></clipPath><g clip-path="url(#b)"><path fill="none" stroke="#3a3a3a" stroke-linecap="round" stroke-linejoin="round" stroke-miterlimit="10" stroke-width="10" d="M46 249.9l-24.9 23.3v144.9c0 26.5 46.2 48.1 103.2 48.1s103.2-21.5 103.2-48.1v-145l-21.8-23.3"/><path fill="none" stroke="#3a3a3a" stroke-linecap="round" stroke-linejoin="round" stroke-miterlimit="10" stroke-width="10" d="M29.5 220.4s-.9 16-15.1 31 38.3-3.8 38.3-3.8S61 266.4 85 273.1c24 6.8 38.7-18 38.7-18s16.1 21 38.6 18 34.5-25.8 34.5-25.8l42.7 6.4s-23.9-22-17.9-33.4"/><path fill="none" stroke="#3a3a3a" stroke-linecap="round" stroke-linejoin="round" stroke-miterlimit="10" stroke-width="10" d="M227.6 178.9V209c0 12.2-47.7 22.2-106.6 22.2S14.4 221.2 14.4 209v-30.1"/><ellipse cx="121" cy="178.9" fill="none" stroke="#3a3a3a" stroke-linecap="round" stroke-linejoin="round" stroke-miterlimit="10" stroke-width="10" rx="106.6" ry="22.2"/><path fill="#00c479" d="M72.6 295.4c.4 1 .6 2.1.6 3.3v102.4c0 5.3-4.3 9.6-9.6 9.6s-9.6-4.3-9.6-9.6V298.7c0-1.2.2-2.3.6-3.3H33.8v116.1c0 23.2 40.4 42 90.2 42s90.2-18.8 90.2-42V295.4H72.6z"/></g><defs><path id="c" d="M251 274.3l25.4-24.5 29.4-7.2 49.2-4.3s35.2.1 38.1.3 28 2.2 28 2.2l29.3 9 19.6 6.5 13 10.8 4.4-36.3L513 97l-25.6-83.9L329.6 0 246 13.1 241.2 123l9.8 151.3z"/></defs><clipPath id="d"><use overflow="visible" xlink:href="#c"/></clipPath><g clip-path="url(#d)"><path fill="none" stroke="#3a3a3a" stroke-linecap="round" stroke-linejoin="round" stroke-miterlimit="10" stroke-width="10" d="M294 106.3l-24.9 23.3v144.9c0 26.5 46.2 48.1 103.2 48.1s103.2-21.5 103.2-48.1V129.6l-21.8-23.3"/><path fill="none" stroke="#3a3a3a" stroke-linecap="round" stroke-linejoin="round" stroke-miterlimit="10" stroke-width="10" d="M277.4 76.8s-.9 16-15.1 31c-14.3 15 38.3-3.8 38.3-3.8s8.3 18.8 32.3 25.5c24 6.8 38.7-18 38.7-18s16.1 21 38.6 18 34.5-25.8 34.5-25.8l42.7 6.4s-23.9-22-17.9-33.4"/><path fill="none" stroke="#3a3a3a" stroke-linecap="round" stroke-linejoin="round" stroke-miterlimit="10" stroke-width="10" d="M475.6 35.3v30.1c0 12.2-47.7 22.2-106.6 22.2s-106.6-9.9-106.6-22.2V35.3"/><ellipse cx="368.9" cy="35.3" fill="none" stroke="#3a3a3a" stroke-linecap="round" stroke-linejoin="round" stroke-miterlimit="10" stroke-width="10" rx="106.6" ry="22.2"/><path fill="#00c479" d="M320.6 151.8c.4 1.1.6 2.2.6 3.4v102.4c-.1 5.2-4.4 9.5-9.6 9.5-5.3 0-9.6-4.3-9.6-9.6V155.2c0-1.2.2-2.3.6-3.4h-20.9v116.1c0 23.2 40.4 42 90.2 42 49.8 0 90.2-18.8 90.2-42V151.8H320.6z"/></g><g><defs><path id="e" d="M251 255l51-29 135.8-5.7 51 29.5s17.3 77.7 17.3 78.9-6.6 91.5-6.6 91.5-63.6 1.6-68.6 20.7.1 30.1.1 30.1l15 11.3-8.3 22.4L431 519l31.7-7.2-24.9 23.3L418 572l-75-24.4v-12.5l-30.7-25.9 30.8 4.6-5.8-21.7 5.8-21.1v-30.1l-30.2-15.5-42.5-5.6-19.4-9.1V255z"/></defs><clipPath id="f"><use overflow="visible" xlink:href="#e"/></clipPath><g clip-path="url(#f)"><path fill="none" stroke="#3a3a3a" stroke-linecap="round" stroke-linejoin="round" stroke-miterlimit="10" stroke-width="10" d="M295.3 331.3l-24.9 23.3v144.9c0 26.5 46.2 48.1 103.2 48.1s103.2-21.5 103.2-48.1V354.6L455 331.3"/><path fill="none" stroke="#3a3a3a" stroke-linecap="round" stroke-linejoin="round" stroke-miterlimit="10" stroke-width="10" d="M278.8 301.8s-.9 16-15.1 31c-14.3 15 38.3-3.8 38.3-3.8s8.3 18.8 32.3 25.5c24 6.8 38.7-18 38.7-18s16.1 21 38.6 18 34.5-25.8 34.5-25.8l42.7 6.4s-23.9-22-17.9-33.4"/><path fill="none" stroke="#3a3a3a" stroke-linecap="round" stroke-linejoin="round" stroke-miterlimit="10" stroke-width="10" d="M476.9 260.3v30.1c0 12.2-47.7 22.2-106.6 22.2s-106.6-9.9-106.6-22.2v-30.1"/><ellipse cx="370.3" cy="260.3" fill="none" stroke="#3a3a3a" stroke-linecap="round" stroke-linejoin="round" stroke-miterlimit="10" stroke-width="10" rx="106.6" ry="22.2"/><path fill="#00c479" d="M321.9 376.8c.4 1 .6 2.1.6 3.3v102.4c0 5.3-4.3 9.6-9.6 9.6s-9.6-4.3-9.6-9.6V380.1c0-1.2.2-2.3.6-3.3H283v116.1c0 23.2 40.4 42 90.2 42 49.8 0 90.2-18.8 90.2-42V376.8H321.9z"/></g></g><g><defs><path id="g" d="M500 151.8c-3 2.2 10.5 266.9 10.5 266.9s133.6 1.1 133.7 22.2 0 36.1 0 36.1l54.8 16.2 63-52.3L738.1 141 500 151.8z"/></defs><clipPath id="h"><use overflow="visible" xlink:href="#g"/></clipPath><g clip-path="url(#h)"><path fill="none" stroke="#3a3a3a" stroke-linecap="round" stroke-linejoin="round" stroke-miterlimit="10" stroke-width="10" d="M544.6 251l-24.9 23.3v144.9c0 26.5 46.2 48.1 103.2 48.1s103.2-21.5 103.2-48.1V274.3L704.4 251"/><path fill="none" stroke="#3a3a3a" stroke-linecap="round" stroke-linejoin="round" stroke-miterlimit="10" stroke-width="10" d="M528.1 221.5s-.9 16-15.1 31c-14.3 15 38.3-3.8 38.3-3.8s8.3 18.8 32.3 25.5c24 6.8 38.7-18 38.7-18s16.1 21 38.6 18 34.5-25.8 34.5-25.8l42.7 6.4s-23.9-22-17.9-33.4"/><path fill="none" stroke="#3a3a3a" stroke-linecap="round" stroke-linejoin="round" stroke-miterlimit="10" stroke-width="10" d="M726.2 180v30.1c0 12.2-47.7 22.2-106.6 22.2-58.9 0-106.6-9.9-106.6-22.2V180"/><ellipse cx="619.5" cy="180" fill="none" stroke="#3a3a3a" stroke-linecap="round" stroke-linejoin="round" stroke-miterlimit="10" stroke-width="10" rx="106.6" ry="22.2"/><path fill="#00c479" d="M571.2 296.5c.4 1.1.6 2.2.6 3.4v102.4c-.1 5.2-4.4 9.5-9.6 9.5-5.3 0-9.6-4.3-9.6-9.6V299.9c0-1.2.2-2.3.6-3.4h-20.9v116.1c0 23.2 40.4 42 90.2 42s90.2-18.8 90.2-42V296.5H571.2z"/></g></g><g><path fill="none" stroke="#3a3a3a" stroke-linecap="round" stroke-linejoin="round" stroke-miterlimit="10" stroke-width="10" d="M161.5 511.8l-24.9 23.3V680c0 26.5 46.2 48.1 103.2 48.1S343 706.6 343 680V535.1l-21.8-23.3"/><path fill="none" stroke="#3a3a3a" stroke-linecap="round" stroke-linejoin="round" stroke-miterlimit="10" stroke-width="10" d="M145 482.3s-.9 16-15.1 31c-14.3 15 38.3-3.8 38.3-3.8s8.3 18.8 32.3 25.5c24 6.8 38.7-18 38.7-18s16.1 21 38.6 18 34.5-25.8 34.5-25.8l42.7 6.4s-23.9-22-17.9-33.4"/><path fill="none" stroke="#3a3a3a" stroke-linecap="round" stroke-linejoin="round" stroke-miterlimit="10" stroke-width="10" d="M343.1 440.9V471c0 12.2-47.7 22.2-106.6 22.2s-106.6-9.9-106.6-22.2v-30.1"/><ellipse cx="236.5" cy="440.9" fill="none" stroke="#3a3a3a" stroke-linecap="round" stroke-linejoin="round" stroke-miterlimit="10" stroke-width="10" rx="106.6" ry="22.2"/><path fill="#00c479" d="M188.1 557.3c.4 1.1.6 2.2.6 3.4v102.4c0 5.2-4.3 9.5-9.6 9.5s-9.6-4.3-9.6-9.6V560.7c0-1.2.2-2.3.6-3.4h-20.9v116.1c0 23.2 40.4 42 90.2 42s90.2-18.8 90.2-42V557.3H188.1z"/></g><g><path fill="none" stroke="#3a3a3a" stroke-linecap="round" stroke-linejoin="round" stroke-miterlimit="10" stroke-width="10" d="M462.7 511.8l-24.9 23.3V680c0 26.5 46.2 48.1 103.2 48.1s103.2-21.5 103.2-48.1V535.1l-21.8-23.3"/><path fill="none" stroke="#3a3a3a" stroke-linecap="round" stroke-linejoin="round" stroke-miterlimit="10" stroke-width="10" d="M446.1 482.3s-.9 16-15.1 31c-14.3 15 38.3-3.8 38.3-3.8s8.3 18.8 32.3 25.5c24 6.8 38.7-18 38.7-18s16.1 21 38.6 18 34.5-25.8 34.5-25.8l42.7 6.4s-23.9-22-17.9-33.4"/><path fill="none" stroke="#3a3a3a" stroke-linecap="round" stroke-linejoin="round" stroke-miterlimit="10" stroke-width="10" d="M644.3 440.9V471c0 12.2-47.7 22.2-106.6 22.2s-106.6-9.9-106.6-22.2v-30.1"/><ellipse cx="537.6" cy="440.9" fill="none" stroke="#3a3a3a" stroke-linecap="round" stroke-linejoin="round" stroke-miterlimit="10" stroke-width="10" rx="106.6" ry="22.2"/><path fill="#00c479" d="M489.3 557.3c.4 1.1.6 2.2.6 3.4v102.4c-.1 5.2-4.4 9.5-9.6 9.5-5.3 0-9.6-4.3-9.6-9.6V560.7c0-1.2.2-2.3.6-3.4h-20.9v116.1c0 23.2 40.4 42 90.2 42s90.2-18.8 90.2-42V557.3H489.3z"/></g></svg>