<svg xmlns="http://www.w3.org/2000/svg" width="106.75" height="98.374" viewBox="0 0 106.75 98.374"><defs><style>.a{fill:#2badaa;}</style></defs><g transform="translate(-161 -1973.053)"><g transform="translate(267.693 2018.594)"><path class="a" d="M0,0A8.059,8.059,0,0,0-8.073-6.947H-34.522a2.106,2.106,0,0,1-1.965-2.809,76.193,76.193,0,0,0,4.229-17.866c.535-5.71.118-13.293-5.557-16.361-2.459-1.329-6.391-2.164-9.034-1.016-2.434,1.058-1.6,4.831-1.6,6.911,0,3.147-1.21,6.136-2.145,9.091-2.929,4.152-5.529,8.532-8.472,12.674-2.551,3.591-5.629,8.44-10.194,9.439a4.69,4.69,0,0,0-3.812,4.57V48.177a4.625,4.625,0,0,0,4.593,4.656h46.715a8.049,8.049,0,0,0,8.061-7.005,7.941,7.941,0,0,0-3.588-7.6.021.021,0,0,1,.011-.039h.09a8.048,8.048,0,0,0,8.058-7,7.945,7.945,0,0,0-3.588-7.6.021.021,0,0,1,.011-.039h.09a8.047,8.047,0,0,0,8.061-7.032A7.944,7.944,0,0,0-8.214,8.9h.457A7.886,7.886,0,0,0,0,0"/></g><g transform="translate(185.822 2012.395)"><path class="a" d="M0,0H-20.892a3.956,3.956,0,0,0-3.93,3.983V55.049a3.956,3.956,0,0,0,3.93,3.983H0a3.957,3.957,0,0,0,3.93-3.983V3.983A3.957,3.957,0,0,0,0,0"/></g></g></svg>