<svg xmlns="http://www.w3.org/2000/svg" width="107.168" height="98.374" viewBox="0 0 107.168 98.374"><defs><style>.a{fill:#2badaa;}</style></defs><g transform="translate(106.702 39.496)"><path class="a" d="M0,0-46.919-39.205a1.252,1.252,0,0,0-2.044,1.01v16.707A73.511,73.511,0,0,0-74.917-11.042,70.931,70.931,0,0,0-95.2,8.933a68.456,68.456,0,0,0-10.288,24.848,64.227,64.227,0,0,0,.056,25.1h1.178A56.679,56.679,0,0,1-95.373,38.12,49.616,49.616,0,0,1-80.545,24.09,42.82,42.82,0,0,1-63.232,18.1a38.142,38.142,0,0,1,14.269,1.072V40.214a1.252,1.252,0,0,0,2.044,1.01L0,2.019A1.326,1.326,0,0,0,0,0"/></g></svg>