<svg xmlns="http://www.w3.org/2000/svg" viewBox="0 0 1920 371"><path fill="#ff8308" d="M196.2 180.2l-.7-173.5L361.1 126zM176.5 179.6L11.3 126.7 176.1 7.3zM169.5 195.8L70.2 336 5.5 143zM185.2 202.7l102.6 140-203.5-.3zM203.4 197.1l164.8-54.4L305 336.2z"/><path fill="#d66407" d="M286 342.5c-28.5-43.2-60.3-56.9-82-60.8-23.5-4.2-40.5 1.8-40.7 1.9l-.1-.4c.2-.1 17.3-6.2 40.9-1.9 13.9 2.5 27.2 8 39.7 16.4 15.6 10.5 29.9 25.5 42.5 44.6l-.3.2z"/><path fill="#d66407" d="M286 342.5c-29.1-43-62-59.7-84.4-66.2-24.3-7-41.9-3.8-42.1-3.8l-.1-.4c.2 0 17.9-3.2 42.3 3.8 14.3 4.1 28.1 10.9 41 20.2 16.1 11.6 30.8 27.1 43.7 46.1l-.4.3z"/><path fill="#d66407" d="M286 342.5c-29.1-43-61.6-64.9-83.7-75.7-24-11.7-41.2-13.2-41.4-13.3v-.4c.2 0 17.5 1.6 41.5 13.3 14.1 6.9 27.7 15.9 40.5 26.7 15.9 13.6 30.5 30.1 43.4 49.1l-.3.3z"/><path fill="#d66407" d="M286 342.5c-29.1-43-60.6-67.7-81.8-80.8-23-14.2-39.4-18.4-39.5-18.4l.1-.4c.2 0 16.5 4.2 39.6 18.4 21.3 13.2 52.8 37.9 81.9 80.9l-.3.3z"/><path fill="#d66407" d="M286 342.5c-29.1-43-59.8-69.8-80.4-84.8-22.3-16.2-37.9-22.3-38.1-22.4l.1-.4c.2.1 15.8 6.2 38.2 22.4 20.6 15 51.3 41.9 80.5 84.9l-.3.3z"/><path fill="#d66407" d="M286 342.5c-29.1-43-58.8-72.2-78.5-89.1-21.4-18.3-36-26.6-36.2-26.6l.2-.3c.1.1 14.8 8.3 36.2 26.7 19.7 16.9 49.4 46.1 78.6 89.1l-.3.2z"/><path fill="#d66407" d="M286 342.5c-55.5-82.3-105.9-130-106.4-130.5l.3-.3c.5.5 50.9 48.2 106.5 130.5l-.4.3z"/><path fill="#d66407" d="M286.8 342.5c-29.1-43-57.8-74.1-76.7-92.6-20.5-20-34.2-30-34.3-30.1l.2-.3c.1.1 13.9 10.1 34.4 30.2 18.9 18.5 47.5 49.6 76.7 92.6l-.3.2z"/><path fill="#d66407" d="M286.8 342.5c-29.1-43-62.2-62.7-84.8-71.6-24.5-9.7-42.4-9.2-42.5-9.2v-.4c.2 0 18.1-.5 42.7 9.3 14.4 5.7 28.3 13.8 41.2 24 16.2 12.7 30.9 28.8 43.8 47.8l-.4.1z"/><path fill="#d66407" d="M188.6 309.5c-.2-.1-21.4-8.5-27.6-30.6-5.7-20.2 2.7-45.1 24.9-73.9l.3.2c-22.1 28.7-30.4 53.4-24.8 73.5 6.1 21.9 27.2 30.3 27.4 30.4l-.2.4z"/><path fill="#d66407" d="M180.1 316.8c-.2-.1-16.9-9.8-21.5-31.9-4.7-22.6 4.5-49.4 27.3-79.9l.3.2c-22.7 30.3-31.9 57.1-27.2 79.6 4.6 21.9 21.1 31.5 21.3 31.6l-.2.4z"/><path fill="#d66407" d="M159.3 329.4c-.1-.1-8.5-11.2-9.4-32-.5-12.2 1.6-25.3 6.3-39 5.9-17.1 15.9-35 29.6-53.4l.3.2c-31.1 41.5-36.7 73-35.9 92.2.9 20.7 9.2 31.7 9.3 31.8l-.2.2z"/><path fill="#d66407" d="M148.5 334.3c-.1-.1-5.7-12.4-4-34.4 1-12.9 4.4-26.6 10-40.7 7-17.6 17.5-35.8 31.3-54.2l.3.2c-31.1 41.6-39.6 74.4-41.3 94.6-1.8 21.9 3.9 34.1 3.9 34.3l-.2.2z"/><path fill="#d66407" d="M136.4 336.6c0-.1-2.7-13 2.1-35.6 4.4-20.8 16.2-54.4 47.4-96l.3.2c-31.1 41.5-42.9 75-47.3 95.8-4.8 22.5-2.1 35.4-2.1 35.5l-.4.1z"/><path fill="#d66407" d="M122.8 339.5h-.4c0-.1.9-13.8 9.1-37.1 7.6-21.5 23.2-55.8 54.3-97.4l.3.2c-31.1 41.6-46.7 75.9-54.3 97.3-8.1 23.3-9 36.9-9 37z"/><path fill="#d66407" d="M99.5 341.2l-.3-.2c.3-.6 27.1-56.4 86.7-136l.3.2c-59.7 79.6-86.4 135.4-86.7 136z"/><path fill="#d66407" d="M111.7 340.7l-.4-.1c0-.1 3.6-14.2 14.5-38 10.1-21.9 28.6-56.7 59.7-98.3l.3.2c-31.1 41.6-49.7 76.4-59.7 98.3-10.8 23.7-14.3 37.7-14.4 37.9z"/><path fill="#d66407" d="M170.9 323.6c-.1-.1-11.5-9.9-15.3-29.4-2.2-11.5-1.5-24 2.3-37.2 4.7-16.5 14-34.2 27.8-52.6l.3.2c-31.1 41.5-33.5 71.6-30 89.6 3.8 19.4 15.1 29.1 15.2 29.2l-.3.2z"/><path fill="#d66407" d="M99.2 341.4c-4.4 0-8.9-.1-13.5-.4v-.4c51.6 3.3 81.9-12.8 98.3-26.9 17.7-15.3 23.2-31.5 23.3-31.7l.4.1c-.1.2-5.6 16.5-23.4 31.8-10.4 9-23 15.9-37.2 20.5-14.4 4.7-30.4 7-47.9 7z"/><path fill="#d66407" d="M97.3 341.3c-3.8 0-7.7-.1-11.6-.3v-.4c51.8 2.6 85-12.8 103.7-26.2 20.3-14.5 28.4-29.8 28.5-30l.3.2c-.1.2-8.2 15.6-28.6 30.1-11.9 8.6-25.7 15.2-40.9 19.6-15.6 4.7-32.9 7-51.4 7z"/><path fill="#d66407" d="M98.9 341.3c-4.4 0-8.8-.1-13.2-.3v-.4c51.9 2.6 90-10.8 112.9-22.4 24.8-12.7 37.5-26.1 37.6-26.2l.3.3c-.1.1-12.9 13.6-37.7 26.3-14.6 7.5-30.4 13.2-47.1 17-16.9 3.8-34.6 5.7-52.8 5.7z"/><path fill="#d66407" d="M100.5 341.4c-4.8 0-9.8-.1-14.8-.4v-.4c51.9 2.6 92.7-9 117.8-19.2 27.2-11.1 42.4-22.9 42.5-23l.2.3c-.1.1-15.3 12-42.6 23-22.7 9.3-58.2 19.7-103.1 19.7z"/><path fill="#d66407" d="M102.7 341.4c-5.6 0-11.2-.1-17-.4v-.4c51.9 2.6 94.8-7.3 121.8-16 29.2-9.5 46.3-19.7 46.5-19.8l.2.3c-.2.1-17.3 10.4-46.5 19.9-24.1 7.7-60.7 16.4-105 16.4z"/><path fill="#d66407" d="M107 341.5c-7 0-14.1-.2-21.3-.5v-.4c51.9 2.6 97.4-4.9 126.4-11.7 31.4-7.4 50.9-15.4 51.1-15.5l.1.3c-.2.1-19.6 8.2-51.1 15.5-25 5.9-62.2 12.3-105.2 12.3z"/><path fill="#d66407" d="M129.1 342.1c-14.1 0-28.7-.3-43.4-1.1v-.4c99.3 5 191.7-9.4 192.6-9.5l.1.4c-.8.1-68 10.6-149.3 10.6z"/><path fill="#d66407" d="M112.9 342.3c-9 0-18.3-.2-27.7-.7v-.4c51.9 2.6 99.3-2.8 129.9-7.7 33.2-5.4 54.4-11.5 54.6-11.5l.1.4c-.2.1-21.4 6.2-54.6 11.5-25.1 4.1-61.5 8.4-102.3 8.4z"/><path fill="#d66407" d="M97.5 341.9c-4.1 0-8.1-.1-12.3-.3v-.4c51.8 2.6 87.6-11.9 108.4-24.5 22.6-13.7 33-28.2 33.1-28.3l.3.2c-.1.1-10.6 14.7-33.2 28.4-13.3 8.1-28.1 14.3-44 18.4-16.4 4.4-33.9 6.5-52.3 6.5z"/><path fill="#d66407" d="M193.4 304.7l-22.8-8.4 18.7-15.6 4.1 24zm-22.1-8.5l21.6 8-3.9-22.7-17.7 14.7z"/><path fill="#d66407" d="M182.3 299.4l-1.4-10.6 9.9 4.1-8.5 6.5zm-1-10l1.2 9.3 7.5-5.8-8.7-3.5zM273.1 242.9c0-.2-.5-18.3 10.8-39.5 6.7-12.4 16-23.4 27.9-32.7 14.8-11.6 33.5-20.6 55.6-26.7l.1.4c-49.9 13.7-72.8 39.8-83.2 59.2-11.3 21.1-10.8 39.1-10.8 39.3h-.4z"/><path fill="#d66407" d="M261.8 243.1h-.4c0-.2 2.5-18 16.7-39 8.4-12.3 19.1-23.4 31.9-32.7 16-11.7 35.3-20.9 57.4-27.3l.1.4c-49.9 14.4-75.9 40.5-89 59.8-14.2 20.9-16.7 38.6-16.7 38.8z"/><path fill="#d66407" d="M244.2 235.9l-.3-.1c.1-.2 6.9-16.2 25.5-35.4 10.9-11.3 23.7-21.5 37.9-30.2 17.8-11 38-19.8 60.1-26.1l.1.4c-49.9 14.4-80.7 38.6-97.8 56.3-18.6 19-25.4 35-25.5 35.1z"/><path fill="#d66407" d="M235.7 229.1l-.3-.2c.1-.1 9.1-14.4 29.8-32 19.1-16.2 52.3-38.5 102.3-52.9l.1.4c-49.9 14.4-83.1 36.7-102.1 52.8-20.8 17.5-29.7 31.8-29.8 31.9z"/><path fill="#d66407" d="M228.9 224l-.3-.2c.1-.1 10.8-13.1 33.1-29.4 20.6-15 55.7-35.9 105.6-50.3l.1.4c-49.9 14.4-84.9 35.3-105.5 50.3-22.2 16.1-32.9 29.1-33 29.2z"/><path fill="#d66407" d="M222 217.7l-.3-.3c.1-.1 12.5-11.5 36.6-26.2 22.2-13.5 59.1-32.7 109.1-47.2l.1.4c-49.9 14.4-86.8 33.6-109 47.1-24 14.7-36.4 26.1-36.5 26.2z"/><path fill="#d66407" d="M210.5 205.3l-.2-.3c.6-.3 61.6-33.5 157.1-60.9l.1.4c-95.4 27.3-156.4 60.4-157 60.8z"/><path fill="#d66407" d="M216.8 211.3l-.2-.3c.1-.1 13.9-10.1 39.3-23.4 23.4-12.3 61.9-29.9 111.8-44.3l.1.4c-49.9 14.4-88.3 32.1-111.7 44.3-25.5 13.2-39.2 23.2-39.3 23.3z"/><path fill="#d66407" d="M251.5 239.8l-.4-.1c0-.2 5.1-17.4 22-37.7 9.9-12 21.8-22.7 35.5-31.8 17.1-11.4 36.9-20.5 59-26.9l.1.4c-49.9 14.4-78.8 39.8-94.3 58.5-16.8 20.3-21.9 37.4-21.9 37.6z"/><path fill="#d66407" d="M270.1 243.7h-1.8c-21-.9-42.1-16.5-62.6-46.5l.3-.2c20.4 29.9 41.4 45.5 62.3 46.3 22.7 1 37.2-16.5 37.3-16.6l.3.2c-.1.2-13.9 16.8-35.8 16.8z"/><path fill="#d66407" d="M278.9 248.1c-1.8 0-3.7-.1-5.6-.3-22.9-2.5-45.6-19.5-67.5-50.6l.3-.2c21.8 31 44.5 48 67.3 50.5 22.2 2.4 36.5-10.3 36.7-10.5l.3.3c-.3.1-12.3 10.8-31.5 10.8z"/><path fill="#d66407" d="M302 262.7c-5.3 0-11.9-.7-19.5-2.8-11.8-3.3-23.6-9.3-35.1-18C233 231 219 216 205.8 197.2l.3-.2c29.9 42.4 58.1 57.4 76.5 62.6 19.9 5.6 33 1 33.1 1l.1.4c0-.1-5.1 1.7-13.8 1.7z"/><path fill="#d66407" d="M314.1 272.8c-5.1 0-16.2-.9-31-7-12-5-23.9-12.4-35.6-22.1-14.5-12.1-28.6-27.7-41.8-46.5l.3-.2c29.9 42.4 58.5 60.7 77.2 68.5 20.3 8.5 33.7 6.9 33.8 6.9v.4c.1-.1-.9 0-2.9 0z"/><path fill="#d66407" d="M315.6 284.9c-.1 0-13.2-1.5-33.2-13-18.4-10.6-46.7-32.2-76.7-74.7l.3-.2c29.9 42.5 58.1 64 76.5 74.6 19.9 11.5 33 12.9 33.1 13v.3z"/><path fill="#d66407" d="M314.1 299.1c-.1 0-12.8-5.1-32.4-20.1-18.1-13.9-45.9-39.3-75.9-81.8l.3-.2c29.9 42.5 57.7 67.9 75.8 81.7 19.6 15 32.2 20 32.4 20.1l-.2.3z"/><path fill="#d66407" d="M308.3 321.7c-.4-.4-45.3-43.2-102.6-124.5l.3-.2c57.3 81.3 102.1 124 102.5 124.4l-.2.3z"/><path fill="#d66407" d="M311.7 309.9c-.1-.1-12.4-7.8-31.6-25.5-17.7-16.3-45.1-44.7-75.1-87.2l.3-.2c29.9 42.5 57.3 70.8 75 87.2 19.2 17.7 31.4 25.4 31.6 25.5l-.2.2z"/><path fill="#d66407" d="M288.7 254c-2.4 0-4.9-.1-7.6-.5-11.6-1.4-23.3-6-34.7-13.7-14.3-9.5-28.2-23.9-41.5-42.7l.3-.2c29.9 42.4 57.8 54 75.9 56.2 19.6 2.4 32.4-5.3 32.5-5.4l.2.3c0 .2-9.7 6-25.1 6z"/><path fill="#d66407" d="M304.1 334.5l-.4-.1c19.1-48.1 13.2-81.9 4.8-101.8-9-21.5-22.8-31.8-22.9-31.9l.2-.3c.1.1 14 10.5 23 32.1 5.3 12.7 8 26.7 8 41.7.1 18.7-4.2 39-12.7 60.3z"/><path fill="#d66407" d="M304.1 334.5l-.4-.1c18.5-48.5 14.1-84.8 7.1-106.8-7.5-23.8-19.6-36.2-19.7-36.3l.3-.3c.1.1 12.2 12.6 19.8 36.5 4.4 14 6.5 29.1 6 44.9-.4 19.7-4.9 40.6-13.1 62.1z"/><path fill="#d66407" d="M304.1 334.5l-.4-.1c18.5-48.5 17.6-88.9 13.5-114.3-4.4-27.5-13.3-43.7-13.3-43.9l.3-.2c.1.2 9 16.4 13.4 44 2.6 16.2 3.1 33 1.6 50.1-1.8 21.3-6.9 42.9-15.1 64.4z"/><path fill="#d66407" d="M304.1 334.5l-.4-.1c18.5-48.5 20.1-90.9 18.2-118-2.1-29.3-8.7-47.3-8.7-47.5l.4-.1c.1.2 6.6 18.3 8.7 47.6 2 27 .4 69.5-18.2 118.1z"/><path fill="#d66407" d="M304.1 334.5l-.4-.1c18.5-48.5 22.4-92.5 22.4-120.8 0-30.7-4.5-50.1-4.5-50.3l.4-.1c0 .2 4.5 19.7 4.5 50.4.1 28.3-3.8 72.3-22.4 120.9z"/><path fill="#d66407" d="M304.1 334.5l-.4-.1c18.5-48.5 25.4-94.1 27.9-123.8 2.7-32.2 1-53.2 1-53.4h.4c0 .2 1.7 21.2-1 53.4-2.4 29.7-9.3 75.3-27.9 123.9z"/><path fill="#d66407" d="M304.1 334.5l-.4-.1c35.5-92.9 50.3-185.2 50.5-186.2l.4.1c-.1.9-15 93.3-50.5 186.2z"/><path fill="#d66407" d="M304.6 335.1l-.4-.1c18.5-48.5 28.1-95.3 32.8-125.9 5.1-33.2 5.9-55.3 5.9-55.5h.4c0 .2-.8 22.3-5.9 55.5-4.7 30.7-14.3 77.5-32.8 126z"/><path fill="#d66407" d="M304.6 335.1l-.4-.1c18.5-48.5 15.8-86.9 10.2-110.7-6-25.7-16.6-40.1-16.7-40.3l.3-.2c.1.1 10.7 14.6 16.8 40.4 3.6 15.1 4.9 31.1 3.9 47.6-1.2 20.6-5.9 41.9-14.1 63.3z"/><path fill="#d66407" d="M287.9 239.9l-9-22.6 24.1 3.5-15.1 19.1zm-8.4-22.1l8.5 21.4 14.3-18.1-22.8-3.3z"/><path fill="#d66407" d="M294.4 229.8l-10.6-1.9 7-8.2 3.6 10.1zm-9.8-2.2l9.3 1.7-3.2-8.9-6.1 7.2zM261.3 128c-.2 0-17.6-5.2-34.2-22.5-9.8-10.2-17.3-22.5-22.5-36.6-6.5-17.7-9.2-38.2-8.2-61.1h.4c-2.4 51.7 15.3 81.5 30.6 97.4 16.5 17.2 33.8 22.3 34 22.4l-.1.4z"/><path fill="#d66407" d="M257.9 139.2c-.2-.1-16.4-7.9-32-28-9.2-11.8-16.3-25.4-21.3-40.4-6.2-18.8-9-40-8.2-63h.4c-1.7 51.9 15 84.7 29.4 103.2 15.5 20 31.7 27.8 31.8 27.9l-.1.3z"/><path fill="#d66407" d="M245.6 153.7c-.1-.1-13.3-11.6-25.8-35.2-7.4-13.9-13.1-29.1-17-45.4-4.9-20.3-7-42.3-6.3-65.2h.4c-1.7 51.9 11.7 88.7 23.3 110.4 12.5 23.5 25.6 35 25.7 35.1l-.3.3z"/><path fill="#d66407" d="M236.4 159.7c-.1-.1-10.9-13.1-21.2-38.2-9.5-23.1-20.4-61.7-18.7-113.6h.4c-1.7 51.9 9.2 90.3 18.7 113.4 10.3 25 21.1 38 21.2 38.1l-.4.3z"/><path fill="#d66407" d="M229.4 164.5c-.1-.1-9.2-14.3-17.7-40.6-7.9-24.2-16.9-64-15.2-116h.4c-1.7 51.9 7.3 91.7 15.2 115.9 8.5 26.2 17.6 40.4 17.7 40.5l-.4.2z"/><path fill="#d66407" d="M221.3 169c-.1-.2-7.1-15.5-13.6-42.9-6-25.3-12.9-66.3-11.2-118.3h.4c-1.7 51.9 5.1 92.9 11.2 118.2 6.5 27.4 13.5 42.7 13.6 42.8l-.4.2z"/><path fill="#d66407" d="M205.9 176c-.1-.7-12.8-68.9-9.4-168.2h.4c-3.4 99.2 9.3 167.4 9.4 168.1l-.4.1z"/><path fill="#d66407" d="M213.5 172c-.1-.2-5.3-16.3-10.1-44.6-4.4-26.1-9.3-68.1-7.6-120h.4c-3.2 99.4 17.5 163.8 17.7 164.5l-.4.1z"/><path fill="#d66407" d="M251.5 148c-.1-.1-14.9-10.3-29.1-32.6-8.3-13.1-14.8-27.8-19.3-43.6-5.6-19.8-8.1-41.5-7.3-64.4h.4c-1.7 51.9 13.5 87.3 26.5 107.8 14.1 22.3 28.8 32.4 29 32.5l-.2.3z"/><path fill="#d66407" d="M197.1 178l-.1-.4c34.7-10.2 56-25.3 63.3-44.9 7.9-21.3-4.2-40.5-4.3-40.6l.3-.2c.1.2 12.3 19.5 4.3 41-7.3 19.7-28.7 34.9-63.5 45.1z"/><path fill="#d66407" d="M197.1 178l-.1-.4c36.2-11.2 59.4-27.5 68.8-48.4 9.2-20.4 1.5-37.9 1.4-38.1l.3-.2c.1.2 7.9 17.9-1.4 38.4-9.5 21.1-32.7 37.5-69 48.7z"/><path fill="#d66407" d="M197.1 178l-.1-.4c49.6-15.3 72.6-37.5 83.2-53.5 11.4-17.3 11.2-31.1 11.2-31.2h.4c0 .1.3 14.1-11.2 31.4-6.7 10.2-16.2 19.5-28 27.8-15 10.4-33.6 19.1-55.5 25.9z"/><path fill="#d66407" d="M197.1 178l-.1-.4c49.6-15.3 75.8-36.9 89-52.3 14.3-16.7 17-29.9 17-30l.4.1c0 .1-2.7 13.4-17 30.2-8.4 9.8-19.2 18.9-32 27-16.2 10.1-35.4 18.6-57.3 25.4z"/><path fill="#d66407" d="M197.1 178l-.1-.4c49.6-15.3 78.8-35.5 94.6-49.7 17.1-15.4 22.5-27.4 22.6-27.5l.3.2c-.1.1-5.5 12.1-22.6 27.6-15.9 14.2-45.1 34.5-94.8 49.8z"/><path fill="#d66407" d="M197.1 178l-.1-.4c49.6-15.3 82.4-33.9 101.1-46.8 20.3-14 29-24.5 29.1-24.6l.3.2c-.1.1-8.8 10.6-29.1 24.6-18.9 13-51.7 31.7-101.3 47z"/><path fill="#d66407" d="M197.1 178l-.1-.4c95-29.3 149.5-58.7 150-59l.2.3c-.6.3-55.1 29.8-150.1 59.1z"/><path fill="#d66407" d="M196.8 178.7l-.1-.4c49.6-15.3 85.1-32.6 106.1-44.4 22.7-12.8 33.9-22.1 34-22.2l.2.3c-.1.1-11.3 9.4-34 22.2-21 11.9-56.5 29.2-106.2 44.5z"/><path fill="#d66407" d="M196.8 178.7l-.1-.4c49.6-15.3 69.2-38.3 76.9-54.8 8.3-17.9 4.9-32.4 4.9-32.6l.4-.1c0 .1 3.5 14.8-4.9 32.8-4.9 10.6-12.9 20.3-23.7 28.8-13.5 10.7-31.5 19.6-53.5 26.3z"/><path fill="#d66407" d="M357.8 127.2c-39.8-33-73.8-37.8-95.3-36-23.3 1.9-37.3 11.8-37.5 11.9l-.2-.3c.1-.1 14.3-10 37.6-12 13.7-1.2 27.9.6 42.2 5.3 17.8 5.8 35.8 16.2 53.4 30.8l-.2.3z"/><path fill="#d66407" d="M357.8 127.2c-40.4-32.6-76.3-39.6-99.3-39.8h-.9c-24.4 0-39.7 7.5-39.8 7.5l-.2-.3c.2-.1 15.5-7.6 40-7.6h.8c14.7.1 29.7 2.8 44.6 8.1 18.6 6.6 37.1 17.3 55 31.7l-.2.4z"/><path fill="#d66407" d="M357.8 127.2C317.4 94.6 278.7 83 253.3 79c-27.5-4.3-45.7-.9-45.8-.9l-.1-.4c.2 0 18.4-3.5 46 .9 16.2 2.5 32.4 7.2 48.1 13.9 19.7 8.4 38.7 19.9 56.6 34.3l-.3.4z"/><path fill="#d66407" d="M357.8 127.2C317.4 94.6 277.5 80 251.2 73.5c-28.5-7.1-47.7-6.4-47.9-6.4v-.4c.2 0 19.4-.7 48 6.4 26.4 6.5 66.3 21.2 106.7 53.8l-.2.3z"/><path fill="#d66407" d="M357.8 127.2c-40.4-32.6-81-49.9-107.9-58.6-29.2-9.5-49.1-11.2-49.3-11.3v-.4c.2 0 20.1 1.8 49.3 11.3 27 8.7 67.6 26 108.1 58.7l-.2.3z"/><path fill="#d66407" d="M357.8 127.2C317.4 94.6 276.1 74 248.7 62.4c-29.8-12.5-50.2-17.4-50.4-17.5l.1-.4c.2 0 20.7 4.9 50.5 17.5 27.5 11.6 68.8 32.2 109.2 64.9l-.3.3z"/><path fill="#d66407" d="M357.8 127.2C280.4 64.7 197.2 22.1 196.4 21.7l.2-.3c.8.4 84.1 43.1 161.5 105.6l-.3.2z"/><path fill="#d66407" d="M358.6 126.9C318.2 94.3 276.7 70.8 249 56.8c-30-15.1-50.7-22.7-50.9-22.7l.1-.4c.2.1 20.9 7.6 51 22.8 27.7 14 69.2 37.5 109.7 70.1l-.3.3z"/><path fill="#d66407" d="M358.6 126.9C318.2 94.3 280.8 85.1 256.5 83c-26.3-2.2-43.3 3.4-43.5 3.4l-.1-.4c.2-.1 17.2-5.7 43.6-3.5 15.5 1.3 31.1 5 46.5 11 19.2 7.5 38 18.6 55.9 33l-.3.4z"/><path fill="#d66407" d="M238.8 114.7l10.8-21.8 13.5 20.2-24.3 1.6zm10.8-21.1l-10.2 20.6 23-1.5-12.8-19.1z"/><path fill="#d66407" d="M250.3 113.2l-5.6-9.2 10.7-.3-5.1 9.5zm-4.9-8.8l4.9 8 4.5-8.3-9.4.3zM68.8 137.3c-17.5 0-36.4-3.8-56.1-11.2l.1-.4c48.4 18.2 82.2 10.6 102.1 1 21.5-10.4 31.7-25.3 31.8-25.5l.3.2c-.1.1-10.3 15.1-31.9 25.6-12.7 6.1-26.7 9.5-41.8 10.1-1.5.2-3 .2-4.5.2z"/><path fill="#d66407" d="M74.6 137.8c-19.7 0-40.5-3.9-61.9-11.7l.1-.4c48.8 17.6 85.3 11.9 107.2 3.9 23.8-8.6 36.2-21.5 36.3-21.7l.3.3c-.1.1-12.6 13.1-36.5 21.8-14 5.1-29.2 7.7-45 7.7-.2.1-.3.1-.5.1z"/><path fill="#d66407" d="M92.5 140.9c-5.2 0-10.5-.2-15.9-.6-20.9-1.6-42.4-6.4-64-14.2l.1-.4c48.8 17.6 88 16.3 112.2 12 26.3-4.6 41.2-13.5 41.3-13.6l.2.3c-.1.1-15.1 9-41.4 13.7-10.4 1.9-21.3 2.8-32.5 2.8z"/><path fill="#d66407" d="M109.7 144c-24.6 0-58-3.8-97-17.9l.1-.4c48.8 17.6 88.8 19.1 113.7 17.3 27-2 42.6-8.3 42.8-8.3l.1.4c-.2.1-15.8 6.4-42.9 8.4-5 .3-10.6.5-16.8.5z"/><path fill="#d66407" d="M127.6 147.5c-25.5 0-66.1-3.7-115-21.4l.1-.4c48.8 17.6 89.4 21.3 114.8 21.3h.1c27.6 0 43.8-4.2 44-4.3l.1.4c-.1.1-16.3 4.4-44.1 4.4.1 0 .1 0 0 0z"/><path fill="#d66407" d="M154.7 153.2c-7 0-15.7-.3-26-1.1-25.9-2.1-67.1-8.3-116-25.9l.1-.4c48.8 17.7 90 23.8 115.9 25.9 28.1 2.3 44.8.3 44.9.3v.4c-.1 0-6.8.8-18.9.8z"/><path fill="#d66407" d="M175.6 169.2c-.7-.1-69.5-9.1-162.9-43l.1-.4c93.3 33.9 162.1 42.9 162.8 43v.4z"/><path fill="#d66407" d="M174.1 160.6c-.4 0-17.4 0-45.5-4.2-26.2-3.9-67.6-12.2-116.5-29.8l.1-.4c48.8 17.7 90.3 26 116.4 29.8 28.3 4.2 45.3 4.2 45.5 4.2v.4z"/><path fill="#d66407" d="M82.5 139.7c-2.3 0-4.6 0-6.9-.1-20.6-.8-41.9-5.2-63.5-13l.1-.4c48.8 17.6 87.2 14.1 110.7 8.1 25.5-6.6 39.7-17.4 39.8-17.5l.2.3c-.1.1-14.4 11-40 17.6-12.8 3.3-26.4 5-40.4 5z"/><path fill="#d66407" d="M174.7 178.1h-.4c1-36.2-6.8-61.1-23.1-74.1-17.8-14.1-39.8-8.5-40-8.5l-.1-.4c.2-.1 22.3-5.7 40.3 8.5 16.5 13.2 24.3 38.2 23.3 74.5z"/><path fill="#d66407" d="M174.7 178.1h-.4c.6-37.9-7.8-64.9-24.8-80.4-16.6-15-35.6-13.1-35.8-13.1v-.4c.2 0 19.4-2 36.1 13.2 17.1 15.6 25.5 42.7 24.9 80.7z"/><path fill="#d66407" d="M174.7 178.1h-.4c.8-51.9-13.3-80.6-25.1-95.6-12.9-16.2-26.1-20.2-26.2-20.3l.1-.4c.1 0 13.5 4.1 26.4 20.4 7.6 9.6 13.6 21.4 17.8 35.2 5.2 17.4 7.7 37.8 7.4 60.7z"/><path fill="#d66407" d="M174.7 178.1h-.4c.8-51.9-11.7-83.4-22.2-100.8-11.4-18.8-23.2-25.4-23.3-25.4l.2-.3c.1.1 12 6.7 23.4 25.5 6.7 11.1 12.1 24.1 15.8 38.8 4.6 18.3 6.8 39.3 6.5 62.2z"/><path fill="#d66407" d="M174.7 178.1h-.4c.8-51.9-9.4-85.9-18.1-105.3-9.4-21-19-29.8-19.1-29.9l.3-.3c.1.1 9.8 9 19.2 30.1 8.7 19.3 18.9 53.4 18.1 105.4z"/><path fill="#d66407" d="M174.7 178.1h-.4c.8-51.9-6.8-88.8-13.3-110.6-7-23.6-14.3-35.1-14.4-35.2l.4-.3c.1.1 7.4 11.6 14.4 35.3 6.5 21.9 14.1 58.8 13.3 110.8z"/><path fill="#d66407" d="M174.7 178.1h-.4c1.5-99.4-9.7-160.3-9.8-160.9l.4-.1c.1.6 11.3 61.6 9.8 161z"/><path fill="#d66407" d="M175.3 178.6h-.4c.8-51.9-4.7-91-9.5-114.6-5.1-25.6-10.5-39.1-10.6-39.2l.4-.1c.1.1 5.4 13.6 10.6 39.2 4.8 23.6 10.3 62.7 9.5 114.7z"/><path fill="#d66407" d="M175.3 178.6h-.4c.8-51.9-15-77.6-28.4-90.1C132 75 117.2 73.8 117.1 73.8v-.4c.1 0 15.1 1.3 29.7 14.8 8.5 8 15.3 18.5 20.1 31.4 5.9 16.2 8.8 36 8.4 59z"/><path fill="#d66407" d="M111.7 128.4c-.1-.2-5.1-16.7.2-39.5 3.1-13.4 9.2-26.4 18.1-38.5 11-15.1 26.5-29 45.8-41.3l.2.3C132.3 37.2 117.2 68 112.3 89c-5.3 22.7-.3 39.2-.2 39.3l-.4.1z"/><path fill="#d66407" d="M101.7 132.8c0-.2-2.5-17.4 5.4-41.2 4.6-13.9 11.9-27.4 21.5-39.9 12.1-15.7 27.9-30 47.2-42.5l.2.3c-43.5 28.3-61.3 60.3-68.5 82.2-7.9 23.7-5.4 40.8-5.4 41l-.4.1z"/><path fill="#d66407" d="M82.9 137.4h-.4c0-.2 2.4-18.6 15-43.4 7.4-14.6 16.9-28.6 28.1-41.5 14-16.1 30.9-30.7 50.2-43.2l.2.3C132.5 37.9 109.5 71.1 97.9 94c-12.6 24.8-15 43.2-15 43.4z"/><path fill="#d66407" d="M71.1 137.9l-.4-.1c.1-.2 5.4-18.7 20.9-43.7C106 71 132.3 37.6 175.8 9.2l.2.3c-43.5 28.4-69.7 61.8-84 84.8-15.5 24.9-20.9 43.4-20.9 43.6z"/><path fill="#d66407" d="M61 137.4l-.3-.1c.1-.2 7.9-18.6 26-43.4 16.7-22.9 45.6-56.3 89.2-84.7l.2.3C132.6 37.9 103.6 71.1 87 94c-18.1 24.9-25.9 43.3-26 43.4z"/><path fill="#d66407" d="M48.5 135.9l-.3-.2c.1-.2 11.1-18.2 32.2-42.6 19.5-22.6 51.9-55.4 95.4-83.8l.2.3C132.5 38 100.1 70.8 80.6 93.4c-21.1 24.3-32 42.3-32.1 42.5z"/><path fill="#d66407" d="M25.8 130.5l-.3-.3c.7-.7 67-66.7 150.3-121l.2.3C92.7 63.8 26.4 129.8 25.8 130.5z"/><path fill="#d66407" d="M38.1 132.8l-.3-.2c.1-.2 13.7-17.6 37.4-41.4 21.9-22 57.1-54.3 100.6-82.7l.2.3C132.5 37.1 97.3 69.3 75.5 91.3c-23.7 23.9-37.3 41.3-37.4 41.5z"/><path fill="#d66407" d="M92.2 134.7c0-.2-.1-18.1 10.2-42.5 6-14.3 14.4-28.1 24.8-40.8 13-15.9 29.4-30.4 48.6-42.9l.2.3c-43.5 28.4-63.9 61.1-73.3 83.5-10.2 24.3-10.2 42.2-10.2 42.4h-.3z"/><path fill="#d66407" d="M127.4 118.9l-17.4-17 23.4-6.6-6 23.6zm-16.7-16.8l16.5 16.1 5.7-22.3-22.2 6.2z"/><path fill="#d66407" d="M119.1 110l3-10.3 7.4 7.8-10.4 2.5zm3.2-9.6l-2.7 9 9.2-2.2-6.5-6.8zM69.2 333.6l-.3-.2c31.4-40 34.3-74.1 31.3-95.7-3.3-23.5-14.2-37.6-14.3-37.7l.3-.2c.1.1 11 14.3 14.4 37.8 2 13.8 1 28-3 42.4-4.9 17.8-14.5 35.9-28.4 53.6z"/><path fill="#d66407" d="M70 334.4l-.3-.2c31.9-41 37.1-77.2 35.9-100.4-1.3-25.1-10.3-40.7-10.4-40.9l.3-.2c.1.2 9.1 15.8 10.4 41 .8 14.8-1.2 29.9-5.9 45-5.8 18.8-15.9 37.6-30 55.7z"/><path fill="#d66407" d="M70 334.4l-.3-.2c31.9-41 42.1-78.4 45.1-102.6 3.2-26.2-1.1-43-1.2-43.1l.4-.1c0 .2 4.4 17 1.2 43.3-1.9 15.4-6 31.1-12.2 46.5-7.8 19.1-18.9 38.1-33 56.2z"/><path fill="#d66407" d="M70 334.4l-.3-.2c31.9-41 45.1-78.3 50.6-102.4 5.9-26.1 4.3-42.7 4.3-42.9h.4c0 .2 1.6 16.8-4.3 43-5.5 24.1-18.8 61.5-50.7 102.5z"/><path fill="#d66407" d="M70 334.4l-.3-.2c31.9-41 47.4-78.3 54.8-102.3 8-26.1 8.5-42.6 8.5-42.8h.4c0 .2-.5 16.8-8.5 42.9-7.4 24-23 61.4-54.9 102.4z"/><path fill="#d66407" d="M70 334.4l-.3-.2c31.9-41 49.9-78 59.5-101.8 10.3-25.8 13.1-42.1 13.2-42.3l.4.1c0 .2-2.9 16.5-13.2 42.3-9.6 23.8-27.7 60.9-59.6 101.9z"/><path fill="#d66407" d="M70 334.4l-.3-.2c61.1-78.3 89-140.2 89.2-140.8l.3.2c-.2.5-28.1 62.5-89.2 140.8z"/><path fill="#d66407" d="M70 334.4l-.3-.2c31.9-41 52.1-77.4 63.5-100.8 12.3-25.3 17.1-41.1 17.2-41.2l.4.1c0 .2-4.9 16-17.2 41.3-11.4 23.3-31.7 59.8-63.6 100.8z"/><path fill="#d66407" d="M70 334.4l-.3-.2c31.9-41 39.9-78.1 41-102.1 1.2-25.9-5.2-42.4-5.2-42.6l.4-.1c.1.2 6.5 16.7 5.2 42.7-.7 15.3-3.9 30.8-9.4 46.1-6.9 19.2-17.6 38.1-31.7 56.2z"/><path fill="#d66407" d="M69.4 232H69c0-.2 1.5-23 20.6-35.7 17.5-11.6 43.7-11.3 78 .8l-.1.4c-34.1-12.2-60.2-12.5-77.6-.9-19 12.6-20.5 35.2-20.5 35.4z"/><path fill="#d66407" d="M59.8 226.2l-.4-.1c0-.2 4.1-19.1 23.7-30.3 20-11.4 48.4-11 84.4 1.3l-.1.4c-35.9-12.2-64.2-12.7-84.1-1.3-19.4 11.1-23.4 29.8-23.5 30z"/><path fill="#d66407" d="M41.3 210.5l-.3-.2c.1-.1 8-11.5 27.5-18.8 11.4-4.3 24.6-6.3 39-6 18.1.3 38.2 4.2 60 11.7l-.1.4c-49.1-16.8-80.8-12.3-98.7-5.6-19.4 7.1-27.3 18.4-27.4 18.5z"/><path fill="#d66407" d="M33.3 201.8l-.3-.3c.1-.1 10.1-9.3 31.5-14.4 12.6-3 26.7-4 41.8-3 18.9 1.2 39.5 5.6 61.2 13l-.1.4c-49.1-16.8-83-14.7-102.8-10-21.3 5-31.2 14.2-31.3 14.3z"/><path fill="#d66407" d="M167.4 197.5c-49.1-16.8-84.6-17.6-105.7-15.4-22.9 2.4-34.3 8.9-34.4 9l-.2-.3c.1-.1 11.6-6.6 34.5-9 21.2-2.2 56.7-1.4 105.9 15.4l-.1.3z"/><path fill="#d66407" d="M167.4 197.5c-49.2-16.8-86.6-21-109.3-21.6-24.6-.6-37.8 2.8-37.9 2.8l-.1-.4c.1 0 13.4-3.4 38.1-2.8 22.8.6 60.3 4.8 109.5 21.6l-.3.4z"/><path fill="#d66407" d="M167.4 197.5c-94.1-32.1-155.4-40.4-156-40.4v-.4c.6.1 62 8.3 156.1 40.4l-.1.4z"/><path fill="#d66407" d="M168 197c-49.2-16.8-88-23.6-111.9-26.4-25.9-3-40.4-2.1-40.5-2.1v-.4c.1 0 14.6-1 40.6 2.1 23.9 2.8 62.8 9.6 112 26.4l-.2.4z"/><path fill="#d66407" d="M50.5 219.6l-.4-.1c.1-.1 5.9-14 23.3-23.6 10.2-5.7 22.4-8.8 36.1-9.4 17.2-.7 36.9 2.7 58.6 10.2l-.1.3c-49.1-16.8-78.5-9.7-94.4-.8-17.3 9.6-23 23.3-23.1 23.4z"/><path fill="#d66407" d="M100.8 241.6c-.2 0-17.4-.3-37.5-12.4-11.8-7.1-22.2-16.9-31-29.1C21.4 185 12.9 166 7.2 143.8l.4-.1c12.8 50.1 37.5 74 55.9 85.2 20 12.1 37.1 12.4 37.3 12.4v.3z"/><path fill="#d66407" d="M101.8 252.5c-.2 0-17.3-3-37.5-17.9-11.8-8.7-22.4-19.8-31.3-32.8-11.2-16.3-19.9-35.8-25.8-58l.4-.1c13.5 50.1 38.4 76.9 57 90.6 20.1 14.8 37.2 17.8 37.3 17.8l-.1.4z"/><path fill="#d66407" d="M100.2 272.2c-.2-.1-16.9-8-36.7-27.7-11.6-11.6-21.9-24.9-30.7-39.6-11-18.3-19.6-38.9-25.6-61.1l.4-.1c13.5 50.1 38.1 82.3 56.2 100.4 19.7 19.7 36.4 27.6 36.6 27.6l-.2.5z"/><path fill="#d66407" d="M97 283.5c-.2-.1-16.1-10.9-35.1-33.4C44.4 229.3 20.7 194 7.2 143.8l.4-.1c13.5 50.1 37.2 85.4 54.7 106.1 18.9 22.5 34.8 33.2 35 33.3l-.3.4z"/><path fill="#d66407" d="M93.5 293c-.1-.1-15.2-13.3-33.3-38.1-16.7-22.9-39.4-60.8-52.9-111l.4-.1c13.5 50.1 36.2 88 52.9 110.9 18 24.8 33.1 37.9 33.2 38.1l-.3.2z"/><path fill="#d66407" d="M88.1 304.4c-.1-.2-13.8-16.2-30.6-43.8C42 235 20.8 194 7.2 143.8l.4-.1c13.5 50.1 34.8 91.1 50.2 116.6 16.7 27.6 30.4 43.6 30.5 43.8l-.2.3z"/><path fill="#d66407" d="M75.9 324.2c-.4-.8-42.7-84.3-68.6-180.3l.4-.1c25.9 96 68.2 179.4 68.6 180.3l-.4.1z"/><path fill="#d66407" d="M81.9 313.2c-.1-.2-12.5-18.5-27.9-48.4-14.2-27.6-34-71-47.5-121.2l.4-.1c13.5 50.2 33.3 93.6 47.5 121.2 15.4 29.9 27.7 48.2 27.8 48.3l-.3.2z"/><path fill="#d66407" d="M100.7 262.1c-.2-.1-17.2-5.5-37.3-22.8-11.8-10.2-22.3-22.3-31.2-36.2-11.1-17.3-19.8-37.4-25.8-59.5l.4-.1c13.5 50.1 38.4 79.6 56.8 95.5 20 17.2 37 22.7 37.2 22.7l-.1.4z"/><path fill="#d66407" d="M75 235.1l1-24.3 20.6 13L75 235.1zm1.4-23.6l-.9 23 20.4-10.7-19.5-12.3z"/><path fill="#d66407" d="M85.5 228.9l-8.9-6.1 9.7-4.6-.8 10.7zm-8.1-6l7.8 5.3.7-9.4-8.5 4.1z"/><g><path fill="#ff8308" d="M1906.2 342.7h-16.8l-33.1-32c-4.2-3.8-8-6.7-11.3-8.6-3.4-1.9-6.2-2.9-8.5-2.9-4.1 0-7.1.9-9 2.6-1.9 1.7-2.9 4.3-2.9 7.6 0 2.1.6 3.9 1.9 5.5 1.3 1.6 3 2.9 5.2 3.8 2.2.9 4.6 1.4 7.3 1.4v24.7c-6.2 0-12-1.5-17.2-4.6s-9.4-7.4-12.5-12.9-4.6-11.7-4.6-18.6c0-11.2 2.6-19.7 7.7-25.5 5.1-5.8 12.5-8.7 22-8.7 4.7 0 9.1.9 13.3 2.8 4.2 1.9 8.4 4.5 12.5 7.9 4.1 3.4 9.2 8.1 15.3 14.1l10.8 10.7v-37.8h19.9v70.5zM1888.7 194.7c6.3 3 11 7.1 14.1 12.4 3.2 5.3 4.7 11.5 4.7 18.4 0 7.1-1.6 13.3-4.7 18.6-3.2 5.3-7.9 9.5-14.1 12.4-6.2 3-13.8 4.4-22.8 4.4h-19.3c-9 0-16.6-1.5-22.9-4.4-6.3-3-11-7.1-14.2-12.4-3.2-5.3-4.8-11.5-4.8-18.5s1.6-13.1 4.8-18.5c3.2-5.3 8-9.5 14.2-12.5 6.3-3 13.9-4.5 22.8-4.5h19.3c9.1.2 16.7 1.7 22.9 4.6zm-59.6 23c-2.9 1.9-4.4 4.5-4.4 7.9 0 3.5 1.5 6.2 4.4 8 2.9 1.8 7.7 2.7 14.5 2.7h25.4c6.9 0 11.7-.9 14.5-2.8 2.8-1.8 4.2-4.5 4.2-8.1 0-3.4-1.4-6.1-4.3-7.9-2.8-1.8-7.7-2.7-14.5-2.7h-25.4c-6.7.2-11.5 1.1-14.4 2.9zM1906.2 150.8h-71l5.9 22.5h-19.2l-15.6-45v-2.1h100v24.6zM1809.2 44.4c3-5.4 7.6-9.7 13.8-12.9 6.1-3.2 13.7-4.8 22.8-4.8h9.2c12.2 0 22.3 2.4 30.2 7.3 7.9 4.9 13.7 11.3 17.4 19.4 3.6 8 5.5 16.9 5.5 26.7V82h-20.7v-1.4c0-8.2-1.3-14.8-4-19.8-2.7-4.9-7.5-8-14.5-9 1.8 2.2 3.3 4.7 4.3 7.5 1.1 2.8 1.6 5.6 1.6 8.5 0 6-1.3 11.2-4 15.7s-6.6 7.9-11.7 10.3c-5.1 2.4-11.2 3.6-18.3 3.6-6.5 0-12.5-1.5-18-4.6-5.5-3.1-9.9-7.3-13.2-12.7-3.3-5.4-4.9-11.4-4.9-18 0-6.4 1.5-12.3 4.5-17.7zM1855 55c-.9-1.6-2.1-2.8-3.6-3.7h-10.6c-5.6 0-9.7.9-12.3 2.8-2.6 1.9-3.9 4.6-3.9 8.2 0 2.1.8 4 2.5 5.6 1.7 1.6 3.8 2.8 6.3 3.7 2.5.8 5.1 1.3 7.6 1.3 4.7 0 8.5-1 11.2-3.1 2.8-2 4.2-5 4.2-8.8 0-2.4-.5-4.4-1.4-6z"/></g><g fill="#fff"><path d="M612.3 69c19.6 12.1 35 28.9 46.2 50.5 11.1 21.5 16.7 45.8 16.7 72.9v11.1c0 27.1-5.5 51.3-16.6 72.8-11.1 21.5-26.3 38.3-45.8 50.4-19.5 12.1-41.3 18.2-65.6 18.2h-92.7v-294H545.4c24.9-.1 47.2 6 66.9 18.1zm-10 123c0-26.4-4.8-46.3-14.5-59.9-9.7-13.5-23.8-20.3-42.3-20.3h-19.8V284h21.5c17.7 0 31.3-6.7 40.8-20.2 9.5-13.5 14.3-33.6 14.3-60.4V192zM753.9 204.4c-13.6-7.9-24.8-17.9-33.5-30.2-8.7-12.2-13.1-27-13.1-44.2 0-17 4.7-31.7 14-44.2s22.3-22.1 38.8-28.9c16.5-6.7 35.2-10.1 55.9-10.1 20.2 0 38.2 3.6 54 10.9 15.8 7.3 28.1 17.8 37.1 31.6s13.4 30.3 13.4 49.4h-70.9c0-10-3-17.9-9.1-23.7-6-5.9-14.8-8.8-26.2-8.8-7.6 0-14.2 1.1-19.6 3.4-5.5 2.3-9.6 5.3-12.4 9-2.8 3.7-4.2 7.8-4.2 12.2 0 7.4 4 13.7 12.1 19 8.1 5.3 20.4 10.8 37.1 16.6 30.6 10.5 53.8 23.6 69.5 39.2 15.7 15.6 23.6 35.5 23.6 59.8 0 17.8-4.3 32.9-12.8 45.4s-20.5 22-36 28.5-33.8 9.7-54.7 9.7c-20.5 0-39.6-3.6-57.5-10.8-17.9-7.2-32.4-18.5-43.6-33.8-11.2-15.3-16.8-34.6-16.8-57.7h71.5c0 10.9 1.7 19.5 5.1 25.8 3.4 6.3 8.4 10.8 15.2 13.4 6.7 2.6 15.4 3.9 26.1 3.9 11.1 0 19.2-2.3 24.5-7 5.3-4.6 7.9-10.3 7.9-17.1 0-5.8-1.1-10.7-3.4-14.6-2.3-4-6.8-7.9-13.4-11.8-6.7-3.9-16.6-8.2-29.8-12.9-19-6.8-35.2-14.1-48.8-22zM1165 298.9c-9.8 16-23.3 28.3-40.6 37s-37.3 13-59.9 13c-24.9 0-46.3-5.8-64.2-17.4-17.9-11.6-31.5-28.2-40.8-50-9.3-21.7-14-47.6-14-77.4v-12.3c0-29.6 4.9-55.4 14.6-77.2 9.7-21.9 23.5-38.7 41.2-50.4 17.7-11.7 38.3-17.6 61.7-17.6 23.9 0 44.4 4.6 61.6 13.7 17.2 9.2 30.5 21.8 40 38.1 9.5 16.2 15 34.9 16.7 56h-70.9c-.1-15.9-3.8-27.5-11.1-34.8-7.2-7.3-19.3-11-36.2-11-10.6 0-19.1 2.6-25.6 7.8-6.5 5.2-11.3 13.8-14.6 25.8-3.2 12-4.9 28.4-4.9 49.2v12.7c0 21.5 1.5 38.2 4.5 50.1 3 11.8 7.8 20.2 14.4 25.1 6.6 4.9 15.8 7.4 27.7 7.4 14.6 0 25.8-3.4 33.6-10.3 7.8-6.9 11.7-17.8 11.8-32.9h70.8c-.8 21-6 39.4-15.8 55.4zM1210.9 176c7.7-16.8 19.1-30 34.1-39.5s33.2-14.2 54.4-14.2c21.5 0 39.8 4.7 54.8 14.2 15.1 9.5 26.4 22.6 34.1 39.4 7.7 16.8 11.5 36 11.5 57.6v4.2c0 21.7-3.8 40.9-11.5 57.5-7.7 16.7-19 29.8-34 39.3-15 9.5-33.2 14.2-54.5 14.2-21.4 0-39.6-4.7-54.7-14.2-15.1-9.5-26.5-22.6-34.2-39.3-7.7-16.7-11.5-35.9-11.5-57.5v-4.2c0-21.5 3.8-40.7 11.5-57.5zm63.7 100.7c4.6 9.1 13.1 13.6 25.3 13.6 11.8 0 20.1-4.6 24.8-13.7 4.7-9.2 7.1-22.1 7.1-38.8v-4.2c0-16.4-2.4-29.3-7.1-38.7-4.7-9.4-13.1-14-25.2-14-11.8 0-20.1 4.7-24.8 14.1-4.7 9.4-7.1 22.3-7.1 38.6v4.2c0 16.8 2.3 29.8 7 38.9zM1597 142.5c11.3 13.5 17 35.7 17 66.6v135.7h-68.7V208.9c0-7.8-1-13.8-3.1-18-2.1-4.2-5.1-7-9-8.4-3.9-1.4-9-2.1-15.4-2.1-11.2 0-19.5 4-24.8 12.1v152.2h-68.5V126.3h64.1l2.3 25.2c7-9.6 15.4-16.8 25.4-21.8 9.9-5 21-7.5 33.2-7.5 20.3.1 36.2 6.8 47.5 20.3zM1729.3 126.3h39.7v52.3h-39.7v166.2h-68.7V178.6H1631v-52.3h29.6V110c0-17 3.3-31.4 9.8-43.3 6.5-11.9 15.9-20.9 27.9-27.1 12.1-6.1 26.4-9.2 42.9-9.2 9 0 19.4 1.5 31.1 4.4l.6 55.5c-4.5-1.2-9.6-1.8-15.4-1.8-9 0-16 1.8-20.9 5.5-4.9 3.6-7.3 9-7.3 16v16.3z"/></g></svg>