<svg xmlns="http://www.w3.org/2000/svg" data-name="Layer 1" viewBox="0 0 500 500"><defs><clipPath id="a"><circle cx="250" cy="250" r="250" fill="none"/></clipPath></defs><circle cx="250" cy="250" r="250" fill="#f3e6d5"/><g clip-path="url(#a)"><path fill="#192a51" d="M545.34 453.06c-12.58-.67-26.67 4.21-38.69 1.79-15-3-32.61-27.26-45.61-40.2-25.53-25.41-50.36-45.65-81.75-45.65-11.85 0-26.19 2.42-36.84-5.73-13.54-10.35-21.34-33.72-36.06-44-25.92-18.08-48.18-27.14-77.16-29-25.06-1.6-49.69-8.53-74.14 4s-38 23.26-63.95 15.6c-12-3.54-24.33-4-36-9.24-14.41-6.48-24.63-18.33-40-19.33a371.51 371.51 0 0 0-51.15.28c-.32 1.79 0 3.29-.19 5.09l6 257.56c32.06-10.8 70-2.89 103.25-5.37 24.65-1.83 49.51.09 74.46-1.79 52-3.93 104.22-12.64 156.36-16.08 50.86-3.36 105.9 13.5 155.69-1.31 48.2-14.34 98.36-13.34 146.56-25.8-1.03-27.48-46.6-40.06-60.78-40.82z"/><path fill="#2c3893" d="M248.54 331.92c1.19 5.51.83 10.27-1.95 15.26-4.38 7.91-6.85 3.59-13.1 8.08-4.2 3-3.5 8.54-9.77 10.88-2.49.92-4.37-2-6.56-1.31-3.12 1-4 3.32-6.92 4.64-4.6 2-8.21 5.17-13.75 5.24s-6.72-2.82-11.32-.89c-6.66 2.8-6.6 11.94-14.58 12.77-5.27.54-12.15-4.78-16.67-7.27-11.74 6.47-34.69 17.06-32.14-4.5-10.66.33-17.94 1.29-24-9.72h3c-20.62 9.2-23.42-12.15-37.55-17.56-2.75-1.05-6.28.24-9-1.62-2.88-2-1.35-6.09-4.85-8.26-2.72-1.69-7.53.06-10.85-1.62-3.11-1.57-7.74-6.95-9.53-9.88 1.38-4.64-1.89-7.39-1.45-12.61.29-3.27 2.68-10.86 3.89-13.52 5.48-12.05 17.69-20.26 29.62-24.7 16.93-6.31 39.89-11.7 57.45-10.28 6.81.55 13.92 1.79 20.64 2.43 16 1.53 38.42 2.1 53.82 7.51"/><path fill="#704aad" d="M193.26 487.15c19.14-7 47.21-18.08-2.36-6 55.69-68.94 5.81-16.56-4-6.12 9.47-20.95 31.8-71.75-1.28-13.42 1.08-63.19-3.87-33.91-7-10.36-3.79-19.65-9.46-43.08-7.15 6.47-32-85-5.16 12.93-5.16 12.93-71.29-76.3-8.62 2.16-8.62 2.16-84.39-54.69-5.86 5.91-5.86 5.91-82.27-28.34-3.47 7.94-3.47 7.94-71.28-6.46-3 5.45-3 5.45h31.86l2.8-.28c74.25-7.34 31.98-5.6 13.24-4.68z"/><path fill="#df4994" d="M322.54 451.5S303 413 320 419.79c0 0-.41-29 9.17-31.74 16.7-4.79 34.64 26.05 34.64 26.05 9.59-20.17 15.68 28.72 15.68 28.72 11.77-14.33.74 25.61.74 25.61 16.17-11.69-6.38 28.29-6.38 28.29s-62.32-17.41-36.52-20c.01-.01-34.43-27.9-14.79-25.22z"/><path fill="#192a51" d="M373.86 496.72s-1.7-.47-4.41-1.27c-.6-1.91-1.35-4.28-2.23-7-9.15-2.32-21.22-8.3-21.22-8.3l20 4.39c-1-3.16-2.16-6.69-3.39-10.46-15.11-6.05-32-16.92-32-16.92l29.94 10.66c-1.08-3.24-2.2-6.61-3.36-10.06l-35.91-30.43 33.4 23c-3-8.73-6.12-17.61-9.13-25.74-10.71-6.3-19.8-17.09-19.8-17.09l18.36 13.25a239.74 239.74 0 0 0-9.94-23.46s5.32 8.29 12.92 23.61l5-16.43c-.16 6.69-2.46 15.33-3.62 19.26 3.57 7.33 7.56 16.09 11.7 26.16l8-29.95c0 6.18-3.68 26.12-5.55 35.91q2.15 5.4 4.3 11.24l11.3-16.21a160.16 160.16 0 0 1-9.79 20.39q1.92 5.34 3.82 11l7.66-8c-1.67 3.24-4.57 7.78-6.67 11q1.29 3.94 2.56 8c-1.2 2.13-1.94 3.45-1.94 3.45z"/><path fill="#704aad" d="M419.27 445.77s15.32-40.32-.85-31.81c0 0-2.66-28.86-12.49-30.57-17.1-3-31.67 29.57-31.67 29.57-11.67-19-12.55 30.23-12.55 30.23-13.23-13 2 25.54 2 25.54-17.32-9.92 9.35 27.45 9.35 27.45s60.12-23.93 34.18-23.77c-.02 0 31.28-31.41 12.03-26.64z"/><path fill="#192a51" d="M373 496.18s1.64-.65 4.24-1.73l1.48-7.23c8.86-3.29 20.22-10.51 20.22-10.51l-19.38 6.48c.67-3.25 1.43-6.88 2.26-10.76 14.38-7.62 30-20.22 30-20.22L383.24 466c.73-3.34 1.49-6.82 2.28-10.36L418 421.55 387.23 448c2-9 4.21-18.15 6.35-26.56 10-7.4 17.87-19.1 17.87-19.1l-16.85 15.14a240 240 0 0 1 7.4-24.38s-4.41 8.8-10.34 24.84l-6.72-15.81c.88 6.64 4.08 15 5.65 18.78-2.77 7.66-5.81 16.79-8.86 27.25l-11.09-28.94c.68 6.14 6.43 25.58 9.33 35.12q-1.56 5.6-3.08 11.64l-13-14.92a162.18 162.18 0 0 0 11.89 19.23q-1.33 5.52-2.63 11.38l-8.46-7.14c2 3 5.37 7.25 7.8 10.21q-.87 4.06-1.69 8.26c1.36 2 2.2 3.18 2.2 3.18z"/><path fill="#efb289" d="M212.94 287.26h91.57l-24.27 41.93-66.2 4.41-15.44-38.61 14.34-7.73z"/><path fill="#ffbac3" d="M232.89 156.24h43.49a17.5 17.5 0 0 1 17.5 17.5v56.82a35.58 35.58 0 0 1-35.58 35.58H251a35.58 35.58 0 0 1-35.58-35.58v-56.82a17.5 17.5 0 0 1 17.5-17.5z"/><path fill="#ffbac3" d="M289.06 178a15.32 15.32 0 0 0-15.32-15.32h-38.63A15.32 15.32 0 0 0 219.8 178v30.92h69.26z"/><ellipse cx="254.63" cy="152.88" fill="#192a51" rx="45.98" ry="25.79"/><path fill="#192a51" d="M213.14 151.76c-2.24 0-18.5 36.16 2.25 53.82 0 0-3.93-28.59 12.61-37.84l-8.13-16zM296.08 151.76c2.24 0 18.5 36.16-2.25 53.82 0 0 3.93-28.59-12.61-37.84l8.13-16z"/><rect width="11.21" height="26.91" x="206.41" y="201.1" fill="#efb289" rx="5.08" ry="5.08"/><rect width="11.21" height="26.91" x="293.88" y="201.1" fill="#efb289" rx="5.08" ry="5.08"/><rect width="38.13" height="80.74" x="235.57" y="234.74" fill="#efb289" rx="17.28" ry="17.28"/><path fill="#ffbac3" d="M232.89 156.24h43.49a17.5 17.5 0 0 1 17.5 17.5v56.82a35.58 35.58 0 0 1-35.58 35.58H251a35.58 35.58 0 0 1-35.58-35.58v-56.82a17.5 17.5 0 0 1 17.5-17.5z"/><path fill="#ffbac3" d="M232.89 156.24h43.49a17.5 17.5 0 0 1 17.5 17.5v56.82a35.58 35.58 0 0 1-35.58 35.58H251a35.58 35.58 0 0 1-35.58-35.58v-56.82a17.5 17.5 0 0 1 17.5-17.5z"/><path fill="#efb289" d="M232.57 156.38h43.49a17.5 17.5 0 0 1 17.5 17.5v56.82A35.58 35.58 0 0 1 258 266.27h-7.34a35.58 35.58 0 0 1-35.58-35.58v-56.81a17.5 17.5 0 0 1 17.5-17.5z"/><path fill="#192a51" d="M293.85 190.94l-4.79 44.59a15.32 15.32 0 0 1-15.32 15.32h-38.63a15.32 15.32 0 0 1-15.31-15.32l-4.74-40.38-2.12 53.2a23.47 23.47 0 0 0 23.47 23.47h35.8a23.47 23.47 0 0 0 23.47-23.47z"/><path fill="#192a51" d="M266.21 230.63h-22.52a5.38 5.38 0 0 0-5.38 5.38v13.51a5.38 5.38 0 0 0 5.38 5.38h2.76a5.36 5.36 0 0 1-2.93-4.76v-5.92a5.38 5.38 0 0 1 5.38-5.38H261a5.38 5.38 0 0 1 5.38 5.38v5.92a5.36 5.36 0 0 1-2.93 4.76h2.75a5.38 5.38 0 0 0 5.38-5.38V236a5.38 5.38 0 0 0-5.37-5.37z"/><path fill="#2b3142" d="M261 255.52a5.36 5.36 0 0 0 2.45-.62h-17a5.33 5.33 0 0 0 2.45.62"/><path fill="#efb289" d="M147 277.46s-40.37-22.46-62.79-6.73L126.82 199s26.91 2.25 31.39-15.7l6.73-15.7-24.67-9-24.67 29.15s-87.46 78.49-85.22 94.19c0 0-4.49 20.19 112.14 51.59 6.72 2.24 35.88 2.24 35.88 2.24l6.73-31.4zM356.7 275.71s40.36-22.43 62.79-6.73l-42.61-71.77s-26.91 2.25-31.4-15.69l-6.73-15.7 24.67-9L388.09 186s87.47 78.5 85.23 94.19c0 0 4.48 20.19-112.14 51.59C354.45 334 325.3 334 325.3 334l-6.73-31.4z"/><path fill="#e92232" d="M259.83 309.33s26.47 1.1 32-29.79l72.81-9.38 12.14 66.75-37 11.58s-3.31 33.1-14.9 49.09-1.65 88.81 3.87 96.53-73.92 13.24-73.92 13.24l1.66 1.11s-79.43-5.52-73.92-13.24 15.45-80.54 3.86-96.53-14.89-49.1-14.89-49.1l-37-11.58 12.14-66.74 72.81 9.37c5.51 30.89 32 29.79 32 29.79"/><path fill="#c92035" d="M254.86 349.04l-1.1 44.13-60.68 7.72 60.68-4.41 59.57 9.93-55.16-14.34-3.31-43.03z"/></g></svg>