<svg xmlns="http://www.w3.org/2000/svg" xmlns:xlink="http://www.w3.org/1999/xlink" viewBox="0 0 500 500"><defs><clipPath id="b"><circle cx="250" cy="250" r="250" fill="none"/></clipPath><linearGradient id="a" x1="366.602" x2="379.628" y1="303.983" y2="281.764" gradientUnits="userSpaceOnUse"><stop offset="0" stop-color="#302624" stop-opacity=".5"/><stop offset=".242" stop-color="#302624" stop-opacity=".361"/><stop offset=".995" stop-color="#302624" stop-opacity="0"/></linearGradient><linearGradient id="c" x1="257.598" x2="267.438" y1="316.053" y2="429.915" xlink:href="#a"/><linearGradient id="d" x1="264.201" x2="308.124" y1="241.792" y2="361.766" gradientUnits="userSpaceOnUse"><stop offset="0" stop-color="#cfd4d8"/><stop offset=".326" stop-color="#cfd4d8" stop-opacity=".63"/><stop offset=".652" stop-color="#cfd4d8" stop-opacity=".291"/><stop offset=".884" stop-color="#cfd4d8" stop-opacity=".081"/><stop offset="1" stop-color="#cfd4d8" stop-opacity="0"/></linearGradient><linearGradient id="e" x1="98.834" x2="107.93" y1="146.019" y2="140.926" gradientTransform="matrix(-1 0 0 1 295.632 0)" gradientUnits="userSpaceOnUse"><stop offset="0" stop-color="#f69d7d"/><stop offset=".227" stop-color="#f69d7d" stop-opacity=".929"/><stop offset=".677" stop-color="#f69d7d" stop-opacity=".746"/><stop offset="1" stop-color="#f69d7d" stop-opacity=".6"/></linearGradient><linearGradient id="f" x1="244.175" x2="236.604" y1="98.121" y2="60.874" gradientUnits="userSpaceOnUse"><stop offset="0" stop-color="#f8e8d8" stop-opacity=".2"/><stop offset=".408" stop-color="#f8e8d8" stop-opacity=".13"/><stop offset="1" stop-color="#f8e8d8" stop-opacity="0"/></linearGradient></defs><g data-name="Layer 1"><circle cx="250" cy="250" r="250" fill="#f3e6d5"/><g clip-path="url(#b)"><path fill="#2c3893" d="M10.1 438.772c12.578-.673 26.67 4.208 38.69 1.789 14.966-3.01 32.615-27.259 45.608-40.2 25.531-25.419 50.369-45.658 81.76-45.658 11.843 0 26.182 2.421 36.835-5.722 13.54-10.35 21.339-33.726 36.064-44 25.913-18.078 48.179-27.134 77.16-28.979 25.056-1.6 49.686-8.527 74.135 4.027 24.313 12.482 38.012 23.258 63.949 15.6 11.992-3.542 24.334-3.987 36.03-9.246 14.412-6.481 24.631-18.329 39.961-19.324a371.887 371.887 0 0 1 51.154.27c.318 1.794.014 3.3.185 5.1l-6 257.563c-32.064-10.8-69.984-2.893-103.252-5.367-24.647-1.833-49.515.09-74.457-1.794C355.89 518.9 303.7 510.193 251.55 506.747c-50.856-3.36-105.9 13.506-155.687-1.306C47.66 491.1-2.5 492.1-50.7 479.641c1.045-27.534 46.622-40.111 60.8-40.869z"/><path fill="#898989" d="M53.726 127.038h1.561v32.373h-1.561z"/><path fill="#b7b7b7" d="M49.358 155.974h10.301v6.878H49.358z"/><path fill="#898989" d="M44.615 161.828h19.786v6.878H44.615z"/><path fill="#b7b7b7" d="M36.684 168.248h35.647v6.873H36.684z"/><path fill="#bcbcbc" d="M63.939 303.624H191.94v171.567H63.939z"/><path fill="#273444" d="M72.871 311.979h14.555v16.861H72.871zM91.761 311.979h14.558v16.861H91.761zM110.653 311.979h14.556v16.861h-14.556zM129.544 311.979h14.554v16.861h-14.554zM148.435 311.979h14.555v16.861h-14.555zM167.323 311.979h14.558v16.861h-14.558zM72.871 334.512h14.555v16.856H72.871zM91.761 334.512h14.558v16.856H91.761zM110.653 334.512h14.556v16.856h-14.556zM129.544 334.512h14.554v16.856h-14.554zM148.435 334.512h14.555v16.856h-14.555zM167.323 334.512h14.558v16.856h-14.558zM72.871 357.043h14.555v16.856H72.871zM91.761 357.043h14.558v16.856H91.761zM110.653 357.043h14.556v16.856h-14.556zM129.544 357.043h14.554v16.856h-14.554zM148.435 357.043h14.555v16.856h-14.555zM167.323 357.043h14.558v16.856h-14.558zM72.871 379.572h14.555v16.856H72.871zM91.761 379.572h14.558v16.856H91.761zM110.653 379.572h14.556v16.856h-14.556zM129.544 379.572h14.554v16.856h-14.554zM148.435 379.572h14.555v16.856h-14.555zM167.323 379.572h14.558v16.856h-14.558zM72.871 402.1h14.555v16.859H72.871zM91.761 402.1h14.558v16.859H91.761zM110.653 402.1h14.556v16.859h-14.556zM129.544 402.1h14.554v16.859h-14.554zM148.435 402.1h14.555v16.859h-14.555zM167.323 402.1h14.558v16.859h-14.558zM72.871 424.636h14.555v16.851H72.871zM91.761 424.636h14.558v16.851H91.761zM110.653 424.636h14.556v16.851h-14.556zM129.544 424.636h14.554v16.851h-14.554zM148.435 424.636h14.555v16.851h-14.555zM167.323 424.636h14.558v16.851h-14.558zM72.871 447.167h14.555v16.851H72.871zM91.761 447.167h14.558v16.851H91.761zM110.653 447.167h14.556v16.851h-14.556zM129.544 447.167h14.554v16.851h-14.554zM148.435 447.167h14.555v16.851h-14.555zM167.323 447.167h14.558v16.851h-14.558z"/><path fill="#e7e7e7" d="M187.819 255.593h128.004v207.852H187.819z"/><path fill="#34445b" d="M265.346 265.197h50.478v11.35h-50.478zM240.655 265.197h18.891v11.35h-18.891zM215.647 265.197h18.892v11.35h-18.892zM265.346 286.414h50.478v11.347h-50.478zM240.655 286.414h18.891v11.347h-18.891zM215.647 286.414h18.892v11.347h-18.892zM265.346 307.626h50.478v11.35h-50.478zM240.655 307.626h18.891v11.35h-18.891zM215.647 307.626h18.892v11.35h-18.892zM265.346 328.84h50.478v11.347h-50.478zM240.655 328.84h18.891v11.347h-18.891zM215.647 328.84h18.892v11.347h-18.892zM265.346 350.047h50.478v11.355h-50.478zM240.655 350.047h18.891v11.355h-18.891zM215.647 350.047h18.892v11.355h-18.892zM265.346 371.267h50.478v11.352h-50.478zM240.655 371.267h18.891v11.352h-18.891zM215.647 371.267h18.892v11.352h-18.892zM265.346 392.476h50.478v11.357h-50.478zM240.655 392.476h18.891v11.357h-18.891zM215.647 392.476h18.892v11.357h-18.892zM265.346 413.691h50.478v11.355h-50.478zM240.655 413.691h18.891v11.355h-18.891zM215.647 413.691h18.892v11.355h-18.892zM265.346 434.903h50.478v11.357h-50.478zM240.655 434.903h18.891v11.357h-18.891zM215.647 434.903h18.892v11.357h-18.892z"/><path fill="#adadad" d="M75.659 303.436h28.078l47.484 163.928-86.611 1.859 11.049-165.787z" style="mix-blend-mode:multiply"/><path fill="#e7e7e7" d="M36.708 173.78h44.107v289.665H36.708z"/><path fill="#34445b" d="M48.404 265.197h32.411v11.35H48.404zM48.404 244.246h32.411v11.347H48.404zM48.404 223.296h32.411v11.344H48.404zM48.404 202.342h32.411v11.347H48.404zM48.404 181.391h32.411v11.35H48.404zM48.404 286.414h32.411v11.347H48.404zM48.404 307.626h32.411v11.35H48.404zM48.404 328.84h32.411v11.347H48.404zM48.404 350.047h32.411v11.355H48.404zM48.404 371.267h32.411v11.352H48.404zM48.404 392.476h32.411v11.357H48.404zM48.404 413.691h32.411v11.355H48.404zM48.404 434.903h32.411v11.357H48.404zM35.058 467.444h282.431v117.6H35.058z"/><path fill="#1e2835" d="M135.294 467.444h81.958v117.6h-81.958zM121.318 475.191h7.778v92.821h-7.778zM106.765 475.191h7.776v92.821h-7.776zM92.207 475.191h7.78v92.821h-7.78zM77.652 475.191h7.78v92.821h-7.78zM63.099 475.191h7.776v92.821h-7.776zM48.541 475.191h7.78v92.821h-7.78zM297.846 475.191h7.775v92.821h-7.775zM283.288 475.191h7.777v92.821h-7.777zM268.732 475.191h7.779v92.821h-7.779zM254.18 475.191h7.776v92.821h-7.776zM239.622 475.191h7.777v92.821h-7.777zM225.067 475.191h7.78v92.821h-7.78z"/><path fill="#273444" d="M35.058 467.444h282.431v68.052H35.058z"/><path fill="#d1d1d1" d="M40.089 585.044V472.401h272.522v112.643h9.91V462.488H30.179v122.556h9.91z"/><path fill="#d1d1d1" d="M65.562 462.488h6.808v68.359h-6.808zM96.22 462.488h6.809v68.359H96.22zM126.878 462.488h6.814v68.359h-6.814zM157.534 462.488h6.814v68.359h-6.814zM188.194 462.488h6.814v68.359h-6.814zM218.854 462.488h6.813v68.359h-6.813zM249.512 462.488h6.811v68.359h-6.811zM280.172 462.488h6.813v68.359h-6.813z"/><path fill="#d1d1d1" d="M30.177 497.147h292.344v4.642H30.177z"/><path fill="#ff7577" d="M346.619 373.844s22.189-3.526 34.295-37.079c0 0-31.276 6.041-34.295 37.079z"/><path fill="#fbc0a4" d="M366.079 419.54c-3.474-5.333-7.143-10.525-11.111-15.514-1.8 1.779-3.526 3.485-5.076 5.008-5.45 5.364-9.194 8.986-9.943 9.531-3.53 2.628-19 4.027-18.464 14.324 0 0-3.755 5.614-6.84 10.913-3.083 5.284 10.741 4.036 11.625 9.891s10.42 1.791 12.658 7.552 2.432 5.237 7.442 4.74c4.994-.5 9.491-4.907 9.145-13.448 0 0 10.284-1.674 11.377-11.135.033-.3.052-.6.056-.883.158-7.38-7.875-14.042-.869-20.979z"/><path fill="#f8e8d8" d="M374.928 415.964l-5.13 7.1a50.656 50.656 0 0 1-21.627-18.131l5.554-9.244z"/><path fill="#3e3533" d="M377.218 420.791c-14.543-6.333-29.057-24.161-29.057-24.161l28.893-59.943-46.8-46.024-3.222-64.754c21.136 6.853 101.063 89.379 105.279 108.715 1.508 6.901-55.093 86.167-55.093 86.167z"/><path fill="url(#a)" d="M377.218 420.791c-14.543-6.333-29.057-24.161-29.057-24.161l28.893-59.943-46.8-46.024-3.222-64.754c21.136 6.853 101.063 89.379 105.279 108.715 1.508 6.901-55.093 86.167-55.093 86.167z"/><path fill="#3e3533" d="M200.751 416.763s-12.536 159.946-13.766 174.481-16.571 231.043-16.571 231.043c19.229 7.516 39.931 1.736 39.931 1.736l33.589-218.244 22.116-116.4 7.448-2.065s2.531 141.705 2.583 140.984 3.189 190.271 3.189 190.271c18.62 9.4 44.5-.762 44.5-.762s8.056-185.292 10.324-196.119 2.882-218.677 2.882-218.677z"/><path fill="#302624" d="M196.978 464.85c34.028 9.228 97 17.347 139.748-7.327.073-12.978.127-24.566.166-33.683L199.258 435.8l-2.28 29.05z"/><g data-name="&lt;Group&gt;"><path fill="#330e00" d="M330.049 402.3c-1.065-3.914-1.928-6.374-1.928-6.374l-121.516 4.988s-.428 2.482-1.091 6.723c.6.834 1.091 1.461 1.091 1.461 54.225 22.133 93.495 22.156 123.444-6.798z" data-name="&lt;Path&gt;"/></g><path fill="#3e3533" d="M179.86 298.961l21.3 78.254-10.83 73.112s96.2 36.564 156.569-2.83L334.5 284.115z"/><g data-name="&lt;Group&gt;"><path fill="#3e3533" d="M327.035 225.909c12.893 5.429 23.37 20.658 7.465 58.206l-5.536 115.568s6.177 17.808 2.281 21.586c-29.96 29.058-69.262 29.058-123.55 6.9 0 0-2.857-3.642-3.228-5.106-1.989-7.853 4.641-29.775 4.641-29.775l-30.339-94.324s-29.908-40.7-10.107-55.467c31.152-23.23 107.356-39.066 158.373-17.588z" data-name="&lt;Path&gt;"/></g><path fill="url(#c)" d="M346.9 447.5l-7.2-94.819a187.285 187.285 0 0 0-32.695 55.51 231.274 231.274 0 0 1-81.123-70.291l23.731 63.437c-20.515-24.072-52.848-89.08-73.363-113.152l24.908 89.03-10.828 73.112s96.201 36.564 156.57-2.827z"/><path fill="#302624" d="M283.984 216.265s11.971-.515 14.147.827 7.622 17.067 8.716 19.548-14.547 17.115-14.547 17.115 12.913 21.2 12.372 22.9-23.436 94.368-23.436 94.368-55.512-82.8-56.643-86.911S229.9 258.7 229.9 258.7s-16.438-12.114-17.437-14.756-3.1-19.529 0-21.673c1.907-1.319 12.957-3.8 12.957-3.8z"/><path fill="#f8e8d8" d="M225.423 222.467s17.015 43.907 32 82.57c11.787 30.416 24.8-1.4 24.8-1.4l3.673-87.181c-.814-.057-2.515-.275-3.328-.319z"/><path fill="url(#d)" d="M281.643 244.3c3.406-.805 3.566-11.473 3.566-11.473l.679-16.136c-.036-.082-.071-.163-.108-.244-.849-.067-2.432-.267-3.21-.309l-52.67 5.833c.19.627-1.922 5.017-1.54 6.248 3.05 8.982 12.882 21.9 14.853 22.212 2.316.368 8.2-6.377 9-8.585 1.211 1.09 3.282 4.361 4.493 5.451.643 15.7.073 36.352-.177 55.437l21.306 54.978a72.614 72.614 0 0 0 2 2.521l1.966-46.649-17.821-67.379c1.886-2.581 4.325-4.5 6.211-7.084 3.153 3.064 7.059 5.173 11.452 5.179z"/><path fill="#fbc0a4" d="M269.463 225.022c-5.111 2.951-15.668 4.491-21.405 4.631-8.524.231-5.1-4.755-7.941-5.514l-27.651-63.844 50.018 22.545.116 2.118z" data-name="&lt;Group&gt;"/><path fill="#f69d7d" d="M255.716 205.157a50.171 50.171 0 0 1-15.358-4.477 105 105 0 0 1-13.635-7.464l-14.257-32.921 50.018 22.545.116 2.118 3.626 21.169c-3.501-.348-7.012-.56-10.51-.97z" data-name="&lt;Group&gt;"/><path fill="#e92232" d="M282.225 303.637l-17.8-60.094 7.788-8.745-13.227-8.093-10.113 9.329 9.416 8.337a558.067 558.067 0 0 0-.865 60.662l22.319 57.592z"/><path fill="#f8e8d8" d="M233.108 207.957s20.111 19.257 25.268 18.419 7.85-20.249 7.85-20.249 18.366 5.282 20.611 7.847-3.242 27.7-5.663 28.924c-5.084 2.566-20.4-14.536-23.194-12.355s-10.682 16.789-13.287 16.5-23.313-20.721-22.143-28.232 10.558-10.854 10.558-10.854z" data-name="&lt;Group&gt;"/><path fill="#fbc0a4" d="M165.112 432.638c2.742-5.744 5.7-11.373 8.973-16.841 2.017 1.527 3.954 2.991 5.691 4.3 6.109 4.6 10.3 7.7 11.11 8.14 3.845 2.14 19.363 1.492 20.188 11.77 0 0 4.461 5.071 8.216 9.919 3.752 4.833-10.116 5.413-10.222 11.334s-10.094 3.146-11.555 9.152c-1.473 6.022-1.722 5.511-6.753 5.677s-10.054-3.615-10.835-12.127c0 0-10.415-.307-12.743-9.542a9.5 9.5 0 0 1-.172-.868c-1.127-7.298 5.96-14.959-1.898-20.914z"/><path fill="#f8e8d8" d="M155.869 430.257l6.018 6.359a50.663 50.663 0 0 0 19.055-20.816l-6.723-8.433z"/><path fill="#3e3533" d="M154.234 435.344c13.583-8.192 25.626-27.774 25.626-27.774l-36.527-55.621 40.334-51.781-15-56.674c-24.24 20.155-78.746 93.957-80.381 113.68-.586 7.039 65.948 78.17 65.948 78.17zM201.838 145.422s6.364-.35 9.1-3.695-6.217-30.763-6.217-30.763 8.5-7.35 8.63-17.656-6.7-15.626-17.327-14.975-25.952 14.782-25.952 14.782l7.789 4.01s2.511 23.381 5.835 29.388 18.142 18.909 18.142 18.909z"/><path fill="#3e3533" d="M181.381 99.81c3.118 14.6 13.432 50.656 13.432 50.656l9.173-10.458-4.6-45.069z"/><path fill="#fbc0a4" d="M194.92 125.887s-17.3-3.948-14.9 16.7 17.349 21.064 21.76 21.956c0 0 8.23 36.776 53.6 33.254s37.93-38.651 37.6-61.946 2.267-63.744-27.429-66.725c-29.96-3.003-73.262-1.032-70.631 56.761z"/><path fill="url(#e)" d="M185.924 135.1c-1.579 5.465.662 11.227 2.865 16.472a8.921 8.921 0 0 0 2.774 4.158c1.4.953 3.674.808 4.407-.715.709-1.473-.339-3.133-1.157-4.549s-1.281-3.54.094-4.425c.639-.412 1.478-.377 2.151-.733 1.464-.773 1.454-2.862 1.077-4.475a25.062 25.062 0 0 0-2.459-6.394c-1.087-1.968-2.8-3.981-5.051-3.943-2.351.04-4.048 2.345-4.701 4.604z"/><path fill="#3e3533" d="M194.92 125.887s7.113 5.232 9.066 16.8h5.229V122.7s15.828-4.355 9.824-27.608-29.57-.156-29.57-.156z"/><path fill="#3e3533" d="M240.084 89.192a39.747 39.747 0 0 1-38.062 2.6c-21.173-9.587-21.074-23.75-21.074-23.75s18.528-.736 31.1-14.689 49.215-28.113 76.853-8.94 18.947 47.306 2.39 52.053-25.93-6.746-30.118-4.208-10.789 5.285-21.089-3.066z"/><path fill="url(#f)" d="M299.149 53.749a45.877 45.877 0 0 0-6.072-6.127 189.875 189.875 0 0 1-108.642 30.167 28.89 28.89 0 0 0 2.54 3.385 66.99 66.99 0 0 0-9.091 5.639 130.252 130.252 0 0 0 48.045 2.616 131.048 131.048 0 0 0 73.22-35.68z"/><path fill="#df4994" d="M374.469 420.979s-19.513-38.471-2.532-31.715c0 0-.416-28.982 9.169-31.734 16.695-4.793 34.639 26.043 34.639 26.043 9.585-20.173 15.677 28.727 15.677 28.727 11.776-14.337.743 25.61.743 25.61 16.172-11.7-6.383 28.289-6.383 28.289s-62.319-17.414-36.515-20.011c0 .002-34.443-27.888-14.798-25.209z"/><path fill="#192a51" d="M425.782 466.2s-1.7-.473-4.4-1.273c-.6-1.907-1.355-4.284-2.234-7.038-9.153-2.327-21.222-8.3-21.222-8.3l19.963 4.393a1583.29 1583.29 0 0 0-3.4-10.464c-15.111-6.052-32-16.924-32-16.924l29.94 10.669c-1.075-3.249-2.2-6.62-3.361-10.06l-35.908-30.44 33.4 23.045c-2.989-8.732-6.116-17.607-9.131-25.737-10.7-6.305-19.8-17.1-19.8-17.1l18.356 13.256a239.353 239.353 0 0 0-9.936-23.463s5.318 8.286 12.915 23.609l5-16.429c-.163 6.684-2.463 15.325-3.617 19.263a457.786 457.786 0 0 1 11.7 26.157l7.955-29.951c-.026 6.178-3.681 26.119-5.545 35.912q2.136 5.4 4.293 11.243l11.3-16.212a161.149 161.149 0 0 1-9.781 20.386q1.917 5.346 3.82 11.035l7.659-7.994c-1.677 3.239-4.572 7.784-6.672 10.985q1.293 3.942 2.556 8.034c-1.107 2.08-1.85 3.398-1.85 3.398z"/><path fill="#704aad" d="M471.191 415.247s15.321-40.325-.846-31.805c0 0-2.664-28.86-12.488-30.578-17.105-3-31.676 29.569-31.676 29.569-11.671-19.04-12.543 30.229-12.543 30.229-13.23-13.006 1.981 25.546 1.981 25.546-17.321-9.917 9.348 27.453 9.348 27.453s60.116-23.931 34.183-23.773c0 0 31.294-31.388 12.041-26.641z"/><path fill="#192a51" d="M424.967 465.661s1.637-.652 4.243-1.737c.394-1.956.893-4.4 1.476-7.231 8.854-3.288 20.219-10.51 20.219-10.51l-19.385 6.489c.679-3.259 1.438-6.885 2.267-10.765 14.383-7.621 30.019-20.224 30.019-20.224l-28.638 13.788a1697.19 1697.19 0 0 1 2.275-10.362l32.479-34.08-30.769 26.459c2.045-9 4.212-18.152 6.348-26.559 9.977-7.406 17.873-19.1 17.873-19.1l-16.846 15.129a238.922 238.922 0 0 1 7.392-24.385s-4.41 8.806-10.34 24.844l-6.72-15.806c.872 6.632 4.076 14.982 5.64 18.773a460.05 460.05 0 0 0-8.856 27.25L422.559 388.7c.681 6.137 6.426 25.577 9.322 35.119q-1.555 5.59-3.077 11.635l-12.956-14.92a161.375 161.375 0 0 0 11.888 19.23q-1.336 5.526-2.628 11.379L416.644 444c2.011 3.046 5.373 7.258 7.8 10.218q-.867 4.053-1.691 8.257a199.989 199.989 0 0 0 2.214 3.186z"/></g></g></svg>