<svg xmlns="http://www.w3.org/2000/svg" data-name="Layer 1" viewBox="0 0 500 500"><defs><clipPath id="a"><circle cx="250" cy="250" r="250" fill="none"/></clipPath></defs><circle cx="250" cy="250" r="250" fill="#f3e6d5"/><g clip-path="url(#a)"><path fill="#192a51" d="M11.846 429.156c12.578-.672 26.67 4.209 38.69 1.79 14.966-3.011 32.615-27.259 45.609-40.2 25.53-25.418 50.368-45.658 81.759-45.658 11.843 0 26.182 2.422 36.835-5.722 13.54-10.35 21.34-33.725 36.064-44 25.913-18.077 48.179-27.133 77.161-28.978 25.055-1.6 49.685-8.527 74.134 4.026 24.313 12.483 38.012 23.258 63.949 15.6 11.992-3.542 24.334-3.987 36.03-9.246 14.412-6.481 24.631-18.329 39.961-19.325a371.728 371.728 0 0 1 51.154.271c.318 1.793.014 3.3.185 5.094l-6 257.564c-32.064-10.8-69.984-2.894-103.252-5.367-24.647-1.833-49.515.09-74.457-1.794-52.025-3.932-104.219-12.639-156.365-16.086-50.857-3.359-105.9 13.507-155.688-1.3-48.2-14.339-98.359-13.343-146.565-25.8 1.043-27.533 46.621-40.11 60.796-40.869z"/><path fill="#00798f" d="M109.256 379.237H94.9a3.722 3.722 0 0 1-3.722-3.722 3.723 3.723 0 0 1 3.722-3.722h14.357a2.4 2.4 0 0 0 2.392-2.391v-10.694a2.388 2.388 0 0 0-2.388-2.388H94.9a3.722 3.722 0 0 1-3.722-3.722 3.723 3.723 0 0 1 3.722-3.722h14.357a9.836 9.836 0 0 1 9.836 9.836v10.693a9.832 9.832 0 0 1-9.837 9.832z"/><path fill="#009eba" d="M59.448 336.88h41.364v52.645H59.448z"/><path fill="#0091ab" d="M92.4 336.88h8.411v52.645H92.4z"/><path fill="#00adcc" d="M62.684 336.88H74.92v52.645H62.684z"/><circle cx="18.318" cy="370.413" r="17.065" fill="#4a3a4f"/><path fill="#f7636c" d="M-28.427 371.48h93.489a7 7 0 0 1 7 7v11.045H-35.427V378.48a7 7 0 0 1 7-7z"/><path fill="#dbcebf" d="M21.26 353.348h-5.884v-56.705l-54.055-73.806 69.638-59.294 16.477 37.66-4.48 3.814-13.838-32.289-59.821 51.04 51.963 70.951v58.629z"/><circle cx="18.269" cy="297.265" r="10.003" fill="#b2a59a"/><circle cx="29.449" cy="169.574" r="10.003" fill="#b2a59a"/><circle cx="58.255" cy="249.669" r="22.361" fill="#ffc266" transform="rotate(-25.73 58.257 249.672)"/><path fill="#f7636c" d="M28.932 219.385l-.686-2.141a19.231 19.231 0 0 1 12.439-24.187A19.233 19.233 0 0 1 64.873 205.5l.686 2.142A24.177 24.177 0 0 0 80.4 223a24.172 24.172 0 0 1 14.836 15.364l3.341 9.824-72.568 23.275-3.341-9.824a24.175 24.175 0 0 1 3.132-21.127 24.171 24.171 0 0 0 3.132-21.127z"/><path fill="#e92232" d="M28.246 217.244l.687 2.141a24.175 24.175 0 0 1-3.133 21.127 24.175 24.175 0 0 0-3.132 21.127l3.341 9.824 37.762-12.112-23.086-66.294a19.231 19.231 0 0 0-12.439 24.187z"/><path fill="#009eba" d="M451.453 385.2v-20.29h-87.106v-4.325h99.04v28.94h-99.04V385.2h87.106z"/><path fill="#f6eaf0" d="M459.587 385.2h-89.355v-20.29h89.355z"/><path fill="#d5cbd6" d="M459.587 368.92h-89.355v-4.01h89.355z"/><path fill="#00748a" d="M459.586 364.911s-11.894 7.083 0 20.289"/><path fill="#ff8d29" d="M458.514 356.057v-21.24h-87.106v-4.528h99.04v30.296h-99.04v-4.528h87.106z"/><path fill="#f6eaf0" d="M466.647 356.058h-89.355v-21.24h89.355z"/><path fill="#f7636c" d="M398.695 349.528l-5.59-2.354-5.59 2.354v-10.513h11.18v10.513z"/><path fill="#d5cbd6" d="M466.647 339.015h-89.355v-4.197h89.355z"/><path fill="#d66400" d="M466.648 334.817s-11.894 7.416 0 21.24"/><path fill="#b8bed1" d="M227.239 464.775h26.899v44.832h-26.899z"/><path fill="#9fa5b5" d="M227.239 459.063h26.899v16.036h-26.899z"/><path fill="#b8bed1" d="M232.412 506.331l-67.756 9.3a7.873 7.873 0 0 1-8.8-7.818v-.013a7.874 7.874 0 0 1 6.943-7.818l69.617-9.519zM248.965 506.848l67.756 9.3a7.873 7.873 0 0 0 8.8-7.818v-.006a7.872 7.872 0 0 0-6.942-7.818l-69.617-9.52z"/><path fill="#3c2f40" d="M193.707 442.414h93.962v17.427a7.68 7.68 0 0 1-7.68 7.68h-78.6a7.68 7.68 0 0 1-7.68-7.68v-17.427h-.002z"/><path fill="#b2a59a" d="M148.892 413.384h183.593v27.229a12 12 0 0 1-12 12H160.892a12 12 0 0 1-12-12v-27.229z"/><path fill="#dbcebf" d="M167.934 407.4h145.508v21.58a9.511 9.511 0 0 1-9.511 9.511H177.445a9.511 9.511 0 0 1-9.511-9.511V407.4z"/><path fill="#b2a59a" d="M332.485 399.262H148.892V230.414a12 12 0 0 1 12-12h159.593a12 12 0 0 1 12 12v168.848z"/><path fill="#dbcebf" d="M313.442 392.2H167.934V248.716a9.511 9.511 0 0 1 9.511-9.511h126.486a9.511 9.511 0 0 1 9.511 9.511V392.2z"/><path fill="#9fa3b8" d="M160.268 380.788h160.84v6.178a3 3 0 0 1-3 3h-154.84a3 3 0 0 1-3-3v-6.178z"/><path fill="#b8bed1" d="M321.108 382.943h-160.84v-3.823a2.488 2.488 0 0 1 2.488-2.488H318.62a2.487 2.487 0 0 1 2.487 2.487v3.823aNaN NaN 0 0 1 .001.001z"/><path fill="#9497ab" d="M160.268 385.531v.9c0 3.25 2.635 3.531 5.884 3.531h149.072c3.25 0 5.884-.281 5.884-3.531v-.9z"/><path fill="#b2a59a" d="M-43.197 389.454h568.041v30.599H-43.197z"/><path fill="#dbcebf" d="M-43.197 389.454h568.041v9.415H-43.197z"/><path fill="#dbbdab" d="M489.538 420.053h23.538v121.976h-23.538z"/><path fill="#f8ebec" d="M14.15 464.306h83.702v63.552H14.15z"/><path fill="#a4a2ba" d="M109.477 527.858H97.852v-63.552h11.625z"/><path fill="#f8ebec" d="M18.857 453.714h83.702v10.592H18.857z"/><path fill="#a4a2ba" d="M114.184 464.307h-11.625v-10.592h11.625z"/><path fill="#f8ebec" d="M16.503 435.473h83.702v18.242H16.503z"/><path fill="#a4a2ba" d="M111.831 453.714h-11.625v-18.242h11.625zM97.851 467.534v-3.228H78.54l-3.781.273 23.092 2.955z"/><path fill="#fff" d="M74.848 453.714H37.187l9.719 4.784 27.942-4.784z"/><path fill="#b39a8b" d="M6.107 475.535h98.466v66.494H6.107z"/><path fill="#a68f81" d="M115.361 542.03h-12.357v-66.494h12.357zM67.8 494.146H42.878a4.635 4.635 0 0 1-4.635-4.635 4.635 4.635 0 0 1 4.635-4.635H67.8a4.635 4.635 0 0 1 4.635 4.635 4.635 4.635 0 0 1-4.635 4.635z"/><path fill="#f8ebec" d="M72.438 489.511a4.635 4.635 0 0 0-4.635-4.635H54.254a4.635 4.635 0 1 0 0 9.27H67.8a4.635 4.635 0 0 0 4.638-4.635z"/><path fill="#c7ac9b" d="M489.538 420.053h23.538v12.918h-23.538z"/><path fill="#f8ebec" d="M409.681 451.404l-4.866 1.946-6.488 1.298-.649 4.217.974 4.217-4.218 6.164 13.301 1.946 5.514-2.595 5.515.973.973-5.515-3.568-3.893 1.946-3.568-8.434-5.19z"/><path fill="#d5cbd6" d="M453.165 439.718l3.139 8.63-3.923 21.969-10.2 3.138 10.984-33.737z"/><path fill="#f8ebec" d="M425.705 475.024l1.569-19.614 7.061-3.531 8.238-3.138 2.746-8.631 7.846-.392-6.669 36.483-20.791-1.177z"/><path fill="#4a3a4f" d="M447.045 542.029h-49.036l-9.415-84.735h67.866l-9.415 84.735z"/><path fill="#403345" d="M432.53 542.029h14.515l9.415-84.735h-23.93v84.735z"/><path fill="#ff7577" d="M346.619 373.844s22.189-3.526 34.295-37.079c0 0-31.276 6.041-34.295 37.079z"/><path fill="#f2ab8f" d="M96.528 275.206s-19.68-110.284-9.743-108.613 16.007-5.7 20.421 12.509 24.523 98.955 24.523 98.955z"/><path fill="#303942" d="M214.668 440.486l-20.8 223.958-16.745 164.025s9.112 12.53 43.284 6.835l17.947-171.988 22.031-141.256h17.545l11.734 313.24s14.808 11.391 42.145 1.139l-5.468-403.23z"/><path fill="#ce8d76" d="M263.305 219.022l1.535 63.612 38.347-17.142-1.207-65.505-38.675 19.035z"/><path fill="#fff" d="M201.556 266.177s3.7 113.821 11.062 171.592c0 0 28.188 12.621 73.091 10.79 31.718-1.293 40.859-8.073 40.859-8.073l45.48-187.172s-22.871-11.094-71.21-11.038l-22.417 20.772s-6.085-16.127-18.108-19.336c-18.222 1.257-37.157 6.8-58.395 10.3z"/><path fill="#eaeaea" d="M371.772 434.414c-8.539 7.5-14.636 12.666-14.636 12.666l-12.448-24.443 7.574-8.9c6.395 6.992 12.954 13.833 19.51 20.677z"/><path fill="#aaa" d="M278.421 263.048l5.817-20.216 12.896 5.908-18.713 14.308zM276.763 244.588l1.658 18.46-10.557-13.069 8.899-5.391z"/><path fill="#eaeaea" d="M247.662 243.371l15.794 21.307 13.307-20.09-20.925-13.931-8.176 12.714zM315.415 240.538l-20.062 22.968-11.115-20.674 23.125-14.985 8.052 12.691z"/><path fill="#f2ab8f" d="M295.245 60.581c36.43 8.308 35.454 33.337 35.454 33.337s-1.132 19.32-1.852 42.334a11.986 11.986 0 0 1 14.924-4.071c12.4 5.306 3.239 44.37-15.614 40.992-.812 10.908.744 9.791-.656 12.732-5.292 11.112-28.575 28.046-49.213 30.691s-46.568-11.112-46.568-35.454-3.151-94.1-3.151-94.1 6.35-40.22 66.676-26.461z"/><path fill="#b57662" d="M342.091 138.905c-6.465-3.274-12.185 7.137-12.45 18.25 5.292-.794 6.186 5.367 3.238 9.724 10.502 2.226 16.071-24.501 9.212-27.974z" opacity=".6"/><path fill="#eaeaea" d="M81.466 216.388L78.5 196.139l37.652-6.973 4.14 19.639q-19.42 3.747-38.826 7.583z"/><path fill="#f2ab8f" d="M83.823 186.957s16.169 4.273 23.733-1.466 13-10.4 14.206-19.538 9.9-16.1 8.058-17.8-7.1-7.491-13.872 7.891c0 0-1.649 7.184-4.284 4.4-2.134-2.251-.151-11.711.439-24.343.805-17.24-1.656-14.282-3.838-12.12s-4.772 20.808-7.018 25.886c-1.752 3.961.566-28.927-3.532-29.537-6.783-1.01-4.869 34.126-7.072 30.958s-3.271-24.874-5.813-26.22c-7.814-4.138-1.568 31.2-3.717 31.284-1.659.064-4.79-16.242-8.456-16.586s-1.838 7.983-.673 13.026c1.362 5.9 2.48 8.439 3.5 14.123s1.816 14.978 8.339 20.042z"/><path fill="#192a51" d="M328.847 136.252L325.332 155l-4.881.7v-42.534s-16.734-11.853-16.734-26.5a88.586 88.586 0 0 1-50.2 14.643s14.642-7.67 23.706-12.551c0 0-36.257 19.174-63.45 3.835 0 0 16.037-47.762 62.056-48.459 49.5-.75 53.34 27.541 53.34 27.541S345.2 69.936 345.2 97.129c0 10.275-3.835 20.918-8.807 33.985-4.877.697-7.546 5.138-7.546 5.138z"/><path fill="#fff" d="M319.551 243.067s47.011.522 58.818 5.21c0 0 55.734 116.6 51.551 133.331s-63.8 61.707-63.8 61.707L348.054 416.5l33.43-37.108-21.984-58.445-22.312 85.065.7 59.267-61.364 18.821-11.156-22.312-11.156 23.712-46.712-13.946s-9.064-120.625-6.275-170.827l-107.381 8.367L78.5 209.387l44.624-9.762 9.762 61.358 103.328-13.836 37.517 128.186z"/><path fill="#f2ab8f" d="M328.518 411.428s-22.212-29.046 11.533.427c0 0 3.4 3.44 4.312 11.97.213-.2.407-.385.626-.6l10.527 20.675a96.614 96.614 0 0 1-11.636 5.711c-4.291 2.792-22.945 13.167-15.362-23.232 0 0-30.328-8.543-2.563-8.97 0-.001-29.474-14.097 2.563-5.981z"/></g></svg>