<svg xmlns="http://www.w3.org/2000/svg" viewBox="0 0 572.33 572.25"><defs><style>.cls-4{fill:#3c4366}.cls-5{fill:#bf4a8d}.cls-12{fill:#fff}</style><clipPath id="clip-path"><circle cx="286.17" cy="286.12" r="286" fill="none"/></clipPath></defs><g id="BACKGROUND_1" data-name="BACKGROUND 1"><g clip-path="url(#clip-path)"><circle cx="286.33" cy="286.33" r="286" fill="#f1e4d3"/><path class="cls-4" d="M482.33 426.6c-20.6-13.86-61.1-8.79-87.17-8.6-7.56.05-45.28 3-36.23-9 5.23-7 35.72-3 44.16-8.36 26.76-17-40.27-13.19-52-11C322 395 294.82 399 265.67 400.92c9.07-1.6 36.32-9.7 28-16.91-3-2.62-9.16-3.51-16.43-3.45-39.62-6.67-79.38.15-117.63 3.22-25.37 2-101.38 1-95.32 29.76 5.13 2 10.13 4.1 14.91 6.35-3.36 14.11-55 10.44-49.2 27.88 34.48 7.07 70 2.29 105.65 4.72 49.46 3.37 96.75.22 145.43-3.67 24.21-2 207.24-.66 201.25-22.22z"/><path class="cls-4" d="M596.67 465.77c-20.61-13.86-61.11-8.79-87.18-8.6-7.56 0-45.27 3-36.23-9 5.23-7 35.72-3 44.17-8.35 26.76-17.05-40.27-13.19-52-11-29.12 5.34-56.27 9.37-85.42 11.28 9.06-1.61 36.32-9.71 27.95-16.91-3-2.63-9.16-3.51-16.43-3.45-39.62-6.67-79.37.15-117.63 3.22-18.71 1.5-64.94 1.33-85.51 12.66a12.06 12.06 0 0 0 1 21.56l.14.06a3.68 3.68 0 0 1 .81 6.26c-8.41 6.43-30.46 7.83-40.87 13.5a6.16 6.16 0 0 0 1.53 11.33c34.71 8 86.16 25.73 119.55 28 49.46 3.37 76.16-24.54 124.84-28.42 24.23-1.91 207.26-.59 201.28-22.14z"/><path class="cls-5" d="M188.93 375.5c11.06-20.52 26.64-51.33-6.56-3.32-4.74-101.28-7.61-18.57-8.1-2.17-7.84-25.14-27.27-85.52-11.27-10.49-47.09-54.88-29.07-26.08-13.85-3.56-18.18-13.92-40.81-29.65-1.2 11-92-48.4 5.4 15 5.4 15-118.94-11.11-5.73 8.39-5.73 8.39-113.72 17.33-.52 9.5-.52 9.5-91.9 38.27 3 9.45 3 9.45-65.87 48.64 1.62 6.9 1.62 6.9L179 392l2.18-2.37c57.91-62.75 23.11-29.19 7.75-14.13zM377.29 353.18s1.95-49.3 15.15-33.09c0 0 15.74-29.19 26.85-26.59 19.35 4.51 20.09 45.32 20.09 45.32 20.85-14.8-.34 37.43-.34 37.43 19.75-7.76-13.53 26-13.53 26 22.67-2.68-22.15 24.71-22.15 24.71S350.8 374.83 378 386.62c0 0-18.84-47.05-.71-33.44z"/><path class="cls-4" d="M403.36 427s-1.43-1.43-3.65-3.71c.46-2.24 1-5 1.68-8.28-7.84-7.43-16.57-20.12-16.57-20.12l17.51 15.49c.75-3.74 1.57-7.89 2.45-12.37-11.78-14.44-22.59-34.73-22.59-34.73l24 27.36c.74-3.85 1.49-7.84 2.25-11.93l-18.92-50.42 20.48 41.6c1.88-10.4 3.7-21 5.22-30.8C408.06 326.83 405 311 405 311l10.95 23.48c1.75-11.83 3-22.16 3.15-29 0 0 .69 11.24-.25 30.78L433 322.63c-3.89 6.58-11 13.93-14.34 17.19-.52 9.32-1.41 20.29-2.89 32.66L440.41 347c-3.44 6.18-18.23 24-25.55 32.8q-.89 6.59-2 13.62l20.33-9.9c-6.47 5.56-15.66 11.53-21.14 14.92q-1.06 6.4-2.33 13.16l12.11-3.73c-3.49 2.31-8.91 5.24-12.79 7.26-.6 3.11-1.25 6.26-1.93 9.45-2.27 1.49-3.75 2.42-3.75 2.42z"/><path d="M477.14 401.33s37.78-31.74 16.85-32.26c0 0 13.45-30.28 4.57-37.52-15.42-12.53-48.13 11.88-48.13 11.88-1.05-25.53-29.38 23.21-29.38 23.21-5.95-20.3-12.26 26.68-12.26 26.68-11.78-19.56-6 32.64-6 32.64s73.4 9.6 47.4-4.7c.06.01 48.81-13.91 26.95-19.93z" fill="#674ba6"/><path d="M402.84 426s2 .26 5.22.62c1.49-1.74 3.31-3.88 5.51-6.4 10.67 1.65 26 .79 26 .79l-23-4.32c2.5-2.87 5.28-6.07 8.27-9.49 18.62.4 41.26-3.47 41.26-3.47l-36.3-2.19c2.59-2.94 5.29-6 8-9.08l51.45-16-45.49 9.29c7.06-7.86 14.33-15.79 21.14-23 14.1-1.83 28.51-9.12 28.51-9.12l-25.26 5.73a279.27 279.27 0 0 1 21-20.24s-9.33 6.34-24.19 19.06l2.1-19.54c-2.82 7.12-4.28 17.24-4.83 21.9-7 6.12-15.16 13.54-24 22.29l5.09-35.08c-2.73 6.5-7.84 29.14-10.26 40.29-3.11 3.14-6.31 6.45-9.56 9.91l-4.63-22.13c-.44 8.53.49 19.45 1.16 25.84q-4.43 4.79-8.95 9.89l-4.48-11.85c.31 4.17 1.33 10.25 2.11 14.56-2.08 2.38-4.19 4.82-6.3 7.31.24 2.68.43 4.43.43 4.43z" fill="#242e51"/><ellipse class="cls-4" cx="99.13" cy="104.74" rx="17.26" ry="16.86"/><path d="M529.36 237.63a17.26 17.26 0 1 1-17.66-16.86h.4a17.07 17.07 0 0 1 17.26 16.86z" fill="#65b1a5"/><path d="M371.58 51s9.65 50 59.24 54.81c0-.05-5.63-35.51-59.24-54.81z" fill="#65afd3"/><rect x="164.47" y="65.63" width="243.4" height="450.98" rx="12" ry="12" fill="#2d2d2d"/><rect x="171.3" y="98.67" width="230.07" height="396.67" rx="7.08" ry="7.08" fill="#eb2032"/><rect x="257.42" y="76.58" width="57.5" height="5.75" rx="2.87" ry="2.87"/><circle cx="323.82" cy="79.73" r="2.6"/></g><g id="_Group_" data-name="&lt;Group&gt;"><path id="_Compound_Path_" data-name="&lt;Compound Path&gt;" class="cls-12" d="M286.08 276.53h2c0-2.92.06-4.66.14-5.19a4.26 4.26 0 0 1 1.55-2.92 5.78 5.78 0 0 1 3.75-1.08 11.79 11.79 0 0 1 3.94.8v4.27a7.64 7.64 0 0 0-2-.35 2.12 2.12 0 0 0-1.44.41 1.78 1.78 0 0 0-.33 1.27v2.79h3.55v4.75h-3.55v17.59h-5.6v-17.59h-2z"/><path id="_Compound_Path_2" data-name="&lt;Compound Path&gt;" class="cls-12" d="M302.69 267.34a3.39 3.39 0 0 1 2.53 1.07 3.55 3.55 0 0 1 1.06 2.58 3.51 3.51 0 0 1-1 2.56 3.53 3.53 0 0 1-5 0 3.58 3.58 0 0 1-1.06-2.62 3.59 3.59 0 0 1 3.56-3.57zm-2.8 9.19h5.61v22.34h-5.61z"/><path id="_Compound_Path_3" data-name="&lt;Compound Path&gt;" class="cls-12" d="M311.26 268.3h5.61v8.23h3.32v4.83h-3.32v17.51h-5.61v-17.51h-2.87v-4.83h2.87z"/><path id="_Compound_Path_4" data-name="&lt;Compound Path&gt;" class="cls-12" d="M339.67 276.53h5.61v22.34h-5.61v-2.36a11 11 0 0 1-3.29 2.25 9.35 9.35 0 0 1-3.58.68 10 10 0 0 1-7.48-3.35 11.74 11.74 0 0 1-3.16-8.35 12 12 0 0 1 3.06-8.48 9.74 9.74 0 0 1 7.42-3.3 9.34 9.34 0 0 1 3.77.76 10.26 10.26 0 0 1 3.26 2.28zm-5.89 4.6a5.66 5.66 0 0 0-4.31 1.84 7.33 7.33 0 0 0 0 9.47 5.64 5.64 0 0 0 4.3 1.87 5.76 5.76 0 0 0 4.38-1.84 6.7 6.7 0 0 0 1.74-4.81 6.52 6.52 0 0 0-1.74-4.72 5.86 5.86 0 0 0-4.37-1.81z"/><path id="_Compound_Path_5" data-name="&lt;Compound Path&gt;" class="cls-12" d="M351.62 268.3h5.6v8.23h3.33v4.83h-3.33v17.51h-5.6v-17.51h-2.87v-4.83h2.87z"/><path id="_Compound_Path_6" data-name="&lt;Compound Path&gt;" class="cls-12" d="M374 276a11.9 11.9 0 0 1 5.94 1.58 11.39 11.39 0 0 1 4.34 4.29 11.55 11.55 0 0 1 1.56 5.85 11.67 11.67 0 0 1-1.57 5.91 11.26 11.26 0 0 1-4.28 4.3 11.76 11.76 0 0 1-6 1.55 11.14 11.14 0 0 1-8.2-3.41 11.84 11.84 0 0 1 .44-17A11.18 11.18 0 0 1 374 276zm.09 5.28a5.77 5.77 0 0 0-4.35 1.81 6.44 6.44 0 0 0-1.74 4.61 6.55 6.55 0 0 0 1.72 4.72 5.71 5.71 0 0 0 4.35 1.81 5.82 5.82 0 0 0 4.38-1.83 7.19 7.19 0 0 0 0-9.37 5.8 5.8 0 0 0-4.32-1.79z"/></g><path id="_Compound_Path_7" data-name="&lt;Compound Path&gt;" class="cls-12" d="M186.45 286.1a43.68 43.68 0 1 1 42.68 43.7 43.71 43.71 0 0 1-42.68-43.7zm36.28 20.72h.05v1.59a2.62 2.62 0 0 0 4.64 1.85c1.6-1.65 3.22-3.29 4.83-4.94q7.73-7.87 15.43-15.76a2.57 2.57 0 0 0 .08-3.89q-10.14-10.47-20.3-20.92a2.53 2.53 0 0 0-3-.58 2.7 2.7 0 0 0-1.48 2.68c0 .78.13 1.56.11 2.33a5.62 5.62 0 0 0 1.82 4.34c2.43 2.41 4.85 4.84 7.27 7.26 1.5 1.5 3 3 4.49 4.51a2.4 2.4 0 0 1 .19 3.15 2.36 2.36 0 0 1-3.09.62 4.17 4.17 0 0 1-.86-.71c-1.81-1.8-3.61-3.62-5.43-5.41a2.58 2.58 0 0 0-4.39 1.89v2.33a5.94 5.94 0 0 0 1.9 4.61l2.64 2.64a2.41 2.41 0 0 1 0 3.84c-1.11 1.13-2.31 2.19-3.34 3.39a7.35 7.35 0 0 0-1.35 2.49 12.53 12.53 0 0 0-.21 2.69z"/></g></svg>