<svg xmlns="http://www.w3.org/2000/svg" data-name="Layer 1" viewBox="0 0 500 500"><defs><clipPath id="a"><circle cx="770" cy="250" r="250" fill="none"/></clipPath><clipPath id="b"><circle cx="250" cy="250" r="250" fill="none"/></clipPath></defs><g clip-path="url(#a)"><path fill="#353535" d="M1046.313 507.557c-13.438-4.892-30.448-3.882-42.673-10.6-15.222-8.369-25.99-42.084-35.623-61.243-18.928-37.644-38.9-69.094-73.02-79.37-12.872-3.877-29.3-5.782-38.051-18.651-11.124-16.357-11.49-45.843-23.929-62.5-14.749-19.747-27.442-32.552-44.686-43.455-.012 8.545-7.9 3.687-11.156 1.97-5.637-2.973-11.586-14.76-17.967-17.161-26.679-10.041-51.044-26.09-81.975-19.63-30.757 6.422-49.385 14.352-74.919-2.96-11.8-8.007-25.065-12.56-35.952-22.448-13.416-12.185-20.412-29.181-36.728-35.346a398.19 398.19 0 0 0-55.693-16.434c-.968 1.961-1.16 3.8-1.969 5.808l-82.853 298.712c38.6-1.945 77.069 19.577 114.086 27.617 27.425 5.958 53.787 16.314 81.55 22.309 57.911 12.5 117.662 19.555 175.535 32.656 56.442 12.777 110.414 50.228 169.67 49.462 57.368-.74 111.537 16.827 168.254 18.255 8.416-32.065-36.757-61.476-51.901-66.991z"/></g><circle cx="250" cy="250" r="250" fill="#434444"/><g clip-path="url(#b)"><path fill="#353535" d="M526.313 507.557c-13.438-4.892-30.448-3.882-42.673-10.6-15.222-8.369-25.99-42.084-35.623-61.243-18.928-37.644-38.9-69.094-73.02-79.37-12.872-3.877-29.3-5.782-38.051-18.651-11.124-16.357-11.49-45.843-23.929-62.5-14.749-19.747-44.686-43.455-44.686-43.455s-22.742-12.79-29.123-15.191c-26.679-10.041-51.044-26.09-81.975-19.63-30.757 6.422-49.385 14.352-74.919-2.96-11.8-8.007-25.065-12.56-35.952-22.448-13.416-12.188-20.412-29.184-36.728-35.349a398.19 398.19 0 0 0-55.693-16.434c-.968 1.961-1.16 3.8-1.969 5.808l-82.853 298.715c38.6-1.945 77.069 19.577 114.086 27.617 27.425 5.958 53.787 16.314 81.55 22.309 57.911 12.5 117.662 19.555 175.535 32.656 56.442 12.777 110.414 50.228 169.67 49.462 57.368-.74 111.537 16.827 168.254 18.255 8.416-32.065-36.757-61.476-51.901-66.991z"/><path fill="#ff7577" d="M324.221 48.816a15.09 15.09 0 1 1-15.085-14.741 14.916 14.916 0 0 1 15.085 14.741zM166.862 449.542a10.168 10.168 0 1 1-10.165-9.933 10.05 10.05 0 0 1 10.165 9.933z"/><ellipse cx="128.293" cy="148.888" fill="#364167" rx="15.085" ry="14.741"/><path fill="#00b5a9" d="M504.371 265.055a15.088 15.088 0 1 1-15.086-14.74 14.916 14.916 0 0 1 15.086 14.74z"/><path fill="#00b4d8" d="M371.7 129.845s8.438 43.684 51.79 47.905c-.005 0-4.933-30.995-51.79-47.905zM75.753 262.248s-31.234 31.685-10.172 69.812c0 0 22.761-21.609 10.172-69.812z"/></g><circle cx="302.715" cy="214.118" r="16.055" fill="none" transform="rotate(-13.283 302.706 214.11)"/><circle cx="201.725" cy="214.118" r="16.055" fill="none" transform="rotate(-45 201.725 214.118)"/><path fill="#f3e6d5" d="M389.89 232.087a137.408 137.408 0 1 0-156.468 156.5 136.576 136.576 0 0 0 156.468-156.5zm-204.22-17.969a16.055 16.055 0 1 1 16.055 16.055 16.055 16.055 0 0 1-16.055-16.055zm70.693 133.617a57.227 57.227 0 0 1-57.228-57.227c0-.087.006-.172.007-.259h114.442c0 .087.007.172.007.259a57.227 57.227 0 0 1-57.228 57.227zm46.352-117.562a16.055 16.055 0 1 1 16.055-16.055 16.055 16.055 0 0 1-16.055 16.055z"/></svg>