<svg xmlns="http://www.w3.org/2000/svg" data-name="Layer 1" viewBox="0 0 500 500"><defs><clipPath id="a"><circle cx="251.6" cy="250" r="248.4" fill="none"/></clipPath></defs><circle cx="248.4" cy="250" r="248.4" fill="#434444"/><g clip-path="url(#a)"><path fill="#353535" d="M526.1 506c-13.3-5-30.2-4-42.4-10.6-15-8.3-25.8-41.8-35.4-60.9-18.8-37.4-38.6-68.6-72.5-78.8-12.8-3.9-29.1-5.8-37.8-18.6-11-16.2-11.4-45.5-23.8-62a160.3 160.3 0 0 0-44.4-43.2c0 8.4-7.8 3.6-11 2-5.7-3-11.6-14.8-18-17.1-26.4-10-50.6-26-81.4-19.5-30.5 6.3-49 14.2-74.4-3-11.7-8-25-12.5-35.7-22.3C35.9 160 29 143 12.8 137a395.6 395.6 0 0 0-55.4-16.3c-1 2-1.1 3.7-2 5.7l-82.2 296.8c38.3-1.9 76.5 19.5 113.3 27.5 27.3 5.9 53.5 16.2 81 22.1 57.6 12.5 117 19.5 174.5 32.5 56 12.7 109.7 49.9 168.5 49.1 57-.7 110.9 16.7 167.2 18.2 8.4-31.9-36.5-61.1-51.6-66.6z"/><path fill="#ff7577" d="M325.3 50.1a15 15 0 1 1-15-14.6 14.8 14.8 0 0 1 15 14.6zM169 448.3a10.1 10.1 0 1 1-10.1-10 10 10 0 0 1 10.1 10z"/><ellipse cx="130.7" cy="149.5" fill="#364167" rx="15" ry="14.6"/><path fill="#00b5a9" d="M504.3 265a15 15 0 1 1-15-14.7 14.8 14.8 0 0 1 15 14.7z"/><path fill="#00b4d8" d="M372.5 130.6S381 174 424 178.2c0 0-5-30.8-51.5-47.6zM78.5 262.2s-31 31.5-10.1 69.3c0 0 22.6-21.4 10-69.3z"/></g><path fill="#f3e6d5" d="M372.3 435.8h-41V327.2c-.7-1.5-2.1-3.6-4.3-3.6h-2.4v-17h3.2v-3.9a8.2 8.2 0 0 0-2-1.2l-1.2-.7V286h3.2v-3.8a8.3 8.3 0 0 0-2-1.3l-1.2-.7v-11.5h8.7v-45.4h-5.5v-15.7h3.1V205a7.1 7.1 0 0 0-1.5-1l-1.6-.4v-12.6h7.5v-32.4H331v-16h2.6v-1.7a7 7 0 0 0-1.2-.7h-.1l-1.3-.7v-8.8h5v-20.3c-3.4-6-4-15.5 5.4-23l.2-.1.6-.4c5.1-3.2 6.2-5 6.2-6V64.2h6.2v16.6c0 1.4 2 3.5 6.2 6l.9.6c6.5 5.2 7.7 11 7.5 14.9a18.8 18.8 0 0 1-2.2 8v20.3h5v9.7h-2a6.6 6.6 0 0 0-.8.5v1.8h2.8v16h-4.2v32.3h7.4v16.6l-2.8-2.8a4 4 0 0 0-.4.2v2.8h3.2v15.7h-4.9v44.8h8.8V281h-2a8.1 8.1 0 0 0-1.9 1.3v3.8h3.9v15.4h-2a8.1 8.1 0 0 0-1.9 1.3v3.8h3.9v17.6h-3c-2.3 0-3.5 2.3-3.9 3.2zm-36.1-4.8h31.3V326.5l.1-.3c.8-2.2 3-5.8 6.8-6.6v-8.2h-3.9v-9c0-2.2 2.2-3.9 3.9-4.8v-6.7h-3.9v-9c0-2.2 2.2-3.9 3.9-4.8V273h-8.8v-54.4h5v-6h-38v6h5.5v55h-8.7v3.9c1.5.9 3.2 2.3 3.2 4.4v9h-3.2v7c1.5 1 3.2 2.4 3.2 4.5v9h-3.2v7.7c2.7.8 5 3.1 6.5 6.5l.2.5v.6zm25.1-223.2h1.6V205a5.5 5.5 0 0 0-.8-.6 5.5 5.5 0 0 0-.8.6zm-10.6 0h1.6V205a5.6 5.6 0 0 0-.8-.6 5.5 5.5 0 0 0-.8.6zm-10.7 0h1.6V205a5.5 5.5 0 0 0-.8-.6 5.5 5.5 0 0 0-.8.6zm22.1-8.7l1 .4c1.1.5 3.6 1.8 4.4 3.8a6.6 6.6 0 0 1 3-3.1v-4.5h-7.4v-42h4.2v-6.3h-31.4v6.3h4.2v42h-7.5v4.6a6.6 6.6 0 0 1 2.9 2.9c.8-2 3.2-3.2 4.3-3.7l1-.4 1 .4c1.1.5 3.6 1.8 4.3 3.8.8-2 3.3-3.3 4.4-3.8l1-.4 1 .4c1 .5 3.5 1.8 4.3 3.7.8-2 3.2-3.2 4.4-3.7zm-11-56.5h.7V141l-.3-.3a7 7 0 0 0-.3.3zm-9 0h.6V141l-.3-.2a6 6 0 0 0-.3.2zm18 0h.7v-1.8l-.3-.2a6 6 0 0 0-.3.2zm-17.7-7.3l1 .4a8 8 0 0 1 3.5 2.7 8 8 0 0 1 3.6-2.7l1-.4 1 .4a8.2 8.2 0 0 1 3.5 2.6 8 8 0 0 1 3.6-2.6l.9-.4 1 .4a8 8 0 0 1 3.6 2.7 6.5 6.5 0 0 1 2.2-2v-1h-5V133h-21.4v2.4h-5v1a6.6 6.6 0 0 1 2 2 8.2 8.2 0 0 1 3.6-2.7zm17.8-7h.6V124l-.3-.2-.3.2zm-9 0h.5V124l-.3-.2-.3.2zm-9 0h.5V124l-.3-.2-.3.2zm9.2-9.7l1 .4a8 8 0 0 1 3.6 2.7 8 8 0 0 1 3.6-2.7l.9-.4 1 .4.8.4V109l.3-.5c1.4-2.3 5-10.1-3.7-17.2l-.6-.4c-1.8-1-4.8-3-6.7-5.5a24.4 24.4 0 0 1-6.7 5.5l-.5.3c-9 7.2-5.2 15-3.9 17.3l.4.5v10.3l.6-.3 1-.4.8.4a8.1 8.1 0 0 1 3.6 2.6 8.1 8.1 0 0 1 3.6-2.6zM168.6 435.8h-41V327.4c-.6-1.3-1.8-3.2-3.7-3.2h-3v-17.6h3.8v-3.8a8 8 0 0 0-2-1.3H121v-15.4h3.8v-3.8a8 8 0 0 0-2-1.3H121v-12.8h8.8v-44.8h-5v-15.7h3.3V205a4 4 0 0 0-.4-.2l-2.9 2.8V191h7.5v-32.4H128v-16h2.7v-1.7a6.6 6.6 0 0 0-.8-.5h-2v-9.7h5v-20.2c-2.8-5.1-4.6-15 5.4-23l.3-.2.6-.3c4.1-2.6 6.2-4.7 6.2-6.1V64.2h6.1v16.6c0 2 4.5 5 6 5.9l1 .6c6.6 5.3 7.8 11 7.7 15a18.7 18.7 0 0 1-2.2 8v20.3h5v8.8l-1.5.7a7 7 0 0 0-1.2.7v1.8h2.6v16h-4.2v32.3h7.5v12.3l-1.4.7a7.4 7.4 0 0 0-1.7 1v2.8h3v15.7h-5.4v45.4h8.7v11.5l-1.2.7a8.2 8.2 0 0 0-2 1.3v3.8h3.2v14.7l-1.2.7a8.1 8.1 0 0 0-2 1.3v3.8h3.2v17H173c-2.4 0-3.8 2.5-4.3 3.5zm-36.1-4.8h31.3V326.2l.2-.4c.3-.6 2.2-5.4 6.6-6.7v-7.7h-3.2v-9c0-2 1.6-3.4 3.2-4.4v-7h-3.2v-9c0-2 1.6-3.5 3.2-4.5v-3.9H162v-55h5.5v-6H129.5v6h5V273h-8.9v4.1c1.7 1 3.9 2.6 3.9 4.8v9h-3.9v6.7c1.7 1 3.9 2.6 3.9 4.8v9h-3.9v8.2c2.9.6 5.2 2.9 6.7 6.4l.2.4v.5zm25.9-223.2h1.5V205a5.7 5.7 0 0 0-.8-.6 5.5 5.5 0 0 0-.7.6zm-10.7 0h1.5V205a5.6 5.6 0 0 0-.7-.6 5.6 5.6 0 0 0-.8.6zm-10.7 0h1.6V205a5.6 5.6 0 0 0-.8-.6 5.5 5.5 0 0 0-.8.6zm11.5-8.7l1 .4c1 .5 3.5 1.8 4.3 3.8.8-2 3.2-3.3 4.4-3.8l1-.4.9.4c1.2.5 3.6 1.8 4.4 3.8a6.3 6.3 0 0 1 2.9-3v-4.6h-7.5v-42h4.2v-6.3h-31.3v6.3h4.2v42h-7.5v4.5a6.8 6.8 0 0 1 3 3c.8-2 3.2-3.2 4.4-3.7l1-.4.9.4c1.1.5 3.5 1.8 4.3 3.7.8-2 3.2-3.2 4.4-3.7zm-9.4-56.5h.6V141c0-.1-.1-.2-.3-.2a6 6 0 0 0-.3.2zm18.1 0h.6v-1.8l-.3-.2a6 6 0 0 0-.3.2zm-9 0h.6v-1.8l-.3-.2a6 6 0 0 0-.3.2zm-8.8-7.3l1 .4a8.1 8.1 0 0 1 3.6 2.7 8 8 0 0 1 3.6-2.7l1-.4.8.4a8.1 8.1 0 0 1 3.6 2.6 8.1 8.1 0 0 1 3.6-2.6l1-.4.9.4a8 8 0 0 1 3.6 2.7 6.5 6.5 0 0 1 2-2v-1h-5V133h-21.3v2.4h-5v1a6.5 6.5 0 0 1 2.2 2 8.2 8.2 0 0 1 3.5-2.7zm17.8-7h.6V124l-.3-.2-.3.2zm-9 0h.6V124l-.3-.2-.3.2zm-9 0h.5V124l-.3-.2-.3.2zm.2-9.7l1 .4a8 8 0 0 1 3.6 2.7 8 8 0 0 1 3.6-2.7l1-.4.8.4a8.1 8.1 0 0 1 3.6 2.6 8.1 8.1 0 0 1 3.6-2.6l1-.4.9.4.6.3V109l.4-.5c1.3-2.3 5-10.1-3.9-17.3l-.7-.5a25.1 25.1 0 0 1-6.4-5.3c-2 2.5-5 4.4-6.8 5.5l-.5.4a12.7 12.7 0 0 0-3.8 17.1l.4.6v10.3l.7-.3zm207.7 193.3l-2-2v1.5h-12.4v-9c0-3 3.7-4.8 5.3-5.5l1-.4.9.4c1.6.7 5.2 2.6 5.2 5.5v4.2h.3v-4.2c0-3 3.6-4.8 5.2-5.5l1-.4.9.4c1.6.7 5.2 2.6 5.2 5.5v9h-9.5zm3-5.3h2.8v-3.8a6.8 6.8 0 0 0-1.4-1 6.8 6.8 0 0 0-1.3 1v3.8zm-12.6 0h2.8v-3.8a6.7 6.7 0 0 0-1.4-1 6.8 6.8 0 0 0-1.4 1zm-170.3 4.9h-12.4v-9c0-2.8 3.3-4.7 5.2-5.5l1-.5 1 .5c1.5.6 5.2 2.5 5.2 5.5zm-7.6-4.8h2.8v-3.9a6.7 6.7 0 0 0-1.4-1 7.2 7.2 0 0 0-1.4 1zm-5 4.8h-12.3v-9c0-2.8 3.2-4.7 5.2-5.5l1-.5.9.5c1.6.6 5.2 2.5 5.2 5.5v6.6zm-7.5-4.8h2.7v-3.9a6.8 6.8 0 0 0-1.3-1 7.2 7.2 0 0 0-1.4 1zm-5 4.8h-12.4v-9c0-2.8 3.2-4.7 5.2-5.5l1-.5.9.5c1.6.6 5.2 2.5 5.2 5.5zm-7.6-4.8h2.7v-3.9a6.7 6.7 0 0 0-1.3-1 7.2 7.2 0 0 0-1.4 1zm235.8 4.7h-12.4v-9c0-3 3.7-4.8 5.3-5.5l.9-.4 1 .4c1.5.7 5.2 2.6 5.2 5.5zm-7.6-4.8h2.8v-3.8a6.7 6.7 0 0 0-1.4-1 6.8 6.8 0 0 0-1.4 1zm7.6-15.7h-12.4v-9c0-3 3.7-4.8 5.3-5.5l.9-.4 1 .4c1.5.7 5.2 2.6 5.2 5.5zm-7.6-4.8h2.8v-3.8a6.7 6.7 0 0 0-1.4-1 6.8 6.8 0 0 0-1.4 1zm-5 4.8h-10v-4.8a2.4 2.4 0 0 0-2.4 2.2v-6.4c0-3 3.7-4.8 5.3-5.5l1-.4.9.4c1.6.7 5.2 2.6 5.2 5.5zm-7.5-4.8h2.7v-3.8a6.8 6.8 0 0 0-1.4-1 6.8 6.8 0 0 0-1.3 1V286zm-5 4.8h-12.5v-9c0-3 3.7-4.8 5.3-5.5l1-.4.9.4c1.6.7 5.2 2.6 5.2 5.5zm-7.6-4.8h2.7v-3.8a6.7 6.7 0 0 0-1.4-1 6.8 6.8 0 0 0-1.3 1zM167.2 291h-12.4v-9c0-3 3.7-4.8 5.3-5.5l1-.4.9.4c1.5.7 5.2 2.6 5.2 5.5zm-7.6-4.8h2.8v-3.8a6.8 6.8 0 0 0-1.4-1 6.8 6.8 0 0 0-1.4 1zm-5 4.8h-12.3v-9c0-3 3.6-4.8 5.2-5.5l1-.4.9.4c1.6.7 5.2 2.6 5.2 5.5v6.6zm-7.5-4.8h2.7v-3.8a6.9 6.9 0 0 0-1.3-1 6.8 6.8 0 0 0-1.4 1zm-5 4.8h-12.4v-9c0-3 3.6-4.8 5.2-5.5l1-.4.9.4c1.6.7 5.2 2.6 5.2 5.5zm-7.6-4.8h2.7v-3.8a6.8 6.8 0 0 0-1.4-1 6.8 6.8 0 0 0-1.3 1zm46-51.6h-4.8v-28h-3.5v-13.9h2.3v-.8l-.3-.2h-1.9v-8.8h4v-16.2a14.6 14.6 0 0 1 4.5-19.2l.3-.1.6-.5c4-2.4 4.8-3.8 4.8-4.5v-14h5.9v14c0 .7.8 2.1 4.8 4.6l.7.5c9.6 7.6 6 16.7 4.7 19.3v16h4v7.4l-.6.7a2.7 2.7 0 0 1-.8.5l-.7.4v.8h2.2v14h-3.5v28h-4.8v-32.8h3.5v-4.3H177v4.3h3.5zm-3.4-46.8a6.4 6.4 0 0 1 1.3 1.1 6.5 6.5 0 0 1 1.6-1.2h-3zm12.4-1.2l1 .4a8 8 0 0 1 2.7 1.9 8 8 0 0 1 2.8-1.9l1-.4.8.4v-1.3H181v1.3h.1l1-.4 1 .4a8 8 0 0 1 2.6 1.9 8 8 0 0 1 2.8-1.9zm9.6 1a6.6 6.6 0 0 1 1.5 1.3 6.2 6.2 0 0 1 1.3-1v-.2zm-9.6-14.6l1 .4a8 8 0 0 1 2.7 1.8 8 8 0 0 1 2.8-1.8l1-.4.8.3v-7.8l.3-.6c.8-1.2 4.2-7.8-3-13.6l-.5-.2a22 22 0 0 1-5.2-4.2 22.1 22.1 0 0 1-5.1 4.1l-.6.4c-7.4 6-3.4 12.6-3 13.4l.4.6v8h.1l1-.4 1 .4a8 8 0 0 1 2.7 1.8 8 8 0 0 1 2.7-1.8z"/><path fill="#f3e6d5" d="M335 435.8h-42.7v-48c0-20.2-20.8-28.5-29.7-32l-2.2-1a88.7 88.7 0 0 1-10.4-5.1 92.4 92.4 0 0 1-10.3 5.1l-2.2 1c-9 3.5-29.8 11.8-29.8 32v48h-42.5V326.4l.2-.4c2-4.3 4.7-5.6 6.6-5.9v-47.8h-8.8v-38h133.4v-27.8h-3.4v-14h2.2v-.8a5.9 5.9 0 0 0-.8-.4l-1.4-.7v-7.8h4.2v-16a15.5 15.5 0 0 1-1.9-6.7c0-3.4 1-8.2 6.4-12.6l.2-.1.6-.4c4-2.5 4.8-3.9 4.8-4.6v-14h5.9v14c0 .7.8 2 4.7 4.5l1 .6c7.7 6 7.3 14 4.5 19.2v16h4v8.8h-1.9l-.3.2v.8h2.2v14h-3.4v27.7h12.6v38.2H328v47.8c4.3.6 6.3 5 6.6 6l.2.4zM297 431h33V327.5c-.4-.8-1.4-2.6-3.1-2.6h-3.7v-52.5h-16.6a2.1 2.1 0 0 1-2.2-1.6v1.6H223.1l-.4.4-1.5-.6a2.2 2.2 0 0 1-1.3-1.3v1.5h-21l-.5.4-1.4-.6a2.2 2.2 0 0 1-1.3-1.3v1.5h-18.9v52.4h-3.7c-1.4 0-2.5 1.4-3.1 2.7V431h33v-43.1c0-23.6 23.7-33 32.7-36.6l2.1-.9a85.3 85.3 0 0 0 10.3-5.2l.5-.3 1.4-.8 1.7 1a73.7 73.7 0 0 0 10.6 5.3c.5.2 1.3.5 2.1 1 9 3.5 32.7 13 32.7 36.5zm24.2-163.4h2.7v-3.8a6.8 6.8 0 0 0-1.3-1 6.8 6.8 0 0 0-1.4 1zm-12.2 0h2.7v-3.8a6.8 6.8 0 0 0-1.3-1 6.8 6.8 0 0 0-1.4 1v3.8zm-12.1 0h2.7v-3.8a7 7 0 0 0-1.3-1 6.8 6.8 0 0 0-1.4 1zm-12.1 0h2.7v-3.8a6.7 6.7 0 0 0-1.3-1 7.2 7.2 0 0 0-1.4 1zm-12.1 0h2.7v-3.8a7 7 0 0 0-1.3-1 6.8 6.8 0 0 0-1.4 1zm-12 0h2.7v-3.8a6.8 6.8 0 0 0-1.4-1 6.8 6.8 0 0 0-1.4 1zm-12.2 0h2.8v-3.8a6.9 6.9 0 0 0-1.4-1 6.8 6.8 0 0 0-1.4 1zm-12 0h2.6v-3.8a7 7 0 0 0-1.3-1 6.8 6.8 0 0 0-1.4 1zm-24.2 0h2.7v-3.8a6.9 6.9 0 0 0-1.3-1 7.2 7.2 0 0 0-1.4 1zm-24.2 0h2.7v-3.8a6.9 6.9 0 0 0-1.4-1 6.8 6.8 0 0 0-1.3 1zm140.6 0h3.2V239h-3.3v12H171.2v-12H168v28.5h3.2v-4.1c0-3 3.7-4.9 5.3-5.5l1-.5.9.5c1.4.6 4.5 2.1 5 4.6.7-2.4 3.8-4 5.2-4.6l1-.4.9.4c1.4.6 4.3 2.1 5 4.5.8-2.4 3.8-4 5.2-4.5l1-.5.9.5c1.4.6 4.5 2.1 5 4.6.7-2.3 3.5-3.8 5.2-4.6l1-.4.9.4c1.4.6 4.4 2.1 5 4.5.8-2.4 3.8-4 5.2-4.5l1-.5.9.5c1.4.6 4.4 2 5 4.5.8-2.4 3.8-3.9 5.2-4.5l.9-.4 1 .4c1.3.6 4.3 2.1 5 4.5.7-2.4 3.7-3.9 5.1-4.5l1-.4 1 .4c1.3.6 4.4 2.2 5 4.6.7-2.4 3.8-4 5.2-4.6l.9-.4 1 .4c1.3.6 4.3 2.1 5 4.5.7-2.4 3.7-3.9 5.1-4.5l1-.4 1 .4c1.3.6 4.3 2.1 5 4.5.7-2.2 3.4-3.7 5-4.5l1-.4 1 .4c1.4.6 4.5 2.2 5.1 4.6.7-2.4 3.7-4 5.1-4.6l1-.4 1 .4c1.3.6 4.3 2.1 5 4.5.7-2.4 3.7-3.9 5.1-4.5l1-.4 1 .4c1.3.6 4.5 2.2 5 4.7.6-2.5 3.8-4 5.2-4.7l1-.4.9.4c1.6.7 5.2 2.6 5.2 5.5zm-104.4 0h2.8v-3.9a6.8 6.8 0 0 0-1.4-1 6.8 6.8 0 0 0-1.4 1v3.9zm-24.2 0h2.8v-3.9a6.8 6.8 0 0 0-1.4-1 6.8 6.8 0 0 0-1.4 1v3.9zm-24.2 0h2.8v-3.9a6.8 6.8 0 0 0-1.4-1 6.8 6.8 0 0 0-1.4 1zM321.2 246h2.7v-4h-2.7zm-12.1 0h2.7v-4H309zm-12.1 0h2.7v-4H297zm-12.1 0h2.7v-4h-2.7zm-12.1 0h2.7v-4h-2.7zm-12 0h2.6v-4h-2.7zm-12.2 0h2.8v-4h-2.8zm-12 0h2.6v-4h-2.7zm-12.2 0h2.7v-4h-2.7zm-12 0h2.7v-4h-2.7zm-12.2 0h2.7v-4h-2.7zm-12 0h2.7v-4h-2.7zm-12.2 0h2.7v-4H176zm125.4-11.9h18v-32.5h3.4v-4.3H298v4.3h3.4zm-3.4-46.5a6.2 6.2 0 0 1 1.3 1 6.5 6.5 0 0 1 1.5-1.1H298zm22-.1a6.6 6.6 0 0 1 1.5 1.2 6.4 6.4 0 0 1 1.3-1.2zm-9.6-1.1l1 .4a8 8 0 0 1 2.7 1.9 8 8 0 0 1 2.7-1.9l1-.4 1 .4v-1.3h-16.6v1.3l.8-.4 1 .4a8 8 0 0 1 2.7 1.9 8 8 0 0 1 2.7-1.9zm0-13.6l1 .4a8 8 0 0 1 2.7 1.8 8 8 0 0 1 2.7-1.8l1-.4 1 .4v-8l.3-.5c1-1.8 4-8-3-13.5l-.5-.3a22.1 22.1 0 0 1-5.1-4.1 22 22 0 0 1-5.2 4.1l-.4.3c-7.6 6-3.6 12.8-3.1 13.5l.4.6v7.8l.8-.3 1 .4a8 8 0 0 1 2.7 1.8 8 8 0 0 1 2.7-1.8zm11.5 257.8h-14.4v-14.2c0-3 4-5 6.4-5.9l.8-.3.9.3c2.3 1 6.3 2.9 6.3 6zm-9.6-4.8h4.8v-9a10 10 0 0 0-2.4-1.4 10 10 0 0 0-2.4 1.4zm-119.9 4.8H178v-14.2c0-3 4-5 6.4-5.9l.8-.3.9.3c2.3 1 6.3 2.9 6.3 6zm-9.6-4.8h4.8v-9a10 10 0 0 0-2.4-1.4 10 10 0 0 0-2.4 1.4zM322 400h-14.4v-14.2c0-3 4-5 6.4-5.9l.8-.3.9.3c2.3.9 6.3 2.9 6.3 6zm-9.6-4.8h4.8v-9a10 10 0 0 0-2.4-1.4 10 10 0 0 0-2.4 1.4zm-119.9 4.8H178v-14.2c0-3 4-5 6.4-5.9l.8-.3.9.3c2.3.9 6.3 2.9 6.3 6zm-9.6-4.8h4.8v-9a10 10 0 0 0-2.4-1.4 10 10 0 0 0-2.4 1.4zM322 371h-14.4v-9.8c0-3.1 4-5 6.4-6l.8-.3.9.3c2.3 1 6.3 2.9 6.3 6zm-9.6-4.9h4.8v-4.6a10 10 0 0 0-2.4-1.4 10 10 0 0 0-2.4 1.4zM192.4 371H178v-9.8c0-3.1 4-5 6.4-6l.8-.3.9.3c2.3 1 6.3 2.9 6.3 6zm-9.6-4.9h4.8v-4.6a10 10 0 0 0-2.4-1.4 10 10 0 0 0-2.4 1.4zM322 346.3h-14.4v-9.8c0-3 4-5 6.4-5.9l.8-.3.9.3c2.3 1 6.3 2.9 6.3 6zm-9.6-4.8h4.8V337a10 10 0 0 0-2.4-1.4 10 10 0 0 0-2.4 1.4zm-119.9 4.8H178v-9.8c0-3 4-5 6.4-5.9l.8-.3.9.3c2.3 1 6.3 2.9 6.3 6zm-9.6-4.8h4.8V337a10 10 0 0 0-2.4-1.4 10 10 0 0 0-2.4 1.4zm140-26.2h-17.7v-15.6c0-4.4 6-7.8 7.8-8.7l1-.5 1.1.5c1.8 1 7.8 4.3 7.8 8.7zm-12.9-4.8h8.1v-10.8c0-.8-1.9-2.5-4-3.8-2.2 1.3-4 3-4 3.8zm-8.4 4.8h-17.7v-15.6c0-4.4 6-7.8 7.7-8.7l1.1-.5 1.1.5c1.8 1 7.7 4.3 7.7 8.7l.1 13.2zm-13-4.8h8.2v-10.7c0-.9-2-2.6-4-3.9-2.2 1.3-4.1 3-4.1 3.8zm-8.4 4.8h-17.7v-15.6c0-4.4 6-7.8 7.7-8.7l1.1-.5 1.1.5c1.8 1 7.8 4.3 7.8 8.7V313zm-12.9-4.8h8.1v-10.7c0-.9-2-2.6-4-3.9-2.2 1.3-4.1 3-4.1 3.8zm-8.4 4.8H241v-15.6c0-4.4 6-7.8 7.8-8.7l1-.5 1.2.5c1.8 1 7.7 4.3 7.7 8.7zm-12.9-4.8h8v-10.8c0-.8-1.8-2.5-4-3.8-2.1 1.3-4 3-4 3.8zm-8.4 4.8h-17.8v-15.6c0-4.4 6-7.8 7.8-8.7l1-.5 1.2.5c1.8 1 7.7 4.3 7.7 8.7V313zm-13-4.8h8.2l-.1-10.7c0-.9-1.9-2.6-4-3.9-2.2 1.3-4 3-4 3.8zm-8.4 4.8h-17.7v-15.6c0-4.4 6-7.8 7.8-8.7l1-.5 1.1.5c1.9 1 7.8 4.3 7.8 8.7V313zm-12.9-4.8h8.1v-10.7c0-.9-1.9-2.6-4-3.9-2.2 1.3-4 3-4 3.8zm-8.4 4.8h-17.7v-15.6c0-4.4 6-7.8 7.7-8.7l1.1-.5 1.1.5c1.8 1 7.8 4.3 7.8 8.7V313zm-12.9-4.8h8.1v-10.7c0-.9-2-2.6-4-3.9-2.2 1.3-4.1 3-4.1 3.8z"/></svg>