<svg xmlns="http://www.w3.org/2000/svg" data-name="Layer 1" viewBox="0 0 500 500"><defs><clipPath id="a"><circle cx="251.6" cy="250" r="248.4" fill="none"/></clipPath></defs><circle cx="248.4" cy="250" r="248.4" fill="#434444"/><g clip-path="url(#a)"><path fill="#353535" d="M526.1 506c-13.3-5-30.2-4-42.4-10.6-15-8.3-25.8-41.8-35.4-60.9-18.8-37.4-38.6-68.6-72.5-78.8-12.8-3.9-29.1-5.8-37.8-18.6-11-16.2-11.4-45.5-23.8-62a160.3 160.3 0 0 0-44.4-43.2c0 8.4-7.8 3.6-11 2-5.7-3-11.6-14.8-18-17.1-26.4-10-50.6-26-81.4-19.5-30.5 6.3-49 14.2-74.4-3-11.7-8-25-12.5-35.7-22.3C35.9 160 29 143 12.8 137a395.6 395.6 0 0 0-55.4-16.3c-1 2-1.1 3.7-2 5.7l-82.2 296.8c38.3-1.9 76.5 19.5 113.3 27.5 27.3 5.9 53.5 16.2 81 22.1 57.6 12.5 117 19.5 174.5 32.5 56 12.7 109.7 49.9 168.5 49.1 57-.7 110.9 16.7 167.2 18.2 8.4-31.9-36.5-61.1-51.6-66.6z"/><path fill="#ff7577" d="M325.3 50.1a15 15 0 1 1-15-14.6 14.8 14.8 0 0 1 15 14.6zM169 448.3a10.1 10.1 0 1 1-10.1-10 10 10 0 0 1 10.1 10z"/><ellipse cx="130.7" cy="149.5" fill="#364167" rx="15" ry="14.6"/><path fill="#00b5a9" d="M504.3 265a15 15 0 1 1-15-14.7 14.8 14.8 0 0 1 15 14.7z"/><path fill="#00b4d8" d="M372.5 130.6S381 174 424 178.2c0 0-5-30.8-51.5-47.6zM78.5 262.2s-31 31.5-10.1 69.3c0 0 22.6-21.4 10-69.3z"/></g><path fill="#f3e6d5" d="M299.6 243.3a5.6 5.6 0 0 0-5.7 5.6v29.5a5.7 5.7 0 0 0 11.4 0V249a5.7 5.7 0 0 0-5.7-5.6zm-92.1 0a5.6 5.6 0 0 0-5.7 5.6v29.5a5.7 5.7 0 1 0 11.3 0V249a5.6 5.6 0 0 0-5.6-5.6zm161.6.1a5.6 5.6 0 0 0 5.7-5.6v-29.5a5.7 5.7 0 0 0-11.4 0v29.5a5.6 5.6 0 0 0 5.7 5.6zm-35 0a5.6 5.6 0 0 0 5.7-5.6v-29.5a5.7 5.7 0 0 0-11.4 0v29.5a5.6 5.6 0 0 0 5.7 5.6zm70.4 0a5.6 5.6 0 0 0 5.6-5.6v-29.5a5.7 5.7 0 1 0-11.3 0v29.5a5.6 5.6 0 0 0 5.7 5.6zm-262.8 0a5.6 5.6 0 0 0 5.6-5.6v-29.5a5.7 5.7 0 0 0-11.3 0v29.5a5.7 5.7 0 0 0 5.7 5.6zm-35 0a5.6 5.6 0 0 0 5.6-5.6v-29.5a5.7 5.7 0 1 0-11.3 0v29.5a5.7 5.7 0 0 0 5.7 5.6zm70.4 0a5.6 5.6 0 0 0 5.7-5.6v-29.5a5.7 5.7 0 0 0-11.4 0v29.5a5.6 5.6 0 0 0 5.7 5.6zm269.3 82.4H419V182.1a3 3 0 0 0-2.1-2.9l-25.7-8a3.1 3.1 0 0 0-2-.8H349a3.1 3.1 0 0 0-.8.2 3.3 3.3 0 0 0-1.7 0l-27.8 8.6a3 3 0 0 0-2.2 3v12.4h-.2v-37.4h3.8a3 3 0 0 0 3-3v-10.5a3 3 0 0 0-3-3h-14.9l-6.2-9.5a3 3 0 0 0-2.5-1.4h-84a3 3 0 0 0-2.6 1.4l-6.2 9.5h-14.9a3 3 0 0 0-3 3v10.5a3 3 0 0 0 3 3h3.8v37.4h-.3V189a4.7 4.7 0 0 0-.1-.9 4.7 4.7 0 0 0 0-.9v-6.8a3 3 0 0 0-2-3l-25.7-8a3.1 3.1 0 0 0-2-.7h-40.3a3.6 3.6 0 0 0-.8.1 3.3 3.3 0 0 0-1.7 0l-27.8 8.8a3 3 0 0 0-2.1 2.8v6.9a4.8 4.8 0 0 0 0 .9 4.8 4.8 0 0 0 0 1v136.8H62.4a3 3 0 0 0 0 6h58.2a3.1 3.1 0 0 0 .8 0 3 3 0 0 0 .8 0h67a3 3 0 0 0 3-3v-.5h124.3v.5a3 3 0 0 0 3 3h27.8a3 3 0 0 0 .8 0 3.6 3.6 0 0 0 .8 0h97.4a3 3 0 0 0 3-3 2.9 2.9 0 0 0-2.9-3zm-328.8 0H95.9V192h21.7v133.8zm0-141.6H95.9v-1.6l21.7-6.8zm40.8 141.6h-33.1V192h33.1v133.8zm0-141.6h-33.1v-9.5h33.1zm27.8 141.6h-20.7V192h20.7v133.8zm0-141.6h-20.7V176l20.7 6.5zm28-48.3h80.7l2.8 4.3h-86.4zM191.8 151v-4.3h125.2v4.3zm117.2 33.2a3 3 0 0 0-2.2-.9h-5a2.9 2.9 0 0 0 .6-1.8v-13.3a10.2 10.2 0 0 0-5.3-8.8 17.9 17.9 0 0 0-1.9-1h15v36.1h-.5a2.5 2.5 0 0 0 .2-1v-7.2a3.1 3.1 0 0 0-1-2.1zm-11.7 30.1h1.4a2.9 2.9 0 0 0-.6 1.7v10.5a3 3 0 0 0 1 2.1v.1H296a3 3 0 0 0 1-2.2v-10a.3.3 0 0 0 0-.3 3 3 0 0 0 .3-.7 2.7 2.7 0 0 0 0-1.2zM208 190.6h-3v-1.2h99v1.2zm81.5 38.1l-3 .1a3 3 0 0 0 .9-2.2V218h1.2v8.6a3.4 3.4 0 0 0 1 2.1zm-71.3-20.4v-.4-.6l-.2-1.2-.1-.7-.2-1-.2-.8a6.8 6.8 0 0 0-.3-1 3 3 0 0 0-.2-.7l-.4-1-.3-.6c0-.3-.3-.7-.4-1l-.3-.6-.5-1a5.5 5.5 0 0 0-.4-1h79.9l-.3.5a3.5 3.5 0 0 1-.4.5l-.5 1-.3.5a5.4 5.4 0 0 0-.4 1l-.3.7-.4 1a3 3 0 0 1-.2.7l-.3 1-.2.7-.2 1.1-.1.7a8.4 8.4 0 0 0-.1 1.2v1zm61.7 20.4l-3 .1a3 3 0 0 0 .9-2.2V218h1.2v8.6a3.4 3.4 0 0 0 1 2.1zm-9.5 0l-3 .1a3 3 0 0 0 .8-2.2V218h1.3v8.6a2.9 2.9 0 0 0 .9 2.1zm-9.6 0l-3 .1a3 3 0 0 0 .8-2.2V218h1.3v8.6a3.1 3.1 0 0 0 .9 2.1zm-9.6 0l-3 .1a3 3 0 0 0 .9-2.2V218h1.2v8.6a3.4 3.4 0 0 0 .9 2.1zm-9.6 0l-3 .1a3 3 0 0 0 .9-2.2V218h1.2v8.6a3.4 3.4 0 0 0 1 2.1zm-9.6 0l-3 .1a3 3 0 0 0 .9-2.2V218h1.2v8.6a3.4 3.4 0 0 0 1 2.1zm-9.5 0l-3 .1a3.1 3.1 0 0 0 .9-2.2V218h1.2v8.6a2.6 2.6 0 0 0 .9 2.1zm-19.2 0l-3.2.1v-14.4h2.9a2.9 2.9 0 0 0-.6 1.7v10.5a3 3 0 0 0 .9 2.1zm-6.3-20.4a3 3 0 0 0-2.1.9 3.5 3.5 0 0 0-.8 1.5v-9.9a3 3 0 0 0 1.6.5H210a12.2 12.2 0 0 1 .6 1.2 2.2 2.2 0 0 0 .2.6 11.2 11.2 0 0 1 .5 1.5l.2.7a14.5 14.5 0 0 1 .3 1.6l.1.6a3.8 3.8 0 0 1 0 .9h-15zm10-25h-5a3 3 0 0 0-3 3v7.3a2.5 2.5 0 0 0 .2 1h-.5v-36h15a17.8 17.8 0 0 0-2 .8 10 10 0 0 0-5.2 8.8v13.3a2.7 2.7 0 0 0 .5 1.9zm2.9 45.4a3.1 3.1 0 0 0 .9-2.1V216a2.9 2.9 0 0 0-.6-1.7h1.5a1.7 1.7 0 0 0-.1.6 3 3 0 0 0 .5 1.6v10a3 3 0 0 0 .9 2.1h-3.1zm4.6-52.3v-8c0-1 .4-1.3 1.3-1.9a7.4 7.4 0 0 1 1.3-.6 7.3 7.3 0 0 1 1.6.8 2 2 0 0 1 1 1.7v8zm6-17.8h11.9a17.9 17.9 0 0 0-2 .9 10.4 10.4 0 0 0-4 4 11.3 11.3 0 0 0-4-4l-1.9-1zm12.7 17.7v-8c0-1 .4-1.2 1.3-1.9a7.4 7.4 0 0 1 1.3-.5 7.3 7.3 0 0 1 1.6.7 2 2 0 0 1 1 1.7v8zm6-17.7h11.9a17.8 17.8 0 0 0-2 .9 10.9 10.9 0 0 0-4 4 11.3 11.3 0 0 0-4-4l-1.9-1zm12.7 17.8v-8c.1-1 .4-1.3 1.3-2a7.4 7.4 0 0 1 1.3-.5 5.9 5.9 0 0 1 1.6.8c.6.5 1 .8 1 1.7v8zm6-17.8h11.9a17.8 17.8 0 0 0-2 .9 10.4 10.4 0 0 0-4 4 11 11 0 0 0-4-4 17.8 17.8 0 0 0-1.9-1zm12.7 17.8v-8c.1-1 .4-1.3 1.3-2a7.4 7.4 0 0 1 1.3-.5 7.3 7.3 0 0 1 1.6.8 2 2 0 0 1 1 1.7v8zm6-17.8h11.9a17.9 17.9 0 0 0-2 .9 10.4 10.4 0 0 0-4 4 11.3 11.3 0 0 0-4-4l-1.9-1zm12.7 17.8v-8c0-1 .4-1.3 1.3-2a7.4 7.4 0 0 1 1.3-.5 7.3 7.3 0 0 1 1.6.8c.7.5 1 .8 1 1.7v8zm-37.9 145.8h-22.9v-2.5h23zm0-8.6h-22.9v-10.4h23zm0-16.5h-22.9v-8.6h23zm0-14.7h-22.9v-7.8h23zm0-14h-22.8c.5-9.8 6.2-15.4 13-19.6a45 45 0 0 1 9.5-4.1.6.6 0 0 1 .3 0v23.8zm29 53.8h-22.9v-2.5h23zm0-8.6h-22.9v-10.4h23zm0-16.5h-22.9v-8.6h23zm0-14.7h-22.9v-7.8h23zm-22.9-14v-23.8h.3a42 42 0 0 1 14.6 7.8c4.4 3.9 7.6 8.7 8 16h-22.9zm57.4 53.9h-28.3v-52.7a28 28 0 0 0-10.2-21.8l-2 2.3 2-2.3a48.3 48.3 0 0 0-16.8-9 37.7 37.7 0 0 0-4.5-1 3.7 3.7 0 0 0-1.1 0 41 41 0 0 0-4.6 1 51.7 51.7 0 0 0-10.9 4.8c-7.9 4.6-16 12.8-16 26v52.7H194v-89.8a3.5 3.5 0 0 0 .8 1.5 3 3 0 0 0 2.2.8H312a3 3 0 0 0 2.1-.8 3.3 3.3 0 0 0 .8-1.4v89.7zM306 214.4h2.9v14.4h-3.3a3 3 0 0 0 1-2.2V216a2.9 2.9 0 0 0-.6-1.7zm8.9-3.7a3 3 0 0 0-.8-1.5 3 3 0 0 0-2.2-.8h-15a3.5 3.5 0 0 1 0-.8 2.6 2.6 0 0 1 .2-.7 13.5 13.5 0 0 1 .3-1.5l.2-.8a9.5 9.5 0 0 1 .5-1.4l.2-.6a12.2 12.2 0 0 1 .6-1.3h14.4a3.6 3.6 0 0 0 1.6-.4v9.8zm29.4 115.1h-21.7V192h21.7v133.8zm0-139.9h-21.7v-1.6l21.7-6.7zm40.8 140H352V192h33.1v133.8zm1-140H352v-9.4h34.2zm6.1-8l20.7 6.4v1.6h-20.7zm20.7 148h-20.7V192H413v133.8z" data-name="&lt;Compound Path&gt;"/></svg>